<svg width="225" height="300" viewBox="0 0 225 300" fill="none" xmlns="http://www.w3.org/2000/svg">
    <rect class="seat" id="a1" x="0" y="0" width="10" height="10" fill="#E1E1E1" />
    <rect class="seat" id="a2" x="15" y="0" width="10" height="10" fill="#E1E1E1" />
    <rect class="seat" id="a3" x="30" y="0" width="10" height="10" fill="#E1E1E1" />
    <rect class="seat" id="a4" x="45" y="0" width="10" height="10" fill="#E1E1E1" />
    <rect class="seat" id="a5" x="60" y="0" width="10" height="10" fill="#E1E1E1" />
    <rect class="seat" id="a6" x="75" y="0" width="10" height="10" fill="#E1E1E1" />
    <rect class="seat" id="a7" x="90" y="0" width="10" height="10" fill="#E1E1E1" />
    <rect class="seat" id="a8" x="105" y="0" width="10" height="10" fill="#E1E1E1" />
    <rect class="seat" id="a9" x="120" y="0" width="10" height="10" fill="#E1E1E1" />
    <rect class="seat" id="a10" x="135" y="0" width="10" height="10" fill="#E1E1E1" />
    <rect class="seat" id="a11" x="150" y="0" width="10" height="10" fill="#E1E1E1" />
    <rect class="seat" id="a12" x="165" y="0" width="10" height="10" fill="#E1E1E1" />
    <rect class="seat" id="a13" x="180" y="0" width="10" height="10" fill="#E1E1E1" />
    <rect class="seat" id="a14" x="195" y="0" width="10" height="10" fill="#E1E1E1" />
    <rect class="seat" id="a15" x="210" y="0" width="10" height="10" fill="#E1E1E1" />
    <rect class="seat" id="b1" x="0" y="15" width="10" height="10" fill="#E1E1E1" />
    <rect class="seat" id="b2" x="15" y="15" width="10" height="10" fill="#E1E1E1" />
    <rect class="seat" id="b3" x="30" y="15" width="10" height="10" fill="#E1E1E1" />
    <rect class="seat" id="b4" x="45" y="15" width="10" height="10" fill="#E1E1E1" />
    <rect class="seat" id="b5" x="60" y="15" width="10" height="10" fill="#E1E1E1" />
    <rect class="seat" id="b6" x="75" y="15" width="10" height="10" fill="#E1E1E1" />
    <rect class="seat" id="b7" x="90" y="15" width="10" height="10" fill="#E1E1E1" />
    <rect class="seat" id="b8" x="105" y="15" width="10" height="10" fill="#E1E1E1" />
    <rect class="seat" id="b9" x="120" y="15" width="10" height="10" fill="#E1E1E1" />
    <rect class="seat" id="b10" x="135" y="15" width="10" height="10" fill="#E1E1E1" />
    <rect class="seat" id="b11" x="150" y="15" width="10" height="10" fill="#E1E1E1" />
    <rect class="seat" id="b12" x="165" y="15" width="10" height="10" fill="#E1E1E1" />
    <rect class="seat" id="b13" x="180" y="15" width="10" height="10" fill="#E1E1E1" />
    <rect class="seat" id="b14" x="195" y="15" width="10" height="10" fill="#E1E1E1" />
    <rect class="seat" id="b15" x="210" y="15" width="10" height="10" fill="#E1E1E1" />
    <rect class="seat" id="c1" x="0" y="30" width="10" height="10" fill="#E1E1E1" />
    <rect class="seat" id="c2" x="15" y="30" width="10" height="10" fill="#E1E1E1" />
    <rect class="seat" id="c3" x="30" y="30" width="10" height="10" fill="#E1E1E1" />
    <rect class="seat" id="c4" x="45" y="30" width="10" height="10" fill="#E1E1E1" />
    <rect class="seat" id="c5" x="60" y="30" width="10" height="10" fill="#E1E1E1" />
    <rect class="seat" id="c6" x="75" y="30" width="10" height="10" fill="#E1E1E1" />
    <rect class="seat" id="c7" x="90" y="30" width="10" height="10" fill="#E1E1E1" />
    <rect class="seat" id="c8" x="105" y="30" width="10" height="10" fill="#E1E1E1" />
    <rect class="seat" id="c9" x="120" y="30" width="10" height="10" fill="#E1E1E1" />
    <rect class="seat" id="c10" x="135" y="30" width="10" height="10" fill="#E1E1E1" />
    <rect class="seat" id="c11" x="150" y="30" width="10" height="10" fill="#E1E1E1" />
    <rect class="seat" id="c12" x="165" y="30" width="10" height="10" fill="#E1E1E1" />
    <rect class="seat" id="c13" x="180" y="30" width="10" height="10" fill="#E1E1E1" />
    <rect class="seat" id="c14" x="195" y="30" width="10" height="10" fill="#E1E1E1" />
    <rect class="seat" id="c15" x="210" y="30" width="10" height="10" fill="#E1E1E1" />
    <rect class="seat" id="d1" x="0" y="45" width="10" height="10" fill="#E1E1E1" />
    <rect class="seat" id="d2" x="15" y="45" width="10" height="10" fill="#E1E1E1" />
    <rect class="seat" id="d3" x="30" y="45" width="10" height="10" fill="#E1E1E1" />
    <rect class="seat" id="d4" x="45" y="45" width="10" height="10" fill="#E1E1E1" />
    <rect class="seat" id="d5" x="60" y="45" width="10" height="10" fill="#E1E1E1" />
    <rect class="seat" id="d6" x="75" y="45" width="10" height="10" fill="#E1E1E1" />
    <rect class="seat" id="d7" x="90" y="45" width="10" height="10" fill="#E1E1E1" />
    <rect class="seat" id="d8" x="105" y="45" width="10" height="10" fill="#E1E1E1" />
    <rect class="seat" id="d9" x="120" y="45" width="10" height="10" fill="#E1E1E1" />
    <rect class="seat" id="d10" x="135" y="45" width="10" height="10" fill="#E1E1E1" />
    <rect class="seat" id="d11" x="150" y="45" width="10" height="10" fill="#E1E1E1" />
    <rect class="seat" id="d12" x="165" y="45" width="10" height="10" fill="#E1E1E1" />
    <rect class="seat" id="d13" x="180" y="45" width="10" height="10" fill="#E1E1E1" />
    <rect class="seat" id="d14" x="195" y="45" width="10" height="10" fill="#E1E1E1" />
    <rect class="seat" id="d15" x="210" y="45" width="10" height="10" fill="#E1E1E1" />
    <rect class="seat" id="e1" x="0" y="60" width="10" height="10" fill="#E1E1E1" />
    <rect class="seat" id="e2" x="15" y="60" width="10" height="10" fill="#E1E1E1" />
    <rect class="seat" id="e3" x="30" y="60" width="10" height="10" fill="#E1E1E1" />
    <rect class="seat" id="e4" x="45" y="60" width="10" height="10" fill="#E1E1E1" />
    <rect class="seat" id="e5" x="60" y="60" width="10" height="10" fill="#E1E1E1" />
    <rect class="seat" id="e6" x="75" y="60" width="10" height="10" fill="#E1E1E1" />
    <rect class="seat" id="e7" x="90" y="60" width="10" height="10" fill="#E1E1E1" />
    <rect class="seat" id="e8" x="105" y="60" width="10" height="10" fill="#E1E1E1" />
    <rect class="seat" id="e9" x="120" y="60" width="10" height="10" fill="#E1E1E1" />
    <rect class="seat" id="e10" x="135" y="60" width="10" height="10" fill="#E1E1E1" />
    <rect class="seat" id="e11" x="150" y="60" width="10" height="10" fill="#E1E1E1" />
    <rect class="seat" id="e12" x="165" y="60" width="10" height="10" fill="#E1E1E1" />
    <rect class="seat" id="e13" x="180" y="60" width="10" height="10" fill="#E1E1E1" />
    <rect class="seat" id="e14" x="195" y="60" width="10" height="10" fill="#E1E1E1" />
    <rect class="seat" id="e15" x="210" y="60" width="10" height="10" fill="#E1E1E1" />
    <rect class="seat" id="f1" x="0" y="75" width="10" height="10" fill="#E1E1E1" />
    <rect class="seat" id="f2" x="15" y="75" width="10" height="10" fill="#E1E1E1" />
    <rect class="seat" id="f3" x="30" y="75" width="10" height="10" fill="#E1E1E1" />
    <rect class="seat" id="f4" x="45" y="75" width="10" height="10" fill="#E1E1E1" />
    <rect class="seat" id="f5" x="60" y="75" width="10" height="10" fill="#E1E1E1" />
    <rect class="seat" id="f6" x="75" y="75" width="10" height="10" fill="#E1E1E1" />
    <rect class="seat" id="f7" x="90" y="75" width="10" height="10" fill="#E1E1E1" />
    <rect class="seat" id="f8" x="105" y="75" width="10" height="10" fill="#E1E1E1" />
    <rect class="seat" id="f9" x="120" y="75" width="10" height="10" fill="#E1E1E1" />
    <rect class="seat" id="f10" x="135" y="75" width="10" height="10" fill="#E1E1E1" />
    <rect class="seat" id="f11" x="150" y="75" width="10" height="10" fill="#E1E1E1" />
    <rect class="seat" id="f12" x="165" y="75" width="10" height="10" fill="#E1E1E1" />
    <rect class="seat" id="f13" x="180" y="75" width="10" height="10" fill="#E1E1E1" />
    <rect class="seat" id="f14" x="195" y="75" width="10" height="10" fill="#E1E1E1" />
    <rect class="seat" id="f15" x="210" y="75" width="10" height="10" fill="#E1E1E1" />
    <rect class="seat" id="g1" x="0" y="90" width="10" height="10" fill="#E1E1E1" />
    <rect class="seat" id="g2" x="15" y="90" width="10" height="10" fill="#E1E1E1" />
    <rect class="seat" id="g3" x="30" y="90" width="10" height="10" fill="#E1E1E1" />
    <rect class="seat" id="g4" x="45" y="90" width="10" height="10" fill="#E1E1E1" />
    <rect class="seat" id="g5" x="60" y="90" width="10" height="10" fill="#E1E1E1" />
    <rect class="seat" id="g6" x="75" y="90" width="10" height="10" fill="#E1E1E1" />
    <rect class="seat" id="g7" x="90" y="90" width="10" height="10" fill="#E1E1E1" />
    <rect class="seat" id="g8" x="105" y="90" width="10" height="10" fill="#E1E1E1" />
    <rect class="seat" id="g9" x="120" y="90" width="10" height="10" fill="#E1E1E1" />
    <rect class="seat" id="g10" x="135" y="90" width="10" height="10" fill="#E1E1E1" />
    <rect class="seat" id="g11" x="150" y="90" width="10" height="10" fill="#E1E1E1" />
    <rect class="seat" id="g12" x="165" y="90" width="10" height="10" fill="#E1E1E1" />
    <rect class="seat" id="g13" x="180" y="90" width="10" height="10" fill="#E1E1E1" />
    <rect class="seat" id="g14" x="195" y="90" width="10" height="10" fill="#E1E1E1" />
    <rect class="seat" id="g15" x="210" y="90" width="10" height="10" fill="#E1E1E1" />
    <rect class="seat" id="h1" x="0" y="105" width="10" height="10" fill="#E1E1E1" />
    <rect class="seat" id="h2" x="15" y="105" width="10" height="10" fill="#E1E1E1" />
    <rect class="seat" id="h3" x="30" y="105" width="10" height="10" fill="#E1E1E1" />
    <rect class="seat" id="h4" x="45" y="105" width="10" height="10" fill="#E1E1E1" />
    <rect class="seat" id="h5" x="60" y="105" width="10" height="10" fill="#E1E1E1" />
    <rect class="seat" id="h6" x="75" y="105" width="10" height="10" fill="#E1E1E1" />
    <rect class="seat" id="h7" x="90" y="105" width="10" height="10" fill="#E1E1E1" />
    <rect class="seat" id="h8" x="105" y="105" width="10" height="10" fill="#E1E1E1" />
    <rect class="seat" id="h9" x="120" y="105" width="10" height="10" fill="#E1E1E1" />
    <rect class="seat" id="h10" x="135" y="105" width="10" height="10" fill="#E1E1E1" />
    <rect class="seat" id="h11" x="150" y="105" width="10" height="10" fill="#E1E1E1" />
    <rect class="seat" id="h12" x="165" y="105" width="10" height="10" fill="#E1E1E1" />
    <rect class="seat" id="h13" x="180" y="105" width="10" height="10" fill="#E1E1E1" />
    <rect class="seat" id="h14" x="195" y="105" width="10" height="10" fill="#E1E1E1" />
    <rect class="seat" id="h15" x="210" y="105" width="10" height="10" fill="#E1E1E1" />
    <rect class="seat" id="i1" x="0" y="120" width="10" height="10" fill="#E1E1E1" />
    <rect class="seat" id="i2" x="15" y="120" width="10" height="10" fill="#E1E1E1" />
    <rect class="seat" id="i3" x="30" y="120" width="10" height="10" fill="#E1E1E1" />
    <rect class="seat" id="i4" x="45" y="120" width="10" height="10" fill="#E1E1E1" />
    <rect class="seat" id="i5" x="60" y="120" width="10" height="10" fill="#E1E1E1" />
    <rect class="seat" id="i6" x="75" y="120" width="10" height="10" fill="#E1E1E1" />
    <rect class="seat" id="i7" x="90" y="120" width="10" height="10" fill="#E1E1E1" />
    <rect class="seat" id="i8" x="105" y="120" width="10" height="10" fill="#E1E1E1" />
    <rect class="seat" id="i9" x="120" y="120" width="10" height="10" fill="#E1E1E1" />
    <rect class="seat" id="i10" x="135" y="120" width="10" height="10" fill="#E1E1E1" />
    <rect class="seat" id="i11" x="150" y="120" width="10" height="10" fill="#E1E1E1" />
    <rect class="seat" id="i12" x="165" y="120" width="10" height="10" fill="#E1E1E1" />
    <rect class="seat" id="i13" x="180" y="120" width="10" height="10" fill="#E1E1E1" />
    <rect class="seat" id="i14" x="195" y="120" width="10" height="10" fill="#E1E1E1" />
    <rect class="seat" id="i15" x="210" y="120" width="10" height="10" fill="#E1E1E1" />
    <rect class="seat" id="j1" x="0" y="135" width="10" height="10" fill="#E1E1E1" />
    <rect class="seat" id="j2" x="15" y="135" width="10" height="10" fill="#E1E1E1" />
    <rect class="seat" id="j3" x="30" y="135" width="10" height="10" fill="#E1E1E1" />
    <rect class="seat" id="j4" x="45" y="135" width="10" height="10" fill="#E1E1E1" />
    <rect class="seat" id="j5" x="60" y="135" width="10" height="10" fill="#E1E1E1" />
    <rect class="seat" id="j6" x="75" y="135" width="10" height="10" fill="#E1E1E1" />
    <rect class="seat" id="j7" x="90" y="135" width="10" height="10" fill="#E1E1E1" />
    <rect class="seat" id="j8" x="105" y="135" width="10" height="10" fill="#E1E1E1" />
    <rect class="seat" id="j9" x="120" y="135" width="10" height="10" fill="#E1E1E1" />
    <rect class="seat" id="j10" x="135" y="135" width="10" height="10" fill="#E1E1E1" />
    <rect class="seat" id="j11" x="150" y="135" width="10" height="10" fill="#E1E1E1" />
    <rect class="seat" id="j12" x="165" y="135" width="10" height="10" fill="#E1E1E1" />
    <rect class="seat" id="j13" x="180" y="135" width="10" height="10" fill="#E1E1E1" />
    <rect class="seat" id="j14" x="195" y="135" width="10" height="10" fill="#E1E1E1" />
    <rect class="seat" id="j15" x="210" y="135" width="10" height="10" fill="#E1E1E1" />
    <rect class="seat" id="k1" x="0" y="150" width="10" height="10" fill="#E1E1E1" />
    <rect class="seat" id="k2" x="15" y="150" width="10" height="10" fill="#E1E1E1" />
    <rect class="seat" id="k3" x="30" y="150" width="10" height="10" fill="#E1E1E1" />
    <rect class="seat" id="k4" x="45" y="150" width="10" height="10" fill="#E1E1E1" />
    <rect class="seat" id="k5" x="60" y="150" width="10" height="10" fill="#E1E1E1" />
    <rect class="seat" id="k6" x="75" y="150" width="10" height="10" fill="#E1E1E1" />
    <rect class="seat" id="k7" x="90" y="150" width="10" height="10" fill="#E1E1E1" />
    <rect class="seat" id="k8" x="105" y="150" width="10" height="10" fill="#E1E1E1" />
    <rect class="seat" id="k9" x="120" y="150" width="10" height="10" fill="#E1E1E1" />
    <rect class="seat" id="k10" x="135" y="150" width="10" height="10" fill="#E1E1E1" />
    <rect class="seat" id="k11" x="150" y="150" width="10" height="10" fill="#E1E1E1" />
    <rect class="seat" id="k12" x="165" y="150" width="10" height="10" fill="#E1E1E1" />
    <rect class="seat" id="k13" x="180" y="150" width="10" height="10" fill="#E1E1E1" />
    <rect class="seat" id="k14" x="195" y="150" width="10" height="10" fill="#E1E1E1" />
    <rect class="seat" id="k15" x="210" y="150" width="10" height="10" fill="#E1E1E1" />
    <rect class="seat" id="l1" x="0" y="165" width="10" height="10" fill="#E1E1E1" />
    <rect class="seat" id="l2" x="15" y="165" width="10" height="10" fill="#E1E1E1" />
    <rect class="seat" id="l3" x="30" y="165" width="10" height="10" fill="#E1E1E1" />
    <rect class="seat" id="l4" x="45" y="165" width="10" height="10" fill="#E1E1E1" />
    <rect class="seat" id="l5" x="60" y="165" width="10" height="10" fill="#E1E1E1" />
    <rect class="seat" id="l6" x="75" y="165" width="10" height="10" fill="#E1E1E1" />
    <rect class="seat" id="l7" x="90" y="165" width="10" height="10" fill="#E1E1E1" />
    <rect class="seat" id="l8" x="105" y="165" width="10" height="10" fill="#E1E1E1" />
    <rect class="seat" id="l9" x="120" y="165" width="10" height="10" fill="#E1E1E1" />
    <rect class="seat" id="l10" x="135" y="165" width="10" height="10" fill="#E1E1E1" />
    <rect class="seat" id="l11" x="150" y="165" width="10" height="10" fill="#E1E1E1" />
    <rect class="seat" id="l12" x="165" y="165" width="10" height="10" fill="#E1E1E1" />
    <rect class="seat" id="l13" x="180" y="165" width="10" height="10" fill="#E1E1E1" />
    <rect class="seat" id="l14" x="195" y="165" width="10" height="10" fill="#E1E1E1" />
    <rect class="seat" id="l15" x="210" y="165" width="10" height="10" fill="#E1E1E1" />
    <rect class="seat" id="m1" x="0" y="180" width="10" height="10" fill="#E1E1E1" />
    <rect class="seat" id="m2" x="15" y="180" width="10" height="10" fill="#E1E1E1" />
    <rect class="seat" id="m3" x="30" y="180" width="10" height="10" fill="#E1E1E1" />
    <rect class="seat" id="m4" x="45" y="180" width="10" height="10" fill="#E1E1E1" />
    <rect class="seat" id="m5" x="60" y="180" width="10" height="10" fill="#E1E1E1" />
    <rect class="seat" id="m6" x="75" y="180" width="10" height="10" fill="#E1E1E1" />
    <rect class="seat" id="m7" x="90" y="180" width="10" height="10" fill="#E1E1E1" />
    <rect class="seat" id="m8" x="105" y="180" width="10" height="10" fill="#E1E1E1" />
    <rect class="seat" id="m9" x="120" y="180" width="10" height="10" fill="#E1E1E1" />
    <rect class="seat" id="m10" x="135" y="180" width="10" height="10" fill="#E1E1E1" />
    <rect class="seat" id="m11" x="150" y="180" width="10" height="10" fill="#E1E1E1" />
    <rect class="seat" id="m12" x="165" y="180" width="10" height="10" fill="#E1E1E1" />
    <rect class="seat" id="m13" x="180" y="180" width="10" height="10" fill="#E1E1E1" />
    <rect class="seat" id="m14" x="195" y="180" width="10" height="10" fill="#E1E1E1" />
    <rect class="seat" id="m15" x="210" y="180" width="10" height="10" fill="#E1E1E1" />
    <rect class="seat" id="n1" x="0" y="195" width="10" height="10" fill="#E1E1E1" />
    <rect class="seat" id="n2" x="15" y="195" width="10" height="10" fill="#E1E1E1" />
    <rect class="seat" id="n3" x="30" y="195" width="10" height="10" fill="#E1E1E1" />
    <rect class="seat" id="n4" x="45" y="195" width="10" height="10" fill="#E1E1E1" />
    <rect class="seat" id="n5" x="60" y="195" width="10" height="10" fill="#E1E1E1" />
    <rect class="seat" id="n6" x="75" y="195" width="10" height="10" fill="#E1E1E1" />
    <rect class="seat" id="n7" x="90" y="195" width="10" height="10" fill="#E1E1E1" />
    <rect class="seat" id="n8" x="105" y="195" width="10" height="10" fill="#E1E1E1" />
    <rect class="seat" id="n9" x="120" y="195" width="10" height="10" fill="#E1E1E1" />
    <rect class="seat" id="n10" x="135" y="195" width="10" height="10" fill="#E1E1E1" />
    <rect class="seat" id="n11" x="150" y="195" width="10" height="10" fill="#E1E1E1" />
    <rect class="seat" id="n12" x="165" y="195" width="10" height="10" fill="#E1E1E1" />
    <rect class="seat" id="n13" x="180" y="195" width="10" height="10" fill="#E1E1E1" />
    <rect class="seat" id="n14" x="195" y="195" width="10" height="10" fill="#E1E1E1" />
    <rect class="seat" id="n15" x="210" y="195" width="10" height="10" fill="#E1E1E1" />
    <rect class="seat" id="o1" x="0" y="210" width="10" height="10" fill="#E1E1E1" />
    <rect class="seat" id="o2" x="15" y="210" width="10" height="10" fill="#E1E1E1" />
    <rect class="seat" id="o3" x="30" y="210" width="10" height="10" fill="#E1E1E1" />
    <rect class="seat" id="o4" x="45" y="210" width="10" height="10" fill="#E1E1E1" />
    <rect class="seat" id="o5" x="60" y="210" width="10" height="10" fill="#E1E1E1" />
    <rect class="seat" id="o6" x="75" y="210" width="10" height="10" fill="#E1E1E1" />
    <rect class="seat" id="o7" x="90" y="210" width="10" height="10" fill="#E1E1E1" />
    <rect class="seat" id="o8" x="105" y="210" width="10" height="10" fill="#E1E1E1" />
    <rect class="seat" id="o9" x="120" y="210" width="10" height="10" fill="#E1E1E1" />
    <rect class="seat" id="o10" x="135" y="210" width="10" height="10" fill="#E1E1E1" />
    <rect class="seat" id="o11" x="150" y="210" width="10" height="10" fill="#E1E1E1" />
    <rect class="seat" id="o12" x="165" y="210" width="10" height="10" fill="#E1E1E1" />
    <rect class="seat" id="o13" x="180" y="210" width="10" height="10" fill="#E1E1E1" />
    <rect class="seat" id="o14" x="195" y="210" width="10" height="10" fill="#E1E1E1" />
    <rect class="seat" id="o15" x="210" y="210" width="10" height="10" fill="#E1E1E1" />
    <rect class="seat" id="p1" x="0" y="225" width="10" height="10" fill="#E1E1E1" />
    <rect class="seat" id="p2" x="15" y="225" width="10" height="10" fill="#E1E1E1" />
    <rect class="seat" id="p3" x="30" y="225" width="10" height="10" fill="#E1E1E1" />
    <rect class="seat" id="p4" x="45" y="225" width="10" height="10" fill="#E1E1E1" />
    <rect class="seat" id="p5" x="60" y="225" width="10" height="10" fill="#E1E1E1" />
    <rect class="seat" id="p6" x="75" y="225" width="10" height="10" fill="#E1E1E1" />
    <rect class="seat" id="p7" x="90" y="225" width="10" height="10" fill="#E1E1E1" />
    <rect class="seat" id="p8" x="105" y="225" width="10" height="10" fill="#E1E1E1" />
    <rect class="seat" id="p9" x="120" y="225" width="10" height="10" fill="#E1E1E1" />
    <rect class="seat" id="p10" x="135" y="225" width="10" height="10" fill="#E1E1E1" />
    <rect class="seat" id="p11" x="150" y="225" width="10" height="10" fill="#E1E1E1" />
    <rect class="seat" id="p12" x="165" y="225" width="10" height="10" fill="#E1E1E1" />
    <rect class="seat" id="p13" x="180" y="225" width="10" height="10" fill="#E1E1E1" />
    <rect class="seat" id="p14" x="195" y="225" width="10" height="10" fill="#E1E1E1" />
    <rect class="seat" id="p15" x="210" y="225" width="10" height="10" fill="#E1E1E1" />
    <rect class="seat" id="q1" x="0" y="240" width="10" height="10" fill="#E1E1E1" />
    <rect class="seat" id="q2" x="15" y="240" width="10" height="10" fill="#E1E1E1" />
    <rect class="seat" id="q3" x="30" y="240" width="10" height="10" fill="#E1E1E1" />
    <rect class="seat" id="q4" x="45" y="240" width="10" height="10" fill="#E1E1E1" />
    <rect class="seat" id="q5" x="60" y="240" width="10" height="10" fill="#E1E1E1" />
    <rect class="seat" id="q6" x="75" y="240" width="10" height="10" fill="#E1E1E1" />
    <rect class="seat" id="q7" x="90" y="240" width="10" height="10" fill="#E1E1E1" />
    <rect class="seat" id="q8" x="105" y="240" width="10" height="10" fill="#E1E1E1" />
    <rect class="seat" id="q9" x="120" y="240" width="10" height="10" fill="#E1E1E1" />
    <rect class="seat" id="q10" x="135" y="240" width="10" height="10" fill="#E1E1E1" />
    <rect class="seat" id="q11" x="150" y="240" width="10" height="10" fill="#E1E1E1" />
    <rect class="seat" id="q12" x="165" y="240" width="10" height="10" fill="#E1E1E1" />
    <rect class="seat" id="q13" x="180" y="240" width="10" height="10" fill="#E1E1E1" />
    <rect class="seat" id="q14" x="195" y="240" width="10" height="10" fill="#E1E1E1" />
    <rect class="seat" id="q15" x="210" y="240" width="10" height="10" fill="#E1E1E1" />
    <rect class="seat" id="r1" x="0" y="255" width="10" height="10" fill="#E1E1E1" />
    <rect class="seat" id="r2" x="15" y="255" width="10" height="10" fill="#E1E1E1" />
    <rect class="seat" id="r3" x="30" y="255" width="10" height="10" fill="#E1E1E1" />
    <rect class="seat" id="r4" x="45" y="255" width="10" height="10" fill="#E1E1E1" />
    <rect class="seat" id="r5" x="60" y="255" width="10" height="10" fill="#E1E1E1" />
    <rect class="seat" id="r6" x="75" y="255" width="10" height="10" fill="#E1E1E1" />
    <rect class="seat" id="r7" x="90" y="255" width="10" height="10" fill="#E1E1E1" />
    <rect class="seat" id="r8" x="105" y="255" width="10" height="10" fill="#E1E1E1" />
    <rect class="seat" id="r9" x="120" y="255" width="10" height="10" fill="#E1E1E1" />
    <rect class="seat" id="r10" x="135" y="255" width="10" height="10" fill="#E1E1E1" />
    <rect class="seat" id="r11" x="150" y="255" width="10" height="10" fill="#E1E1E1" />
    <rect class="seat" id="r12" x="165" y="255" width="10" height="10" fill="#E1E1E1" />
    <rect class="seat" id="r13" x="180" y="255" width="10" height="10" fill="#E1E1E1" />
    <rect class="seat" id="r14" x="195" y="255" width="10" height="10" fill="#E1E1E1" />
    <rect class="seat" id="r15" x="210" y="255" width="10" height="10" fill="#E1E1E1" />
    <rect class="seat" id="s1" x="0" y="270" width="10" height="10" fill="#E1E1E1" />
    <rect class="seat" id="s2" x="15" y="270" width="10" height="10" fill="#E1E1E1" />
    <rect class="seat" id="s3" x="30" y="270" width="10" height="10" fill="#E1E1E1" />
    <rect class="seat" id="s4" x="45" y="270" width="10" height="10" fill="#E1E1E1" />
    <rect class="seat" id="s5" x="60" y="270" width="10" height="10" fill="#E1E1E1" />
    <rect class="seat" id="s6" x="75" y="270" width="10" height="10" fill="#E1E1E1" />
    <rect class="seat" id="s7" x="90" y="270" width="10" height="10" fill="#E1E1E1" />
    <rect class="seat" id="s8" x="105" y="270" width="10" height="10" fill="#E1E1E1" />
    <rect class="seat" id="s9" x="120" y="270" width="10" height="10" fill="#E1E1E1" />
    <rect class="seat" id="s10" x="135" y="270" width="10" height="10" fill="#E1E1E1" />
    <rect class="seat" id="s11" x="150" y="270" width="10" height="10" fill="#E1E1E1" />
    <rect class="seat" id="s12" x="165" y="270" width="10" height="10" fill="#E1E1E1" />
    <rect class="seat" id="s13" x="180" y="270" width="10" height="10" fill="#E1E1E1" />
    <rect class="seat" id="s14" x="195" y="270" width="10" height="10" fill="#E1E1E1" />
    <rect class="seat" id="s15" x="210" y="270" width="10" height="10" fill="#E1E1E1" />
    <rect class="seat" id="t1" x="0" y="285" width="10" height="10" fill="#E1E1E1" />
    <rect class="seat" id="t2" x="15" y="285" width="10" height="10" fill="#E1E1E1" />
    <rect class="seat" id="t3" x="30" y="285" width="10" height="10" fill="#E1E1E1" />
    <rect class="seat" id="t4" x="45" y="285" width="10" height="10" fill="#E1E1E1" />
    <rect class="seat" id="t5" x="60" y="285" width="10" height="10" fill="#E1E1E1" />
    <rect class="seat" id="t6" x="75" y="285" width="10" height="10" fill="#E1E1E1" />
    <rect class="seat" id="t7" x="90" y="285" width="10" height="10" fill="#E1E1E1" />
    <rect class="seat" id="t8" x="105" y="285" width="10" height="10" fill="#E1E1E1" />
    <rect class="seat" id="t9" x="120" y="285" width="10" height="10" fill="#E1E1E1" />
    <rect class="seat" id="t10" x="135" y="285" width="10" height="10" fill="#E1E1E1" />
    <rect class="seat" id="t11" x="150" y="285" width="10" height="10" fill="#E1E1E1" />
    <rect class="seat" id="t12" x="165" y="285" width="10" height="10" fill="#E1E1E1" />
    <rect class="seat" id="t13" x="180" y="285" width="10" height="10" fill="#E1E1E1" />
    <rect class="seat" id="t14" x="195" y="285" width="10" height="10" fill="#E1E1E1" />
    <rect class="seat" id="t15" x="210" y="285" width="10" height="10" fill="#E1E1E1" />
</svg>
