<svg width="2745" height="2777" viewBox="0 0 2745 2777" fill="none" xmlns="http://www.w3.org/2000/svg">
<rect x="1525" y="2346" width="300" height="350.621" transform="rotate(-44.3314 1525 2346)" fill="#FEA82F"/>
<path d="M1710.18 2387.33C1707.53 2389.92 1704.72 2391.78 1701.75 2392.89C1698.78 2393.98 1695.92 2394.31 1693.14 2393.86C1690.37 2393.4 1687.93 2392.12 1685.82 2390.03L1693.58 2382.46C1694.49 2383.3 1695.55 2383.8 1696.74 2383.96C1697.93 2384.09 1699.16 2383.9 1700.42 2383.38C1701.68 2382.87 1702.87 2382.06 1704 2380.96C1705.17 2379.82 1706.01 2378.6 1706.5 2377.3C1707 2376.01 1707.14 2374.74 1706.93 2373.51C1706.73 2372.28 1706.15 2371.18 1705.22 2370.22C1704.27 2369.25 1703.15 2368.65 1701.88 2368.44C1700.6 2368.2 1699.25 2368.36 1697.83 2368.92C1696.42 2369.47 1695.02 2370.41 1693.65 2371.75L1690.25 2375.07L1684.73 2369.42L1688.12 2366.1C1689.29 2364.97 1690.11 2363.76 1690.61 2362.49C1691.12 2361.21 1691.27 2359.97 1691.08 2358.77C1690.87 2357.56 1690.29 2356.47 1689.36 2355.51C1688.46 2354.6 1687.46 2354.02 1686.35 2353.76C1685.24 2353.47 1684.11 2353.52 1682.94 2353.89C1681.79 2354.25 1680.7 2354.94 1679.66 2355.95C1678.62 2356.97 1677.85 2358.09 1677.36 2359.31C1676.85 2360.52 1676.67 2361.73 1676.82 2362.93C1676.97 2364.12 1677.48 2365.2 1678.35 2366.16L1670.97 2373.37C1668.96 2371.24 1667.75 2368.8 1667.35 2366.07C1666.95 2363.33 1667.29 2360.55 1668.38 2357.73C1669.46 2354.88 1671.25 2352.24 1673.74 2349.81C1676.26 2347.36 1678.9 2345.67 1681.68 2344.74C1684.45 2343.81 1687.12 2343.61 1689.68 2344.15C1692.24 2344.66 1694.45 2345.88 1696.32 2347.81C1698.32 2349.84 1699.35 2352.16 1699.4 2354.77C1699.46 2357.37 1698.66 2359.85 1696.98 2362.21L1697.25 2362.5C1700.27 2360.22 1703.22 2359.16 1706.1 2359.31C1708.98 2359.44 1711.52 2360.64 1713.72 2362.92C1715.76 2364.98 1716.96 2367.41 1717.33 2370.2C1717.7 2372.99 1717.29 2375.87 1716.08 2378.86C1714.88 2381.84 1712.91 2384.67 1710.18 2387.33ZM1729.24 2367.74L1723.82 2362.19L1725.06 2337.52C1725.12 2335.38 1725.11 2333.52 1725.02 2331.93C1724.95 2330.34 1724.7 2328.94 1724.3 2327.74C1723.88 2326.53 1723.2 2325.44 1722.26 2324.48C1721.22 2323.42 1720.08 2322.73 1718.84 2322.44C1717.59 2322.13 1716.34 2322.18 1715.09 2322.59C1713.83 2322.98 1712.67 2323.7 1711.6 2324.74C1710.49 2325.83 1709.74 2327.01 1709.35 2328.27C1708.96 2329.53 1708.95 2330.8 1709.32 2332.08C1709.69 2333.37 1710.45 2334.59 1711.58 2335.75L1704.27 2342.89C1701.95 2340.51 1700.46 2337.91 1699.83 2335.1C1699.19 2332.29 1699.38 2329.46 1700.39 2326.6C1701.39 2323.74 1703.16 2321.07 1705.7 2318.59C1708.31 2316.05 1711.03 2314.29 1713.87 2313.33C1716.7 2312.34 1719.45 2312.13 1722.12 2312.7C1724.78 2313.27 1727.14 2314.61 1729.19 2316.71C1730.53 2318.08 1731.59 2319.7 1732.35 2321.58C1733.12 2323.44 1733.62 2325.86 1733.85 2328.84C1734.06 2331.8 1734.02 2335.65 1733.75 2340.37L1733.52 2350.77L1733.76 2351.02L1749.06 2336.08L1755.2 2342.38L1729.24 2367.74ZM1775.84 2323.78C1772.77 2326.75 1769.41 2328.57 1765.74 2329.23C1762.09 2329.88 1758.29 2329.37 1754.33 2327.69C1750.39 2326.01 1746.48 2323.16 1742.6 2319.17C1738.72 2315.2 1736 2311.24 1734.45 2307.3C1732.9 2303.34 1732.51 2299.56 1733.28 2295.96C1734.05 2292.34 1735.95 2289.04 1739 2286.06C1742.05 2283.09 1745.39 2281.26 1749.01 2280.59C1752.65 2279.91 1756.43 2280.38 1760.35 2282.02C1764.26 2283.65 1768.15 2286.46 1772.01 2290.44C1775.92 2294.43 1778.66 2298.43 1780.24 2302.42C1781.84 2306.4 1782.27 2310.21 1781.53 2313.84C1780.8 2317.48 1778.9 2320.79 1775.84 2323.78ZM1769.61 2317.39C1771.69 2315.36 1772.33 2312.68 1771.53 2309.37C1770.72 2306.05 1768.27 2302.3 1764.16 2298.12C1761.46 2295.35 1758.93 2293.33 1756.56 2292.05C1754.21 2290.76 1752.07 2290.15 1750.13 2290.24C1748.21 2290.31 1746.55 2291.02 1745.17 2292.38C1743.09 2294.4 1742.45 2297.06 1743.23 2300.35C1744.01 2303.64 1746.42 2307.36 1750.45 2311.51C1753.18 2314.31 1755.74 2316.37 1758.13 2317.7C1760.51 2319 1762.68 2319.62 1764.63 2319.55C1766.56 2319.47 1768.22 2318.75 1769.61 2317.39ZM1714.24 2470.2L1720.85 2463.74L1731.17 2474.31L1724.56 2480.77L1714.24 2470.2ZM1694.41 2443.29C1697.71 2440.06 1701.19 2437.71 1704.83 2436.23C1708.48 2434.69 1711.99 2434.14 1715.35 2434.57C1718.71 2435.01 1721.66 2436.53 1724.2 2439.13C1726.72 2441.7 1728.17 2444.69 1728.56 2448.09C1728.94 2451.5 1728.34 2455.02 1726.75 2458.66C1725.16 2462.24 1722.71 2465.65 1719.4 2468.88C1716.13 2472.07 1712.67 2474.44 1709.02 2475.98C1705.38 2477.46 1701.84 2477.98 1698.41 2477.54C1695.02 2477.07 1692.07 2475.55 1689.55 2472.98C1687.01 2470.38 1685.56 2467.39 1685.2 2464.02C1684.88 2460.62 1685.52 2457.13 1687.11 2453.55C1688.7 2449.9 1691.13 2446.48 1694.41 2443.29ZM1699.54 2448.55C1697.44 2450.6 1695.86 2452.73 1694.81 2454.93C1693.8 2457.09 1693.36 2459.18 1693.5 2461.2C1693.68 2463.18 1694.55 2464.97 1696.11 2466.57C1697.65 2468.14 1699.42 2469.05 1701.43 2469.31C1703.44 2469.5 1705.54 2469.11 1707.73 2468.14C1709.95 2467.15 1712.11 2465.62 1714.22 2463.57C1716.35 2461.48 1717.93 2459.35 1718.94 2457.19C1719.99 2454.99 1720.43 2452.9 1720.26 2450.92C1720.05 2448.9 1719.18 2447.11 1717.65 2445.54C1716.08 2443.94 1714.31 2443.03 1712.33 2442.8C1710.35 2442.58 1708.25 2442.97 1706.03 2443.97C1703.84 2444.93 1701.68 2446.46 1699.54 2448.55ZM1705.91 2496.93L1747.92 2455.89L1753.2 2461.3L1711.19 2502.34L1705.91 2496.93ZM1741.74 2437.76L1744.89 2434.68C1747.13 2432.49 1749.1 2430.53 1750.8 2428.8C1752.51 2427.01 1754.1 2425.26 1755.57 2423.56C1757.04 2421.8 1758.48 2419.97 1759.89 2418.07L1765.53 2422.64C1764.15 2424.64 1762.71 2426.53 1761.21 2428.33C1759.67 2430.1 1758 2431.92 1756.19 2433.82C1754.39 2435.64 1752.33 2437.68 1750.03 2439.93L1746.88 2443.01L1741.74 2437.76ZM1722.37 2418.13L1738.74 2402.13L1753.22 2416.95L1743.36 2426.59L1750.45 2433.85L1744.04 2440.11L1732.15 2427.94L1741.97 2418.36L1737.32 2413.6L1727.41 2423.28L1722.37 2418.13ZM1748.27 2408.68L1756.98 2400.17L1762.21 2405.52L1753.5 2414.03L1748.27 2408.68ZM1750.34 2383.95L1756.7 2377.74L1790.74 2412.59L1784.38 2418.8L1750.34 2383.95ZM1741.86 2393.9L1748.12 2387.79L1780.35 2420.78L1774.09 2426.9L1741.86 2393.9ZM1764.78 2448.52L1797.18 2416.87L1802.41 2422.23L1770.01 2453.88L1764.78 2448.52ZM1756.27 2439.81L1762.98 2433.25L1775.4 2445.97L1768.69 2452.53L1756.27 2439.81ZM1781.61 2367.79L1786.92 2362.6L1792.01 2367.81C1794.61 2370.48 1796.89 2373.38 1798.83 2376.5C1800.81 2379.59 1802.36 2382.81 1803.47 2386.16C1804.59 2389.44 1805.18 2392.75 1805.24 2396.08C1805.27 2399.38 1804.68 2402.59 1803.49 2405.71L1794.55 2404.17C1795.61 2401.38 1796.15 2398.57 1796.18 2395.73C1796.25 2392.86 1795.89 2390.08 1795.09 2387.4C1794.3 2384.65 1793.18 2382.06 1791.72 2379.64C1790.26 2377.14 1788.59 2374.93 1786.7 2372.99L1781.61 2367.79ZM1783.06 2366.37L1788.32 2361.23L1793.41 2366.44C1795.2 2368.28 1797.26 2369.92 1799.59 2371.36C1801.91 2372.74 1804.38 2373.83 1806.97 2374.62C1809.54 2375.37 1812.19 2375.72 1814.93 2375.65C1817.67 2375.58 1820.42 2374.99 1823.17 2373.87L1824.7 2382.75C1821.55 2383.93 1818.36 2384.5 1815.13 2384.46C1811.89 2384.43 1808.68 2383.88 1805.49 2382.82C1802.3 2381.76 1799.25 2380.27 1796.34 2378.35C1793.39 2376.41 1790.66 2374.15 1788.15 2371.58L1783.06 2366.37ZM1769.06 2374.37L1795.1 2348.94L1800.48 2354.44L1774.44 2379.88L1769.06 2374.37ZM1795.1 2340.32L1801.76 2333.82L1847.05 2380.19L1840.39 2386.69L1795.1 2340.32ZM1841.41 2311.91L1850.88 2302.67L1856.16 2308.07L1846.7 2317.32L1841.41 2311.91ZM1822.23 2318.42L1827.69 2313.09L1831.94 2317.44C1834.94 2320.51 1837.3 2323.86 1839 2327.48C1840.71 2331.03 1841.59 2334.73 1841.65 2338.59C1841.73 2342.42 1840.8 2346.27 1838.84 2350.14L1830.2 2348.41C1831.95 2345 1832.88 2341.74 1832.98 2338.64C1833.05 2335.51 1832.51 2332.61 1831.35 2329.96C1830.16 2327.27 1828.54 2324.88 1826.49 2322.77L1822.23 2318.42ZM1823.58 2317.1L1828.99 2311.82L1833.64 2316.57C1835.04 2318.01 1836.63 2319.23 1838.4 2320.24C1840.13 2321.22 1842.02 2321.92 1844.06 2322.34C1846.11 2322.76 1848.25 2322.81 1850.5 2322.51C1852.74 2322.21 1855.08 2321.46 1857.5 2320.27L1859.09 2328.9C1855.37 2330.64 1851.66 2331.45 1847.97 2331.34C1844.31 2331.2 1840.8 2330.32 1837.46 2328.69C1834.11 2327.01 1831.03 2324.73 1828.23 2321.85L1823.58 2317.1ZM1845.48 2349.03L1877.13 2318.12L1893.47 2334.84L1886.76 2341.4L1875.61 2329.98L1850.67 2354.34L1845.48 2349.03ZM1841.46 2295.03L1848.17 2288.48L1875.12 2316.07L1868.42 2322.62L1841.46 2295.03Z" fill="white"/>
<rect x="1754" y="2122" width="300" height="350.621" transform="rotate(-44.3314 1754 2122)" fill="#00C8FF"/>
<path d="M1925.27 2176.41L1919.85 2170.87L1921.09 2146.2C1921.15 2144.06 1921.14 2142.19 1921.05 2140.61C1920.98 2139.02 1920.73 2137.62 1920.33 2136.42C1919.91 2135.21 1919.23 2134.12 1918.29 2133.16C1917.25 2132.09 1916.11 2131.41 1914.87 2131.12C1913.62 2130.81 1912.37 2130.86 1911.12 2131.27C1909.86 2131.66 1908.7 2132.38 1907.63 2133.42C1906.52 2134.51 1905.77 2135.69 1905.38 2136.95C1904.99 2138.21 1904.98 2139.48 1905.35 2140.76C1905.72 2142.04 1906.48 2143.26 1907.61 2144.43L1900.3 2151.56C1897.98 2149.18 1896.49 2146.59 1895.86 2143.78C1895.22 2140.97 1895.41 2138.14 1896.41 2135.28C1897.42 2132.42 1899.19 2129.75 1901.73 2127.27C1904.34 2124.72 1907.06 2122.97 1909.89 2122C1912.73 2121.02 1915.48 2120.81 1918.15 2121.38C1920.81 2121.95 1923.17 2123.28 1925.22 2125.38C1926.56 2126.76 1927.62 2128.38 1928.38 2130.25C1929.15 2132.11 1929.65 2134.53 1929.88 2137.51C1930.09 2140.48 1930.05 2144.32 1929.78 2149.04L1929.55 2159.45L1929.79 2159.7L1945.08 2144.76L1951.23 2151.05L1925.27 2176.41ZM1949.23 2140.5L1943.3 2134.44L1935.11 2095.64L1940.33 2090.53L1948.53 2098.92L1945.44 2101.95L1950.67 2126.48L1950.95 2126.76L1972.56 2105.66L1978.58 2111.83L1949.23 2140.5ZM1972.96 2129.83L1964.9 2121.58L1962.42 2118.76L1937.53 2093.28L1944.74 2086.22L1980.32 2122.64L1972.96 2129.83ZM2005.03 2100.07C2001.96 2103.04 1998.59 2104.86 1994.93 2105.52C1991.27 2106.17 1987.47 2105.66 1983.52 2103.98C1979.58 2102.3 1975.67 2099.45 1971.79 2095.46C1967.91 2091.49 1965.19 2087.53 1963.63 2083.59C1962.08 2079.63 1961.69 2075.85 1962.46 2072.25C1963.23 2068.63 1965.14 2065.33 1968.18 2062.35C1971.23 2059.38 1974.57 2057.55 1978.2 2056.88C1981.84 2056.2 1985.62 2056.67 1989.54 2058.31C1993.44 2059.94 1997.33 2062.75 2001.2 2066.73C2005.1 2070.72 2007.84 2074.72 2009.42 2078.71C2011.02 2082.69 2011.45 2086.5 2010.71 2090.13C2009.98 2093.77 2008.08 2097.08 2005.03 2100.07ZM1998.79 2093.68C2000.88 2091.65 2001.52 2088.97 2000.71 2085.66C1999.91 2082.34 1997.45 2078.59 1993.34 2074.41C1990.64 2071.64 1988.11 2069.62 1985.74 2068.34C1983.39 2067.05 1981.25 2066.44 1979.31 2066.53C1977.39 2066.6 1975.74 2067.31 1974.35 2068.67C1972.28 2070.69 1971.63 2073.35 1972.41 2076.64C1973.19 2079.93 1975.6 2083.65 1979.63 2087.8C1982.36 2090.6 1984.92 2092.66 1987.31 2093.99C1989.7 2095.29 1991.86 2095.91 1993.81 2095.84C1995.74 2095.76 1997.4 2095.04 1998.79 2093.68ZM1929.36 2210.81L1935.92 2204.4L1938.9 2207.46L1957.03 2189.75L1954.05 2186.69L1960.65 2180.24L1975.87 2195.81L1944.57 2226.38L1929.36 2210.81ZM1943.65 2212.31L1946.29 2215.02L1964.42 2197.31L1961.77 2194.61L1943.65 2212.31ZM1941.61 2234.07L1983.57 2193.08L1988.71 2198.34L1946.75 2239.33L1941.61 2234.07ZM1954.1 2237.24L1986.14 2205.93L1997.69 2217.75L1972.3 2242.55L1976.41 2246.75L1969.8 2253.21L1961.19 2244.4L1986.63 2219.55L1984.33 2217.19L1958.84 2242.09L1954.1 2237.24ZM1968.24 2251.61L2001.48 2219.13L2006.38 2224.13L1973.13 2256.61L1968.24 2251.61ZM1975.61 2167L2007.95 2135.4L2021.45 2149.22L1995.92 2174.17L2002.77 2181.18L1996.01 2187.78L1984.27 2175.77L2009.8 2150.82L2006.33 2147.26L1980.74 2172.26L1975.61 2167ZM1992.87 2184.58L2026.27 2151.95L2031.41 2157.21L1998.01 2189.84L1992.87 2184.58ZM1996.48 2197.99L2038.44 2156.99L2043.63 2162.3L2001.66 2203.29L1996.48 2197.99ZM2015.96 2182.77L2022.57 2176.31L2038.91 2193.04L2032.3 2199.49L2015.96 2182.77ZM2047.49 2110.77L2056.96 2101.53L2062.24 2106.93L2052.77 2116.18L2047.49 2110.77ZM2028.31 2117.28L2033.77 2111.95L2038.02 2116.3C2041.02 2119.37 2043.38 2122.72 2045.08 2126.34C2046.79 2129.89 2047.67 2133.59 2047.72 2137.46C2047.81 2141.28 2046.88 2145.13 2044.92 2149.01L2036.27 2147.27C2038.03 2143.86 2038.96 2140.6 2039.06 2137.5C2039.13 2134.37 2038.59 2131.47 2037.43 2128.82C2036.24 2126.13 2034.62 2123.74 2032.56 2121.64L2028.31 2117.28ZM2029.66 2115.96L2035.07 2110.68L2039.72 2115.43C2041.12 2116.87 2042.7 2118.09 2044.47 2119.1C2046.21 2120.08 2048.1 2120.78 2050.14 2121.2C2052.18 2121.62 2054.33 2121.68 2056.58 2121.37C2058.82 2121.07 2061.16 2120.32 2063.58 2119.13L2065.16 2127.76C2061.45 2129.5 2057.74 2130.31 2054.05 2130.2C2050.38 2130.06 2046.88 2129.18 2043.53 2127.56C2040.19 2125.87 2037.11 2123.59 2034.31 2120.72L2029.66 2115.96ZM2051.56 2147.9L2083.21 2116.98L2099.55 2133.71L2092.84 2140.26L2081.68 2128.84L2056.75 2153.2L2051.56 2147.9ZM2047.54 2093.89L2054.25 2087.34L2081.2 2114.93L2074.49 2121.48L2047.54 2093.89Z" fill="white"/>
<rect x="1983" y="1899" width="300" height="350.621" transform="rotate(-44.3314 1983 1899)" fill="#FF8484"/>
<path d="M2138.09 1897.06L2173.66 1933.47L2165.96 1941L2137.53 1911.89L2137.31 1912.1L2134.08 1925.47L2127.41 1918.64L2130.85 1904.13L2138.09 1897.06ZM2196.39 1912.25C2193.65 1914.92 2190.78 1916.86 2187.78 1918.05C2184.77 1919.22 2181.91 1919.62 2179.18 1919.25C2176.46 1918.88 2174.13 1917.71 2172.21 1915.74C2170.73 1914.22 2169.71 1912.5 2169.16 1910.56C2168.61 1908.59 2168.52 1906.61 2168.9 1904.59C2169.26 1902.57 2170.07 1900.72 2171.32 1899.03L2171.07 1898.78C2168.75 1900.29 2166.25 1900.89 2163.58 1900.58C2160.9 1900.25 2158.59 1899.09 2156.64 1897.1C2154.8 1895.22 2153.72 1893 2153.38 1890.46C2153.04 1887.9 2153.41 1885.26 2154.51 1882.54C2155.61 1879.8 2157.39 1877.23 2159.84 1874.83C2162.29 1872.44 2164.9 1870.73 2167.65 1869.7C2170.42 1868.67 2173.08 1868.36 2175.63 1868.76C2178.16 1869.15 2180.35 1870.28 2182.2 1872.14C2184.14 1874.16 2185.23 1876.51 2185.47 1879.19C2185.71 1881.88 2185.07 1884.35 2183.54 1886.61L2183.78 1886.86C2185.47 1885.67 2187.33 1884.92 2189.35 1884.62C2191.36 1884.29 2193.35 1884.42 2195.3 1885.02C2197.25 1885.6 2198.97 1886.63 2200.47 1888.14C2202.38 1890.12 2203.49 1892.48 2203.79 1895.21C2204.1 1897.94 2203.63 1900.8 2202.38 1903.79C2201.12 1906.75 2199.13 1909.57 2196.39 1912.25ZM2190.86 1906.59C2192.08 1905.4 2192.94 1904.14 2193.42 1902.81C2193.89 1901.46 2194 1900.15 2193.75 1898.87C2193.49 1897.57 2192.86 1896.4 2191.86 1895.37C2190.83 1894.32 2189.65 1893.65 2188.33 1893.36C2187 1893.06 2185.65 1893.13 2184.28 1893.56C2182.91 1893.98 2181.63 1894.76 2180.44 1895.92C2179.27 1897.07 2178.45 1898.33 2177.99 1899.71C2177.52 1901.07 2177.41 1902.43 2177.68 1903.76C2177.94 1905.08 2178.59 1906.27 2179.62 1907.32C2180.63 1908.35 2181.78 1909.02 2183.06 1909.31C2184.34 1909.6 2185.66 1909.51 2187.02 1909.06C2188.37 1908.6 2189.65 1907.77 2190.86 1906.59ZM2174.97 1890.32C2175.99 1889.33 2176.69 1888.23 2177.08 1887.04C2177.47 1885.85 2177.53 1884.67 2177.26 1883.49C2177 1882.32 2176.39 1881.25 2175.46 1880.29C2174.53 1879.34 2173.49 1878.73 2172.35 1878.46C2171.19 1878.18 2170.03 1878.22 2168.85 1878.58C2167.66 1878.93 2166.55 1879.61 2165.5 1880.63C2164.47 1881.64 2163.76 1882.74 2163.37 1883.93C2162.97 1885.11 2162.9 1886.28 2163.16 1887.44C2163.41 1888.58 2164 1889.62 2164.93 1890.57C2165.87 1891.53 2166.92 1892.16 2168.09 1892.46C2169.26 1892.75 2170.44 1892.72 2171.64 1892.36C2172.84 1892 2173.95 1891.32 2174.97 1890.32ZM2230.48 1879.53C2227.41 1882.51 2224.04 1884.32 2220.38 1884.99C2216.73 1885.63 2212.93 1885.12 2208.97 1883.45C2205.03 1881.76 2201.12 1878.92 2197.24 1874.92C2193.36 1870.95 2190.64 1866.99 2189.08 1863.05C2187.54 1859.09 2187.15 1855.32 2187.92 1851.72C2188.68 1848.09 2190.59 1844.79 2193.64 1841.82C2196.68 1838.84 2200.02 1837.02 2203.65 1836.34C2207.29 1835.66 2211.07 1836.14 2214.99 1837.78C2218.9 1839.4 2222.78 1842.21 2226.65 1846.19C2230.55 1850.19 2233.3 1854.18 2234.88 1858.17C2236.47 1862.15 2236.9 1865.96 2236.17 1869.6C2235.44 1873.23 2233.54 1876.54 2230.48 1879.53ZM2224.25 1873.15C2226.33 1871.11 2226.97 1868.43 2226.17 1865.12C2225.36 1861.8 2222.9 1858.06 2218.79 1853.87C2216.09 1851.11 2213.56 1849.09 2211.2 1847.8C2208.85 1846.51 2206.7 1845.91 2204.77 1845.99C2202.85 1846.06 2201.19 1846.77 2199.8 1848.13C2197.73 1850.16 2197.08 1852.81 2197.87 1856.1C2198.65 1859.39 2201.05 1863.11 2205.08 1867.26C2207.82 1870.06 2210.38 1872.12 2212.76 1873.45C2215.15 1874.76 2217.32 1875.37 2219.26 1875.3C2221.2 1875.22 2222.86 1874.5 2224.25 1873.15ZM2157.65 1992.79L2182.63 1968.38L2187.82 1973.69L2162.83 1998.1L2157.65 1992.79ZM2179.3 2015.86L2173.27 2011.09C2175.88 2008.55 2178.73 2005.73 2181.84 2002.63C2184.94 1999.46 2188.05 1996.17 2191.16 1992.74C2194.3 1989.28 2197.2 1985.86 2199.84 1982.49L2205.04 1986.91C2202.52 1990.48 2199.74 1994.01 2196.7 1997.5C2193.65 2001 2190.63 2004.31 2187.62 2007.45C2184.61 2010.58 2181.84 2013.39 2179.3 2015.86ZM2165.46 1993.38L2171.82 1987.17L2186.98 2002.69L2180.62 2008.9L2165.46 1993.38ZM2176.68 1982.42L2183.09 1976.16L2198.25 1991.68L2191.84 1997.94L2176.68 1982.42ZM2184.16 1960.13L2190.82 1953.63L2218.12 1981.57L2211.46 1988.07L2184.16 1960.13ZM2203.38 1997.63C2208.28 1992.84 2212.91 1989.82 2217.24 1988.59C2221.58 1987.35 2225.1 1988.12 2227.81 1990.89C2230.52 1993.66 2231.2 1997.2 2229.86 2001.51C2228.56 2005.85 2225.45 2010.41 2220.55 2015.21C2215.64 2020 2211 2023 2206.63 2024.2C2202.29 2025.44 2198.77 2024.67 2196.06 2021.9C2193.36 2019.13 2192.67 2015.59 2194.01 2011.28C2195.35 2006.98 2198.47 2002.43 2203.38 1997.63ZM2208.32 2002.69C2206.28 2004.68 2204.71 2006.48 2203.6 2008.08C2202.49 2009.68 2201.87 2011.11 2201.72 2012.36C2201.54 2013.58 2201.86 2014.61 2202.67 2015.44C2203.49 2016.28 2204.52 2016.64 2205.78 2016.52C2207.04 2016.4 2208.48 2015.81 2210.11 2014.74C2211.74 2013.67 2213.57 2012.14 2215.61 2010.15C2217.64 2008.16 2219.21 2006.36 2220.32 2004.76C2221.43 2003.16 2222.04 2001.74 2222.15 2000.53C2222.3 1999.27 2221.97 1998.23 2221.15 1997.39C2220.34 1996.56 2219.32 1996.22 2218.09 1996.37C2216.87 1996.45 2215.45 1997.03 2213.82 1998.1C2212.19 1999.17 2210.35 2000.7 2208.32 2002.69ZM2207 1945.65L2236.24 1917.09L2241.48 1922.44L2212.23 1951.01L2207 1945.65ZM2233.01 1981.7L2274.97 1940.71L2280.31 1946.16L2238.34 1987.16L2233.01 1981.7ZM2233.44 1919.83L2240 1913.42L2245.28 1918.83C2247.47 1921.06 2249.65 1923.37 2251.83 1925.73C2253.98 1928.07 2256.21 1930.72 2258.52 1933.68C2260.8 1936.61 2263.23 1940.11 2265.83 1944.16L2258.63 1950.02C2256.33 1946.2 2254.06 1942.84 2251.82 1939.94C2249.57 1937.04 2247.36 1934.41 2245.18 1932.04C2242.99 1929.67 2240.84 1927.4 2238.72 1925.23L2233.44 1919.83ZM2247.22 1931.22L2252.01 1936.13L2225.09 1965.17L2219 1960.64L2247.22 1931.22ZM2276.49 1886.77L2285.96 1877.53L2291.24 1882.93L2281.77 1892.18L2276.49 1886.77ZM2257.31 1893.28L2262.77 1887.95L2267.02 1892.3C2270.02 1895.38 2272.38 1898.72 2274.08 1902.34C2275.79 1905.89 2276.67 1909.59 2276.72 1913.46C2276.81 1917.28 2275.88 1921.13 2273.92 1925.01L2265.27 1923.27C2267.03 1919.86 2267.96 1916.6 2268.06 1913.5C2268.13 1910.37 2267.59 1907.47 2266.43 1904.82C2265.24 1902.13 2263.62 1899.74 2261.56 1897.64L2257.31 1893.28ZM2258.66 1891.96L2264.07 1886.68L2268.72 1891.43C2270.12 1892.87 2271.7 1894.09 2273.47 1895.1C2275.21 1896.08 2277.1 1896.78 2279.14 1897.2C2281.18 1897.62 2283.33 1897.68 2285.58 1897.37C2287.82 1897.07 2290.16 1896.32 2292.58 1895.13L2294.16 1903.76C2290.45 1905.5 2286.74 1906.31 2283.05 1906.2C2279.38 1906.06 2275.88 1905.18 2272.53 1903.56C2269.19 1901.87 2266.11 1899.59 2263.31 1896.72L2258.66 1891.96ZM2280.56 1923.9L2312.21 1892.98L2328.55 1909.71L2321.84 1916.26L2310.68 1904.84L2285.75 1929.2L2280.56 1923.9ZM2276.54 1869.89L2283.25 1863.34L2310.2 1890.93L2303.49 1897.48L2276.54 1869.89Z" fill="white"/>
<rect x="2212" y="1675" width="300" height="350.621" transform="rotate(-44.3314 2212 1675)" fill="#B748E7"/>
<path d="M2367.11 1674.03L2402.69 1710.45L2394.99 1717.97L2366.55 1688.86L2366.34 1689.07L2363.1 1702.45L2356.43 1695.62L2359.87 1681.1L2367.11 1674.03ZM2425.8 1688.84C2423.92 1690.66 2421.8 1692.11 2419.46 1693.19C2417.13 1694.27 2414.59 1694.78 2411.86 1694.74C2409.13 1694.7 2406.25 1693.93 2403.21 1692.42C2400.18 1690.91 2397.04 1688.49 2393.78 1685.16C2390.81 1682.09 2388.49 1679.02 2386.82 1675.94C2385.16 1672.84 2384.15 1669.81 2383.8 1666.87C2383.46 1663.91 2383.77 1661.11 2384.73 1658.46C2385.67 1655.8 2387.27 1653.37 2389.52 1651.17C2391.95 1648.79 2394.56 1647.17 2397.35 1646.3C2400.12 1645.42 2402.86 1645.23 2405.56 1645.75C2408.28 1646.25 2410.73 1647.38 2412.93 1649.15L2405.33 1656.57C2403.8 1655.59 2402.2 1655.21 2400.55 1655.41C2398.89 1655.61 2397.37 1656.4 2395.97 1657.76C2393.6 1660.08 2392.8 1662.87 2393.58 1666.14C2394.38 1669.39 2396.49 1672.8 2399.93 1676.37L2400.18 1676.13C2399.67 1674.52 2399.51 1672.88 2399.69 1671.22C2399.88 1669.53 2400.37 1667.91 2401.16 1666.35C2401.95 1664.77 2403.01 1663.32 2404.34 1662.03C2406.49 1659.92 2408.91 1658.55 2411.59 1657.93C2414.26 1657.29 2416.94 1657.38 2419.64 1658.2C2422.34 1659.02 2424.8 1660.56 2427.02 1662.84C2429.43 1665.3 2431 1668.06 2431.72 1671.1C2432.46 1674.13 2432.34 1677.2 2431.35 1680.29C2430.37 1683.36 2428.52 1686.21 2425.8 1688.84ZM2419.86 1682.83C2421.05 1681.67 2421.83 1680.35 2422.21 1678.87C2422.59 1677.38 2422.57 1675.89 2422.16 1674.4C2421.74 1672.91 2420.94 1671.56 2419.76 1670.35C2418.58 1669.14 2417.25 1668.31 2415.78 1667.87C2414.32 1667.42 2412.85 1667.37 2411.37 1667.7C2409.89 1668.03 2408.56 1668.78 2407.37 1669.94C2406.48 1670.81 2405.82 1671.78 2405.39 1672.85C2404.97 1673.91 2404.76 1675.02 2404.77 1676.17C2404.79 1677.3 2405.02 1678.42 2405.47 1679.51C2405.9 1680.6 2406.55 1681.58 2407.4 1682.45C2408.55 1683.63 2409.86 1684.44 2411.35 1684.89C2412.84 1685.33 2414.34 1685.39 2415.83 1685.07C2417.33 1684.73 2418.68 1683.99 2419.86 1682.83ZM2459.46 1656.55C2456.39 1659.53 2453.02 1661.35 2449.36 1662.01C2445.7 1662.66 2441.9 1662.14 2437.95 1660.47C2434.01 1658.78 2430.1 1655.94 2426.22 1651.95C2422.34 1647.98 2419.62 1644.02 2418.06 1640.07C2416.51 1636.12 2416.12 1632.34 2416.89 1628.74C2417.66 1625.12 2419.57 1621.82 2422.61 1618.84C2425.66 1615.86 2429 1614.04 2432.63 1613.37C2436.27 1612.68 2440.05 1613.16 2443.97 1614.8C2447.87 1616.43 2451.76 1619.23 2455.63 1623.22C2459.53 1627.21 2462.27 1631.2 2463.85 1635.2C2465.45 1639.18 2465.88 1642.98 2465.15 1646.62C2464.41 1650.25 2462.52 1653.57 2459.46 1656.55ZM2453.22 1650.17C2455.31 1648.13 2455.95 1645.46 2455.14 1642.14C2454.34 1638.83 2451.88 1635.08 2447.77 1630.89C2445.07 1628.13 2442.54 1626.11 2440.18 1624.83C2437.82 1623.54 2435.68 1622.93 2433.74 1623.01C2431.82 1623.08 2430.17 1623.8 2428.78 1625.15C2426.71 1627.18 2426.06 1629.84 2426.84 1633.13C2427.62 1636.42 2430.03 1640.14 2434.06 1644.29C2436.79 1647.08 2439.35 1649.15 2441.74 1650.48C2444.13 1651.78 2446.29 1652.4 2448.24 1652.33C2450.17 1652.24 2451.83 1651.53 2453.22 1650.17ZM2386.23 1771.27L2411.92 1746.18L2417.15 1751.54L2391.47 1776.63L2386.23 1771.27ZM2416.79 1803.66L2410.86 1798.88C2413.53 1796.27 2416.43 1793.4 2419.57 1790.27C2422.68 1787.11 2425.8 1783.83 2428.94 1780.43C2432.05 1777 2434.93 1773.64 2437.58 1770.34L2442.77 1774.75C2440.16 1778.29 2437.36 1781.8 2434.38 1785.3C2431.4 1788.73 2428.38 1792.01 2425.31 1795.14C2422.27 1798.24 2419.43 1801.08 2416.79 1803.66ZM2394.39 1771.91L2400.85 1765.6L2423.7 1788.98L2417.24 1795.29L2394.39 1771.91ZM2405.41 1761.15L2411.87 1754.84L2434.71 1778.22L2428.25 1784.53L2405.41 1761.15ZM2413.56 1736.74L2420.22 1730.24L2465.52 1776.6L2458.86 1783.11L2413.56 1736.74ZM2423.09 1760.32L2434.91 1748.77L2440.14 1754.13L2428.32 1765.67L2423.09 1760.32ZM2432.16 1720.93L2466.76 1687.12L2471.65 1692.13L2437.05 1725.93L2432.16 1720.93ZM2443.13 1731.45L2476.97 1698.38L2481.87 1703.39L2448.02 1736.46L2443.13 1731.45ZM2439.98 1717.11L2446.64 1710.6L2458.47 1722.72L2451.81 1729.22L2439.98 1717.11ZM2456.1 1701.36L2462.76 1694.85L2474.6 1706.97L2467.94 1713.47L2456.1 1701.36ZM2446.31 1742.72L2488.27 1701.73L2493.36 1706.94L2451.4 1747.93L2446.31 1742.72ZM2458.7 1745.79L2490.75 1714.48L2502.04 1726.05L2476.66 1750.85L2480.86 1755.16L2474.26 1761.61L2465.69 1752.85L2491.13 1728L2488.83 1725.65L2463.35 1750.54L2458.7 1745.79ZM2472.45 1759.76L2505.69 1727.28L2510.44 1732.14L2477.19 1764.62L2472.45 1759.76ZM2505.49 1663.77L2514.96 1654.53L2520.24 1659.93L2510.77 1669.18L2505.49 1663.77ZM2486.31 1670.28L2491.77 1664.95L2496.02 1669.3C2499.02 1672.37 2501.38 1675.72 2503.08 1679.34C2504.79 1682.89 2505.67 1686.59 2505.72 1690.46C2505.81 1694.28 2504.88 1698.13 2502.92 1702.01L2494.27 1700.27C2496.03 1696.86 2496.96 1693.6 2497.06 1690.5C2497.13 1687.37 2496.59 1684.47 2495.43 1681.82C2494.24 1679.13 2492.62 1676.74 2490.56 1674.64L2486.31 1670.28ZM2487.66 1668.96L2493.07 1663.68L2497.72 1668.43C2499.12 1669.87 2500.7 1671.09 2502.47 1672.1C2504.21 1673.08 2506.1 1673.78 2508.14 1674.2C2510.18 1674.62 2512.33 1674.68 2514.58 1674.37C2516.82 1674.07 2519.16 1673.32 2521.58 1672.13L2523.16 1680.76C2519.45 1682.5 2515.74 1683.31 2512.05 1683.2C2508.38 1683.06 2504.88 1682.18 2501.53 1680.56C2498.19 1678.87 2495.11 1676.59 2492.31 1673.72L2487.66 1668.96ZM2509.56 1700.9L2541.21 1669.98L2557.55 1686.71L2550.84 1693.26L2539.68 1681.84L2514.75 1706.2L2509.56 1700.9ZM2505.54 1646.89L2512.25 1640.34L2539.2 1667.93L2532.49 1674.48L2505.54 1646.89Z" fill="white"/>
<rect width="300" height="350.621" transform="matrix(-0.71531 -0.698807 -0.698807 0.71531 1211 2346)" fill="#FEA82F"/>
<path d="M959.175 2322.95C956.52 2320.36 954.6 2317.59 953.418 2314.65C952.258 2311.71 951.867 2308.85 952.245 2306.07C952.646 2303.29 953.865 2300.82 955.903 2298.66L963.655 2306.23C962.834 2307.17 962.36 2308.24 962.234 2309.43C962.13 2310.63 962.35 2311.85 962.892 2313.1C963.434 2314.35 964.268 2315.52 965.394 2316.62C966.568 2317.77 967.807 2318.57 969.114 2319.04C970.42 2319.5 971.687 2319.62 972.915 2319.38C974.142 2319.14 975.225 2318.54 976.163 2317.58C977.113 2316.61 977.68 2315.49 977.864 2314.21C978.072 2312.93 977.88 2311.58 977.289 2310.17C976.711 2308.77 975.734 2307.4 974.358 2306.06L970.962 2302.74L976.486 2297.08L979.882 2300.4C981.044 2301.54 982.266 2302.34 983.549 2302.8C984.844 2303.28 986.087 2303.41 987.28 2303.18C988.484 2302.94 989.556 2302.35 990.494 2301.39C991.385 2300.47 991.948 2299.46 992.181 2298.34C992.437 2297.23 992.365 2296.09 991.965 2294.93C991.577 2293.79 990.867 2292.71 989.835 2291.71C988.792 2290.69 987.653 2289.95 986.417 2289.48C985.192 2289 983.984 2288.85 982.79 2289.03C981.597 2289.21 980.531 2289.74 979.592 2290.63L972.213 2283.42C974.298 2281.36 976.703 2280.09 979.428 2279.63C982.154 2279.16 984.94 2279.44 987.788 2280.46C990.659 2281.48 993.34 2283.21 995.829 2285.64C998.342 2288.1 1000.1 2290.7 1001.09 2293.46C1002.08 2296.21 1002.34 2298.87 1001.87 2301.45C1001.42 2304.02 1000.25 2306.26 998.36 2308.17C996.38 2310.22 994.084 2311.3 991.472 2311.41C988.872 2311.54 986.373 2310.79 983.975 2309.16L983.697 2309.45C986.04 2312.41 987.17 2315.33 987.087 2318.21C987.027 2321.1 985.885 2323.66 983.661 2325.92C981.647 2328 979.247 2329.26 976.463 2329.69C973.691 2330.13 970.798 2329.79 967.785 2328.65C964.771 2327.51 961.901 2325.61 959.175 2322.95ZM979.208 2341.55L984.627 2336L1009.32 2336.66C1011.46 2336.67 1013.32 2336.61 1014.9 2336.49C1016.5 2336.38 1017.89 2336.1 1019.08 2335.67C1020.28 2335.22 1021.35 2334.52 1022.29 2333.56C1023.33 2332.49 1023.98 2331.33 1024.25 2330.09C1024.53 2328.83 1024.45 2327.58 1024.01 2326.35C1023.59 2325.1 1022.84 2323.95 1021.78 2322.91C1020.66 2321.82 1019.47 2321.1 1018.2 2320.74C1016.93 2320.38 1015.66 2320.4 1014.39 2320.8C1013.11 2321.2 1011.91 2321.98 1010.77 2323.14L1003.47 2316C1005.79 2313.62 1008.35 2312.08 1011.15 2311.38C1013.94 2310.68 1016.78 2310.8 1019.66 2311.74C1022.54 2312.68 1025.25 2314.38 1027.79 2316.86C1030.4 2319.41 1032.21 2322.09 1033.24 2324.9C1034.29 2327.71 1034.57 2330.46 1034.06 2333.14C1033.55 2335.81 1032.27 2338.2 1030.22 2340.3C1028.88 2341.68 1027.28 2342.77 1025.43 2343.57C1023.59 2344.39 1021.18 2344.95 1018.2 2345.24C1015.24 2345.52 1011.4 2345.58 1006.68 2345.41L996.269 2345.43L996.026 2345.68L1011.32 2360.61L1005.17 2366.91L979.208 2341.55ZM1024.24 2387.11C1021.2 2384.11 1019.3 2380.78 1018.56 2377.14C1017.82 2373.5 1018.25 2369.69 1019.83 2365.7C1021.42 2361.72 1024.17 2357.74 1028.07 2353.77C1031.95 2349.8 1035.85 2346.99 1039.75 2345.34C1043.67 2343.7 1047.44 2343.22 1051.06 2343.9C1054.7 2344.59 1058.04 2346.42 1061.09 2349.39C1064.13 2352.37 1066.04 2355.66 1066.79 2359.28C1067.56 2362.9 1067.17 2366.69 1065.63 2370.64C1064.09 2374.59 1061.38 2378.54 1057.48 2382.5C1053.58 2386.49 1049.65 2389.33 1045.7 2391C1041.76 2392.69 1037.96 2393.21 1034.31 2392.56C1030.66 2391.91 1027.3 2390.09 1024.24 2387.11ZM1030.48 2380.72C1032.57 2382.76 1035.26 2383.34 1038.55 2382.46C1041.85 2381.58 1045.54 2379.03 1049.62 2374.82C1052.32 2372.06 1054.29 2369.48 1055.51 2367.09C1056.75 2364.71 1057.3 2362.55 1057.18 2360.62C1057.06 2358.7 1056.31 2357.06 1054.92 2355.7C1052.85 2353.68 1050.17 2353.09 1046.9 2353.95C1043.63 2354.81 1039.97 2357.3 1035.92 2361.43C1033.18 2364.23 1031.18 2366.83 1029.91 2369.25C1028.66 2371.67 1028.09 2373.85 1028.21 2375.79C1028.34 2377.73 1029.09 2379.37 1030.48 2380.72ZM876.421 2328.94L883.03 2335.4L872.709 2345.97L866.1 2339.51L876.421 2328.94ZM902.863 2308.49C906.167 2311.72 908.6 2315.14 910.16 2318.75C911.786 2322.36 912.421 2325.85 912.065 2329.22C911.708 2332.59 910.258 2335.58 907.714 2338.18C905.203 2340.75 902.251 2342.27 898.858 2342.74C895.464 2343.21 891.927 2342.69 888.246 2341.18C884.631 2339.67 881.172 2337.3 877.867 2334.07C874.595 2330.88 872.147 2327.47 870.52 2323.86C868.96 2320.25 868.358 2316.73 868.714 2313.29C869.103 2309.89 870.553 2306.9 873.064 2304.33C875.608 2301.73 878.56 2300.21 881.921 2299.77C885.315 2299.37 888.82 2299.92 892.434 2301.43C896.115 2302.94 899.591 2305.29 902.863 2308.49ZM897.726 2313.74C895.623 2311.69 893.461 2310.16 891.238 2309.17C889.049 2308.2 886.948 2307.82 884.938 2308C882.96 2308.22 881.189 2309.14 879.623 2310.74C878.091 2312.31 877.221 2314.1 877.013 2316.12C876.872 2318.13 877.309 2320.22 878.324 2322.39C879.373 2324.59 880.949 2326.71 883.052 2328.77C885.188 2330.85 887.351 2332.38 889.541 2333.34C891.763 2334.34 893.863 2334.73 895.841 2334.51C897.851 2334.25 899.622 2333.34 901.155 2331.77C902.72 2330.17 903.59 2328.38 903.765 2326.4C903.94 2324.41 903.503 2322.32 902.454 2320.12C901.439 2317.96 899.863 2315.83 897.726 2313.74ZM849.501 2321.24L891.512 2362.28L886.23 2367.69L844.218 2326.65L849.501 2321.24ZM909.499 2355.68L912.654 2358.76C914.89 2360.95 916.893 2362.87 918.661 2364.53C920.496 2366.19 922.279 2367.74 924.012 2369.17C925.811 2370.6 927.675 2372 929.605 2373.36L925.168 2379.11C923.139 2377.78 921.209 2376.38 919.377 2374.92C917.577 2373.42 915.71 2371.79 913.776 2370.03C911.907 2368.27 909.821 2366.27 907.518 2364.02L904.363 2360.94L909.499 2355.68ZM928.672 2335.85L945.045 2351.85L930.567 2366.67L920.702 2357.03L913.609 2364.29L907.2 2358.03L919.087 2345.86L928.901 2355.45L933.548 2350.69L923.633 2341.01L928.672 2335.85ZM938.724 2361.52L947.436 2370.04L942.202 2375.39L933.49 2366.88L938.724 2361.52ZM963.491 2363.02L969.851 2369.23L935.806 2404.08L929.446 2397.87L963.491 2363.02ZM953.346 2354.77L959.605 2360.88L927.37 2393.88L921.111 2387.77L953.346 2354.77ZM899.277 2378.96L931.674 2410.61L926.441 2415.97L894.043 2384.32L899.277 2378.96ZM907.789 2370.25L914.498 2376.81L902.074 2389.53L895.364 2382.97L907.789 2370.25ZM980.382 2393.9L985.69 2399.09L980.603 2404.29C977.994 2406.97 975.15 2409.31 972.072 2411.32C969.027 2413.37 965.844 2414.99 962.525 2416.19C959.272 2417.38 955.98 2418.05 952.649 2418.18C949.35 2418.29 946.126 2417.78 942.978 2416.66L944.309 2407.69C947.125 2408.68 949.952 2409.16 952.79 2409.12C955.661 2409.12 958.428 2408.7 961.091 2407.84C963.82 2406.98 966.38 2405.8 968.772 2404.28C971.229 2402.77 973.403 2401.05 975.295 2399.11L980.382 2393.9ZM981.834 2395.32L987.092 2400.46L982.005 2405.66C980.211 2407.5 978.619 2409.6 977.227 2411.96C975.902 2414.32 974.875 2416.8 974.146 2419.42C973.45 2422 973.168 2424.66 973.299 2427.4C973.43 2430.14 974.089 2432.87 975.276 2435.59L966.436 2437.33C965.178 2434.21 964.53 2431.03 964.493 2427.8C964.455 2424.56 964.929 2421.34 965.914 2418.13C966.9 2414.92 968.315 2411.83 970.162 2408.87C972.041 2405.88 974.236 2403.1 976.747 2400.53L981.834 2395.32ZM973.505 2381.51L999.543 2406.94L994.162 2412.45L968.124 2387.02L973.505 2381.51ZM1008.15 2406.74L1014.81 2413.25L969.518 2459.62L962.858 2453.11L1008.15 2406.74ZM1037.64 2452.38L1047.11 2461.63L1041.82 2467.04L1032.36 2457.79L1037.64 2452.38ZM1030.69 2433.36L1036.14 2438.69L1031.89 2443.04C1028.89 2446.12 1025.6 2448.55 1022.02 2450.34C1018.51 2452.13 1014.83 2453.09 1010.97 2453.24C1007.14 2453.42 1003.27 2452.57 999.358 2450.7L1000.89 2442.02C1004.34 2443.7 1007.62 2444.55 1010.72 2444.58C1013.86 2444.58 1016.74 2443.96 1019.36 2442.75C1022.02 2441.49 1024.38 2439.82 1026.43 2437.71L1030.69 2433.36ZM1032.04 2434.68L1037.45 2439.96L1032.8 2444.72C1031.4 2446.15 1030.21 2447.77 1029.24 2449.56C1028.31 2451.32 1027.65 2453.23 1027.28 2455.28C1026.91 2457.33 1026.9 2459.47 1027.26 2461.71C1027.61 2463.95 1028.42 2466.27 1029.66 2468.66L1021.07 2470.45C1019.25 2466.77 1018.35 2463.09 1018.37 2459.39C1018.42 2455.73 1019.23 2452.2 1020.77 2448.82C1022.38 2445.43 1024.59 2442.3 1027.39 2439.43L1032.04 2434.68ZM1000.62 2457.32L1032.27 2488.23L1015.93 2504.96L1009.22 2498.4L1020.37 2486.99L995.438 2462.63L1000.62 2457.32ZM1054.52 2452.04L1061.23 2458.59L1034.27 2486.18L1027.56 2479.63L1054.52 2452.04Z" fill="white"/>
<rect width="300" height="350.621" transform="matrix(-0.71531 -0.698807 -0.698807 0.71531 982 2122)" fill="#00C8FF"/>
<path d="M717.237 2084.87L722.656 2079.32L747.344 2079.98C749.489 2079.99 751.352 2079.94 752.932 2079.81C754.525 2079.7 755.916 2079.43 757.106 2078.99C758.308 2078.54 759.378 2077.84 760.316 2076.88C761.358 2075.81 762.013 2074.66 762.279 2073.41C762.558 2072.15 762.479 2070.91 762.042 2069.67C761.618 2068.42 760.872 2067.27 759.805 2066.23C758.69 2065.14 757.498 2064.42 756.229 2064.06C754.959 2063.7 753.687 2063.72 752.415 2064.12C751.142 2064.52 749.938 2065.3 748.803 2066.47L741.495 2059.33C743.823 2056.94 746.383 2055.4 749.176 2054.7C751.968 2054 754.806 2054.12 757.688 2055.06C760.57 2056 763.279 2057.71 765.816 2060.19C768.424 2062.73 770.243 2065.41 771.272 2068.23C772.324 2071.04 772.596 2073.78 772.089 2076.46C771.581 2079.14 770.302 2081.53 768.252 2083.62C766.909 2085 765.311 2086.09 763.457 2086.9C761.615 2087.72 759.207 2088.27 756.234 2088.56C753.272 2088.84 749.429 2088.9 744.704 2088.73L734.298 2088.75L734.055 2089L749.347 2103.94L743.198 2110.23L717.237 2084.87ZM753.697 2107.98L759.62 2101.91L798.221 2092.81L803.449 2097.92L795.25 2106.31L792.156 2103.29L767.755 2109.1L767.477 2109.38L789.082 2130.49L783.054 2136.66L753.697 2107.98ZM764.923 2131.45L772.982 2123.2L775.748 2120.66L800.64 2095.18L807.859 2102.23L772.284 2138.65L764.923 2131.45ZM795.428 2162.82C792.381 2159.82 790.484 2156.49 789.739 2152.85C789.005 2149.21 789.429 2145.4 791.011 2141.41C792.605 2137.43 795.354 2133.45 799.257 2129.48C803.136 2125.51 807.029 2122.7 810.935 2121.05C814.854 2119.41 818.622 2118.93 822.239 2119.61C825.88 2120.3 829.224 2122.13 832.27 2125.1C835.317 2128.08 837.219 2131.37 837.976 2134.99C838.745 2138.61 838.356 2142.4 836.808 2146.36C835.272 2150.3 832.558 2154.25 828.667 2158.21C824.765 2162.21 820.837 2165.04 816.884 2166.72C812.942 2168.4 809.146 2168.92 805.493 2168.27C801.841 2167.62 798.486 2165.81 795.428 2162.82ZM801.664 2156.43C803.75 2158.47 806.44 2159.05 809.735 2158.17C813.029 2157.29 816.72 2154.74 820.808 2150.53C823.506 2147.77 825.468 2145.19 826.694 2142.8C827.932 2140.42 828.487 2138.26 828.359 2136.33C828.242 2134.41 827.491 2132.77 826.104 2131.42C824.029 2129.39 821.356 2128.81 818.085 2129.66C814.814 2130.52 811.152 2133.01 807.098 2137.14C804.365 2139.94 802.362 2142.54 801.09 2144.96C799.841 2147.38 799.275 2149.56 799.391 2151.5C799.519 2153.44 800.277 2155.08 801.664 2156.43ZM682.946 2089.76L689.506 2096.17L686.522 2099.22L704.648 2116.93L707.632 2113.88L714.242 2120.33L699.029 2135.91L667.734 2105.33L682.946 2089.76ZM681.777 2104.08L679.136 2106.78L697.262 2124.49L699.904 2121.79L681.777 2104.08ZM659.979 2102.55L701.94 2143.54L696.804 2148.8L654.843 2107.81L659.979 2102.55ZM657.106 2115.11L689.153 2146.42L677.609 2158.23L652.222 2133.43L648.113 2137.64L641.503 2131.18L650.112 2122.37L675.55 2147.22L677.849 2144.87L652.361 2119.97L657.106 2115.11ZM643.069 2129.58L676.317 2162.06L671.426 2167.07L638.177 2134.59L643.069 2129.58ZM727.824 2134.97L760.171 2166.57L746.67 2180.39L721.133 2155.44L714.285 2162.45L707.525 2155.85L719.265 2143.83L744.802 2168.78L748.275 2165.22L722.688 2140.23L727.824 2134.97ZM710.656 2152.65L744.054 2185.27L738.918 2190.53L705.52 2157.9L710.656 2152.65ZM697.336 2156.56L739.297 2197.55L734.112 2202.86L692.151 2161.87L697.336 2156.56ZM713.004 2175.69L719.614 2182.14L703.276 2198.87L696.666 2192.41L713.004 2175.69ZM785.719 2205.52L795.183 2214.77L789.9 2220.17L780.437 2210.93L785.719 2205.52ZM778.765 2186.5L784.223 2191.83L779.967 2196.18C776.967 2199.26 773.679 2201.69 770.103 2203.48C766.593 2205.27 762.908 2206.23 759.049 2206.38C755.223 2206.56 751.352 2205.71 747.436 2203.84L748.968 2195.16C752.419 2196.84 755.696 2197.69 758.799 2197.72C761.934 2197.72 764.814 2197.1 767.44 2195.89C770.098 2194.63 772.455 2192.96 774.509 2190.85L778.765 2186.5ZM780.117 2187.82L785.525 2193.1L780.878 2197.86C779.476 2199.29 778.29 2200.91 777.321 2202.7C776.384 2204.46 775.73 2206.36 775.358 2208.42C774.986 2210.47 774.978 2212.61 775.334 2214.85C775.691 2217.09 776.493 2219.41 777.742 2221.8L769.15 2223.59C767.325 2219.91 766.424 2216.23 766.447 2212.53C766.503 2208.87 767.303 2205.34 768.848 2201.96C770.458 2198.57 772.665 2195.44 775.47 2192.57L780.117 2187.82ZM748.701 2210.46L780.347 2241.37L764.009 2258.1L757.3 2251.54L768.452 2240.13L743.516 2215.77L748.701 2210.46ZM802.595 2205.18L809.305 2211.73L782.353 2239.32L775.643 2232.77L802.595 2205.18Z" fill="white"/>
<rect width="300" height="350.621" transform="matrix(-0.71531 -0.698807 -0.698807 0.71531 753 1899)" fill="#FF8484"/>
<path d="M543.2 1843.39L507.625 1879.81L499.926 1872.29L528.361 1843.18L528.148 1842.97L514.702 1840.05L521.372 1833.23L535.963 1836.32L543.2 1843.39ZM529.379 1902.04C526.641 1899.36 524.639 1896.54 523.374 1893.56C522.132 1890.59 521.665 1887.73 521.973 1885C522.281 1882.27 523.396 1879.92 525.318 1877.95C526.801 1876.43 528.505 1875.37 530.432 1874.78C532.382 1874.18 534.367 1874.04 536.386 1874.37C538.417 1874.69 540.289 1875.45 542.003 1876.66L542.246 1876.41C540.684 1874.12 540.028 1871.64 540.278 1868.97C540.54 1866.28 541.643 1863.94 543.589 1861.95C545.43 1860.06 547.62 1858.92 550.158 1858.53C552.708 1858.13 555.354 1858.44 558.097 1859.48C560.863 1860.51 563.473 1862.23 565.927 1864.62C568.381 1867.02 570.151 1869.58 571.238 1872.31C572.336 1875.05 572.713 1877.7 572.368 1880.26C572.034 1882.81 570.958 1885.03 569.141 1886.91C567.172 1888.9 564.847 1890.05 562.167 1890.35C559.487 1890.65 557.002 1890.06 554.711 1888.59L554.468 1888.84C555.694 1890.5 556.483 1892.34 556.835 1894.35C557.21 1896.36 557.122 1898.35 556.571 1900.31C556.043 1902.27 555.044 1904.02 553.573 1905.55C551.639 1907.51 549.309 1908.67 546.583 1909.04C543.856 1909.41 540.986 1909.01 537.973 1907.82C534.982 1906.64 532.118 1904.71 529.379 1902.04ZM534.903 1896.38C536.124 1897.57 537.405 1898.4 538.747 1898.85C540.099 1899.29 541.413 1899.37 542.687 1899.08C543.984 1898.8 545.137 1898.14 546.144 1897.11C547.175 1896.06 547.817 1894.86 548.071 1893.54C548.337 1892.2 548.239 1890.85 547.778 1889.5C547.328 1888.13 546.511 1886.87 545.325 1885.71C544.152 1884.57 542.871 1883.78 541.483 1883.35C540.107 1882.91 538.753 1882.84 537.42 1883.13C536.111 1883.43 534.941 1884.1 533.911 1885.16C532.903 1886.19 532.266 1887.35 532 1888.64C531.746 1889.93 531.861 1891.24 532.345 1892.6C532.841 1893.94 533.694 1895.2 534.903 1896.38ZM550.797 1880.11C551.817 1881.11 552.926 1881.78 554.126 1882.15C555.325 1882.51 556.509 1882.54 557.678 1882.24C558.846 1881.95 559.899 1881.32 560.837 1880.36C561.764 1879.41 562.349 1878.36 562.594 1877.21C562.849 1876.05 562.783 1874.88 562.394 1873.72C562.017 1872.54 561.307 1871.44 560.264 1870.42C559.233 1869.41 558.117 1868.73 556.918 1868.37C555.73 1867.99 554.557 1867.95 553.4 1868.23C552.267 1868.51 551.237 1869.13 550.311 1870.08C549.373 1871.04 548.77 1872.11 548.502 1873.28C548.235 1874.46 548.296 1875.64 548.685 1876.83C549.073 1878.02 549.778 1879.11 550.797 1880.11ZM562.882 1935.35C559.836 1932.35 557.939 1929.03 557.193 1925.38C556.459 1921.75 556.884 1917.93 558.466 1913.94C560.06 1909.96 562.808 1905.99 566.711 1902.02C570.591 1898.04 574.484 1895.23 578.39 1893.58C582.309 1891.94 586.077 1891.47 589.694 1892.15C593.335 1892.83 596.679 1894.66 599.725 1897.64C602.772 1900.62 604.674 1903.91 605.431 1907.52C606.2 1911.15 605.81 1914.94 604.263 1918.89C602.727 1922.84 600.013 1926.79 596.122 1930.75C592.219 1934.74 588.292 1937.58 584.338 1939.25C580.397 1940.94 576.6 1941.46 572.948 1940.81C569.296 1940.16 565.941 1938.34 562.882 1935.35ZM569.118 1928.97C571.205 1931.01 573.895 1931.59 577.19 1930.7C580.484 1929.82 584.175 1927.28 588.263 1923.07C590.961 1920.31 592.923 1917.73 594.149 1915.34C595.387 1912.95 595.941 1910.8 595.813 1908.87C595.697 1906.94 594.946 1905.31 593.559 1903.95C591.484 1901.93 588.811 1901.34 585.54 1902.2C582.269 1903.06 578.606 1905.55 574.553 1909.68C571.82 1912.47 569.817 1915.08 568.545 1917.5C567.296 1919.92 566.729 1922.1 566.846 1924.04C566.974 1925.97 567.731 1927.62 569.118 1928.97ZM447.95 1865.19L472.936 1889.6L467.751 1894.9L442.765 1870.5L447.95 1865.19ZM425.39 1887.38L430.02 1881.24C432.624 1883.78 435.511 1886.57 438.682 1889.6C441.918 1892.63 445.287 1895.66 448.787 1898.69C452.321 1901.75 455.803 1904.56 459.232 1907.13L454.937 1912.43C451.312 1910 447.716 1907.3 444.151 1904.34C440.585 1901.38 437.201 1898.43 433.999 1895.5C430.796 1892.56 427.927 1889.86 425.39 1887.38ZM447.546 1873.01L453.906 1879.23L438.742 1894.75L432.383 1888.54L447.546 1873.01ZM458.763 1883.97L465.172 1890.23L450.008 1905.75L443.599 1899.49L458.763 1883.97ZM481.219 1890.93L487.878 1897.44L460.584 1925.38L453.924 1918.88L481.219 1890.93ZM444.179 1911.02C449.086 1915.81 452.209 1920.36 453.546 1924.67C454.884 1928.98 454.199 1932.52 451.492 1935.29C448.786 1938.06 445.264 1938.83 440.926 1937.59C436.556 1936.39 431.917 1933.39 427.01 1928.6C422.103 1923.8 418.997 1919.23 417.692 1914.89C416.355 1910.59 417.039 1907.05 419.746 1904.28C422.453 1901.51 425.975 1900.74 430.312 1901.97C434.65 1903.21 439.272 1906.23 444.179 1911.02ZM439.239 1916.08C437.203 1914.09 435.37 1912.56 433.74 1911.49C432.111 1910.42 430.668 1909.82 429.413 1909.71C428.19 1909.56 427.171 1909.9 426.356 1910.73C425.54 1911.57 425.206 1912.61 425.353 1913.86C425.499 1915.12 426.127 1916.54 427.234 1918.15C428.342 1919.75 429.914 1921.55 431.95 1923.54C433.987 1925.53 435.82 1927.06 437.449 1928.13C439.079 1929.2 440.505 1929.77 441.727 1929.86C442.982 1929.98 444.017 1929.62 444.833 1928.78C445.648 1927.95 445.966 1926.92 445.787 1925.7C445.673 1924.48 445.063 1923.07 443.955 1921.47C442.847 1919.86 441.275 1918.07 439.239 1916.08ZM496.229 1913.43L525.472 1941.99L520.238 1947.35L490.995 1918.78L496.229 1913.43ZM460.803 1940.27L502.764 1981.27L497.433 1986.72L455.472 1945.73L460.803 1940.27ZM522.667 1939.25L529.227 1945.66L523.944 1951.07C521.759 1953.31 519.508 1955.54 517.192 1957.78C514.907 1959.99 512.311 1962.28 509.401 1964.65C506.525 1967 503.089 1969.51 499.094 1972.2L493.072 1965.14C496.839 1962.76 500.144 1960.41 502.988 1958.1C505.833 1955.79 508.413 1953.51 510.73 1951.27C513.047 1949.04 515.265 1946.83 517.385 1944.66L522.667 1939.25ZM511.595 1953.29L506.801 1958.2L477.14 1931.97L481.523 1925.78L511.595 1953.29ZM556.719 1981.52L566.183 1990.77L560.9 1996.17L551.437 1986.93L556.719 1981.52ZM549.765 1962.5L555.223 1967.83L550.967 1972.18C547.967 1975.26 544.679 1977.69 541.103 1979.48C537.593 1981.27 533.908 1982.23 530.049 1982.38C526.223 1982.56 522.352 1981.71 518.436 1979.84L519.968 1971.16C523.419 1972.84 526.696 1973.69 529.799 1973.72C532.934 1973.71 535.814 1973.1 538.44 1971.88C541.098 1970.63 543.455 1968.96 545.509 1966.85L549.765 1962.5ZM551.117 1963.82L556.525 1969.1L551.878 1973.86C550.476 1975.29 549.29 1976.91 548.321 1978.7C547.384 1980.46 546.73 1982.36 546.358 1984.42C545.986 1986.47 545.978 1988.61 546.334 1990.85C546.691 1993.09 547.493 1995.41 548.742 1997.8L540.15 1999.59C538.325 1995.91 537.424 1992.23 537.447 1988.53C537.503 1984.87 538.303 1981.34 539.848 1977.96C541.458 1974.57 543.665 1971.44 546.47 1968.57L551.117 1963.82ZM519.701 1986.46L551.347 2017.37L535.009 2034.1L528.3 2027.54L539.452 2016.13L514.516 1991.77L519.701 1986.46ZM573.595 1981.18L580.305 1987.73L553.353 2015.32L546.643 2008.77L573.595 1981.18Z" fill="white"/>
<rect width="300" height="350.621" transform="matrix(-0.71531 -0.698807 -0.698807 0.71531 524 1675)" fill="#B748E7"/>
<path d="M314.225 1620.42L278.65 1656.84L270.95 1649.31L299.386 1620.21L299.173 1620L285.726 1617.08L292.396 1610.25L306.988 1613.35L314.225 1620.42ZM300.795 1679.44C298.934 1677.6 297.433 1675.52 296.292 1673.2C295.164 1670.89 294.589 1668.38 294.569 1665.64C294.549 1662.91 295.253 1660.01 296.682 1656.94C298.123 1653.87 300.47 1650.68 303.724 1647.34C306.724 1644.3 309.743 1641.91 312.781 1640.17C315.843 1638.44 318.842 1637.36 321.779 1636.94C324.727 1636.53 327.537 1636.77 330.207 1637.67C332.89 1638.55 335.357 1640.09 337.609 1642.29C340.039 1644.66 341.722 1647.23 342.657 1650C343.603 1652.75 343.852 1655.49 343.403 1658.2C342.966 1660.92 341.887 1663.4 340.167 1665.64L332.575 1658.22C333.517 1656.66 333.868 1655.06 333.626 1653.41C333.384 1651.76 332.564 1650.25 331.165 1648.89C328.794 1646.57 325.985 1645.84 322.737 1646.7C319.501 1647.57 316.14 1649.77 312.653 1653.29L312.902 1653.53C314.501 1652.98 316.134 1652.78 317.8 1652.93C319.489 1653.07 321.123 1653.52 322.702 1654.28C324.305 1655.03 325.77 1656.06 327.098 1657.35C329.255 1659.46 330.678 1661.85 331.365 1664.51C332.064 1667.16 332.037 1669.85 331.283 1672.56C330.53 1675.28 329.042 1677.78 326.818 1680.05C324.409 1682.52 321.692 1684.15 318.666 1684.95C315.652 1685.75 312.587 1685.7 309.471 1684.79C306.378 1683.88 303.486 1682.09 300.795 1679.44ZM306.665 1673.36C307.851 1674.52 309.19 1675.27 310.682 1675.62C312.174 1675.96 313.662 1675.91 315.145 1675.46C316.628 1675.01 317.96 1674.18 319.141 1672.97C320.323 1671.76 321.116 1670.41 321.52 1668.93C321.937 1667.46 321.96 1665.99 321.592 1664.52C321.223 1663.05 320.446 1661.73 319.26 1660.57C318.371 1659.71 317.385 1659.07 316.302 1658.66C315.231 1658.26 314.122 1658.08 312.974 1658.12C311.837 1658.17 310.727 1658.42 309.643 1658.89C308.57 1659.35 307.605 1660.02 306.748 1660.9C305.602 1662.07 304.82 1663.4 304.404 1664.9C304 1666.4 303.976 1667.9 304.334 1669.38C304.703 1670.88 305.48 1672.2 306.665 1673.36ZM333.858 1712.33C330.811 1709.33 328.915 1706.01 328.169 1702.36C327.435 1698.72 327.859 1694.91 329.441 1690.92C331.036 1686.94 333.784 1682.96 337.687 1678.99C341.566 1675.02 345.459 1672.21 349.366 1670.56C353.284 1668.92 357.052 1668.44 360.67 1669.13C364.31 1669.81 367.654 1671.64 370.701 1674.62C373.747 1677.59 375.649 1680.89 376.406 1684.5C377.175 1688.12 376.786 1691.91 375.238 1695.87C373.702 1699.81 370.989 1703.76 367.098 1707.72C363.195 1711.72 359.267 1714.55 355.314 1716.23C351.373 1717.92 347.576 1718.43 343.924 1717.79C340.272 1717.14 336.916 1715.32 333.858 1712.33ZM340.094 1705.95C342.18 1707.99 344.871 1708.56 348.165 1707.68C351.46 1706.8 355.151 1704.25 359.238 1700.05C361.936 1697.28 363.898 1694.71 365.124 1692.31C366.362 1689.93 366.917 1687.77 366.789 1685.84C366.673 1683.92 365.921 1682.28 364.534 1680.93C362.46 1678.9 359.787 1678.32 356.516 1679.18C353.244 1680.04 349.582 1682.53 345.529 1686.65C342.796 1689.45 340.793 1692.06 339.52 1694.48C338.271 1696.89 337.705 1699.07 337.821 1701.02C337.949 1702.95 338.707 1704.59 340.094 1705.95ZM217.46 1641.81L243.148 1666.9L237.914 1672.26L212.227 1647.17L217.46 1641.81ZM185.8 1673.12L190.431 1667.07C193.102 1669.68 196.039 1672.52 199.243 1675.58C202.48 1678.62 205.832 1681.66 209.3 1684.72C212.8 1687.75 216.232 1690.55 219.595 1693.12L215.301 1698.41C211.707 1695.88 208.128 1693.17 204.563 1690.27C201.064 1687.38 197.713 1684.43 194.51 1681.43C191.34 1678.46 188.437 1675.69 185.8 1673.12ZM217.012 1649.98L223.471 1656.29L200.627 1679.68L194.168 1673.37L217.012 1649.98ZM228.028 1660.74L234.487 1667.05L211.644 1690.44L205.184 1684.13L228.028 1660.74ZM252.619 1668.33L259.279 1674.83L213.983 1721.2L207.324 1714.69L252.619 1668.33ZM229.274 1678.4L241.091 1689.94L235.857 1695.3L224.04 1683.76L229.274 1678.4ZM268.867 1686.55L303.467 1720.35L298.575 1725.35L263.975 1691.55L268.867 1686.55ZM258.603 1697.76L292.452 1730.82L287.56 1735.83L253.711 1702.76L258.603 1697.76ZM272.868 1694.27L279.527 1700.78L267.69 1712.9L261.03 1706.39L272.868 1694.27ZM288.991 1710.02L295.651 1716.53L283.813 1728.65L277.154 1722.14L288.991 1710.02ZM247.406 1701.2L289.367 1742.19L284.28 1747.4L242.319 1706.41L247.406 1701.2ZM244.631 1713.66L276.678 1744.97L265.379 1756.53L239.992 1731.73L235.785 1736.04L229.175 1729.58L237.735 1720.82L263.172 1745.67L265.471 1743.31L239.984 1718.42L244.631 1713.66ZM230.985 1727.73L264.233 1760.21L259.489 1765.07L226.24 1732.59L230.985 1727.73ZM327.719 1758.52L337.183 1767.77L331.9 1773.17L322.437 1763.93L327.719 1758.52ZM320.765 1739.5L326.223 1744.83L321.967 1749.18C318.967 1752.26 315.679 1754.69 312.103 1756.48C308.593 1758.27 304.908 1759.23 301.049 1759.38C297.223 1759.56 293.352 1758.71 289.436 1756.84L290.968 1748.16C294.419 1749.84 297.696 1750.69 300.799 1750.72C303.934 1750.72 306.814 1750.1 309.44 1748.89C312.098 1747.63 314.455 1745.96 316.509 1743.85L320.765 1739.5ZM322.117 1740.82L327.525 1746.1L322.878 1750.86C321.476 1752.29 320.29 1753.91 319.321 1755.7C318.384 1757.46 317.73 1759.36 317.358 1761.42C316.986 1763.47 316.978 1765.61 317.334 1767.85C317.691 1770.09 318.493 1772.41 319.742 1774.8L311.15 1776.59C309.325 1772.91 308.424 1769.23 308.447 1765.53C308.503 1761.87 309.303 1758.34 310.848 1754.96C312.458 1751.57 314.665 1748.44 317.47 1745.57L322.117 1740.82ZM290.701 1763.46L322.347 1794.37L306.009 1811.1L299.3 1804.54L310.452 1793.13L285.516 1768.77L290.701 1763.46ZM344.595 1758.18L351.305 1764.73L324.353 1792.32L317.643 1785.77L344.595 1758.18Z" fill="white"/>
<rect x="1251" y="2362" width="244" height="144" fill="#FFCE08"/>
<path d="M1338.69 2422.5C1336.18 2422.5 1333.94 2422.04 1331.98 2421.11C1330.03 2420.19 1328.48 2418.92 1327.33 2417.29C1326.18 2415.67 1325.58 2413.81 1325.53 2411.72H1332.99C1333.07 2413.13 1333.67 2414.27 1334.77 2415.15C1335.87 2416.02 1337.18 2416.46 1338.69 2416.46C1339.9 2416.46 1340.96 2416.19 1341.89 2415.66C1342.82 2415.12 1343.55 2414.37 1344.07 2413.41C1344.6 2412.44 1344.87 2411.32 1344.87 2410.07C1344.87 2408.79 1344.6 2407.67 1344.05 2406.69C1343.52 2405.72 1342.78 2404.97 1341.83 2404.42C1340.89 2403.88 1339.8 2403.6 1338.59 2403.59C1337.52 2403.59 1336.48 2403.81 1335.48 2404.24C1334.48 2404.68 1333.71 2405.28 1333.15 2406.04L1326.32 2404.81L1328.04 2385.64H1350.27V2391.92H1334.38L1333.44 2401.03H1333.65C1334.29 2400.13 1335.25 2399.39 1336.54 2398.79C1337.83 2398.2 1339.28 2397.91 1340.88 2397.91C1343.07 2397.91 1345.02 2398.42 1346.73 2399.45C1348.45 2400.48 1349.81 2401.89 1350.8 2403.69C1351.8 2405.48 1352.29 2407.54 1352.27 2409.87C1352.29 2412.32 1351.72 2414.5 1350.57 2416.41C1349.43 2418.3 1347.84 2419.79 1345.79 2420.88C1343.76 2421.96 1341.39 2422.5 1338.69 2422.5ZM1371.89 2422.8C1368.84 2422.79 1366.21 2422.04 1364.01 2420.54C1361.82 2419.05 1360.13 2416.89 1358.95 2414.06C1357.78 2411.23 1357.2 2407.83 1357.21 2403.85C1357.21 2399.89 1357.8 2396.51 1358.97 2393.72C1360.15 2390.92 1361.84 2388.8 1364.03 2387.34C1366.23 2385.87 1368.85 2385.14 1371.89 2385.14C1374.94 2385.14 1377.55 2385.87 1379.74 2387.34C1381.94 2388.81 1383.64 2390.94 1384.82 2393.73C1386 2396.51 1386.59 2399.89 1386.58 2403.85C1386.58 2407.84 1385.99 2411.25 1384.8 2414.08C1383.63 2416.91 1381.95 2419.07 1379.76 2420.56C1377.57 2422.05 1374.95 2422.8 1371.89 2422.8ZM1371.89 2416.42C1373.98 2416.42 1375.64 2415.38 1376.88 2413.28C1378.13 2411.19 1378.74 2408.04 1378.73 2403.85C1378.73 2401.1 1378.45 2398.8 1377.88 2396.96C1377.32 2395.13 1376.53 2393.75 1375.5 2392.83C1374.48 2391.9 1373.28 2391.44 1371.89 2391.44C1369.82 2391.44 1368.17 2392.48 1366.92 2394.55C1365.68 2396.62 1365.05 2399.72 1365.04 2403.85C1365.04 2406.65 1365.32 2408.98 1365.88 2410.85C1366.44 2412.71 1367.24 2414.1 1368.27 2415.04C1369.3 2415.96 1370.51 2416.42 1371.89 2416.42ZM1406.32 2422.8C1403.26 2422.79 1400.64 2422.04 1398.44 2420.54C1396.25 2419.05 1394.56 2416.89 1393.37 2414.06C1392.2 2411.23 1391.62 2407.83 1391.63 2403.85C1391.63 2399.89 1392.22 2396.51 1393.39 2393.72C1394.58 2390.92 1396.26 2388.8 1398.45 2387.34C1400.65 2385.87 1403.28 2385.14 1406.32 2385.14C1409.36 2385.14 1411.98 2385.87 1414.17 2387.34C1416.37 2388.81 1418.06 2390.94 1419.24 2393.73C1420.43 2396.51 1421.01 2399.89 1421 2403.85C1421 2407.84 1420.41 2411.25 1419.23 2414.08C1418.06 2416.91 1416.37 2419.07 1414.18 2420.56C1411.99 2422.05 1409.37 2422.8 1406.32 2422.8ZM1406.32 2416.42C1408.4 2416.42 1410.06 2415.38 1411.31 2413.28C1412.55 2411.19 1413.17 2408.04 1413.15 2403.85C1413.15 2401.1 1412.87 2398.8 1412.3 2396.96C1411.75 2395.13 1410.95 2393.75 1409.92 2392.83C1408.9 2391.9 1407.7 2391.44 1406.32 2391.44C1404.25 2391.44 1402.59 2392.48 1401.35 2394.55C1400.1 2396.62 1399.48 2399.72 1399.46 2403.85C1399.46 2406.65 1399.74 2408.98 1400.3 2410.85C1400.87 2412.71 1401.67 2414.1 1402.7 2415.04C1403.73 2415.96 1404.93 2416.42 1406.32 2416.42ZM1300.86 2446.1H1308.31V2451.2H1300.86V2446.1ZM1300.86 2455.6H1308.31V2460.75H1300.86V2455.6ZM1316.16 2441.15H1322.51V2464.7H1316.16V2441.15ZM1307.21 2441.95H1313.41V2464.5H1307.21V2441.95ZM1293.66 2443.1C1295.72 2443.1 1297.54 2443.53 1299.11 2444.4C1300.71 2445.27 1301.96 2446.48 1302.86 2448.05C1303.76 2449.58 1304.21 2451.37 1304.21 2453.4C1304.21 2455.43 1303.76 2457.23 1302.86 2458.8C1301.96 2460.33 1300.71 2461.53 1299.11 2462.4C1297.54 2463.27 1295.74 2463.7 1293.71 2463.7C1291.64 2463.7 1289.81 2463.27 1288.21 2462.4C1286.64 2461.53 1285.41 2460.33 1284.51 2458.8C1283.64 2457.23 1283.21 2455.43 1283.21 2453.4C1283.21 2451.37 1283.66 2449.58 1284.56 2448.05C1285.46 2446.48 1286.69 2445.27 1288.26 2444.4C1289.82 2443.53 1291.62 2443.1 1293.66 2443.1ZM1293.71 2448.3C1292.81 2448.3 1292.01 2448.5 1291.31 2448.9C1290.61 2449.3 1290.06 2449.88 1289.66 2450.65C1289.26 2451.42 1289.06 2452.33 1289.06 2453.4C1289.06 2454.47 1289.26 2455.38 1289.66 2456.15C1290.06 2456.88 1290.61 2457.47 1291.31 2457.9C1292.01 2458.3 1292.79 2458.5 1293.66 2458.5C1294.59 2458.5 1295.41 2458.3 1296.11 2457.9C1296.81 2457.47 1297.36 2456.88 1297.76 2456.15C1298.16 2455.38 1298.36 2454.47 1298.36 2453.4C1298.36 2452.33 1298.16 2451.42 1297.76 2450.65C1297.36 2449.88 1296.81 2449.3 1296.11 2448.9C1295.41 2448.5 1294.61 2448.3 1293.71 2448.3ZM1291.01 2466.45H1322.51V2478.95H1297.76V2484.55H1291.11V2474.1H1315.86V2471.6H1291.01V2466.45ZM1291.11 2481.75H1324.01V2486.95H1291.11V2481.75ZM1329.05 2476.95H1371V2482.35H1329.05V2476.95ZM1346.65 2468.15H1353.25V2479.1H1346.65V2468.15ZM1333.8 2444.1H1366.25V2459.55H1340.45V2467.3H1333.85V2454.35H1359.65V2449.4H1333.8V2444.1ZM1333.85 2464.7H1367.3V2470H1333.85V2464.7ZM1375.05 2467H1416.95V2472.35H1375.05V2467ZM1392.5 2470.5H1399.15V2487.45H1392.5V2470.5ZM1395.9 2442.7C1399.2 2442.7 1402.1 2443.13 1404.6 2444C1407.13 2444.83 1409.1 2446.03 1410.5 2447.6C1411.9 2449.17 1412.6 2451 1412.6 2453.1C1412.6 2455.23 1411.9 2457.08 1410.5 2458.65C1409.1 2460.18 1407.13 2461.38 1404.6 2462.25C1402.1 2463.08 1399.2 2463.5 1395.9 2463.5C1392.6 2463.5 1389.68 2463.08 1387.15 2462.25C1384.65 2461.38 1382.68 2460.18 1381.25 2458.65C1379.85 2457.08 1379.15 2455.23 1379.15 2453.1C1379.15 2451 1379.85 2449.17 1381.25 2447.6C1382.68 2446.03 1384.65 2444.83 1387.15 2444C1389.68 2443.13 1392.6 2442.7 1395.9 2442.7ZM1395.85 2447.95C1393.85 2447.95 1392.1 2448.15 1390.6 2448.55C1389.13 2448.95 1388 2449.53 1387.2 2450.3C1386.4 2451.03 1386 2451.97 1386 2453.1C1386 2454.2 1386.4 2455.13 1387.2 2455.9C1388 2456.67 1389.13 2457.25 1390.6 2457.65C1392.1 2458.02 1393.85 2458.2 1395.85 2458.2C1397.92 2458.2 1399.68 2458.02 1401.15 2457.65C1402.62 2457.25 1403.75 2456.67 1404.55 2455.9C1405.38 2455.13 1405.8 2454.2 1405.8 2453.1C1405.8 2451.97 1405.38 2451.03 1404.55 2450.3C1403.75 2449.53 1402.62 2448.95 1401.15 2448.55C1399.68 2448.15 1397.92 2447.95 1395.85 2447.95ZM1444.65 2449.75H1454.1V2455.15H1444.65V2449.75ZM1431.6 2443.5H1437.05V2447.85C1437.05 2450.92 1436.58 2453.8 1435.65 2456.5C1434.75 2459.17 1433.35 2461.5 1431.45 2463.5C1429.58 2465.5 1427.18 2467 1424.25 2468L1420.7 2462.8C1423.3 2461.93 1425.4 2460.73 1427 2459.2C1428.6 2457.63 1429.76 2455.88 1430.5 2453.95C1431.23 2451.98 1431.6 2449.95 1431.6 2447.85V2443.5ZM1432.95 2443.5H1438.35V2448.25C1438.35 2449.68 1438.55 2451.1 1438.95 2452.5C1439.35 2453.87 1439.96 2455.17 1440.8 2456.4C1441.63 2457.63 1442.7 2458.73 1444 2459.7C1445.3 2460.67 1446.86 2461.45 1448.7 2462.05L1445.2 2467.25C1442.43 2466.28 1440.13 2464.85 1438.3 2462.95C1436.5 2461.05 1435.15 2458.85 1434.25 2456.35C1433.38 2453.82 1432.95 2451.12 1432.95 2448.25V2443.5ZM1428.2 2470.75H1459.8V2487.45H1453.1V2476.05H1428.2V2470.75ZM1453.1 2441.15H1459.8V2468.7H1453.1V2441.15Z" fill="white"/>
<rect x="1210" y="307" width="225" height="304" transform="rotate(-90 1210 307)" fill="#4A4A4A"/>
<path d="M1319.85 183.1H1330.6V188.45H1319.85V183.1ZM1327.1 171.15H1333.8V204.9H1327.1V171.15ZM1303.2 211.3H1334.85V216.65H1303.2V211.3ZM1303.2 202.05H1309.85V214.45H1303.2V202.05ZM1305.75 177.2H1311.15V180.1C1311.15 183.033 1310.68 185.817 1309.75 188.45C1308.82 191.083 1307.38 193.4 1305.45 195.4C1303.55 197.367 1301.1 198.85 1298.1 199.85L1294.8 194.55C1296.7 193.917 1298.33 193.1 1299.7 192.1C1301.1 191.067 1302.23 189.9 1303.1 188.6C1304 187.3 1304.67 185.933 1305.1 184.5C1305.53 183.067 1305.75 181.6 1305.75 180.1V177.2ZM1307.15 177.2H1312.45V180.1C1312.45 181.9 1312.82 183.7 1313.55 185.5C1314.28 187.267 1315.42 188.883 1316.95 190.35C1318.52 191.783 1320.52 192.917 1322.95 193.75L1319.7 198.9C1316.83 197.933 1314.47 196.517 1312.6 194.65C1310.77 192.75 1309.4 190.55 1308.5 188.05C1307.6 185.517 1307.15 182.867 1307.15 180.1V177.2ZM1296.6 174.25H1321.5V179.55H1296.6V174.25ZM1343.1 173.65H1362.9V178.9H1343.1V173.65ZM1348.8 184H1355.35V195.4H1348.8V184ZM1360.25 173.65H1366.85V176.65C1366.85 178.183 1366.8 179.967 1366.7 182C1366.6 184.033 1366.28 186.317 1365.75 188.85L1359.3 188.3C1359.8 185.833 1360.08 183.667 1360.15 181.8C1360.21 179.9 1360.25 178.183 1360.25 176.65V173.65ZM1371.3 171.1H1378V199.35H1371.3V171.1ZM1375.4 182.5H1383.55V187.95H1375.4V182.5ZM1341 197.45L1340.35 192.15C1343.15 192.15 1346.15 192.133 1349.35 192.1C1352.58 192.067 1355.86 191.967 1359.2 191.8C1362.53 191.6 1365.73 191.317 1368.8 190.95L1369.25 195.65C1366.08 196.183 1362.85 196.583 1359.55 196.85C1356.25 197.083 1353.01 197.25 1349.85 197.35C1346.71 197.417 1343.76 197.45 1341 197.45ZM1362.4 199.85C1365.7 199.85 1368.53 200.2 1370.9 200.9C1373.3 201.6 1375.15 202.6 1376.45 203.9C1377.75 205.2 1378.4 206.767 1378.4 208.6C1378.4 210.433 1377.75 212 1376.45 213.3C1375.15 214.633 1373.3 215.65 1370.9 216.35C1368.53 217.05 1365.7 217.4 1362.4 217.4C1359.13 217.4 1356.28 217.05 1353.85 216.35C1351.45 215.65 1349.6 214.633 1348.3 213.3C1347 212 1346.35 210.433 1346.35 208.6C1346.35 206.767 1347 205.2 1348.3 203.9C1349.6 202.6 1351.45 201.6 1353.85 200.9C1356.28 200.2 1359.13 199.85 1362.4 199.85ZM1362.4 204.95C1359.4 204.95 1357.1 205.25 1355.5 205.85C1353.93 206.45 1353.15 207.367 1353.15 208.6C1353.15 209.8 1353.93 210.7 1355.5 211.3C1357.1 211.9 1359.4 212.2 1362.4 212.2C1365.36 212.2 1367.63 211.9 1369.2 211.3C1370.8 210.7 1371.6 209.8 1371.6 208.6C1371.6 207.367 1370.8 206.45 1369.2 205.85C1367.63 205.25 1365.36 204.95 1362.4 204.95ZM1387.94 174.9H1412.69V180.2H1387.94V174.9ZM1387.44 199.1L1386.74 193.7C1389.38 193.7 1392.24 193.683 1395.34 193.65C1398.48 193.583 1401.68 193.467 1404.94 193.3C1408.21 193.1 1411.33 192.817 1414.29 192.45L1414.69 197.3C1411.69 197.833 1408.58 198.233 1405.34 198.5C1402.11 198.733 1398.96 198.9 1395.89 199C1392.83 199.067 1390.01 199.1 1387.44 199.1ZM1391.59 179H1397.99V194.75H1391.59V179ZM1402.64 179H1409.04V194.75H1402.64V179ZM1416.79 171.15H1423.44V205.25H1416.79V171.15ZM1421.59 184.2H1429.59V189.65H1421.59V184.2ZM1393.59 211.3H1425.09V216.65H1393.59V211.3ZM1393.59 202.05H1400.29V212.7H1393.59V202.05Z" fill="white"/>
<rect x="1140" y="2524" width="464" height="144" fill="#5568FC"/>
<path d="M1196.88 2610.33V2603.06L1215.09 2574.36H1221.36V2584.42H1217.65L1206.17 2602.6V2602.94H1232.05V2610.33H1196.88ZM1217.82 2618V2608.11L1217.99 2604.9V2574.36H1226.64V2618H1217.82ZM1254.14 2618.6C1251.13 2618.6 1248.44 2618.04 1246.08 2616.93C1243.74 2615.83 1241.88 2614.3 1240.5 2612.35C1239.12 2610.41 1238.41 2608.18 1238.35 2605.66H1247.3C1247.4 2607.35 1248.11 2608.72 1249.43 2609.78C1250.75 2610.83 1252.32 2611.35 1254.14 2611.35C1255.59 2611.35 1256.87 2611.03 1257.97 2610.39C1259.1 2609.74 1259.97 2608.84 1260.59 2607.69C1261.23 2606.52 1261.55 2605.19 1261.55 2603.68C1261.55 2602.15 1261.23 2600.8 1260.57 2599.63C1259.93 2598.47 1259.05 2597.56 1257.91 2596.91C1256.77 2596.25 1255.47 2595.92 1254.01 2595.9C1252.73 2595.9 1251.49 2596.17 1250.28 2596.69C1249.09 2597.22 1248.16 2597.94 1247.49 2598.85L1239.29 2597.38L1241.35 2574.36H1268.03V2581.91H1248.96L1247.83 2592.84H1248.09C1248.85 2591.76 1250.01 2590.86 1251.56 2590.15C1253.11 2589.44 1254.84 2589.09 1256.76 2589.09C1259.39 2589.09 1261.73 2589.7 1263.79 2590.94C1265.85 2592.18 1267.48 2593.87 1268.67 2596.03C1269.86 2598.18 1270.45 2600.65 1270.44 2603.45C1270.45 2606.39 1269.77 2609 1268.39 2611.29C1267.03 2613.56 1265.12 2615.35 1262.66 2616.66C1260.22 2617.95 1257.38 2618.6 1254.14 2618.6ZM1293.98 2618.96C1290.32 2618.94 1287.16 2618.04 1284.52 2616.25C1281.89 2614.46 1279.87 2611.87 1278.45 2608.48C1277.04 2605.08 1276.35 2601 1276.36 2596.22C1276.36 2591.47 1277.06 2587.41 1278.47 2584.06C1279.89 2580.71 1281.92 2578.16 1284.54 2576.41C1287.19 2574.65 1290.33 2573.77 1293.98 2573.77C1297.63 2573.77 1300.77 2574.65 1303.4 2576.41C1306.04 2578.17 1308.07 2580.73 1309.49 2584.08C1310.91 2587.42 1311.62 2591.47 1311.6 2596.22C1311.6 2601.01 1310.89 2605.1 1309.47 2608.5C1308.07 2611.89 1306.05 2614.48 1303.42 2616.27C1300.79 2618.06 1297.65 2618.96 1293.98 2618.96ZM1293.98 2611.31C1296.48 2611.31 1298.48 2610.05 1299.97 2607.54C1301.46 2605.02 1302.2 2601.25 1302.19 2596.22C1302.19 2592.91 1301.84 2590.16 1301.16 2587.96C1300.5 2585.76 1299.54 2584.1 1298.31 2582.99C1297.09 2581.88 1295.64 2581.33 1293.98 2581.33C1291.5 2581.33 1289.51 2582.57 1288.02 2585.06C1286.52 2587.55 1285.77 2591.27 1285.76 2596.22C1285.76 2599.58 1286.09 2602.38 1286.76 2604.62C1287.44 2606.85 1288.4 2608.53 1289.64 2609.65C1290.87 2610.76 1292.32 2611.31 1293.98 2611.31ZM1333.09 2573.06H1340.95V2605.34H1333.09V2573.06ZM1333.09 2603.3H1336.99C1340.31 2603.3 1343.45 2603.2 1346.41 2603C1349.41 2602.8 1352.51 2602.38 1355.71 2601.74L1356.73 2608.4C1353.41 2609.08 1350.17 2609.52 1347.01 2609.72C1343.85 2609.92 1340.51 2610.02 1336.99 2610.02H1333.09V2603.3ZM1371.19 2567.72H1378.81V2623.28H1371.19V2567.72ZM1348.51 2585.3H1361.23V2591.72H1348.51V2585.3ZM1359.43 2568.68H1366.87V2620.82H1359.43V2568.68ZM1424.29 2567.66H1432.27V2623.4H1424.29V2567.66ZM1402.33 2571.56C1405.17 2571.56 1407.69 2572.38 1409.89 2574.02C1412.09 2575.62 1413.81 2577.92 1415.05 2580.92C1416.33 2583.88 1416.97 2587.38 1416.97 2591.42C1416.97 2595.5 1416.33 2599.04 1415.05 2602.04C1413.81 2605 1412.09 2607.3 1409.89 2608.94C1407.69 2610.54 1405.17 2611.34 1402.33 2611.34C1399.53 2611.34 1397.03 2610.54 1394.83 2608.94C1392.63 2607.3 1390.89 2605 1389.61 2602.04C1388.37 2599.04 1387.75 2595.5 1387.75 2591.42C1387.75 2587.38 1388.37 2583.88 1389.61 2580.92C1390.89 2577.92 1392.63 2575.62 1394.83 2574.02C1397.03 2572.38 1399.53 2571.56 1402.33 2571.56ZM1402.33 2578.82C1400.97 2578.82 1399.77 2579.3 1398.73 2580.26C1397.69 2581.22 1396.87 2582.64 1396.27 2584.52C1395.71 2586.36 1395.43 2588.66 1395.43 2591.42C1395.43 2594.14 1395.71 2596.46 1396.27 2598.38C1396.87 2600.26 1397.69 2601.68 1398.73 2602.64C1399.77 2603.6 1400.97 2604.08 1402.33 2604.08C1403.73 2604.08 1404.95 2603.6 1405.99 2602.64C1407.03 2601.68 1407.83 2600.26 1408.39 2598.38C1408.99 2596.46 1409.29 2594.14 1409.29 2591.42C1409.29 2588.66 1408.99 2586.36 1408.39 2584.52C1407.83 2582.64 1407.03 2581.22 1405.99 2580.26C1404.95 2579.3 1403.73 2578.82 1402.33 2578.82ZM1479.48 2567.66H1487.46V2623.4H1479.48V2567.66ZM1444.08 2572.1H1452V2585.66H1463.52V2572.1H1471.44V2610.44H1444.08V2572.1ZM1452 2591.84V2604.08H1463.52V2591.84H1452ZM1524.9 2578.1H1536.24V2584.58H1524.9V2578.1ZM1509.24 2570.6H1515.78V2575.82C1515.78 2579.5 1515.22 2582.96 1514.1 2586.2C1513.02 2589.4 1511.34 2592.2 1509.06 2594.6C1506.82 2597 1503.94 2598.8 1500.42 2600L1496.16 2593.76C1499.28 2592.72 1501.8 2591.28 1503.72 2589.44C1505.64 2587.56 1507.04 2585.46 1507.92 2583.14C1508.8 2580.78 1509.24 2578.34 1509.24 2575.82V2570.6ZM1510.86 2570.6H1517.34V2576.3C1517.34 2578.02 1517.58 2579.72 1518.06 2581.4C1518.54 2583.04 1519.28 2584.6 1520.28 2586.08C1521.28 2587.56 1522.56 2588.88 1524.12 2590.04C1525.68 2591.2 1527.56 2592.14 1529.76 2592.86L1525.56 2599.1C1522.24 2597.94 1519.48 2596.22 1517.28 2593.94C1515.12 2591.66 1513.5 2589.02 1512.42 2586.02C1511.38 2582.98 1510.86 2579.74 1510.86 2576.3V2570.6ZM1505.16 2603.3H1543.08V2623.34H1535.04V2609.66H1505.16V2603.3ZM1535.04 2567.78H1543.08V2600.84H1535.04V2567.78Z" fill="white"/>
<path d="M2671 1386C2671 1059.17 2564.29 742.853 2369.73 492.918C2175.16 242.983 1905.25 75.5105 1607.68 20.0794L1562 307.327C1797 351.101 2010.15 483.355 2163.8 680.73C2317.45 878.104 2401.72 1127.9 2401.72 1386H2671Z" fill="#0DB310"/>
<path d="M2213.53 473.315L2172.1 502.901L2165.85 494.142L2198.96 470.493L2198.79 470.25L2186.07 465.01L2193.84 459.463L2207.65 465.081L2213.53 473.315ZM2233.44 501.186L2192.01 530.772L2185.75 522.012L2218.87 498.364L2218.69 498.121L2205.97 492.881L2213.74 487.333L2227.56 492.952L2233.44 501.186ZM2209.73 557.512C2207.26 554.023 2205.98 550.418 2205.88 546.696C2205.8 542.988 2206.89 539.308 2209.15 535.658C2211.42 532.021 2214.83 528.591 2219.37 525.369C2223.89 522.142 2228.21 520.06 2232.35 519.122C2236.49 518.198 2240.29 518.391 2243.73 519.701C2247.19 521.016 2250.16 523.406 2252.64 526.872C2255.11 530.338 2256.4 533.915 2256.51 537.604C2256.63 541.307 2255.58 544.969 2253.36 548.591C2251.16 552.202 2247.79 555.615 2243.26 558.828C2238.72 562.073 2234.35 564.173 2230.16 565.126C2225.99 566.092 2222.16 565.935 2218.68 564.654C2215.2 563.372 2212.21 560.992 2209.73 557.512ZM2216.99 552.326C2218.69 554.7 2221.23 555.742 2224.63 555.454C2228.03 555.165 2232.11 553.309 2236.88 549.886C2240.02 547.642 2242.4 545.45 2244.03 543.31C2245.67 541.183 2246.6 539.158 2246.81 537.233C2247.03 535.322 2246.58 533.578 2245.45 532C2243.77 529.64 2241.24 528.595 2237.87 528.864C2234.5 529.133 2230.45 530.942 2225.74 534.29C2222.56 536.563 2220.12 538.777 2218.45 540.932C2216.79 543.092 2215.85 545.138 2215.62 547.073C2215.41 548.997 2215.87 550.748 2216.99 552.326ZM2266.39 589.887L2271.85 597.52L2260.79 605.412L2255.34 597.779L2266.39 589.887ZM2292.46 577.122C2294.41 579.856 2295.62 582.718 2296.1 585.707C2296.57 588.696 2296.26 591.523 2295.18 594.186C2294.14 596.823 2292.37 599.036 2289.86 600.826C2287.36 602.616 2284.67 603.589 2281.8 603.746C2278.93 603.903 2276.16 603.274 2273.48 601.858C2270.81 600.441 2268.49 598.366 2266.54 595.632C2264.56 592.86 2263.33 589.979 2262.86 586.99C2262.39 584 2262.68 581.155 2263.73 578.454C2264.81 575.79 2266.61 573.563 2269.11 571.773C2271.62 569.983 2274.29 569.024 2277.12 568.894C2280.02 568.775 2282.8 569.423 2285.48 570.839C2288.15 572.255 2290.48 574.35 2292.46 577.122ZM2286.02 581.719C2285.05 580.352 2283.9 579.307 2282.58 578.586C2281.33 577.875 2279.98 577.549 2278.53 577.609C2277.15 577.679 2275.77 578.203 2274.4 579.179C2273.04 580.155 2272.08 581.3 2271.52 582.613C2271 583.963 2270.85 585.36 2271.07 586.803C2271.37 588.257 2272 589.668 2272.98 591.035C2273.93 592.364 2275.03 593.384 2276.28 594.095C2277.57 594.778 2278.93 595.072 2280.35 594.974C2281.8 594.915 2283.21 594.397 2284.57 593.42C2285.94 592.444 2286.87 591.294 2287.36 589.97C2287.91 588.658 2288.05 587.293 2287.79 585.877C2287.56 584.434 2286.97 583.048 2286.02 581.719ZM2309.52 594.269L2314.93 601.845L2262.01 639.638L2256.6 632.062L2309.52 594.269ZM2241.97 589.176L2247.46 583.969C2249.66 587.045 2252.1 590.431 2254.8 594.125C2257.56 597.831 2260.46 601.577 2263.51 605.364C2266.63 609.162 2269.78 612.731 2272.97 616.073L2267.86 620.492C2264.43 617.209 2261.15 613.734 2258.01 610.067C2254.88 606.399 2251.97 602.77 2249.29 599.178C2246.61 595.586 2244.17 592.253 2241.97 589.176ZM2327.34 627.044C2329.26 629.74 2330.18 632.669 2330.09 635.832C2330.06 639.006 2329.04 642.198 2327.03 645.409C2325.09 648.632 2322.2 651.612 2318.37 654.352C2314.49 657.118 2310.7 658.91 2306.98 659.729C2303.33 660.559 2299.98 660.485 2296.93 659.508C2293.95 658.543 2291.49 656.711 2289.57 654.015C2287.64 651.319 2286.69 648.384 2286.72 645.21C2286.79 642.009 2287.79 638.798 2289.73 635.576C2291.74 632.365 2294.68 629.376 2298.55 626.609C2302.39 623.87 2306.13 622.086 2309.78 621.256C2313.5 620.437 2316.86 620.53 2319.87 621.534C2322.92 622.511 2325.41 624.347 2327.34 627.044ZM2320.44 631.966C2319.52 630.675 2318.24 629.842 2316.59 629.467C2314.98 629.131 2313.07 629.315 2310.88 630.02C2308.76 630.736 2306.38 632.03 2303.76 633.901C2301.18 635.745 2299.17 637.584 2297.72 639.417C2296.35 641.262 2295.55 643.003 2295.35 644.641C2295.17 646.318 2295.54 647.801 2296.46 649.093C2297.38 650.384 2298.65 651.198 2300.27 651.534C2301.89 651.871 2303.78 651.667 2305.94 650.924C2308.17 650.192 2310.58 648.904 2313.16 647.06C2315.78 645.189 2317.76 643.344 2319.1 641.527C2320.51 639.721 2321.31 637.998 2321.52 636.36C2321.72 634.722 2321.37 633.257 2320.44 631.966ZM2336.62 658.349L2343.25 667.634L2337.04 672.068L2330.41 662.783L2336.62 658.349ZM2321.18 669.373L2327.81 678.659L2321.6 683.093L2314.97 673.808L2321.18 669.373ZM2344.88 644.02L2350.33 651.653L2297.58 689.324L2292.13 681.69L2344.88 644.02ZM2367.66 696.642L2375.35 707.408L2369.2 711.802L2361.51 701.035L2367.66 696.642ZM2364.17 676.689L2368.6 682.898L2363.64 686.437C2360.15 688.932 2356.49 690.746 2352.65 691.88C2348.88 693.024 2345.08 693.328 2341.26 692.79C2337.46 692.291 2333.8 690.777 2330.27 688.248L2333.31 679.973C2336.41 682.23 2339.49 683.646 2342.54 684.222C2345.62 684.77 2348.57 684.675 2351.37 683.938C2354.2 683.173 2356.82 681.936 2359.21 680.228L2364.17 676.689ZM2365.26 678.227L2369.66 684.379L2364.25 688.244C2362.61 689.41 2361.16 690.79 2359.89 692.385C2358.66 693.953 2357.68 695.713 2356.95 697.666C2356.23 699.619 2355.84 701.729 2355.8 703.997C2355.75 706.264 2356.14 708.687 2356.94 711.263L2348.17 711.507C2347.02 707.568 2346.78 703.781 2347.46 700.147C2348.16 696.55 2349.57 693.222 2351.68 690.163C2353.86 687.114 2356.59 684.424 2359.85 682.091L2365.26 678.227ZM2330.35 694.986L2356.06 730.988L2337.04 744.576L2331.59 736.942L2344.57 727.667L2324.32 699.298L2330.35 694.986ZM2384.34 699.272L2389.79 706.905L2358.4 729.32L2352.95 721.687L2384.34 699.272Z" fill="white"/>
<path d="M53 1391C53 1064.17 159.706 747.853 354.272 497.918C548.839 247.983 818.747 80.5105 1116.32 25.0794L1162 312.327C926.997 356.101 713.85 488.355 560.2 685.73C406.551 883.104 322.284 1132.9 322.284 1391H53Z" fill="#0DB310"/>
<path d="M371.768 697.345L411.493 729.184L404.761 737.582L373.009 712.133L372.822 712.366L371.234 726.034L363.786 720.064L365.441 705.239L371.768 697.345ZM393.187 670.621L432.912 702.46L426.18 710.859L394.428 685.409L394.241 685.642L392.653 699.31L385.204 693.34L386.86 678.516L393.187 670.621ZM453.835 678.143C451.149 681.468 448.027 683.681 444.469 684.78C440.923 685.867 437.086 685.818 432.959 684.634C428.842 683.437 424.617 681.091 420.282 677.596C415.95 674.124 412.772 670.525 410.746 666.799C408.731 663.06 407.886 659.356 408.213 655.689C408.538 651.999 410.031 648.492 412.695 645.169C415.359 641.846 418.451 639.63 421.972 638.523C425.503 637.403 429.313 637.42 433.401 638.573C437.476 639.715 441.674 642.029 445.996 645.514C450.354 649.006 453.56 652.638 455.614 656.408C457.678 660.165 458.566 663.893 458.278 667.591C457.99 671.289 456.509 674.806 453.835 678.143ZM446.872 672.561C448.696 670.286 449.008 667.552 447.807 664.359C446.607 661.167 443.712 657.743 439.124 654.087C436.112 651.672 433.354 649.972 430.852 648.986C428.361 647.987 426.16 647.646 424.25 647.963C422.35 648.267 420.793 649.175 419.581 650.688C417.767 652.951 417.448 655.668 418.622 658.84C419.797 662.011 422.636 665.412 427.138 669.042C430.19 671.488 432.981 673.226 435.511 674.255C438.039 675.262 440.264 675.612 442.188 675.306C444.098 674.989 445.659 674.074 446.872 672.561ZM469.606 614.816L475.473 607.497L486.069 615.99L480.203 623.309L469.606 614.816ZM450.243 593.196C452.345 590.575 454.77 588.631 457.519 587.365C460.267 586.1 463.07 585.625 465.927 585.941C468.747 586.228 471.359 587.334 473.762 589.26C476.165 591.187 477.832 593.509 478.763 596.229C479.693 598.948 479.84 601.787 479.203 604.745C478.566 607.704 477.197 610.494 475.096 613.115C472.965 615.774 470.526 617.736 467.777 619.001C465.028 620.267 462.211 620.76 459.325 620.48C456.468 620.164 453.838 619.043 451.435 617.117C449.032 615.191 447.383 612.883 446.489 610.192C445.588 607.437 445.456 604.58 446.092 601.621C446.729 598.663 448.113 595.855 450.243 593.196ZM456.416 598.143C455.365 599.454 454.671 600.842 454.335 602.307C453.991 603.706 454.044 605.094 454.495 606.472C454.938 607.784 455.815 608.966 457.126 610.016C458.437 611.067 459.8 611.68 461.213 611.857C462.656 611.996 464.041 611.761 465.368 611.15C466.688 610.473 467.873 609.479 468.924 608.169C469.945 606.894 470.628 605.557 470.972 604.158C471.279 602.73 471.193 601.345 470.713 600.004C470.263 598.626 469.382 597.412 468.071 596.361C466.76 595.31 465.401 594.73 463.995 594.619C462.581 594.443 461.229 594.675 459.938 595.315C458.611 595.926 457.437 596.869 456.416 598.143ZM462.113 572.119L467.936 564.854L518.679 605.524L512.856 612.789L462.113 572.119ZM475.554 638.511L469.053 634.646C471.417 631.697 474.011 628.423 476.834 624.825C479.651 621.162 482.468 617.349 485.285 613.387C488.094 609.359 490.674 605.357 493.024 601.38L498.662 605.091C496.435 609.287 493.983 613.391 491.304 617.405C488.626 621.418 485.922 625.202 483.193 628.756C480.464 632.31 477.918 635.562 475.554 638.511ZM488.819 546.074C490.891 543.489 493.461 541.811 496.53 541.042C499.592 540.206 502.941 540.319 506.577 541.379C510.205 542.373 513.859 544.344 517.536 547.292C521.251 550.269 524.006 553.434 525.803 556.789C527.593 560.077 528.432 563.321 528.32 566.521C528.2 569.654 527.105 572.514 525.032 575.099C522.96 577.685 520.393 579.395 517.332 580.23C514.233 581.037 510.87 580.942 507.241 579.948C503.606 578.888 499.931 576.869 496.216 573.892C492.539 570.945 489.805 567.827 488.015 564.538C486.218 561.184 485.393 557.922 485.542 554.751C485.654 551.552 486.747 548.66 488.819 546.074ZM495.428 551.371C494.436 552.61 493.982 554.07 494.068 555.754C494.183 557.401 494.878 559.184 496.151 561.102C497.418 562.954 499.307 564.887 501.82 566.901C504.296 568.886 506.612 570.323 508.769 571.215C510.918 572.04 512.809 572.33 514.442 572.083C516.104 571.801 517.431 571.04 518.423 569.802C519.416 568.564 519.854 567.121 519.739 565.474C519.624 563.827 518.915 562.063 517.612 560.181C516.302 558.234 514.409 556.268 511.933 554.283C509.42 552.27 507.108 550.865 504.995 550.068C502.875 549.206 500.998 548.899 499.365 549.145C497.733 549.391 496.42 550.133 495.428 551.371ZM516.427 528.641L523.563 519.737L529.517 524.509L522.381 533.413L516.427 528.641ZM531.23 540.505L538.366 531.601L544.319 536.373L537.183 545.276L531.23 540.505ZM500.394 524.581L506.26 517.262L556.839 557.801L550.973 565.12L500.394 524.581ZM544.851 488.364L553.125 478.041L559.025 482.769L550.75 493.092L544.851 488.364ZM526.598 497.148L531.369 491.194L536.121 495.003C539.472 497.688 542.213 500.722 544.345 504.106C546.47 507.424 547.793 510.996 548.315 514.823C548.865 518.613 548.402 522.548 546.927 526.628L538.138 525.954C539.467 522.354 539.995 519.01 539.721 515.919C539.41 512.8 538.52 509.993 537.05 507.499C535.544 504.976 533.644 502.795 531.35 500.956L526.598 497.148ZM527.78 495.673L532.508 489.774L537.697 493.933C539.262 495.188 540.985 496.21 542.865 496.999C544.708 497.758 546.668 498.223 548.745 498.392C550.822 498.562 552.958 498.36 555.152 497.786C557.346 497.212 559.574 496.187 561.834 494.709L564.45 503.085C560.972 505.261 557.392 506.519 553.711 506.858C550.06 507.161 546.475 506.71 542.955 505.504C539.429 504.232 536.1 502.342 532.969 499.832L527.78 495.673ZM553.389 524.721L581.057 490.201L599.3 504.823L593.434 512.142L580.981 502.16L559.179 529.362L553.389 524.721ZM542.855 471.603L548.721 464.284L578.818 488.406L572.951 495.725L542.855 471.603Z" fill="white"/>
<path d="M1482.32 2270.13C1421.52 2330.41 1323.48 2330.41 1262.68 2270.13L453.019 1467.54C354.081 1369.47 423.532 1200.75 562.843 1200.75L2182.16 1200.75C2321.47 1200.75 2390.92 1369.47 2291.98 1467.54L1482.32 2270.13Z" fill="#9CD834"/>
<path d="M2338 1345.5C2338 1080.68 2236.33 826.709 2055.36 639.454C1874.39 452.199 1628.93 347 1373 347C1117.07 347 871.615 452.199 690.642 639.454C509.67 826.709 408 1080.68 408 1345.5L1373 1345.5H2338Z" fill="#9CD834"/>
<mask id="path-29-inside-1_379_3776" fill="white">
<path d="M199.581 1061.69L1179.19 82.0784L2348.72 1251.6L1369.11 2231.21L199.581 1061.69Z"/>
</mask>
<path d="M2348.72 1251.6L2343.06 1245.95L1363.45 2225.56L1369.11 2231.21L1374.76 2236.87L2354.37 1257.26L2348.72 1251.6Z" fill="white" mask="url(#path-29-inside-1_379_3776)"/>
<mask id="path-31-inside-2_379_3776" fill="white">
<path d="M394.789 1256.9L1101.9 549.79L2076.21 1524.11L1369.11 2231.21L394.789 1256.9Z"/>
</mask>
<path d="M1369.11 2231.21L1374.76 2225.56L400.446 1251.24L394.789 1256.9L389.132 1262.55L1363.45 2236.87L1369.11 2231.21Z" fill="white" mask="url(#path-31-inside-2_379_3776)"/>
<path d="M1369.11 2231.21L1374.76 2225.56L400.446 1251.24L394.789 1256.9L389.132 1262.55L1363.45 2236.87L1369.11 2231.21Z" fill="white" mask="url(#path-31-inside-2_379_3776)"/>
<rect x="741.95" y="1594.4" width="893" height="893" transform="rotate(-45 741.95 1594.4)" stroke="white" stroke-width="7"/>
</svg>
