<svg width="252" height="317" viewBox="0 0 252 317" fill="none" xmlns="http://www.w3.org/2000/svg">
    <path d="M11.1162 14.2495L13.5576 7.1792H15.4424L17.8887 14.2495H16.3115L14.5293 8.77588H14.4707L12.6836 14.2495H11.1162ZM16.3799 11.4712V12.6187H12.6055V11.4712H16.3799Z" fill="#707070"/>
    <path d="M11.917 22.1792H14.7295C15.234 22.1792 15.6621 22.2557 16.0137 22.4087C16.3652 22.5584 16.6289 22.77 16.8047 23.0435C16.9837 23.3136 17.0732 23.631 17.0732 23.9956C17.0732 24.2625 17.0179 24.5002 16.9072 24.7085C16.7998 24.9168 16.6501 25.0894 16.458 25.2261C16.2692 25.3595 16.0495 25.4539 15.7988 25.5093V25.5776C16.069 25.5907 16.3229 25.6688 16.5605 25.812C16.7982 25.9552 16.9886 26.1554 17.1318 26.4126C17.2751 26.6665 17.3467 26.9627 17.3467 27.3013C17.3467 27.6789 17.2539 28.0142 17.0684 28.3071C16.8828 28.6001 16.6061 28.8312 16.2383 29.0005C15.8737 29.1665 15.4326 29.2495 14.915 29.2495H11.917V22.1792ZM14.6172 28.0435C14.8939 28.0435 15.1217 28.0076 15.3008 27.936C15.4831 27.8612 15.6165 27.7586 15.7012 27.6284C15.7858 27.495 15.8281 27.3371 15.8281 27.1548C15.8281 26.9595 15.7809 26.7837 15.6865 26.6274C15.5921 26.4712 15.4554 26.3524 15.2764 26.271C15.1006 26.1864 14.8939 26.144 14.6562 26.144H13.3818V28.0435H14.6172ZM14.5098 25.1431C14.7148 25.1431 14.8988 25.1056 15.0615 25.0308C15.2275 24.9559 15.3561 24.8501 15.4473 24.7134C15.5417 24.5767 15.5889 24.4155 15.5889 24.23C15.5889 24.0542 15.5482 23.9028 15.4668 23.7759C15.3854 23.6457 15.265 23.5464 15.1055 23.478C14.9492 23.4064 14.7604 23.3706 14.5391 23.3706H13.3818V25.1431H14.5098Z" fill="#707070"/>
    <path d="M16.2041 39.645C16.1683 39.3846 16.0804 39.16 15.9404 38.9712C15.8037 38.7791 15.6247 38.6326 15.4033 38.5317C15.182 38.4308 14.9362 38.3804 14.666 38.3804C14.2982 38.3804 13.9759 38.4731 13.6992 38.6587C13.4258 38.841 13.2126 39.1079 13.0596 39.4595C12.9066 39.8078 12.8301 40.2261 12.8301 40.7144C12.8301 41.2157 12.9066 41.6405 13.0596 41.9888C13.2126 42.3338 13.4258 42.5975 13.6992 42.7798C13.9759 42.9588 14.2933 43.0483 14.6514 43.0483C14.9215 43.0483 15.1641 42.9995 15.3789 42.9019C15.597 42.8042 15.7777 42.6659 15.9209 42.4868C16.0641 42.3045 16.1585 42.0881 16.2041 41.8374L17.6934 41.8521C17.638 42.2948 17.4785 42.7065 17.2148 43.0874C16.9544 43.4683 16.6029 43.7743 16.1602 44.0054C15.7174 44.2332 15.208 44.3472 14.6318 44.3472C14.0003 44.3472 13.4355 44.2039 12.9375 43.9175C12.4395 43.6278 12.0488 43.2095 11.7656 42.6626C11.4857 42.1125 11.3457 41.4631 11.3457 40.7144C11.3457 39.9591 11.4873 39.3081 11.7705 38.7612C12.057 38.2144 12.4476 37.7977 12.9424 37.5112C13.4404 37.2248 14.0036 37.0815 14.6318 37.0815C15.1755 37.0815 15.667 37.1825 16.1064 37.3843C16.5459 37.5861 16.9023 37.8807 17.1758 38.2681C17.4525 38.6522 17.625 39.1112 17.6934 39.645H16.2041Z" fill="#707070"/>
    <path d="M12.249 59.2495V57.9897H14.0215C14.4772 57.9897 14.8564 57.9084 15.1592 57.7456C15.4619 57.5828 15.6898 57.3338 15.8428 56.9985C15.9958 56.66 16.0723 56.2303 16.0723 55.7095C16.0723 55.1886 15.9958 54.7606 15.8428 54.4253C15.693 54.0868 15.4668 53.8377 15.1641 53.6782C14.8613 53.5187 14.4837 53.439 14.0312 53.439H12.2148V52.1792H14.1045C14.8141 52.1792 15.4261 52.3208 15.9404 52.604C16.458 52.884 16.8535 53.2892 17.127 53.8198C17.4036 54.3504 17.542 54.9803 17.542 55.7095C17.542 56.4419 17.4036 57.0734 17.127 57.604C16.8503 58.1346 16.4515 58.5415 15.9307 58.8247C15.4131 59.1079 14.7979 59.2495 14.085 59.2495H12.249ZM13.0596 59.2495H11.5947V52.1792H13.0596V59.2495Z" fill="#707070"/>
    <path d="M12.1562 67.1792H16.9023V68.3901H13.6211V70.1089H16.6533V71.3149H13.6211V73.0386H16.9121V74.2495H12.1562V67.1792Z" fill="#707070"/>
    <path d="M12.2881 82.1792H16.9463V83.3901H13.7529V85.1089H16.6387V86.3149H13.7529V89.2495H12.2881V82.1792Z" fill="#707070"/>
    <path d="M16.126 99.4595C16.0641 99.2349 15.9632 99.0428 15.8232 98.8833C15.6833 98.7205 15.5124 98.5968 15.3105 98.5122C15.112 98.4243 14.8825 98.3804 14.6221 98.3804C14.2575 98.3804 13.9368 98.4715 13.6602 98.6538C13.3867 98.8361 13.1719 99.103 13.0156 99.4546C12.8626 99.8029 12.7861 100.221 12.7861 100.709C12.7861 101.201 12.861 101.623 13.0107 101.974C13.1637 102.322 13.3786 102.589 13.6553 102.775C13.9352 102.957 14.2624 103.048 14.6367 103.048C14.9753 103.048 15.2666 102.986 15.5107 102.863C15.7581 102.739 15.9453 102.565 16.0723 102.34C16.2025 102.112 16.2676 101.847 16.2676 101.544L16.5703 101.588H14.7344V100.47H17.6836V101.359C17.6836 101.968 17.5534 102.498 17.293 102.951C17.0326 103.4 16.6712 103.745 16.209 103.986C15.75 104.227 15.2243 104.347 14.6318 104.347C13.9743 104.347 13.3932 104.201 12.8887 103.908C12.3874 103.611 11.9967 103.19 11.7168 102.643C11.4401 102.096 11.3018 101.455 11.3018 100.719C11.3018 99.9738 11.445 99.3276 11.7314 98.7808C12.0212 98.2306 12.415 97.8107 12.9131 97.521C13.4111 97.228 13.9727 97.0815 14.5977 97.0815C15.125 97.0815 15.6068 97.1825 16.043 97.3843C16.4792 97.5861 16.834 97.866 17.1074 98.2241C17.3841 98.5822 17.555 98.994 17.6201 99.4595H16.126Z" fill="#707070"/>
    <path d="M11.502 112.179H12.9668V115.109H16.0332V112.179H17.498V119.25H16.0332V116.315H12.9668V119.25H11.502V112.179Z" fill="#707070"/>
    <path d="M15.2324 134.25H13.7676V127.179H15.2324V134.25Z" fill="#707070"/>
    <path d="M16.6387 142.179V147.111C16.6387 147.56 16.5378 147.954 16.3359 148.292C16.1374 148.631 15.8558 148.891 15.4912 149.074C15.1266 149.256 14.7083 149.347 14.2363 149.347C13.8034 149.347 13.4144 149.271 13.0693 149.118C12.7275 148.961 12.4574 148.729 12.2588 148.419C12.0602 148.107 11.9609 147.726 11.9609 147.277H13.4258C13.429 147.459 13.4681 147.617 13.543 147.75C13.6211 147.884 13.7253 147.986 13.8555 148.058C13.9857 148.126 14.137 148.161 14.3096 148.161C14.5928 148.161 14.8076 148.073 14.9541 147.897C15.1006 147.718 15.1755 147.456 15.1787 147.111V142.179H16.6387Z" fill="#707070"/>
    <path d="M11.79 157.179H13.2549V160.314H13.3477L15.916 157.179H17.6836L15.042 160.343L17.7129 164.25H15.9502L13.9922 161.325L13.2549 162.228V164.25H11.79V157.179Z" fill="#707070"/>
    <path d="M12.3711 172.179H13.8359V178.039H16.8779V179.25H12.3711V172.179Z" fill="#707070"/>
    <path d="M17.4443 209.25H16.1748L13.0693 204.757H13.0156V209.25H11.5508V202.179H12.8398L15.9209 206.667H15.9844V202.179H17.4443V209.25Z" fill="#707070"/>
    <path d="M17.8008 220.714C17.8008 221.463 17.6576 222.112 17.3711 222.663C17.0879 223.209 16.6956 223.628 16.1943 223.917C15.6963 224.204 15.1315 224.347 14.5 224.347C13.8685 224.347 13.3021 224.204 12.8008 223.917C12.3027 223.628 11.9105 223.208 11.624 222.658C11.3408 222.108 11.1992 221.46 11.1992 220.714C11.1992 219.959 11.3408 219.308 11.624 218.761C11.9105 218.214 12.3027 217.798 12.8008 217.511C13.3021 217.225 13.8685 217.082 14.5 217.082C15.1315 217.082 15.6963 217.225 16.1943 217.511C16.6956 217.798 17.0879 218.214 17.3711 218.761C17.6576 219.308 17.8008 219.959 17.8008 220.714ZM16.3164 220.714C16.3164 220.216 16.2415 219.793 16.0918 219.445C15.9453 219.097 15.7354 218.833 15.4619 218.654C15.1917 218.472 14.8711 218.38 14.5 218.38C14.1322 218.38 13.8115 218.472 13.5381 218.654C13.2679 218.833 13.0579 219.097 12.9082 219.445C12.7585 219.793 12.6836 220.216 12.6836 220.714C12.6836 221.212 12.7585 221.636 12.9082 221.984C13.0579 222.332 13.2679 222.597 13.5381 222.78C13.8115 222.959 14.1322 223.048 14.5 223.048C14.8711 223.048 15.1917 222.959 15.4619 222.78C15.7354 222.597 15.9453 222.332 16.0918 221.984C16.2415 221.636 16.3164 221.212 16.3164 220.714Z" fill="#707070"/>
    <path d="M11.9854 232.179H14.749C15.2764 232.179 15.7305 232.28 16.1113 232.482C16.4954 232.681 16.7868 232.96 16.9854 233.322C17.1839 233.683 17.2832 234.098 17.2832 234.567C17.2832 235.039 17.1807 235.454 16.9756 235.812C16.7738 236.167 16.4792 236.445 16.0918 236.647C15.7077 236.846 15.2487 236.945 14.7148 236.945H12.9375V235.763H14.4854C14.7686 235.763 15.0062 235.714 15.1982 235.617C15.3936 235.516 15.5384 235.376 15.6328 235.197C15.7272 235.018 15.7744 234.808 15.7744 234.567C15.7744 234.326 15.7272 234.118 15.6328 233.942C15.5384 233.763 15.3936 233.626 15.1982 233.532C15.0062 233.434 14.7669 233.385 14.4805 233.385H13.4502V239.25H11.9854V232.179Z" fill="#707070"/>
    <path d="M15.2422 251.798L15.8916 252.633L16.502 253.346L17.6836 254.835H16.3066L15.4912 253.83L15.0859 253.253L13.9873 251.798H15.2422ZM17.7959 250.714C17.7959 251.463 17.6527 252.112 17.3662 252.663C17.083 253.209 16.6908 253.628 16.1895 253.917C15.6914 254.204 15.1266 254.347 14.4951 254.347C13.8636 254.347 13.2972 254.204 12.7959 253.917C12.2979 253.628 11.9056 253.208 11.6191 252.658C11.3359 252.108 11.1943 251.46 11.1943 250.714C11.1943 249.959 11.3359 249.308 11.6191 248.761C11.9056 248.214 12.2979 247.798 12.7959 247.511C13.2972 247.225 13.8636 247.082 14.4951 247.082C15.1266 247.082 15.6914 247.225 16.1895 247.511C16.6908 247.798 17.083 248.214 17.3662 248.761C17.6527 249.308 17.7959 249.959 17.7959 250.714ZM16.3115 250.714C16.3115 250.216 16.2367 249.793 16.0869 249.445C15.9404 249.097 15.7305 248.833 15.457 248.654C15.1868 248.472 14.8662 248.38 14.4951 248.38C14.1273 248.38 13.8066 248.472 13.5332 248.654C13.263 248.833 13.0531 249.097 12.9033 249.445C12.7536 249.793 12.6787 250.216 12.6787 250.714C12.6787 251.212 12.7536 251.636 12.9033 251.984C13.0531 252.332 13.263 252.597 13.5332 252.78C13.8066 252.959 14.1273 253.048 14.4951 253.048C14.8662 253.048 15.1868 252.959 15.457 252.78C15.7305 252.597 15.9404 252.332 16.0869 251.984C16.2367 251.636 16.3115 251.212 16.3115 250.714Z" fill="#707070"/>
    <path d="M11.9414 262.179H14.7051C15.2389 262.179 15.6947 262.274 16.0723 262.462C16.4531 262.648 16.7428 262.915 16.9414 263.263C17.14 263.611 17.2393 264.018 17.2393 264.484C17.2393 264.946 17.1383 265.348 16.9365 265.69C16.738 266.028 16.445 266.289 16.0576 266.471C15.6702 266.65 15.208 266.74 14.6709 266.74H12.8008V265.543H14.4414C14.7344 265.543 14.9753 265.504 15.1641 265.426C15.3529 265.345 15.4945 265.226 15.5889 265.07C15.6833 264.914 15.7305 264.718 15.7305 264.484C15.7305 264.243 15.6833 264.041 15.5889 263.878C15.4945 263.716 15.3512 263.594 15.1592 263.512C14.9671 263.428 14.7262 263.385 14.4365 263.385H13.4062V269.25H11.9414V262.179ZM17.4932 269.25H15.8623L14.1484 266.037H15.7354L17.4932 269.25Z" fill="#707070"/>
    <path d="M15.7793 279.201C15.7598 279.012 15.6995 278.851 15.5986 278.717C15.501 278.584 15.3643 278.483 15.1885 278.415C15.0127 278.346 14.8027 278.312 14.5586 278.312C14.321 278.312 14.1143 278.346 13.9385 278.415C13.766 278.483 13.6341 278.579 13.543 278.703C13.4518 278.823 13.4062 278.961 13.4062 279.118C13.403 279.355 13.5007 279.541 13.6992 279.674C13.901 279.808 14.1794 279.918 14.5342 280.006L15.1689 280.158C15.8395 280.307 16.3587 280.55 16.7266 280.885C17.0977 281.217 17.2848 281.667 17.2881 282.233C17.2881 282.659 17.179 283.032 16.9609 283.351C16.7428 283.67 16.4287 283.916 16.0186 284.088C15.6084 284.261 15.1185 284.347 14.5488 284.347C13.9792 284.347 13.4827 284.259 13.0596 284.083C12.6396 283.908 12.3141 283.649 12.083 283.307C11.8519 282.962 11.7282 282.541 11.7119 282.042H13.1377C13.1572 282.274 13.2272 282.469 13.3477 282.628C13.4681 282.788 13.6309 282.908 13.8359 282.99C14.041 283.071 14.2738 283.112 14.5342 283.112C14.7881 283.112 15.0111 283.074 15.2031 283C15.3952 282.925 15.5433 282.82 15.6475 282.687C15.7516 282.55 15.8037 282.396 15.8037 282.223C15.8037 282.067 15.7581 281.935 15.667 281.828C15.5758 281.717 15.4424 281.624 15.2666 281.549C15.0941 281.471 14.8711 281.398 14.5977 281.33L13.8213 281.144C13.2028 280.991 12.7275 280.758 12.3955 280.446C12.0667 280.13 11.9023 279.72 11.9023 279.215C11.9023 278.795 12.0163 278.424 12.2441 278.102C12.4753 277.78 12.7926 277.529 13.1963 277.35C13.6032 277.171 14.0622 277.082 14.5732 277.082C15.0876 277.082 15.5417 277.171 15.9355 277.35C16.3294 277.526 16.6354 277.775 16.8535 278.097C17.0716 278.416 17.1839 278.784 17.1904 279.201H15.7793Z" fill="#707070"/>
    <path d="M11.6045 292.179H17.3955V293.39H15.2275V299.25H13.7773V293.39H11.6045V292.179Z" fill="#707070"/>
    <path d="M12.4932 187.179L14.4609 191.969H14.5439L16.5068 187.179H18.3184V194.25H16.8926V189.616H16.834L14.9883 194.215H14.0068L12.166 189.606H12.1074V194.25H10.6865V187.179H12.4932Z" fill="#707070"/>
    <rect class="seat" id="A1" x="24" y="5" width="10" height="10" fill="#B748E7"/>
    <rect class="seat" id="A2" x="39" y="5" width="10" height="10" fill="#B748E7"/>
    <rect class="seat" id="A3" x="54" y="5" width="10" height="10" fill="#B748E7"/>
    <rect class="seat" id="A4" x="68" y="5" width="10" height="10" fill="#B748E7"/>
    <rect class="seat" id="A5" x="83" y="5" width="10" height="10" fill="#B748E7"/>
    <rect class="seat" id="A6" x="97" y="5" width="10" height="10" fill="#B748E7"/>
    <rect class="seat" id="A7" x="112" y="5" width="10" height="10" fill="#B748E7"/>
    <rect class="seat" id="A8" x="127" y="5" width="10" height="10" fill="#B748E7"/>
    <rect class="seat" id="A9" x="141" y="5" width="10" height="10" fill="#B748E7"/>
    <rect class="seat" id="A10" x="156" y="5" width="10" height="10" fill="#B748E7"/>
    <rect class="seat" id="A11" x="170" y="5" width="10" height="10" fill="#B748E7"/>
    <rect class="seat" id="A12" x="185" y="5" width="10" height="10" fill="#B748E7"/>
    <rect class="seat" id="A13" x="200" y="5" width="10" height="10" fill="#B748E7"/>
    <rect class="seat" id="A14" x="214" y="5" width="10" height="10" fill="#B748E7"/>
    <rect class="seat" id="A15" x="229" y="5" width="10" height="10" fill="#B748E7"/>
    <rect class="seat" id="B1" x="24" y="20" width="10" height="10" fill="#B748E7"/>
    <rect class="seat" id="B2" x="39" y="20" width="10" height="10" fill="#B748E7"/>
    <rect class="seat" id="B3" x="54" y="20" width="10" height="10" fill="#B748E7"/>
    <rect class="seat" id="B4" x="68" y="20" width="10" height="10" fill="#B748E7"/>
    <rect class="seat" id="B5" x="83" y="20" width="10" height="10" fill="#B748E7"/>
    <rect class="seat" id="B6" x="97" y="20" width="10" height="10" fill="#B748E7"/>
    <rect class="seat" id="B7" x="112" y="20" width="10" height="10" fill="#B748E7"/>
    <rect class="seat" id="B8" x="127" y="20" width="10" height="10" fill="#B748E7"/>
    <rect class="seat" id="B9" x="141" y="20" width="10" height="10" fill="#B748E7"/>
    <rect class="seat" id="B10" x="156" y="20" width="10" height="10" fill="#B748E7"/>
    <rect class="seat" id="B11" x="170" y="20" width="10" height="10" fill="#B748E7"/>
    <rect class="seat" id="B12" x="185" y="20" width="10" height="10" fill="#B748E7"/>
    <rect class="seat" id="B13" x="200" y="20" width="10" height="10" fill="#B748E7"/>
    <rect class="seat" id="B14" x="214" y="20" width="10" height="10" fill="#B748E7"/>
    <rect class="seat" id="B15" x="229" y="20" width="10" height="10" fill="#B748E7"/>
    <rect class="seat" id="C1" x="24" y="35" width="10" height="10" fill="#B748E7"/>
    <rect class="seat" id="C2" x="39" y="35" width="10" height="10" fill="#B748E7"/>
    <rect class="seat" id="C3" x="54" y="35" width="10" height="10" fill="#B748E7"/>
    <rect class="seat" id="C4" x="68" y="35" width="10" height="10" fill="#B748E7"/>
    <rect class="seat" id="C5" x="83" y="35" width="10" height="10" fill="#B748E7"/>
    <rect class="seat" id="C6" x="97" y="35" width="10" height="10" fill="#B748E7"/>
    <rect class="seat" id="C7" x="112" y="35" width="10" height="10" fill="#B748E7"/>
    <rect class="seat" id="C8" x="127" y="35" width="10" height="10" fill="#B748E7"/>
    <rect class="seat" id="C9" x="141" y="35" width="10" height="10" fill="#B748E7"/>
    <rect class="seat" id="C10" x="156" y="35" width="10" height="10" fill="#B748E7"/>
    <rect class="seat" id="C11" x="170" y="35" width="10" height="10" fill="#B748E7"/>
    <rect class="seat" id="C12" x="185" y="35" width="10" height="10" fill="#B748E7"/>
    <rect class="seat" id="C13" x="200" y="35" width="10" height="10" fill="#B748E7"/>
    <rect class="seat" id="C14" x="214" y="35" width="10" height="10" fill="#B748E7"/>
    <rect class="seat" id="C15" x="229" y="35" width="10" height="10" fill="#B748E7"/>
    <rect class="seat" id="D1" x="24" y="50" width="10" height="10" fill="#B748E7"/>
    <rect class="seat" id="D2" x="39" y="50" width="10" height="10" fill="#B748E7"/>
    <rect class="seat" id="D3" x="54" y="50" width="10" height="10" fill="#B748E7"/>
    <rect class="seat" id="D4" x="68" y="50" width="10" height="10" fill="#B748E7"/>
    <rect class="seat" id="D5" x="83" y="50" width="10" height="10" fill="#B748E7"/>
    <rect class="seat" id="D6" x="97" y="50" width="10" height="10" fill="#B748E7"/>
    <rect class="seat" id="D7" x="112" y="50" width="10" height="10" fill="#B748E7"/>
    <rect class="seat" id="D8" x="127" y="50" width="10" height="10" fill="#B748E7"/>
    <rect class="seat" id="D9" x="141" y="50" width="10" height="10" fill="#B748E7"/>
    <rect class="seat" id="D10" x="156" y="50" width="10" height="10" fill="#B748E7"/>
    <rect class="seat" id="D11" x="170" y="50" width="10" height="10" fill="#B748E7"/>
    <rect class="seat" id="D12" x="185" y="50" width="10" height="10" fill="#B748E7"/>
    <rect class="seat" id="D13" x="200" y="50" width="10" height="10" fill="#B748E7"/>
    <rect class="seat" id="D14" x="214" y="50" width="10" height="10" fill="#B748E7"/>
    <rect class="seat" id="D15" x="229" y="50" width="10" height="10" fill="#B748E7"/>
    <rect class="seat" id="E1" x="24" y="65" width="10" height="10" fill="#B748E7"/>
    <rect class="seat" id="E2" x="39" y="65" width="10" height="10" fill="#B748E7"/>
    <rect class="seat" id="E3" x="54" y="65" width="10" height="10" fill="#B748E7"/>
    <rect class="seat" id="E4" x="68" y="65" width="10" height="10" fill="#B748E7"/>
    <rect class="seat" id="E5" x="83" y="65" width="10" height="10" fill="#B748E7"/>
    <rect class="seat" id="E6" x="97" y="65" width="10" height="10" fill="#B748E7"/>
    <rect class="seat" id="E7" x="112" y="65" width="10" height="10" fill="#B748E7"/>
    <rect class="seat" id="E8" x="127" y="65" width="10" height="10" fill="#B748E7"/>
    <rect class="seat" id="E9" x="141" y="65" width="10" height="10" fill="#B748E7"/>
    <rect class="seat" id="E10" x="156" y="65" width="10" height="10" fill="#B748E7"/>
    <rect class="seat" id="E11" x="170" y="65" width="10" height="10" fill="#B748E7"/>
    <rect class="seat" id="E12" x="185" y="65" width="10" height="10" fill="#B748E7"/>
    <rect class="seat" id="E13" x="200" y="65" width="10" height="10" fill="#B748E7"/>
    <rect class="seat" id="E14" x="214" y="65" width="10" height="10" fill="#B748E7"/>
    <rect class="seat" id="E15" x="229" y="65" width="10" height="10" fill="#B748E7"/>
    <rect class="seat" id="F1" x="24" y="80" width="10" height="10" fill="#B748E7"/>
    <rect class="seat" id="F2" x="39" y="80" width="10" height="10" fill="#B748E7"/>
    <rect class="seat" id="F3" x="54" y="80" width="10" height="10" fill="#B748E7"/>
    <rect class="seat" id="F4" x="68" y="80" width="10" height="10" fill="#B748E7"/>
    <rect class="seat" id="F5" x="83" y="80" width="10" height="10" fill="#B748E7"/>
    <rect class="seat" id="F6" x="97" y="80" width="10" height="10" fill="#B748E7"/>
    <rect class="seat" id="F7" x="112" y="80" width="10" height="10" fill="#B748E7"/>
    <rect class="seat" id="F8" x="127" y="80" width="10" height="10" fill="#B748E7"/>
    <rect class="seat" id="F9" x="141" y="80" width="10" height="10" fill="#B748E7"/>
    <rect class="seat" id="F10" x="156" y="80" width="10" height="10" fill="#B748E7"/>
    <rect class="seat" id="F11" x="170" y="80" width="10" height="10" fill="#B748E7"/>
    <rect class="seat" id="F12" x="185" y="80" width="10" height="10" fill="#B748E7"/>
    <rect class="seat" id="F13" x="200" y="80" width="10" height="10" fill="#B748E7"/>
    <rect class="seat" id="F14" x="214" y="80" width="10" height="10" fill="#B748E7"/>
    <rect class="seat" id="F15" x="229" y="80" width="10" height="10" fill="#B748E7"/>
    <rect class="seat" id="G1" x="24" y="95" width="10" height="10" fill="#B748E7"/>
    <rect class="seat" id="G2" x="39" y="95" width="10" height="10" fill="#B748E7"/>
    <rect class="seat" id="G3" x="54" y="95" width="10" height="10" fill="#B748E7"/>
    <rect class="seat" id="G4" x="68" y="95" width="10" height="10" fill="#B748E7"/>
    <rect class="seat" id="G5" x="83" y="95" width="10" height="10" fill="#B748E7"/>
    <rect class="seat" id="G6" x="97" y="95" width="10" height="10" fill="#B748E7"/>
    <rect class="seat" id="G7" x="112" y="95" width="10" height="10" fill="#B748E7"/>
    <rect class="seat" id="G8" x="127" y="95" width="10" height="10" fill="#B748E7"/>
    <rect class="seat" id="G9" x="141" y="95" width="10" height="10" fill="#B748E7"/>
    <rect class="seat" id="G10" x="156" y="95" width="10" height="10" fill="#B748E7"/>
    <rect class="seat" id="G11" x="170" y="95" width="10" height="10" fill="#B748E7"/>
    <rect class="seat" id="G12" x="185" y="95" width="10" height="10" fill="#B748E7"/>
    <rect class="seat" id="G13" x="200" y="95" width="10" height="10" fill="#B748E7"/>
    <rect class="seat" id="G14" x="214" y="95" width="10" height="10" fill="#B748E7"/>
    <rect class="seat" id="G15" x="229" y="95" width="10" height="10" fill="#B748E7"/>
    <rect class="seat" id="H1" x="24" y="110" width="10" height="10" fill="#B748E7"/>
    <rect class="seat" id="H2" x="39" y="110" width="10" height="10" fill="#B748E7"/>
    <rect class="seat" id="H3" x="54" y="110" width="10" height="10" fill="#B748E7"/>
    <rect class="seat" id="H4" x="68" y="110" width="10" height="10" fill="#B748E7"/>
    <rect class="seat" id="H5" x="83" y="110" width="10" height="10" fill="#B748E7"/>
    <rect class="seat" id="H6" x="97" y="110" width="10" height="10" fill="#B748E7"/>
    <rect class="seat" id="H7" x="112" y="110" width="10" height="10" fill="#B748E7"/>
    <rect class="seat" id="H8" x="127" y="110" width="10" height="10" fill="#B748E7"/>
    <rect class="seat" id="H9" x="141" y="110" width="10" height="10" fill="#B748E7"/>
    <rect class="seat" id="H10" x="156" y="110" width="10" height="10" fill="#B748E7"/>
    <rect class="seat" id="H11" x="170" y="110" width="10" height="10" fill="#B748E7"/>
    <rect class="seat" id="H12" x="185" y="110" width="10" height="10" fill="#B748E7"/>
    <rect class="seat" id="H13" x="200" y="110" width="10" height="10" fill="#B748E7"/>
    <rect class="seat" id="H14" x="214" y="110" width="10" height="10" fill="#B748E7"/>
    <rect class="seat" id="H15" x="229" y="110" width="10" height="10" fill="#B748E7"/>
    <rect class="seat" id="I1" x="24" y="125" width="10" height="10" fill="#B748E7"/>
    <rect class="seat" id="I2" x="39" y="125" width="10" height="10" fill="#B748E7"/>
    <rect class="seat" id="I3" x="54" y="125" width="10" height="10" fill="#B748E7"/>
    <rect class="seat" id="I4" x="68" y="125" width="10" height="10" fill="#B748E7"/>
    <rect class="seat" id="I5" x="83" y="125" width="10" height="10" fill="#B748E7"/>
    <rect class="seat" id="I6" x="97" y="125" width="10" height="10" fill="#B748E7"/>
    <rect class="seat" id="I7" x="112" y="125" width="10" height="10" fill="#B748E7"/>
    <rect class="seat" id="I8" x="127" y="125" width="10" height="10" fill="#B748E7"/>
    <rect class="seat" id="I9" x="141" y="125" width="10" height="10" fill="#B748E7"/>
    <rect class="seat" id="I10" x="156" y="125" width="10" height="10" fill="#B748E7"/>
    <rect class="seat" id="I11" x="170" y="125" width="10" height="10" fill="#B748E7"/>
    <rect class="seat" id="I12" x="185" y="125" width="10" height="10" fill="#B748E7"/>
    <rect class="seat" id="I13" x="200" y="125" width="10" height="10" fill="#B748E7"/>
    <rect class="seat" id="I14" x="214" y="125" width="10" height="10" fill="#B748E7"/>
    <rect class="seat" id="I15" x="229" y="125" width="10" height="10" fill="#B748E7"/>
    <rect class="seat" id="J1" x="24" y="140" width="10" height="10" fill="#B748E7"/>
    <rect class="seat" id="J2" x="39" y="140" width="10" height="10" fill="#B748E7"/>
    <rect class="seat" id="J3" x="54" y="140" width="10" height="10" fill="#B748E7"/>
    <rect class="seat" id="J4" x="68" y="140" width="10" height="10" fill="#B748E7"/>
    <rect class="seat" id="J5" x="83" y="140" width="10" height="10" fill="#B748E7"/>
    <rect class="seat" id="J6" x="97" y="140" width="10" height="10" fill="#B748E7"/>
    <rect class="seat" id="J7" x="112" y="140" width="10" height="10" fill="#B748E7"/>
    <rect class="seat" id="J8" x="127" y="140" width="10" height="10" fill="#B748E7"/>
    <rect class="seat" id="J9" x="141" y="140" width="10" height="10" fill="#B748E7"/>
    <rect class="seat" id="J10" x="156" y="140" width="10" height="10" fill="#B748E7"/>
    <rect class="seat" id="J11" x="170" y="140" width="10" height="10" fill="#B748E7"/>
    <rect class="seat" id="J12" x="185" y="140" width="10" height="10" fill="#B748E7"/>
    <rect class="seat" id="J13" x="200" y="140" width="10" height="10" fill="#B748E7"/>
    <rect class="seat" id="J14" x="214" y="140" width="10" height="10" fill="#B748E7"/>
    <rect class="seat" id="J15" x="229" y="140" width="10" height="10" fill="#B748E7"/>
    <rect class="seat" id="K1" x="24" y="155" width="10" height="10" fill="#B748E7"/>
    <rect class="seat" id="K2" x="39" y="155" width="10" height="10" fill="#B748E7"/>
    <rect class="seat" id="K3" x="54" y="155" width="10" height="10" fill="#B748E7"/>
    <rect class="seat" id="K4" x="68" y="155" width="10" height="10" fill="#B748E7"/>
    <rect class="seat" id="K5" x="83" y="155" width="10" height="10" fill="#B748E7"/>
    <rect class="seat" id="K6" x="97" y="155" width="10" height="10" fill="#B748E7"/>
    <rect class="seat" id="K7" x="112" y="155" width="10" height="10" fill="#B748E7"/>
    <rect class="seat" id="K8" x="127" y="155" width="10" height="10" fill="#B748E7"/>
    <rect class="seat" id="K9" x="141" y="155" width="10" height="10" fill="#B748E7"/>
    <rect class="seat" id="K10" x="156" y="155" width="10" height="10" fill="#B748E7"/>
    <rect class="seat" id="K11" x="170" y="155" width="10" height="10" fill="#B748E7"/>
    <rect class="seat" id="K12" x="185" y="155" width="10" height="10" fill="#B748E7"/>
    <rect class="seat" id="K13" x="200" y="155" width="10" height="10" fill="#B748E7"/>
    <rect class="seat" id="K14" x="214" y="155" width="10" height="10" fill="#B748E7"/>
    <rect class="seat" id="K15" x="229" y="155" width="10" height="10" fill="#B748E7"/>
    <rect class="seat" id="L1" x="24" y="170" width="10" height="10" fill="#B748E7"/>
    <rect class="seat" id="L2" x="39" y="170" width="10" height="10" fill="#B748E7"/>
    <rect class="seat" id="L3" x="54" y="170" width="10" height="10" fill="#B748E7"/>
    <rect class="seat" id="L4" x="68" y="170" width="10" height="10" fill="#B748E7"/>
    <rect class="seat" id="L5" x="83" y="170" width="10" height="10" fill="#B748E7"/>
    <rect class="seat" id="L6" x="97" y="170" width="10" height="10" fill="#B748E7"/>
    <rect class="seat" id="L7" x="112" y="170" width="10" height="10" fill="#B748E7"/>
    <rect class="seat" id="L8" x="127" y="170" width="10" height="10" fill="#B748E7"/>
    <rect class="seat" id="L9" x="141" y="170" width="10" height="10" fill="#B748E7"/>
    <rect class="seat" id="L10" x="156" y="170" width="10" height="10" fill="#B748E7"/>
    <rect class="seat" id="L11" x="170" y="170" width="10" height="10" fill="#B748E7"/>
    <rect class="seat" id="L12" x="185" y="170" width="10" height="10" fill="#B748E7"/>
    <rect class="seat" id="L13" x="200" y="170" width="10" height="10" fill="#B748E7"/>
    <rect class="seat" id="L14" x="214" y="170" width="10" height="10" fill="#B748E7"/>
    <rect class="seat" id="L15" x="229" y="170" width="10" height="10" fill="#B748E7"/>
    <rect class="seat" id="M1" x="24" y="185" width="10" height="10" fill="#B748E7"/>
    <rect class="seat" id="M2" x="39" y="185" width="10" height="10" fill="#B748E7"/>
    <rect class="seat" id="M3" x="54" y="185" width="10" height="10" fill="#B748E7"/>
    <rect class="seat" id="M4" x="68" y="185" width="10" height="10" fill="#B748E7"/>
    <rect class="seat" id="M5" x="83" y="185" width="10" height="10" fill="#B748E7"/>
    <rect class="seat" id="M6" x="97" y="185" width="10" height="10" fill="#B748E7"/>
    <rect class="seat" id="M7" x="112" y="185" width="10" height="10" fill="#B748E7"/>
    <rect class="seat" id="M8" x="127" y="185" width="10" height="10" fill="#B748E7"/>
    <rect class="seat" id="M9" x="141" y="185" width="10" height="10" fill="#B748E7"/>
    <rect class="seat" id="M10" x="156" y="185" width="10" height="10" fill="#B748E7"/>
    <rect class="seat" id="M11" x="170" y="185" width="10" height="10" fill="#B748E7"/>
    <rect class="seat" id="M12" x="185" y="185" width="10" height="10" fill="#B748E7"/>
    <rect class="seat" id="M13" x="200" y="185" width="10" height="10" fill="#B748E7"/>
    <rect class="seat" id="M14" x="214" y="185" width="10" height="10" fill="#B748E7"/>
    <rect class="seat" id="M15" x="229" y="185" width="10" height="10" fill="#B748E7"/>
    <rect class="seat" id="N1" x="24" y="200" width="10" height="10" fill="#B748E7"/>
    <rect class="seat" id="N2" x="39" y="200" width="10" height="10" fill="#B748E7"/>
    <rect class="seat" id="N3" x="54" y="200" width="10" height="10" fill="#B748E7"/>
    <rect class="seat" id="N4" x="68" y="200" width="10" height="10" fill="#B748E7"/>
    <rect class="seat" id="N5" x="83" y="200" width="10" height="10" fill="#B748E7"/>
    <rect class="seat" id="N6" x="97" y="200" width="10" height="10" fill="#B748E7"/>
    <rect class="seat" id="N7" x="112" y="200" width="10" height="10" fill="#B748E7"/>
    <rect class="seat" id="N8" x="127" y="200" width="10" height="10" fill="#B748E7"/>
    <rect class="seat" id="N9" x="141" y="200" width="10" height="10" fill="#B748E7"/>
    <rect class="seat" id="N10" x="156" y="200" width="10" height="10" fill="#B748E7"/>
    <rect class="seat" id="N11" x="170" y="200" width="10" height="10" fill="#B748E7"/>
    <rect class="seat" id="N12" x="185" y="200" width="10" height="10" fill="#B748E7"/>
    <rect class="seat" id="N13" x="200" y="200" width="10" height="10" fill="#B748E7"/>
    <rect class="seat" id="N14" x="214" y="200" width="10" height="10" fill="#B748E7"/>
    <rect class="seat" id="N15" x="229" y="200" width="10" height="10" fill="#B748E7"/>
    <rect class="seat" id="O1" x="24" y="215" width="10" height="10" fill="#B748E7"/>
    <rect class="seat" id="O2" x="39" y="215" width="10" height="10" fill="#B748E7"/>
    <rect class="seat" id="O3" x="54" y="215" width="10" height="10" fill="#B748E7"/>
    <rect class="seat" id="O4" x="68" y="215" width="10" height="10" fill="#B748E7"/>
    <rect class="seat" id="O5" x="83" y="215" width="10" height="10" fill="#B748E7"/>
    <rect class="seat" id="O6" x="97" y="215" width="10" height="10" fill="#B748E7"/>
    <rect class="seat" id="O7" x="112" y="215" width="10" height="10" fill="#B748E7"/>
    <rect class="seat" id="O8" x="127" y="215" width="10" height="10" fill="#B748E7"/>
    <rect class="seat" id="O9" x="141" y="215" width="10" height="10" fill="#B748E7"/>
    <rect class="seat" id="O10" x="156" y="215" width="10" height="10" fill="#B748E7"/>
    <rect class="seat" id="O11" x="170" y="215" width="10" height="10" fill="#B748E7"/>
    <rect class="seat" id="O12" x="185" y="215" width="10" height="10" fill="#B748E7"/>
    <rect class="seat" id="O13" x="200" y="215" width="10" height="10" fill="#B748E7"/>
    <rect class="seat" id="O14" x="214" y="215" width="10" height="10" fill="#B748E7"/>
    <rect class="seat" id="O15" x="229" y="215" width="10" height="10" fill="#B748E7"/>
    <rect class="seat" id="P1" x="24" y="230" width="10" height="10" fill="#B748E7"/>
    <rect class="seat" id="P2" x="39" y="230" width="10" height="10" fill="#B748E7"/>
    <rect class="seat" id="P3" x="54" y="230" width="10" height="10" fill="#B748E7"/>
    <rect class="seat" id="P4" x="68" y="230" width="10" height="10" fill="#B748E7"/>
    <rect class="seat" id="P5" x="83" y="230" width="10" height="10" fill="#B748E7"/>
    <rect class="seat" id="P6" x="97" y="230" width="10" height="10" fill="#B748E7"/>
    <rect class="seat" id="P7" x="112" y="230" width="10" height="10" fill="#B748E7"/>
    <rect class="seat" id="P8" x="127" y="230" width="10" height="10" fill="#B748E7"/>
    <rect class="seat" id="P9" x="141" y="230" width="10" height="10" fill="#B748E7"/>
    <rect class="seat" id="P10" x="156" y="230" width="10" height="10" fill="#B748E7"/>
    <rect class="seat" id="P11" x="170" y="230" width="10" height="10" fill="#B748E7"/>
    <rect class="seat" id="P12" x="185" y="230" width="10" height="10" fill="#B748E7"/>
    <rect class="seat" id="P13" x="200" y="230" width="10" height="10" fill="#B748E7"/>
    <rect class="seat" id="P14" x="214" y="230" width="10" height="10" fill="#B748E7"/>
    <rect class="seat" id="P15" x="229" y="230" width="10" height="10" fill="#B748E7"/>
    <rect class="seat" id="Q1" x="24" y="245" width="10" height="10" fill="#B748E7"/>
    <rect class="seat" id="Q2" x="39" y="245" width="10" height="10" fill="#B748E7"/>
    <rect class="seat" id="Q3" x="54" y="245" width="10" height="10" fill="#B748E7"/>
    <rect class="seat" id="Q4" x="68" y="245" width="10" height="10" fill="#B748E7"/>
    <rect class="seat" id="Q5" x="83" y="245" width="10" height="10" fill="#B748E7"/>
    <rect class="seat" id="Q6" x="97" y="245" width="10" height="10" fill="#B748E7"/>
    <rect class="seat" id="Q7" x="112" y="245" width="10" height="10" fill="#B748E7"/>
    <rect class="seat" id="Q8" x="127" y="245" width="10" height="10" fill="#B748E7"/>
    <rect class="seat" id="Q9" x="141" y="245" width="10" height="10" fill="#B748E7"/>
    <rect class="seat" id="Q10" x="156" y="245" width="10" height="10" fill="#B748E7"/>
    <rect class="seat" id="Q11" x="170" y="245" width="10" height="10" fill="#B748E7"/>
    <rect class="seat" id="Q12" x="185" y="245" width="10" height="10" fill="#B748E7"/>
    <rect class="seat" id="Q13" x="200" y="245" width="10" height="10" fill="#B748E7"/>
    <rect class="seat" id="Q14" x="214" y="245" width="10" height="10" fill="#B748E7"/>
    <rect class="seat" id="Q15" x="229" y="245" width="10" height="10" fill="#B748E7"/>
    <rect class="seat" id="R1" x="24" y="260" width="10" height="10" fill="#B748E7"/>
    <rect class="seat" id="R2" x="39" y="260" width="10" height="10" fill="#B748E7"/>
    <rect class="seat" id="R3" x="54" y="260" width="10" height="10" fill="#B748E7"/>
    <rect class="seat" id="R4" x="68" y="260" width="10" height="10" fill="#B748E7"/>
    <rect class="seat" id="R5" x="83" y="260" width="10" height="10" fill="#B748E7"/>
    <rect class="seat" id="R6" x="97" y="260" width="10" height="10" fill="#B748E7"/>
    <rect class="seat" id="R7" x="112" y="260" width="10" height="10" fill="#B748E7"/>
    <rect class="seat" id="R8" x="127" y="260" width="10" height="10" fill="#B748E7"/>
    <rect class="seat" id="R9" x="141" y="260" width="10" height="10" fill="#B748E7"/>
    <rect class="seat" id="R10" x="156" y="260" width="10" height="10" fill="#B748E7"/>
    <rect class="seat" id="R11" x="170" y="260" width="10" height="10" fill="#B748E7"/>
    <rect class="seat" id="R12" x="185" y="260" width="10" height="10" fill="#B748E7"/>
    <rect class="seat" id="R13" x="200" y="260" width="10" height="10" fill="#B748E7"/>
    <rect class="seat" id="R14" x="214" y="260" width="10" height="10" fill="#B748E7"/>
    <rect class="seat" id="R15" x="229" y="260" width="10" height="10" fill="#B748E7"/>
    <rect class="seat" id="S1" x="24" y="275" width="10" height="10" fill="#B748E7"/>
    <rect class="seat" id="S2" x="39" y="275" width="10" height="10" fill="#B748E7"/>
    <rect class="seat" id="S3" x="54" y="275" width="10" height="10" fill="#B748E7"/>
    <rect class="seat" id="S4" x="68" y="275" width="10" height="10" fill="#B748E7"/>
    <rect class="seat" id="S5" x="83" y="275" width="10" height="10" fill="#B748E7"/>
    <rect class="seat" id="S6" x="97" y="275" width="10" height="10" fill="#B748E7"/>
    <rect class="seat" id="S7" x="112" y="275" width="10" height="10" fill="#B748E7"/>
    <rect class="seat" id="S8" x="127" y="275" width="10" height="10" fill="#B748E7"/>
    <rect class="seat" id="S9" x="141" y="275" width="10" height="10" fill="#B748E7"/>
    <rect class="seat" id="S10" x="156" y="275" width="10" height="10" fill="#B748E7"/>
    <rect class="seat" id="S11" x="170" y="275" width="10" height="10" fill="#B748E7"/>
    <rect class="seat" id="S12" x="185" y="275" width="10" height="10" fill="#B748E7"/>
    <rect class="seat" id="S13" x="200" y="275" width="10" height="10" fill="#B748E7"/>
    <rect class="seat" id="S14" x="214" y="275" width="10" height="10" fill="#B748E7"/>
    <rect class="seat" id="S15" x="229" y="275" width="10" height="10" fill="#B748E7"/>
    <rect class="seat" id="T1" x="24" y="290" width="10" height="10" fill="#B748E7"/>
    <rect class="seat" id="T2" x="39" y="290" width="10" height="10" fill="#B748E7"/>
    <rect class="seat" id="T3" x="54" y="290" width="10" height="10" fill="#B748E7"/>
    <rect class="seat" id="T4" x="68" y="290" width="10" height="10" fill="#B748E7"/>
    <rect class="seat" id="T5" x="83" y="290" width="10" height="10" fill="#B748E7"/>
    <rect class="seat" id="T6" x="97" y="290" width="10" height="10" fill="#B748E7"/>
    <rect class="seat" id="T7" x="112" y="290" width="10" height="10" fill="#B748E7"/>
    <rect class="seat" id="T8" x="127" y="290" width="10" height="10" fill="#B748E7"/>
    <rect class="seat" id="T9" x="141" y="290" width="10" height="10" fill="#B748E7"/>
    <rect class="seat" id="T10" x="156" y="290" width="10" height="10" fill="#B748E7"/>
    <rect class="seat" id="T11" x="170" y="290" width="10" height="10" fill="#B748E7"/>
    <rect class="seat" id="T12" x="185" y="290" width="10" height="10" fill="#B748E7"/>
    <rect class="seat" id="T13" x="200" y="290" width="10" height="10" fill="#B748E7"/>
    <rect class="seat" id="T14" x="214" y="290" width="10" height="10" fill="#B748E7"/>
    <rect class="seat" id="T15" x="229" y="290" width="10" height="10" fill="#B748E7"/>
    <path d="M29.7549 311H28.2803V305.326H28.2412L26.625 306.352V305.043L28.373 303.93H29.7549V311Z" fill="#707070"/>
    <path d="M58.4805 311.098C57.9661 311.098 57.5055 311.01 57.0986 310.834C56.6917 310.658 56.3727 310.411 56.1416 310.092C55.9137 309.773 55.7949 309.411 55.7852 309.008H57.2646C57.2744 309.174 57.333 309.324 57.4404 309.457C57.5479 309.59 57.6927 309.695 57.875 309.77C58.0573 309.844 58.2591 309.882 58.4805 309.882C58.7116 309.882 58.9199 309.841 59.1055 309.76C59.2943 309.675 59.4391 309.561 59.54 309.418C59.641 309.271 59.6898 309.105 59.6865 308.92C59.6898 308.728 59.6377 308.557 59.5303 308.407C59.4229 308.257 59.2666 308.142 59.0615 308.061C58.8597 307.976 58.6221 307.934 58.3486 307.934H57.6895V306.85H58.3486C58.5798 306.85 58.7865 306.811 58.9688 306.732C59.151 306.651 59.291 306.539 59.3887 306.396C59.4863 306.252 59.5335 306.09 59.5303 305.907C59.5335 305.728 59.4928 305.57 59.4082 305.434C59.3236 305.294 59.2015 305.186 59.042 305.111C58.8825 305.036 58.7002 304.999 58.4951 304.999C58.2868 304.999 58.0964 305.036 57.9238 305.111C57.7513 305.183 57.6113 305.287 57.5039 305.424C57.3997 305.557 57.3428 305.714 57.333 305.893H55.9268C55.9398 305.492 56.0586 305.136 56.2832 304.823C56.5078 304.511 56.8122 304.268 57.1963 304.096C57.5837 303.92 58.0166 303.832 58.4951 303.832C58.9801 303.832 59.4082 303.918 59.7793 304.091C60.1504 304.263 60.4385 304.501 60.6436 304.804C60.8486 305.106 60.9479 305.445 60.9414 305.819C60.9479 306.076 60.8942 306.311 60.7803 306.522C60.6696 306.734 60.5117 306.908 60.3066 307.045C60.1048 307.178 59.8704 307.27 59.6035 307.318V307.372C59.9486 307.414 60.2415 307.51 60.4824 307.66C60.7266 307.807 60.9105 307.995 61.0342 308.227C61.1579 308.458 61.2165 308.721 61.21 309.018C61.2165 309.411 61.1025 309.768 60.8682 310.087C60.6338 310.403 60.3083 310.65 59.8916 310.829C59.4749 311.008 59.0046 311.098 58.4805 311.098Z" fill="#707070"/>
    <path d="M69.6533 308.588L72.6416 303.93H73.6377V305.541H73.042L71.1377 308.51V308.568H75.3809V309.75H69.6533V308.588ZM73.0859 309.394L73.1055 308.881V303.93H74.4873V311H73.0859V309.394Z" fill="#707070"/>
    <path d="M87.5195 311.098C87.0378 311.098 86.6016 311.008 86.2109 310.829C85.8203 310.65 85.5127 310.401 85.2881 310.082C85.0667 309.763 84.9512 309.405 84.9414 309.008H86.3623C86.3786 309.19 86.4388 309.351 86.543 309.491C86.6504 309.631 86.7887 309.742 86.958 309.823C87.1305 309.901 87.3177 309.94 87.5195 309.94C87.7604 309.94 87.9753 309.887 88.1641 309.779C88.3561 309.672 88.5059 309.524 88.6133 309.335C88.7207 309.143 88.7744 308.926 88.7744 308.686C88.7744 308.435 88.7191 308.215 88.6084 308.026C88.501 307.834 88.3496 307.685 88.1543 307.577C87.9622 307.466 87.7425 307.411 87.4951 307.411C87.2314 307.408 87.0085 307.455 86.8262 307.553C86.6439 307.65 86.499 307.8 86.3916 308.002H85.0586L85.4443 303.93H89.7949V305.136H86.6553L86.46 306.918H86.5137C86.6504 306.739 86.8457 306.594 87.0996 306.483C87.3535 306.373 87.6318 306.317 87.9346 306.317C88.361 306.317 88.7467 306.417 89.0918 306.615C89.4401 306.811 89.7103 307.086 89.9023 307.44C90.0977 307.795 90.1937 308.197 90.1904 308.646C90.1937 309.115 90.0814 309.537 89.8535 309.911C89.6289 310.282 89.3148 310.574 88.9111 310.785C88.5075 310.993 88.0436 311.098 87.5195 311.098Z" fill="#707070"/>
    <path d="M101.578 311.098C101.054 311.094 100.579 310.979 100.152 310.751C99.7259 310.523 99.3809 310.15 99.1172 309.633C98.8535 309.115 98.7217 308.446 98.7217 307.626C98.7217 306.841 98.8405 306.164 99.0781 305.595C99.319 305.022 99.6576 304.586 100.094 304.286C100.533 303.983 101.046 303.832 101.632 303.832C102.097 303.832 102.512 303.922 102.877 304.101C103.245 304.28 103.541 304.525 103.766 304.838C103.99 305.15 104.127 305.502 104.176 305.893H102.726C102.687 305.727 102.617 305.583 102.516 305.463C102.418 305.339 102.294 305.246 102.145 305.185C101.995 305.123 101.824 305.092 101.632 305.092C101.316 305.092 101.049 305.183 100.831 305.365C100.616 305.544 100.452 305.801 100.338 306.137C100.224 306.472 100.165 306.874 100.162 307.343H100.221C100.331 307.134 100.478 306.957 100.66 306.811C100.846 306.661 101.056 306.547 101.29 306.469C101.528 306.387 101.775 306.347 102.032 306.347C102.452 306.347 102.831 306.444 103.17 306.64C103.508 306.835 103.772 307.107 103.961 307.455C104.153 307.8 104.249 308.192 104.249 308.632C104.249 309.107 104.137 309.532 103.912 309.906C103.691 310.281 103.377 310.574 102.97 310.785C102.566 310.993 102.102 311.098 101.578 311.098ZM101.568 309.94C101.806 309.94 102.019 309.885 102.208 309.774C102.4 309.66 102.55 309.507 102.657 309.315C102.768 309.12 102.823 308.907 102.823 308.676C102.823 308.438 102.77 308.223 102.662 308.031C102.555 307.839 102.407 307.689 102.218 307.582C102.029 307.475 101.816 307.421 101.578 307.421C101.344 307.421 101.131 307.476 100.938 307.587C100.746 307.698 100.595 307.849 100.484 308.041C100.374 308.233 100.315 308.446 100.309 308.681C100.312 308.905 100.367 309.114 100.475 309.306C100.585 309.498 100.735 309.652 100.924 309.77C101.116 309.883 101.331 309.94 101.568 309.94Z" fill="#707070"/>
    <path d="M117.433 305.18V305.136H113.966V303.93H118.956V305.155L115.973 311H114.459L117.433 305.18Z" fill="#707070"/>
    <path d="M131.5 311.098C130.973 311.098 130.497 311.011 130.074 310.839C129.654 310.666 129.326 310.427 129.088 310.121C128.85 309.815 128.731 309.473 128.731 309.096C128.731 308.806 128.8 308.536 128.937 308.285C129.073 308.031 129.259 307.823 129.493 307.66C129.731 307.497 129.994 307.395 130.284 307.353V307.299C130.037 307.25 129.815 307.152 129.62 307.006C129.425 306.856 129.272 306.671 129.161 306.449C129.05 306.228 128.995 305.99 128.995 305.736C128.995 305.375 129.104 305.049 129.322 304.76C129.54 304.467 129.84 304.239 130.221 304.076C130.602 303.913 131.028 303.832 131.5 303.832C131.975 303.832 132.403 303.913 132.784 304.076C133.168 304.239 133.468 304.467 133.683 304.76C133.901 305.049 134.01 305.375 134.01 305.736C134.01 305.99 133.953 306.228 133.839 306.449C133.728 306.671 133.575 306.856 133.38 307.006C133.188 307.152 132.966 307.25 132.716 307.299V307.353C133.006 307.395 133.268 307.497 133.502 307.66C133.74 307.823 133.928 308.031 134.068 308.285C134.208 308.536 134.278 308.806 134.278 309.096C134.278 309.473 134.158 309.815 133.917 310.121C133.679 310.427 133.349 310.666 132.926 310.839C132.506 311.011 132.031 311.098 131.5 311.098ZM131.5 309.979C131.744 309.979 131.961 309.936 132.149 309.848C132.338 309.76 132.485 309.638 132.589 309.481C132.693 309.325 132.745 309.149 132.745 308.954C132.745 308.749 132.691 308.565 132.584 308.402C132.477 308.24 132.328 308.113 132.14 308.021C131.951 307.93 131.738 307.885 131.5 307.885C131.266 307.885 131.054 307.93 130.865 308.021C130.676 308.113 130.528 308.24 130.421 308.402C130.313 308.565 130.261 308.749 130.265 308.954C130.261 309.149 130.312 309.325 130.416 309.481C130.52 309.638 130.667 309.76 130.855 309.848C131.044 309.936 131.259 309.979 131.5 309.979ZM131.5 306.845C131.705 306.845 131.889 306.804 132.052 306.723C132.218 306.638 132.346 306.524 132.438 306.381C132.529 306.234 132.574 306.07 132.574 305.888C132.574 305.702 132.529 305.538 132.438 305.395C132.35 305.251 132.223 305.141 132.057 305.062C131.894 304.981 131.708 304.94 131.5 304.94C131.295 304.94 131.109 304.981 130.943 305.062C130.781 305.141 130.654 305.251 130.562 305.395C130.475 305.538 130.431 305.702 130.431 305.888C130.431 306.07 130.476 306.234 130.567 306.381C130.662 306.524 130.79 306.638 130.953 306.723C131.116 306.804 131.298 306.845 131.5 306.845Z" fill="#707070"/>
    <path d="M145.422 303.832C145.946 303.832 146.421 303.946 146.848 304.174C147.274 304.398 147.618 304.77 147.878 305.287C148.142 305.801 148.273 306.465 148.273 307.279C148.277 308.07 148.16 308.752 147.922 309.325C147.684 309.898 147.346 310.338 146.906 310.644C146.47 310.946 145.956 311.098 145.363 311.098C144.901 311.098 144.486 311.007 144.118 310.824C143.75 310.642 143.454 310.395 143.229 310.082C143.005 309.766 142.868 309.41 142.819 309.013H144.265C144.307 309.185 144.377 309.333 144.475 309.457C144.576 309.581 144.701 309.675 144.851 309.74C145.004 309.805 145.174 309.838 145.363 309.838C145.679 309.838 145.948 309.747 146.169 309.564C146.39 309.382 146.556 309.122 146.667 308.783C146.781 308.441 146.838 308.035 146.838 307.562H146.774C146.664 307.764 146.517 307.94 146.335 308.09C146.153 308.24 145.943 308.355 145.705 308.437C145.471 308.515 145.223 308.554 144.963 308.554C144.546 308.554 144.169 308.456 143.83 308.261C143.495 308.065 143.231 307.795 143.039 307.45C142.847 307.102 142.749 306.713 142.746 306.283C142.746 305.811 142.857 305.39 143.078 305.019C143.303 304.644 143.618 304.353 144.025 304.145C144.432 303.933 144.898 303.829 145.422 303.832ZM145.427 304.984C145.192 304.984 144.979 305.041 144.787 305.155C144.595 305.266 144.445 305.417 144.338 305.609C144.23 305.798 144.177 306.008 144.177 306.239C144.18 306.47 144.235 306.68 144.343 306.869C144.45 307.058 144.597 307.208 144.782 307.318C144.971 307.429 145.181 307.484 145.412 307.484C145.65 307.484 145.865 307.427 146.057 307.313C146.252 307.2 146.407 307.047 146.521 306.854C146.634 306.659 146.69 306.451 146.687 306.229C146.687 306.005 146.631 305.798 146.521 305.609C146.41 305.417 146.26 305.266 146.071 305.155C145.882 305.041 145.668 304.984 145.427 304.984Z" fill="#707070"/>
    <path d="M158.454 311H156.979V305.326H156.94L155.324 306.352V305.043L157.072 303.93H158.454V311ZM162.844 311.098C162.255 311.098 161.747 310.956 161.32 310.673C160.897 310.39 160.572 309.976 160.344 309.433C160.119 308.886 160.007 308.23 160.007 307.465C160.007 306.7 160.119 306.046 160.344 305.502C160.572 304.958 160.899 304.545 161.325 304.262C161.752 303.975 162.258 303.832 162.844 303.832C163.43 303.832 163.936 303.975 164.362 304.262C164.789 304.545 165.116 304.96 165.344 305.507C165.572 306.05 165.686 306.703 165.686 307.465C165.686 308.233 165.572 308.889 165.344 309.433C165.119 309.976 164.794 310.39 164.367 310.673C163.941 310.956 163.433 311.098 162.844 311.098ZM162.844 309.887C163.117 309.887 163.355 309.797 163.557 309.618C163.762 309.439 163.918 309.169 164.025 308.808C164.133 308.443 164.185 307.995 164.182 307.465C164.182 306.938 164.128 306.493 164.021 306.132C163.913 305.767 163.758 305.494 163.557 305.312C163.355 305.129 163.117 305.038 162.844 305.038C162.57 305.038 162.333 305.129 162.131 305.312C161.932 305.494 161.778 305.767 161.667 306.132C161.556 306.493 161.501 306.938 161.501 307.465C161.501 307.995 161.555 308.443 161.662 308.808C161.773 309.169 161.929 309.439 162.131 309.618C162.333 309.797 162.57 309.887 162.844 309.887Z" fill="#707070"/>
    <path d="M173.911 311H172.437V305.326H172.397L170.781 306.352V305.043L172.529 303.93H173.911V311ZM178.599 311H177.124V305.326H177.085L175.469 306.352V305.043L177.217 303.93H178.599V311Z" fill="#707070"/>
    <path d="M188.203 311H186.729V305.326H186.689L185.073 306.352V305.043L186.821 303.93H188.203V311ZM189.839 309.94L192.383 307.602C192.633 307.361 192.829 307.162 192.969 307.006C193.109 306.846 193.215 306.687 193.286 306.527C193.361 306.365 193.398 306.192 193.398 306.01C193.398 305.808 193.35 305.631 193.252 305.478C193.154 305.321 193.021 305.202 192.852 305.121C192.682 305.04 192.49 304.999 192.275 304.999C192.057 304.999 191.864 305.043 191.694 305.131C191.528 305.219 191.4 305.347 191.309 305.517C191.221 305.683 191.177 305.876 191.177 306.098H189.78C189.78 305.645 189.884 305.248 190.093 304.906C190.304 304.561 190.599 304.296 190.977 304.11C191.357 303.925 191.795 303.832 192.29 303.832C192.788 303.832 193.228 303.92 193.608 304.096C193.989 304.271 194.284 304.517 194.492 304.833C194.704 305.149 194.81 305.51 194.81 305.917C194.81 306.194 194.756 306.461 194.648 306.718C194.544 306.975 194.359 307.26 194.092 307.572C193.828 307.885 193.452 308.262 192.964 308.705L191.885 309.745V309.794H194.912V311H189.844L189.839 309.94Z" fill="#707070"/>
    <path d="M202.557 311H201.082V305.326H201.043L199.427 306.352V305.043L201.175 303.93H202.557V311ZM206.824 311.098C206.31 311.098 205.849 311.01 205.442 310.834C205.035 310.658 204.716 310.411 204.485 310.092C204.257 309.773 204.139 309.411 204.129 309.008H205.608C205.618 309.174 205.677 309.324 205.784 309.457C205.892 309.59 206.036 309.695 206.219 309.77C206.401 309.844 206.603 309.882 206.824 309.882C207.055 309.882 207.264 309.841 207.449 309.76C207.638 309.675 207.783 309.561 207.884 309.418C207.985 309.271 208.034 309.105 208.03 308.92C208.034 308.728 207.981 308.557 207.874 308.407C207.767 308.257 207.61 308.142 207.405 308.061C207.203 307.976 206.966 307.934 206.692 307.934H206.033V306.85H206.692C206.924 306.85 207.13 306.811 207.312 306.732C207.495 306.651 207.635 306.539 207.732 306.396C207.83 306.252 207.877 306.09 207.874 305.907C207.877 305.728 207.837 305.57 207.752 305.434C207.667 305.294 207.545 305.186 207.386 305.111C207.226 305.036 207.044 304.999 206.839 304.999C206.631 304.999 206.44 305.036 206.268 305.111C206.095 305.183 205.955 305.287 205.848 305.424C205.743 305.557 205.687 305.714 205.677 305.893H204.271C204.284 305.492 204.402 305.136 204.627 304.823C204.852 304.511 205.156 304.268 205.54 304.096C205.927 303.92 206.36 303.832 206.839 303.832C207.324 303.832 207.752 303.918 208.123 304.091C208.494 304.263 208.782 304.501 208.987 304.804C209.192 305.106 209.292 305.445 209.285 305.819C209.292 306.076 209.238 306.311 209.124 306.522C209.013 306.734 208.855 306.908 208.65 307.045C208.449 307.178 208.214 307.27 207.947 307.318V307.372C208.292 307.414 208.585 307.51 208.826 307.66C209.07 307.807 209.254 307.995 209.378 308.227C209.502 308.458 209.56 308.721 209.554 309.018C209.56 309.411 209.446 309.768 209.212 310.087C208.978 310.403 208.652 310.65 208.235 310.829C207.819 311.008 207.348 311.098 206.824 311.098Z" fill="#707070"/>
    <path d="M216.469 311H214.994V305.326H214.955L213.339 306.352V305.043L215.087 303.93H216.469V311ZM217.997 308.588L220.985 303.93H221.981V305.541H221.386L219.481 308.51V308.568H223.725V309.75H217.997V308.588ZM221.43 309.394L221.449 308.881V303.93H222.831V311H221.43V309.394Z" fill="#707070"/>
    <path d="M232.12 311H230.646V305.326H230.606L228.99 306.352V305.043L230.738 303.93H232.12V311ZM236.363 311.098C235.882 311.098 235.445 311.008 235.055 310.829C234.664 310.65 234.356 310.401 234.132 310.082C233.91 309.763 233.795 309.405 233.785 309.008H235.206C235.222 309.19 235.283 309.351 235.387 309.491C235.494 309.631 235.632 309.742 235.802 309.823C235.974 309.901 236.161 309.94 236.363 309.94C236.604 309.94 236.819 309.887 237.008 309.779C237.2 309.672 237.35 309.524 237.457 309.335C237.564 309.143 237.618 308.926 237.618 308.686C237.618 308.435 237.563 308.215 237.452 308.026C237.345 307.834 237.193 307.685 236.998 307.577C236.806 307.466 236.586 307.411 236.339 307.411C236.075 307.408 235.852 307.455 235.67 307.553C235.488 307.65 235.343 307.8 235.235 308.002H233.902L234.288 303.93H238.639V305.136H235.499L235.304 306.918H235.357C235.494 306.739 235.689 306.594 235.943 306.483C236.197 306.373 236.476 306.317 236.778 306.317C237.205 306.317 237.59 306.417 237.936 306.615C238.284 306.811 238.554 307.086 238.746 307.44C238.941 307.795 239.037 308.197 239.034 308.646C239.037 309.115 238.925 309.537 238.697 309.911C238.473 310.282 238.159 310.574 237.755 310.785C237.351 310.993 236.887 311.098 236.363 311.098Z" fill="#707070"/>
    <path d="M40.9951 309.94L43.5391 307.602C43.7897 307.361 43.985 307.162 44.125 307.006C44.265 306.846 44.3708 306.687 44.4424 306.527C44.5173 306.365 44.5547 306.192 44.5547 306.01C44.5547 305.808 44.5059 305.631 44.4082 305.478C44.3105 305.321 44.1771 305.202 44.0078 305.121C43.8385 305.04 43.6465 304.999 43.4316 304.999C43.2135 304.999 43.0199 305.043 42.8506 305.131C42.6846 305.219 42.556 305.347 42.4648 305.517C42.377 305.683 42.333 305.876 42.333 306.098H40.9365C40.9365 305.645 41.0407 305.248 41.249 304.906C41.4606 304.561 41.7552 304.296 42.1328 304.11C42.5137 303.925 42.9515 303.832 43.4463 303.832C43.9443 303.832 44.3838 303.92 44.7646 304.096C45.1455 304.271 45.4401 304.517 45.6484 304.833C45.86 305.149 45.9658 305.51 45.9658 305.917C45.9658 306.194 45.9121 306.461 45.8047 306.718C45.7005 306.975 45.515 307.26 45.248 307.572C44.9844 307.885 44.6084 308.262 44.1201 308.705L43.041 309.745V309.794H46.0684V311H41L40.9951 309.94Z" fill="#707070"/>
</svg>