<svg width="246" height="317" viewBox="0 0 246 317" fill="none" xmlns="http://www.w3.org/2000/svg">
<path d="M25.7549 306.25H24.2803V300.576H24.2412L22.625 301.601V300.292L24.373 299.179H25.7549V306.25Z" fill="#707070"/>
<path d="M53.4805 306.347C52.9661 306.347 52.5055 306.259 52.0986 306.083C51.6917 305.908 51.3727 305.66 51.1416 305.341C50.9137 305.022 50.7949 304.661 50.7852 304.257H52.2646C52.2744 304.423 52.333 304.573 52.4404 304.707C52.5479 304.84 52.6927 304.944 52.875 305.019C53.0573 305.094 53.2591 305.131 53.4805 305.131C53.7116 305.131 53.9199 305.091 54.1055 305.009C54.2943 304.925 54.4391 304.811 54.54 304.667C54.641 304.521 54.6898 304.355 54.6865 304.169C54.6898 303.977 54.6377 303.806 54.5303 303.657C54.4229 303.507 54.2666 303.391 54.0615 303.31C53.8597 303.225 53.6221 303.183 53.3486 303.183H52.6895V302.099H53.3486C53.5798 302.099 53.7865 302.06 53.9688 301.982C54.151 301.901 54.291 301.788 54.3887 301.645C54.4863 301.502 54.5335 301.339 54.5303 301.157C54.5335 300.978 54.4928 300.82 54.4082 300.683C54.3236 300.543 54.2015 300.436 54.042 300.361C53.8825 300.286 53.7002 300.249 53.4951 300.249C53.2868 300.249 53.0964 300.286 52.9238 300.361C52.7513 300.432 52.6113 300.537 52.5039 300.673C52.3997 300.807 52.3428 300.963 52.333 301.142H50.9268C50.9398 300.742 51.0586 300.385 51.2832 300.073C51.5078 299.76 51.8122 299.518 52.1963 299.345C52.5837 299.169 53.0166 299.082 53.4951 299.082C53.9801 299.082 54.4082 299.168 54.7793 299.34C55.1504 299.513 55.4385 299.75 55.6436 300.053C55.8486 300.356 55.9479 300.694 55.9414 301.069C55.9479 301.326 55.8942 301.56 55.7803 301.772C55.6696 301.984 55.5117 302.158 55.3066 302.294C55.1048 302.428 54.8704 302.519 54.6035 302.568V302.622C54.9486 302.664 55.2415 302.76 55.4824 302.91C55.7266 303.056 55.9105 303.245 56.0342 303.476C56.1579 303.707 56.2165 303.971 56.21 304.267C56.2165 304.661 56.1025 305.017 55.8682 305.336C55.6338 305.652 55.3083 305.9 54.8916 306.079C54.4749 306.258 54.0046 306.347 53.4805 306.347Z" fill="#707070"/>
<path d="M65.6533 303.837L68.6416 299.179H69.6377V300.791H69.042L67.1377 303.759V303.818H71.3809V305H65.6533V303.837ZM69.0859 304.643L69.1055 304.13V299.179H70.4873V306.25H69.0859V304.643Z" fill="#707070"/>
<path d="M82.5195 306.347C82.0378 306.347 81.6016 306.258 81.2109 306.079C80.8203 305.9 80.5127 305.651 80.2881 305.332C80.0667 305.013 79.9512 304.654 79.9414 304.257H81.3623C81.3786 304.44 81.4388 304.601 81.543 304.741C81.6504 304.881 81.7887 304.991 81.958 305.073C82.1305 305.151 82.3177 305.19 82.5195 305.19C82.7604 305.19 82.9753 305.136 83.1641 305.029C83.3561 304.921 83.5059 304.773 83.6133 304.584C83.7207 304.392 83.7744 304.176 83.7744 303.935C83.7744 303.684 83.7191 303.465 83.6084 303.276C83.501 303.084 83.3496 302.934 83.1543 302.827C82.9622 302.716 82.7425 302.661 82.4951 302.661C82.2314 302.657 82.0085 302.705 81.8262 302.802C81.6439 302.9 81.499 303.05 81.3916 303.251H80.0586L80.4443 299.179H84.7949V300.385H81.6553L81.46 302.167H81.5137C81.6504 301.988 81.8457 301.844 82.0996 301.733C82.3535 301.622 82.6318 301.567 82.9346 301.567C83.361 301.567 83.7467 301.666 84.0918 301.865C84.4401 302.06 84.7103 302.335 84.9023 302.69C85.0977 303.045 85.1937 303.447 85.1904 303.896C85.1937 304.365 85.0814 304.786 84.8535 305.161C84.6289 305.532 84.3148 305.823 83.9111 306.035C83.5075 306.243 83.0436 306.347 82.5195 306.347Z" fill="#707070"/>
<path d="M97.5781 306.347C97.054 306.344 96.5788 306.228 96.1523 306C95.7259 305.773 95.3809 305.4 95.1172 304.882C94.8535 304.365 94.7217 303.696 94.7217 302.875C94.7217 302.091 94.8405 301.414 95.0781 300.844C95.319 300.271 95.6576 299.835 96.0938 299.536C96.5332 299.233 97.0459 299.082 97.6318 299.082C98.0973 299.082 98.5124 299.171 98.877 299.35C99.2448 299.529 99.541 299.775 99.7656 300.087C99.9902 300.4 100.127 300.751 100.176 301.142H98.7256C98.6865 300.976 98.6165 300.833 98.5156 300.712C98.418 300.589 98.2943 300.496 98.1445 300.434C97.9948 300.372 97.8239 300.341 97.6318 300.341C97.3161 300.341 97.0492 300.432 96.8311 300.615C96.6162 300.794 96.4518 301.051 96.3379 301.386C96.224 301.722 96.1654 302.124 96.1621 302.592H96.2207C96.3314 302.384 96.4779 302.207 96.6602 302.06C96.8457 301.91 97.0557 301.796 97.29 301.718C97.5277 301.637 97.7751 301.596 98.0322 301.596C98.4521 301.596 98.8314 301.694 99.1699 301.889C99.5085 302.084 99.7721 302.356 99.9609 302.705C100.153 303.05 100.249 303.442 100.249 303.881C100.249 304.357 100.137 304.781 99.9121 305.156C99.6908 305.53 99.3766 305.823 98.9697 306.035C98.5661 306.243 98.1022 306.347 97.5781 306.347ZM97.5684 305.19C97.806 305.19 98.0192 305.135 98.208 305.024C98.4001 304.91 98.5498 304.757 98.6572 304.565C98.7679 304.37 98.8232 304.156 98.8232 303.925C98.8232 303.688 98.7695 303.473 98.6621 303.281C98.5547 303.089 98.4066 302.939 98.2178 302.832C98.029 302.724 97.8158 302.67 97.5781 302.67C97.3438 302.67 97.1305 302.726 96.9385 302.836C96.7464 302.947 96.5951 303.098 96.4844 303.291C96.3737 303.483 96.3151 303.696 96.3086 303.93C96.3118 304.155 96.3672 304.363 96.4746 304.555C96.5853 304.747 96.735 304.902 96.9238 305.019C97.1159 305.133 97.3307 305.19 97.5684 305.19Z" fill="#707070"/>
<path d="M112.433 300.429V300.385H108.966V299.179H113.956V300.405L110.973 306.25H109.459L112.433 300.429Z" fill="#707070"/>
<path d="M126.5 306.347C125.973 306.347 125.497 306.261 125.074 306.088C124.654 305.916 124.326 305.677 124.088 305.371C123.85 305.065 123.731 304.723 123.731 304.345C123.731 304.056 123.8 303.785 123.937 303.535C124.073 303.281 124.259 303.072 124.493 302.91C124.731 302.747 124.994 302.644 125.284 302.602V302.548C125.037 302.5 124.815 302.402 124.62 302.255C124.425 302.106 124.272 301.92 124.161 301.699C124.05 301.477 123.995 301.24 123.995 300.986C123.995 300.625 124.104 300.299 124.322 300.009C124.54 299.716 124.84 299.488 125.221 299.326C125.602 299.163 126.028 299.082 126.5 299.082C126.975 299.082 127.403 299.163 127.784 299.326C128.168 299.488 128.468 299.716 128.683 300.009C128.901 300.299 129.01 300.625 129.01 300.986C129.01 301.24 128.953 301.477 128.839 301.699C128.728 301.92 128.575 302.106 128.38 302.255C128.188 302.402 127.966 302.5 127.716 302.548V302.602C128.006 302.644 128.268 302.747 128.502 302.91C128.74 303.072 128.928 303.281 129.068 303.535C129.208 303.785 129.278 304.056 129.278 304.345C129.278 304.723 129.158 305.065 128.917 305.371C128.679 305.677 128.349 305.916 127.926 306.088C127.506 306.261 127.031 306.347 126.5 306.347ZM126.5 305.229C126.744 305.229 126.961 305.185 127.149 305.097C127.338 305.009 127.485 304.887 127.589 304.731C127.693 304.575 127.745 304.399 127.745 304.204C127.745 303.999 127.691 303.815 127.584 303.652C127.477 303.489 127.328 303.362 127.14 303.271C126.951 303.18 126.738 303.134 126.5 303.134C126.266 303.134 126.054 303.18 125.865 303.271C125.676 303.362 125.528 303.489 125.421 303.652C125.313 303.815 125.261 303.999 125.265 304.204C125.261 304.399 125.312 304.575 125.416 304.731C125.52 304.887 125.667 305.009 125.855 305.097C126.044 305.185 126.259 305.229 126.5 305.229ZM126.5 302.094C126.705 302.094 126.889 302.054 127.052 301.972C127.218 301.888 127.346 301.774 127.438 301.63C127.529 301.484 127.574 301.319 127.574 301.137C127.574 300.952 127.529 300.787 127.438 300.644C127.35 300.501 127.223 300.39 127.057 300.312C126.894 300.231 126.708 300.19 126.5 300.19C126.295 300.19 126.109 300.231 125.943 300.312C125.781 300.39 125.654 300.501 125.562 300.644C125.475 300.787 125.431 300.952 125.431 301.137C125.431 301.319 125.476 301.484 125.567 301.63C125.662 301.774 125.79 301.888 125.953 301.972C126.116 302.054 126.298 302.094 126.5 302.094Z" fill="#707070"/>
<path d="M140.422 299.082C140.946 299.082 141.421 299.195 141.848 299.423C142.274 299.648 142.618 300.019 142.878 300.537C143.142 301.051 143.273 301.715 143.273 302.529C143.277 303.32 143.16 304.002 142.922 304.575C142.684 305.148 142.346 305.587 141.906 305.893C141.47 306.196 140.956 306.347 140.363 306.347C139.901 306.347 139.486 306.256 139.118 306.074C138.75 305.891 138.454 305.644 138.229 305.332C138.005 305.016 137.868 304.659 137.819 304.262H139.265C139.307 304.435 139.377 304.583 139.475 304.707C139.576 304.83 139.701 304.925 139.851 304.99C140.004 305.055 140.174 305.087 140.363 305.087C140.679 305.087 140.948 304.996 141.169 304.814C141.39 304.632 141.556 304.371 141.667 304.033C141.781 303.691 141.838 303.284 141.838 302.812H141.774C141.664 303.014 141.517 303.19 141.335 303.339C141.153 303.489 140.943 303.605 140.705 303.686C140.471 303.764 140.223 303.803 139.963 303.803C139.546 303.803 139.169 303.706 138.83 303.51C138.495 303.315 138.231 303.045 138.039 302.7C137.847 302.351 137.749 301.962 137.746 301.533C137.746 301.061 137.857 300.639 138.078 300.268C138.303 299.894 138.618 299.602 139.025 299.394C139.432 299.182 139.898 299.078 140.422 299.082ZM140.427 300.234C140.192 300.234 139.979 300.291 139.787 300.405C139.595 300.515 139.445 300.667 139.338 300.859C139.23 301.048 139.177 301.258 139.177 301.489C139.18 301.72 139.235 301.93 139.343 302.119C139.45 302.307 139.597 302.457 139.782 302.568C139.971 302.679 140.181 302.734 140.412 302.734C140.65 302.734 140.865 302.677 141.057 302.563C141.252 302.449 141.407 302.296 141.521 302.104C141.634 301.909 141.69 301.7 141.687 301.479C141.687 301.254 141.631 301.048 141.521 300.859C141.41 300.667 141.26 300.515 141.071 300.405C140.882 300.291 140.668 300.234 140.427 300.234Z" fill="#707070"/>
<path d="M153.454 306.25H151.979V300.576H151.94L150.324 301.601V300.292L152.072 299.179H153.454V306.25ZM157.844 306.347C157.255 306.347 156.747 306.206 156.32 305.922C155.897 305.639 155.572 305.226 155.344 304.682C155.119 304.135 155.007 303.479 155.007 302.714C155.007 301.949 155.119 301.295 155.344 300.751C155.572 300.208 155.899 299.794 156.325 299.511C156.752 299.225 157.258 299.082 157.844 299.082C158.43 299.082 158.936 299.225 159.362 299.511C159.789 299.794 160.116 300.209 160.344 300.756C160.572 301.3 160.686 301.953 160.686 302.714C160.686 303.483 160.572 304.139 160.344 304.682C160.119 305.226 159.794 305.639 159.367 305.922C158.941 306.206 158.433 306.347 157.844 306.347ZM157.844 305.136C158.117 305.136 158.355 305.047 158.557 304.868C158.762 304.689 158.918 304.418 159.025 304.057C159.133 303.693 159.185 303.245 159.182 302.714C159.182 302.187 159.128 301.743 159.021 301.381C158.913 301.017 158.758 300.743 158.557 300.561C158.355 300.379 158.117 300.288 157.844 300.288C157.57 300.288 157.333 300.379 157.131 300.561C156.932 300.743 156.778 301.017 156.667 301.381C156.556 301.743 156.501 302.187 156.501 302.714C156.501 303.245 156.555 303.693 156.662 304.057C156.773 304.418 156.929 304.689 157.131 304.868C157.333 305.047 157.57 305.136 157.844 305.136Z" fill="#707070"/>
<path d="M168.911 306.25H167.437V300.576H167.397L165.781 301.601V300.292L167.529 299.179H168.911V306.25ZM173.599 306.25H172.124V300.576H172.085L170.469 301.601V300.292L172.217 299.179H173.599V306.25Z" fill="#707070"/>
<path d="M183.203 306.25H181.729V300.576H181.689L180.073 301.601V300.292L181.821 299.179H183.203V306.25ZM184.839 305.19L187.383 302.851C187.633 302.61 187.829 302.412 187.969 302.255C188.109 302.096 188.215 301.936 188.286 301.777C188.361 301.614 188.398 301.442 188.398 301.259C188.398 301.057 188.35 300.88 188.252 300.727C188.154 300.571 188.021 300.452 187.852 300.371C187.682 300.289 187.49 300.249 187.275 300.249C187.057 300.249 186.864 300.292 186.694 300.38C186.528 300.468 186.4 300.597 186.309 300.766C186.221 300.932 186.177 301.126 186.177 301.347H184.78C184.78 300.895 184.884 300.498 185.093 300.156C185.304 299.811 185.599 299.545 185.977 299.36C186.357 299.174 186.795 299.082 187.29 299.082C187.788 299.082 188.228 299.169 188.608 299.345C188.989 299.521 189.284 299.767 189.492 300.083C189.704 300.398 189.81 300.76 189.81 301.167C189.81 301.443 189.756 301.71 189.648 301.967C189.544 302.224 189.359 302.509 189.092 302.822C188.828 303.134 188.452 303.512 187.964 303.955L186.885 304.995V305.043H189.912V306.25H184.844L184.839 305.19Z" fill="#707070"/>
<path d="M196.557 306.25H195.082V300.576H195.043L193.427 301.601V300.292L195.175 299.179H196.557V306.25ZM200.824 306.347C200.31 306.347 199.849 306.259 199.442 306.083C199.035 305.908 198.716 305.66 198.485 305.341C198.257 305.022 198.139 304.661 198.129 304.257H199.608C199.618 304.423 199.677 304.573 199.784 304.707C199.892 304.84 200.036 304.944 200.219 305.019C200.401 305.094 200.603 305.131 200.824 305.131C201.055 305.131 201.264 305.091 201.449 305.009C201.638 304.925 201.783 304.811 201.884 304.667C201.985 304.521 202.034 304.355 202.03 304.169C202.034 303.977 201.981 303.806 201.874 303.657C201.767 303.507 201.61 303.391 201.405 303.31C201.203 303.225 200.966 303.183 200.692 303.183H200.033V302.099H200.692C200.924 302.099 201.13 302.06 201.312 301.982C201.495 301.901 201.635 301.788 201.732 301.645C201.83 301.502 201.877 301.339 201.874 301.157C201.877 300.978 201.837 300.82 201.752 300.683C201.667 300.543 201.545 300.436 201.386 300.361C201.226 300.286 201.044 300.249 200.839 300.249C200.631 300.249 200.44 300.286 200.268 300.361C200.095 300.432 199.955 300.537 199.848 300.673C199.743 300.807 199.687 300.963 199.677 301.142H198.271C198.284 300.742 198.402 300.385 198.627 300.073C198.852 299.76 199.156 299.518 199.54 299.345C199.927 299.169 200.36 299.082 200.839 299.082C201.324 299.082 201.752 299.168 202.123 299.34C202.494 299.513 202.782 299.75 202.987 300.053C203.192 300.356 203.292 300.694 203.285 301.069C203.292 301.326 203.238 301.56 203.124 301.772C203.013 301.984 202.855 302.158 202.65 302.294C202.449 302.428 202.214 302.519 201.947 302.568V302.622C202.292 302.664 202.585 302.76 202.826 302.91C203.07 303.056 203.254 303.245 203.378 303.476C203.502 303.707 203.56 303.971 203.554 304.267C203.56 304.661 203.446 305.017 203.212 305.336C202.978 305.652 202.652 305.9 202.235 306.079C201.819 306.258 201.348 306.347 200.824 306.347Z" fill="#707070"/>
<path d="M211.469 306.25H209.994V300.576H209.955L208.339 301.601V300.292L210.087 299.179H211.469V306.25ZM212.997 303.837L215.985 299.179H216.981V300.791H216.386L214.481 303.759V303.818H218.725V305H212.997V303.837ZM216.43 304.643L216.449 304.13V299.179H217.831V306.25H216.43V304.643Z" fill="#707070"/>
<path d="M226.12 306.25H224.646V300.576H224.606L222.99 301.601V300.292L224.738 299.179H226.12V306.25ZM230.363 306.347C229.882 306.347 229.445 306.258 229.055 306.079C228.664 305.9 228.356 305.651 228.132 305.332C227.91 305.013 227.795 304.654 227.785 304.257H229.206C229.222 304.44 229.283 304.601 229.387 304.741C229.494 304.881 229.632 304.991 229.802 305.073C229.974 305.151 230.161 305.19 230.363 305.19C230.604 305.19 230.819 305.136 231.008 305.029C231.2 304.921 231.35 304.773 231.457 304.584C231.564 304.392 231.618 304.176 231.618 303.935C231.618 303.684 231.563 303.465 231.452 303.276C231.345 303.084 231.193 302.934 230.998 302.827C230.806 302.716 230.586 302.661 230.339 302.661C230.075 302.657 229.852 302.705 229.67 302.802C229.488 302.9 229.343 303.05 229.235 303.251H227.902L228.288 299.179H232.639V300.385H229.499L229.304 302.167H229.357C229.494 301.988 229.689 301.844 229.943 301.733C230.197 301.622 230.476 301.567 230.778 301.567C231.205 301.567 231.59 301.666 231.936 301.865C232.284 302.06 232.554 302.335 232.746 302.69C232.941 303.045 233.037 303.447 233.034 303.896C233.037 304.365 232.925 304.786 232.697 305.161C232.473 305.532 232.159 305.823 231.755 306.035C231.351 306.243 230.887 306.347 230.363 306.347Z" fill="#707070"/>
<path d="M36.9951 305.19L39.5391 302.851C39.7897 302.61 39.985 302.412 40.125 302.255C40.265 302.096 40.3708 301.936 40.4424 301.777C40.5173 301.614 40.5547 301.442 40.5547 301.259C40.5547 301.057 40.5059 300.88 40.4082 300.727C40.3105 300.571 40.1771 300.452 40.0078 300.371C39.8385 300.289 39.6465 300.249 39.4316 300.249C39.2135 300.249 39.0199 300.292 38.8506 300.38C38.6846 300.468 38.556 300.597 38.4648 300.766C38.377 300.932 38.333 301.126 38.333 301.347H36.9365C36.9365 300.895 37.0407 300.498 37.249 300.156C37.4606 299.811 37.7552 299.545 38.1328 299.36C38.5137 299.174 38.9515 299.082 39.4463 299.082C39.9443 299.082 40.3838 299.169 40.7646 299.345C41.1455 299.521 41.4401 299.767 41.6484 300.083C41.86 300.398 41.9658 300.76 41.9658 301.167C41.9658 301.443 41.9121 301.71 41.8047 301.967C41.7005 302.224 41.515 302.509 41.248 302.822C40.9844 303.134 40.6084 303.512 40.1201 303.955L39.041 304.995V305.043H42.0684V306.25H37L36.9951 305.19Z" fill="#707070"/>
<path d="M10.1162 19.2495L12.5576 12.1792H14.4424L16.8887 19.2495H15.3115L13.5293 13.7759H13.4707L11.6836 19.2495H10.1162ZM15.3799 16.4712V17.6187H11.6055V16.4712H15.3799Z" fill="#707070"/>
<path d="M10.917 26.1792H13.7295C14.234 26.1792 14.6621 26.2557 15.0137 26.4087C15.3652 26.5584 15.6289 26.77 15.8047 27.0435C15.9837 27.3136 16.0732 27.631 16.0732 27.9956C16.0732 28.2625 16.0179 28.5002 15.9072 28.7085C15.7998 28.9168 15.6501 29.0894 15.458 29.2261C15.2692 29.3595 15.0495 29.4539 14.7988 29.5093V29.5776C15.069 29.5907 15.3229 29.6688 15.5605 29.812C15.7982 29.9552 15.9886 30.1554 16.1318 30.4126C16.2751 30.6665 16.3467 30.9627 16.3467 31.3013C16.3467 31.6789 16.2539 32.0142 16.0684 32.3071C15.8828 32.6001 15.6061 32.8312 15.2383 33.0005C14.8737 33.1665 14.4326 33.2495 13.915 33.2495H10.917V26.1792ZM13.6172 32.0435C13.8939 32.0435 14.1217 32.0076 14.3008 31.936C14.4831 31.8612 14.6165 31.7586 14.7012 31.6284C14.7858 31.495 14.8281 31.3371 14.8281 31.1548C14.8281 30.9595 14.7809 30.7837 14.6865 30.6274C14.5921 30.4712 14.4554 30.3524 14.2764 30.271C14.1006 30.1864 13.8939 30.144 13.6562 30.144H12.3818V32.0435H13.6172ZM13.5098 29.1431C13.7148 29.1431 13.8988 29.1056 14.0615 29.0308C14.2275 28.9559 14.3561 28.8501 14.4473 28.7134C14.5417 28.5767 14.5889 28.4155 14.5889 28.23C14.5889 28.0542 14.5482 27.9028 14.4668 27.7759C14.3854 27.6457 14.265 27.5464 14.1055 27.478C13.9492 27.4064 13.7604 27.3706 13.5391 27.3706H12.3818V29.1431H13.5098Z" fill="#707070"/>
<path d="M15.2041 43.645C15.1683 43.3846 15.0804 43.16 14.9404 42.9712C14.8037 42.7791 14.6247 42.6326 14.4033 42.5317C14.182 42.4308 13.9362 42.3804 13.666 42.3804C13.2982 42.3804 12.9759 42.4731 12.6992 42.6587C12.4258 42.841 12.2126 43.1079 12.0596 43.4595C11.9066 43.8078 11.8301 44.2261 11.8301 44.7144C11.8301 45.2157 11.9066 45.6405 12.0596 45.9888C12.2126 46.3338 12.4258 46.5975 12.6992 46.7798C12.9759 46.9588 13.2933 47.0483 13.6514 47.0483C13.9215 47.0483 14.1641 46.9995 14.3789 46.9019C14.597 46.8042 14.7777 46.6659 14.9209 46.4868C15.0641 46.3045 15.1585 46.0881 15.2041 45.8374L16.6934 45.8521C16.638 46.2948 16.4785 46.7065 16.2148 47.0874C15.9544 47.4683 15.6029 47.7743 15.1602 48.0054C14.7174 48.2332 14.208 48.3472 13.6318 48.3472C13.0003 48.3472 12.4355 48.2039 11.9375 47.9175C11.4395 47.6278 11.0488 47.2095 10.7656 46.6626C10.4857 46.1125 10.3457 45.4631 10.3457 44.7144C10.3457 43.9591 10.4873 43.3081 10.7705 42.7612C11.057 42.2144 11.4476 41.7977 11.9424 41.5112C12.4404 41.2248 13.0036 41.0815 13.6318 41.0815C14.1755 41.0815 14.667 41.1825 15.1064 41.3843C15.5459 41.5861 15.9023 41.8807 16.1758 42.2681C16.4525 42.6522 16.625 43.1112 16.6934 43.645H15.2041Z" fill="#707070"/>
<path d="M11.249 62.2495V60.9897H13.0215C13.4772 60.9897 13.8564 60.9084 14.1592 60.7456C14.4619 60.5828 14.6898 60.3338 14.8428 59.9985C14.9958 59.66 15.0723 59.2303 15.0723 58.7095C15.0723 58.1886 14.9958 57.7606 14.8428 57.4253C14.693 57.0868 14.4668 56.8377 14.1641 56.6782C13.8613 56.5187 13.4837 56.439 13.0312 56.439H11.2148V55.1792H13.1045C13.8141 55.1792 14.4261 55.3208 14.9404 55.604C15.458 55.884 15.8535 56.2892 16.127 56.8198C16.4036 57.3504 16.542 57.9803 16.542 58.7095C16.542 59.4419 16.4036 60.0734 16.127 60.604C15.8503 61.1346 15.4515 61.5415 14.9307 61.8247C14.4131 62.1079 13.7979 62.2495 13.085 62.2495H11.249ZM12.0596 62.2495H10.5947V55.1792H12.0596V62.2495Z" fill="#707070"/>
<path d="M11.1562 70.1792H15.9023V71.3901H12.6211V73.1089H15.6533V74.3149H12.6211V76.0386H15.9121V77.2495H11.1562V70.1792Z" fill="#707070"/>
<path d="M11.2881 84.1792H15.9463V85.3901H12.7529V87.1089H15.6387V88.3149H12.7529V91.2495H11.2881V84.1792Z" fill="#707070"/>
<path d="M15.126 101.459C15.0641 101.235 14.9632 101.043 14.8232 100.883C14.6833 100.721 14.5124 100.597 14.3105 100.512C14.112 100.424 13.8825 100.38 13.6221 100.38C13.2575 100.38 12.9368 100.472 12.6602 100.654C12.3867 100.836 12.1719 101.103 12.0156 101.455C11.8626 101.803 11.7861 102.221 11.7861 102.709C11.7861 103.201 11.861 103.623 12.0107 103.974C12.1637 104.322 12.3786 104.589 12.6553 104.775C12.9352 104.957 13.2624 105.048 13.6367 105.048C13.9753 105.048 14.2666 104.986 14.5107 104.863C14.7581 104.739 14.9453 104.565 15.0723 104.34C15.2025 104.112 15.2676 103.847 15.2676 103.544L15.5703 103.588H13.7344V102.47H16.6836V103.359C16.6836 103.968 16.5534 104.498 16.293 104.951C16.0326 105.4 15.6712 105.745 15.209 105.986C14.75 106.227 14.2243 106.347 13.6318 106.347C12.9743 106.347 12.3932 106.201 11.8887 105.908C11.3874 105.611 10.9967 105.19 10.7168 104.643C10.4401 104.096 10.3018 103.455 10.3018 102.719C10.3018 101.974 10.445 101.328 10.7314 100.781C11.0212 100.231 11.415 99.8107 11.9131 99.521C12.4111 99.228 12.9727 99.0815 13.5977 99.0815C14.125 99.0815 14.6068 99.1825 15.043 99.3843C15.4792 99.5861 15.834 99.866 16.1074 100.224C16.3841 100.582 16.555 100.994 16.6201 101.459H15.126Z" fill="#707070"/>
<path d="M10.502 113.179H11.9668V116.109H15.0332V113.179H16.498V120.25H15.0332V117.315H11.9668V120.25H10.502V113.179Z" fill="#707070"/>
<path d="M14.2324 135.25H12.7676V128.179H14.2324V135.25Z" fill="#707070"/>
<path d="M15.6387 142.179V147.111C15.6387 147.56 15.5378 147.954 15.3359 148.292C15.1374 148.631 14.8558 148.891 14.4912 149.074C14.1266 149.256 13.7083 149.347 13.2363 149.347C12.8034 149.347 12.4144 149.271 12.0693 149.118C11.7275 148.961 11.4574 148.729 11.2588 148.419C11.0602 148.107 10.9609 147.726 10.9609 147.277H12.4258C12.429 147.459 12.4681 147.617 12.543 147.75C12.6211 147.884 12.7253 147.986 12.8555 148.058C12.9857 148.126 13.137 148.161 13.3096 148.161C13.5928 148.161 13.8076 148.073 13.9541 147.897C14.1006 147.718 14.1755 147.456 14.1787 147.111V142.179H15.6387Z" fill="#707070"/>
<path d="M10.79 157.179H12.2549V160.314H12.3477L14.916 157.179H16.6836L14.042 160.343L16.7129 164.25H14.9502L12.9922 161.325L12.2549 162.228V164.25H10.79V157.179Z" fill="#707070"/>
<path d="M11.3711 171.179H12.8359V177.039H15.8779V178.25H11.3711V171.179Z" fill="#707070"/>
<path d="M16.4443 207.25H15.1748L12.0693 202.757H12.0156V207.25H10.5508V200.179H11.8398L14.9209 204.667H14.9844V200.179H16.4443V207.25Z" fill="#707070"/>
<path d="M16.8008 218.714C16.8008 219.463 16.6576 220.112 16.3711 220.663C16.0879 221.209 15.6956 221.628 15.1943 221.917C14.6963 222.204 14.1315 222.347 13.5 222.347C12.8685 222.347 12.3021 222.204 11.8008 221.917C11.3027 221.628 10.9105 221.208 10.624 220.658C10.3408 220.108 10.1992 219.46 10.1992 218.714C10.1992 217.959 10.3408 217.308 10.624 216.761C10.9105 216.214 11.3027 215.798 11.8008 215.511C12.3021 215.225 12.8685 215.082 13.5 215.082C14.1315 215.082 14.6963 215.225 15.1943 215.511C15.6956 215.798 16.0879 216.214 16.3711 216.761C16.6576 217.308 16.8008 217.959 16.8008 218.714ZM15.3164 218.714C15.3164 218.216 15.2415 217.793 15.0918 217.445C14.9453 217.097 14.7354 216.833 14.4619 216.654C14.1917 216.472 13.8711 216.38 13.5 216.38C13.1322 216.38 12.8115 216.472 12.5381 216.654C12.2679 216.833 12.0579 217.097 11.9082 217.445C11.7585 217.793 11.6836 218.216 11.6836 218.714C11.6836 219.212 11.7585 219.636 11.9082 219.984C12.0579 220.332 12.2679 220.597 12.5381 220.78C12.8115 220.959 13.1322 221.048 13.5 221.048C13.8711 221.048 14.1917 220.959 14.4619 220.78C14.7354 220.597 14.9453 220.332 15.0918 219.984C15.2415 219.636 15.3164 219.212 15.3164 218.714Z" fill="#707070"/>
<path d="M10.9854 229.179H13.749C14.2764 229.179 14.7305 229.28 15.1113 229.482C15.4954 229.681 15.7868 229.96 15.9854 230.322C16.1839 230.683 16.2832 231.098 16.2832 231.567C16.2832 232.039 16.1807 232.454 15.9756 232.812C15.7738 233.167 15.4792 233.445 15.0918 233.647C14.7077 233.846 14.2487 233.945 13.7148 233.945H11.9375V232.763H13.4854C13.7686 232.763 14.0062 232.714 14.1982 232.617C14.3936 232.516 14.5384 232.376 14.6328 232.197C14.7272 232.018 14.7744 231.808 14.7744 231.567C14.7744 231.326 14.7272 231.118 14.6328 230.942C14.5384 230.763 14.3936 230.626 14.1982 230.532C14.0062 230.434 13.7669 230.385 13.4805 230.385H12.4502V236.25H10.9854V229.179Z" fill="#707070"/>
<path d="M14.2422 248.798L14.8916 249.633L15.502 250.346L16.6836 251.835H15.3066L14.4912 250.83L14.0859 250.253L12.9873 248.798H14.2422ZM16.7959 247.714C16.7959 248.463 16.6527 249.112 16.3662 249.663C16.083 250.209 15.6908 250.628 15.1895 250.917C14.6914 251.204 14.1266 251.347 13.4951 251.347C12.8636 251.347 12.2972 251.204 11.7959 250.917C11.2979 250.628 10.9056 250.208 10.6191 249.658C10.3359 249.108 10.1943 248.46 10.1943 247.714C10.1943 246.959 10.3359 246.308 10.6191 245.761C10.9056 245.214 11.2979 244.798 11.7959 244.511C12.2972 244.225 12.8636 244.082 13.4951 244.082C14.1266 244.082 14.6914 244.225 15.1895 244.511C15.6908 244.798 16.083 245.214 16.3662 245.761C16.6527 246.308 16.7959 246.959 16.7959 247.714ZM15.3115 247.714C15.3115 247.216 15.2367 246.793 15.0869 246.445C14.9404 246.097 14.7305 245.833 14.457 245.654C14.1868 245.472 13.8662 245.38 13.4951 245.38C13.1273 245.38 12.8066 245.472 12.5332 245.654C12.263 245.833 12.0531 246.097 11.9033 246.445C11.7536 246.793 11.6787 247.216 11.6787 247.714C11.6787 248.212 11.7536 248.636 11.9033 248.984C12.0531 249.332 12.263 249.597 12.5332 249.78C12.8066 249.959 13.1273 250.048 13.4951 250.048C13.8662 250.048 14.1868 249.959 14.457 249.78C14.7305 249.597 14.9404 249.332 15.0869 248.984C15.2367 248.636 15.3115 248.212 15.3115 247.714Z" fill="#707070"/>
<path d="M10.9414 258.179H13.7051C14.2389 258.179 14.6947 258.274 15.0723 258.462C15.4531 258.648 15.7428 258.915 15.9414 259.263C16.14 259.611 16.2393 260.018 16.2393 260.484C16.2393 260.946 16.1383 261.348 15.9365 261.69C15.738 262.028 15.445 262.289 15.0576 262.471C14.6702 262.65 14.208 262.74 13.6709 262.74H11.8008V261.543H13.4414C13.7344 261.543 13.9753 261.504 14.1641 261.426C14.3529 261.345 14.4945 261.226 14.5889 261.07C14.6833 260.914 14.7305 260.718 14.7305 260.484C14.7305 260.243 14.6833 260.041 14.5889 259.878C14.4945 259.716 14.3512 259.594 14.1592 259.512C13.9671 259.428 13.7262 259.385 13.4365 259.385H12.4062V265.25H10.9414V258.179ZM16.4932 265.25H14.8623L13.1484 262.037H14.7354L16.4932 265.25Z" fill="#707070"/>
<path d="M14.7793 275.201C14.7598 275.012 14.6995 274.851 14.5986 274.717C14.501 274.584 14.3643 274.483 14.1885 274.415C14.0127 274.346 13.8027 274.312 13.5586 274.312C13.321 274.312 13.1143 274.346 12.9385 274.415C12.766 274.483 12.6341 274.579 12.543 274.703C12.4518 274.823 12.4062 274.961 12.4062 275.118C12.403 275.355 12.5007 275.541 12.6992 275.674C12.901 275.808 13.1794 275.918 13.5342 276.006L14.1689 276.158C14.8395 276.307 15.3587 276.55 15.7266 276.885C16.0977 277.217 16.2848 277.667 16.2881 278.233C16.2881 278.659 16.179 279.032 15.9609 279.351C15.7428 279.67 15.4287 279.916 15.0186 280.088C14.6084 280.261 14.1185 280.347 13.5488 280.347C12.9792 280.347 12.4827 280.259 12.0596 280.083C11.6396 279.908 11.3141 279.649 11.083 279.307C10.8519 278.962 10.7282 278.541 10.7119 278.042H12.1377C12.1572 278.274 12.2272 278.469 12.3477 278.628C12.4681 278.788 12.6309 278.908 12.8359 278.99C13.041 279.071 13.2738 279.112 13.5342 279.112C13.7881 279.112 14.0111 279.074 14.2031 279C14.3952 278.925 14.5433 278.82 14.6475 278.687C14.7516 278.55 14.8037 278.396 14.8037 278.223C14.8037 278.067 14.7581 277.935 14.667 277.828C14.5758 277.717 14.4424 277.624 14.2666 277.549C14.0941 277.471 13.8711 277.398 13.5977 277.33L12.8213 277.144C12.2028 276.991 11.7275 276.758 11.3955 276.446C11.0667 276.13 10.9023 275.72 10.9023 275.215C10.9023 274.795 11.0163 274.424 11.2441 274.102C11.4753 273.78 11.7926 273.529 12.1963 273.35C12.6032 273.171 13.0622 273.082 13.5732 273.082C14.0876 273.082 14.5417 273.171 14.9355 273.35C15.3294 273.526 15.6354 273.775 15.8535 274.097C16.0716 274.416 16.1839 274.784 16.1904 275.201H14.7793Z" fill="#707070"/>
<path d="M10.6045 287.179H16.3955V288.39H14.2275V294.25H12.7773V288.39H10.6045V287.179Z" fill="#707070"/>
<path d="M11.4932 186.179L13.4609 190.969H13.5439L15.5068 186.179H17.3184V193.25H15.8926V188.616H15.834L13.9883 193.215H13.0068L11.166 188.606H11.1074V193.25H9.68652V186.179H11.4932Z" fill="#707070"/>
<rect class="seat" id="A1" x="20.2498" y="295.5" width="10" height="10" transform="rotate(-90 20.2498 295.5)" fill="#B748E7"/>
<rect class="seat" id="A2" x="20.2498" y="281" width="10" height="10" transform="rotate(-90 20.2498 281)" fill="#B748E7"/>
<rect class="seat" id="A3" x="20.2498" y="266.5" width="10" height="10" transform="rotate(-90 20.2498 266.5)" fill="#B748E7"/>
<rect class="seat" id="A4" x="20.2498" y="252" width="10" height="10" transform="rotate(-90 20.2498 252)" fill="#B748E7"/>
<rect class="seat" id="A5" x="20.2498" y="237.5" width="10" height="10" transform="rotate(-90 20.2498 237.5)" fill="#B748E7"/>
<rect class="seat" id="A6" x="20.2498" y="223" width="10" height="10" transform="rotate(-90 20.2498 223)" fill="#B748E7"/>
<rect class="seat" id="A7" x="20.2498" y="208.5" width="10" height="10" transform="rotate(-90 20.2498 208.5)" fill="#B748E7"/>
<rect class="seat" id="A8" x="20.2498" y="194" width="10" height="10" transform="rotate(-90 20.2498 194)" fill="#B748E7"/>
<rect class="seat" id="A9" x="20.2498" y="179.5" width="10" height="10" transform="rotate(-90 20.2498 179.5)" fill="#B748E7"/>
<rect class="seat" id="A10" x="20.2498" y="165" width="10" height="10" transform="rotate(-90 20.2498 165)" fill="#B748E7"/>
<rect class="seat" id="A11" x="20.2498" y="150.5" width="10" height="10" transform="rotate(-90 20.2498 150.5)" fill="#B748E7"/>
<rect class="seat" id="A12" x="20.2498" y="136.25" width="10" height="10" transform="rotate(-90 20.2498 136.25)" fill="#B748E7"/>
<rect class="seat" id="A13" x="20.2498" y="121.25" width="10" height="10" transform="rotate(-90 20.2498 121.25)" fill="#B748E7"/>
<rect class="seat" id="A14" x="20.2498" y="107.25" width="10" height="10" transform="rotate(-90 20.2498 107.25)" fill="#B748E7"/>
<rect class="seat" id="A15" x="20.2498" y="92.2495" width="10" height="10" transform="rotate(-90 20.2498 92.2495)" fill="#B748E7"/>
<rect class="seat" id="B1" x="20.2498" y="78.2495" width="10" height="10" transform="rotate(-90 20.2498 78.2495)" fill="#B748E7"/>
<rect class="seat" id="B2" x="20.2498" y="63.2495" width="10" height="10" transform="rotate(-90 20.2498 63.2495)" fill="#B748E7"/>
<rect class="seat" id="B3" x="20.2498" y="49.2495" width="10" height="10" transform="rotate(-90 20.2498 49.2495)" fill="#B748E7"/>
<rect class="seat" id="B4" x="20.2498" y="34.2495" width="10" height="10" transform="rotate(-90 20.2498 34.2495)" fill="#B748E7"/>
<rect class="seat" id="B5" x="20.2498" y="20.2495" width="10" height="10" transform="rotate(-90 20.2498 20.2495)" fill="#B748E7"/>
<rect class="seat" id="B6" x="34.7498" y="295.5" width="10" height="10" transform="rotate(-90 34.7498 295.5)" fill="#B748E7"/>
<rect class="seat" id="B7" x="34.7498" y="281" width="10" height="10" transform="rotate(-90 34.7498 281)" fill="#B748E7"/>
<rect class="seat" id="B8" x="34.7498" y="266.5" width="10" height="10" transform="rotate(-90 34.7498 266.5)" fill="#B748E7"/>
<rect class="seat" id="B9" x="34.7498" y="252" width="10" height="10" transform="rotate(-90 34.7498 252)" fill="#B748E7"/>
<rect class="seat" id="B10" x="34.7498" y="237.5" width="10" height="10" transform="rotate(-90 34.7498 237.5)" fill="#B748E7"/>
<rect class="seat" id="B11" x="34.7498" y="223" width="10" height="10" transform="rotate(-90 34.7498 223)" fill="#B748E7"/>
<rect class="seat" id="B12" x="34.7498" y="208.5" width="10" height="10" transform="rotate(-90 34.7498 208.5)" fill="#B748E7"/>
<rect class="seat" id="B13" x="34.7498" y="194" width="10" height="10" transform="rotate(-90 34.7498 194)" fill="#B748E7"/>
<rect class="seat" id="B14" x="34.7498" y="179.5" width="10" height="10" transform="rotate(-90 34.7498 179.5)" fill="#B748E7"/>
<rect class="seat" id="B15" x="34.7498" y="165" width="10" height="10" transform="rotate(-90 34.7498 165)" fill="#B748E7"/>
<rect class="seat" id="C1" x="34.7498" y="150.5" width="10" height="10" transform="rotate(-90 34.7498 150.5)" fill="#B748E7"/>
<rect class="seat" id="C2" x="34.7498" y="136" width="10" height="10" transform="rotate(-90 34.7498 136)" fill="#B748E7"/>
<rect class="seat" id="C3" x="34.7498" y="121.5" width="10" height="10" transform="rotate(-90 34.7498 121.5)" fill="#B748E7"/>
<rect class="seat" id="C4" x="34.7498" y="107" width="10" height="10" transform="rotate(-90 34.7498 107)" fill="#B748E7"/>
<rect class="seat" id="C5" x="34.7498" y="92.5" width="10" height="10" transform="rotate(-90 34.7498 92.5)" fill="#B748E7"/>
<rect class="seat" id="C6" x="34.7498" y="78" width="10" height="10" transform="rotate(-90 34.7498 78)" fill="#B748E7"/>
<rect class="seat" id="C7" x="34.7498" y="63.5" width="10" height="10" transform="rotate(-90 34.7498 63.5)" fill="#B748E7"/>
<rect class="seat" id="C8" x="34.7498" y="49" width="10" height="10" transform="rotate(-90 34.7498 49)" fill="#B748E7"/>
<rect class="seat" id="C9" x="34.7498" y="34.5" width="10" height="10" transform="rotate(-90 34.7498 34.5)" fill="#B748E7"/>
<rect class="seat" id="C10" x="34.7498" y="20" width="10" height="10" transform="rotate(-90 34.7498 20)" fill="#B748E7"/>
<rect class="seat" id="C11" x="49.2498" y="295.5" width="10" height="10" transform="rotate(-90 49.2498 295.5)" fill="#B748E7"/>
<rect class="seat" id="C12" x="49.2498" y="281" width="10" height="10" transform="rotate(-90 49.2498 281)" fill="#B748E7"/>
<rect class="seat" id="C13" x="49.2498" y="266.5" width="10" height="10" transform="rotate(-90 49.2498 266.5)" fill="#B748E7"/>
<rect class="seat" id="C14" x="49.2498" y="252" width="10" height="10" transform="rotate(-90 49.2498 252)" fill="#B748E7"/>
<rect class="seat" id="C15" x="49.2498" y="237.5" width="10" height="10" transform="rotate(-90 49.2498 237.5)" fill="#B748E7"/>
<rect class="seat" id="D1" x="49.2498" y="223" width="10" height="10" transform="rotate(-90 49.2498 223)" fill="#B748E7"/>
<rect class="seat" id="D2" x="49.2498" y="208.5" width="10" height="10" transform="rotate(-90 49.2498 208.5)" fill="#B748E7"/>
<rect class="seat" id="D3" x="49.2498" y="194" width="10" height="10" transform="rotate(-90 49.2498 194)" fill="#B748E7"/>
<rect class="seat" id="D4" x="49.2498" y="179.5" width="10" height="10" transform="rotate(-90 49.2498 179.5)" fill="#B748E7"/>
<rect class="seat" id="D5" x="49.2498" y="165" width="10" height="10" transform="rotate(-90 49.2498 165)" fill="#B748E7"/>
<rect class="seat" id="D6" x="49.2498" y="150.5" width="10" height="10" transform="rotate(-90 49.2498 150.5)" fill="#B748E7"/>
<rect class="seat" id="D7" x="49.2498" y="136" width="10" height="10" transform="rotate(-90 49.2498 136)" fill="#B748E7"/>
<rect class="seat" id="D8" x="49.2498" y="121.5" width="10" height="10" transform="rotate(-90 49.2498 121.5)" fill="#B748E7"/>
<rect class="seat" id="D9" x="49.2498" y="107" width="10" height="10" transform="rotate(-90 49.2498 107)" fill="#B748E7"/>
<rect class="seat" id="D10" x="49.2498" y="92.5" width="10" height="10" transform="rotate(-90 49.2498 92.5)" fill="#B748E7"/>
<rect class="seat" id="D11" x="49.2498" y="78" width="10" height="10" transform="rotate(-90 49.2498 78)" fill="#B748E7"/>
<rect class="seat" id="D12" x="49.2498" y="63.5" width="10" height="10" transform="rotate(-90 49.2498 63.5)" fill="#B748E7"/>
<rect class="seat" id="D13" x="49.2498" y="49" width="10" height="10" transform="rotate(-90 49.2498 49)" fill="#B748E7"/>
<rect class="seat" id="D14" x="49.2498" y="34.5" width="10" height="10" transform="rotate(-90 49.2498 34.5)" fill="#B748E7"/>
<rect class="seat" id="D15" x="49.2498" y="20" width="10" height="10" transform="rotate(-90 49.2498 20)" fill="#B748E7"/>
<rect class="seat" id="E1" x="63.7498" y="295.5" width="10" height="10" transform="rotate(-90 63.7498 295.5)" fill="#B748E7"/>
<rect class="seat" id="E2" x="63.7498" y="281" width="10" height="10" transform="rotate(-90 63.7498 281)" fill="#B748E7"/>
<rect class="seat" id="E3" x="63.7498" y="266.5" width="10" height="10" transform="rotate(-90 63.7498 266.5)" fill="#B748E7"/>
<rect class="seat" id="E4" x="63.7498" y="252" width="10" height="10" transform="rotate(-90 63.7498 252)" fill="#B748E7"/>
<rect class="seat" id="E5" x="63.7498" y="237.5" width="10" height="10" transform="rotate(-90 63.7498 237.5)" fill="#B748E7"/>
<rect class="seat" id="E6" x="63.7498" y="223" width="10" height="10" transform="rotate(-90 63.7498 223)" fill="#B748E7"/>
<rect class="seat" id="E7" x="63.7498" y="208.5" width="10" height="10" transform="rotate(-90 63.7498 208.5)" fill="#B748E7"/>
<rect class="seat" id="E8" x="63.7498" y="194" width="10" height="10" transform="rotate(-90 63.7498 194)" fill="#B748E7"/>
<rect class="seat" id="E9" x="63.7498" y="179.5" width="10" height="10" transform="rotate(-90 63.7498 179.5)" fill="#B748E7"/>
<rect class="seat" id="E10" x="63.7498" y="165" width="10" height="10" transform="rotate(-90 63.7498 165)" fill="#B748E7"/>
<rect class="seat" id="E11" x="63.7498" y="150.5" width="10" height="10" transform="rotate(-90 63.7498 150.5)" fill="#B748E7"/>
<rect class="seat" id="E12" x="63.7498" y="136" width="10" height="10" transform="rotate(-90 63.7498 136)" fill="#B748E7"/>
<rect class="seat" id="E13" x="63.7498" y="121.5" width="10" height="10" transform="rotate(-90 63.7498 121.5)" fill="#B748E7"/>
<rect class="seat" id="E14" x="63.7498" y="107" width="10" height="10" transform="rotate(-90 63.7498 107)" fill="#B748E7"/>
<rect class="seat" id="E15" x="63.7498" y="92.5" width="10" height="10" transform="rotate(-90 63.7498 92.5)" fill="#B748E7"/>
<rect class="seat" id="F1" x="63.7498" y="78" width="10" height="10" transform="rotate(-90 63.7498 78)" fill="#B748E7"/>
<rect class="seat" id="F2" x="63.7498" y="63.5" width="10" height="10" transform="rotate(-90 63.7498 63.5)" fill="#B748E7"/>
<rect class="seat" id="F3" x="63.7498" y="49" width="10" height="10" transform="rotate(-90 63.7498 49)" fill="#B748E7"/>
<rect class="seat" id="F4" x="63.7498" y="34.5" width="10" height="10" transform="rotate(-90 63.7498 34.5)" fill="#B748E7"/>
<rect class="seat" id="F5" x="63.7498" y="20" width="10" height="10" transform="rotate(-90 63.7498 20)" fill="#B748E7"/>
<rect class="seat" id="F6" x="78.2498" y="295.5" width="10" height="10" transform="rotate(-90 78.2498 295.5)" fill="#B748E7"/>
<rect class="seat" id="F7" x="78.2498" y="281" width="10" height="10" transform="rotate(-90 78.2498 281)" fill="#B748E7"/>
<rect class="seat" id="F8" x="78.2498" y="266.5" width="10" height="10" transform="rotate(-90 78.2498 266.5)" fill="#B748E7"/>
<rect class="seat" id="F9" x="78.2498" y="252" width="10" height="10" transform="rotate(-90 78.2498 252)" fill="#B748E7"/>
<rect class="seat" id="F10" x="78.2498" y="237.5" width="10" height="10" transform="rotate(-90 78.2498 237.5)" fill="#B748E7"/>
<rect class="seat" id="F11" x="78.2498" y="223" width="10" height="10" transform="rotate(-90 78.2498 223)" fill="#B748E7"/>
<rect class="seat" id="F12" x="78.2498" y="208.5" width="10" height="10" transform="rotate(-90 78.2498 208.5)" fill="#B748E7"/>
<rect class="seat" id="F13" x="78.2498" y="194" width="10" height="10" transform="rotate(-90 78.2498 194)" fill="#B748E7"/>
<rect class="seat" id="F14" x="78.2498" y="179.5" width="10" height="10" transform="rotate(-90 78.2498 179.5)" fill="#B748E7"/>
<rect class="seat" id="F15" x="78.2498" y="165" width="10" height="10" transform="rotate(-90 78.2498 165)" fill="#B748E7"/>
<rect class="seat" id="G1" x="78.2498" y="150.5" width="10" height="10" transform="rotate(-90 78.2498 150.5)" fill="#B748E7"/>
<rect class="seat" id="G2" x="78.2498" y="136" width="10" height="10" transform="rotate(-90 78.2498 136)" fill="#B748E7"/>
<rect class="seat" id="G3" x="78.2498" y="121.5" width="10" height="10" transform="rotate(-90 78.2498 121.5)" fill="#B748E7"/>
<rect class="seat" id="G4" x="78.2498" y="107" width="10" height="10" transform="rotate(-90 78.2498 107)" fill="#B748E7"/>
<rect class="seat" id="G5" x="78.2498" y="92.5" width="10" height="10" transform="rotate(-90 78.2498 92.5)" fill="#B748E7"/>
<rect class="seat" id="G6" x="78.2498" y="78" width="10" height="10" transform="rotate(-90 78.2498 78)" fill="#B748E7"/>
<rect class="seat" id="G7" x="78.2498" y="63.5" width="10" height="10" transform="rotate(-90 78.2498 63.5)" fill="#B748E7"/>
<rect class="seat" id="G8" x="78.2498" y="49" width="10" height="10" transform="rotate(-90 78.2498 49)" fill="#B748E7"/>
<rect class="seat" id="G9" x="78.2498" y="34.5" width="10" height="10" transform="rotate(-90 78.2498 34.5)" fill="#B748E7"/>
<rect class="seat" id="G10" x="78.2498" y="20" width="10" height="10" transform="rotate(-90 78.2498 20)" fill="#B748E7"/>
<rect class="seat" id="G11" x="92.7498" y="295.5" width="10" height="10" transform="rotate(-90 92.7498 295.5)" fill="#B748E7"/>
<rect class="seat" id="G12" x="92.7498" y="281" width="10" height="10" transform="rotate(-90 92.7498 281)" fill="#B748E7"/>
<rect class="seat" id="G13" x="92.7498" y="266.5" width="10" height="10" transform="rotate(-90 92.7498 266.5)" fill="#B748E7"/>
<rect class="seat" id="G14" x="92.7498" y="252" width="10" height="10" transform="rotate(-90 92.7498 252)" fill="#B748E7"/>
<rect class="seat" id="G15" x="92.7498" y="237.5" width="10" height="10" transform="rotate(-90 92.7498 237.5)" fill="#B748E7"/>
<rect class="seat" id="H1" x="92.7498" y="223" width="10" height="10" transform="rotate(-90 92.7498 223)" fill="#B748E7"/>
<rect class="seat" id="H2" x="92.7498" y="208.5" width="10" height="10" transform="rotate(-90 92.7498 208.5)" fill="#B748E7"/>
<rect class="seat" id="H3" x="92.7498" y="194" width="10" height="10" transform="rotate(-90 92.7498 194)" fill="#B748E7"/>
<rect class="seat" id="H4" x="92.7498" y="179.5" width="10" height="10" transform="rotate(-90 92.7498 179.5)" fill="#B748E7"/>
<rect class="seat" id="H5" x="92.7498" y="165" width="10" height="10" transform="rotate(-90 92.7498 165)" fill="#B748E7"/>
<rect class="seat" id="H6" x="92.7498" y="150.5" width="10" height="10" transform="rotate(-90 92.7498 150.5)" fill="#B748E7"/>
<rect class="seat" id="H7" x="92.7498" y="136" width="10" height="10" transform="rotate(-90 92.7498 136)" fill="#B748E7"/>
<rect class="seat" id="H8" x="92.7498" y="121.5" width="10" height="10" transform="rotate(-90 92.7498 121.5)" fill="#B748E7"/>
<rect class="seat" id="H9" x="92.7498" y="107" width="10" height="10" transform="rotate(-90 92.7498 107)" fill="#B748E7"/>
<rect class="seat" id="H10" x="92.7498" y="92.5" width="10" height="10" transform="rotate(-90 92.7498 92.5)" fill="#B748E7"/>
<rect class="seat" id="H11" x="92.7498" y="78" width="10" height="10" transform="rotate(-90 92.7498 78)" fill="#B748E7"/>
<rect class="seat" id="H12" x="92.7498" y="63.5" width="10" height="10" transform="rotate(-90 92.7498 63.5)" fill="#B748E7"/>
<rect class="seat" id="H13" x="92.7498" y="49" width="10" height="10" transform="rotate(-90 92.7498 49)" fill="#B748E7"/>
<rect class="seat" id="H14" x="92.7498" y="34.5" width="10" height="10" transform="rotate(-90 92.7498 34.5)" fill="#B748E7"/>
<rect class="seat" id="H15" x="92.7498" y="20" width="10" height="10" transform="rotate(-90 92.7498 20)" fill="#B748E7"/>
<rect class="seat" id="I1" x="107.25" y="295.5" width="10" height="10" transform="rotate(-90 107.25 295.5)" fill="#B748E7"/>
<rect class="seat" id="I2" x="107.25" y="281" width="10" height="10" transform="rotate(-90 107.25 281)" fill="#B748E7"/>
<rect class="seat" id="I3" x="107.25" y="266.5" width="10" height="10" transform="rotate(-90 107.25 266.5)" fill="#B748E7"/>
<rect class="seat" id="I4" x="107.25" y="252" width="10" height="10" transform="rotate(-90 107.25 252)" fill="#B748E7"/>
<rect class="seat" id="I5" x="107.25" y="237.5" width="10" height="10" transform="rotate(-90 107.25 237.5)" fill="#B748E7"/>
<rect class="seat" id="I6" x="107.25" y="223" width="10" height="10" transform="rotate(-90 107.25 223)" fill="#B748E7"/>
<rect class="seat" id="I7" x="107.25" y="208.5" width="10" height="10" transform="rotate(-90 107.25 208.5)" fill="#B748E7"/>
<rect class="seat" id="I8" x="107.25" y="194" width="10" height="10" transform="rotate(-90 107.25 194)" fill="#B748E7"/>
<rect class="seat" id="I9" x="107.25" y="179.5" width="10" height="10" transform="rotate(-90 107.25 179.5)" fill="#B748E7"/>
<rect class="seat" id="I10" x="107.25" y="165" width="10" height="10" transform="rotate(-90 107.25 165)" fill="#B748E7"/>
<rect class="seat" id="I11" x="107.25" y="150.5" width="10" height="10" transform="rotate(-90 107.25 150.5)" fill="#B748E7"/>
<rect class="seat" id="I12" x="107.25" y="136" width="10" height="10" transform="rotate(-90 107.25 136)" fill="#B748E7"/>
<rect class="seat" id="I13" x="107.25" y="121.5" width="10" height="10" transform="rotate(-90 107.25 121.5)" fill="#B748E7"/>
<rect class="seat" id="I14" x="107.25" y="107" width="10" height="10" transform="rotate(-90 107.25 107)" fill="#B748E7"/>
<rect class="seat" id="I15" x="107.25" y="92.5" width="10" height="10" transform="rotate(-90 107.25 92.5)" fill="#B748E7"/>
<rect class="seat" id="J1" x="107.25" y="78" width="10" height="10" transform="rotate(-90 107.25 78)" fill="#B748E7"/>
<rect class="seat" id="J2" x="107.25" y="63.5" width="10" height="10" transform="rotate(-90 107.25 63.5)" fill="#B748E7"/>
<rect class="seat" id="J3" x="107.25" y="49" width="10" height="10" transform="rotate(-90 107.25 49)" fill="#B748E7"/>
<rect class="seat" id="J4" x="107.25" y="34.5" width="10" height="10" transform="rotate(-90 107.25 34.5)" fill="#B748E7"/>
<rect class="seat" id="J5" x="107.25" y="20" width="10" height="10" transform="rotate(-90 107.25 20)" fill="#B748E7"/>
<rect class="seat" id="J6" x="121.75" y="295.5" width="10" height="10" transform="rotate(-90 121.75 295.5)" fill="#B748E7"/>
<rect class="seat" id="J7" x="121.75" y="281" width="10" height="10" transform="rotate(-90 121.75 281)" fill="#B748E7"/>
<rect class="seat" id="J8" x="121.75" y="266.5" width="10" height="10" transform="rotate(-90 121.75 266.5)" fill="#B748E7"/>
<rect class="seat" id="J9" x="121.75" y="252" width="10" height="10" transform="rotate(-90 121.75 252)" fill="#B748E7"/>
<rect class="seat" id="J10" x="121.75" y="237.5" width="10" height="10" transform="rotate(-90 121.75 237.5)" fill="#B748E7"/>
<rect class="seat" id="J11" x="121.75" y="223" width="10" height="10" transform="rotate(-90 121.75 223)" fill="#B748E7"/>
<rect class="seat" id="J12" x="121.75" y="208.5" width="10" height="10" transform="rotate(-90 121.75 208.5)" fill="#B748E7"/>
<rect class="seat" id="J13" x="121.75" y="194" width="10" height="10" transform="rotate(-90 121.75 194)" fill="#B748E7"/>
<rect class="seat" id="J14" x="121.75" y="179.5" width="10" height="10" transform="rotate(-90 121.75 179.5)" fill="#B748E7"/>
<rect class="seat" id="J15" x="121.75" y="165" width="10" height="10" transform="rotate(-90 121.75 165)" fill="#B748E7"/>
<rect class="seat" id="K1" x="121.75" y="150.5" width="10" height="10" transform="rotate(-90 121.75 150.5)" fill="#B748E7"/>
<rect class="seat" id="K2" x="121.75" y="136" width="10" height="10" transform="rotate(-90 121.75 136)" fill="#B748E7"/>
<rect class="seat" id="K3" x="121.75" y="121.5" width="10" height="10" transform="rotate(-90 121.75 121.5)" fill="#B748E7"/>
<rect class="seat" id="K4" x="121.75" y="107" width="10" height="10" transform="rotate(-90 121.75 107)" fill="#B748E7"/>
<rect class="seat" id="K5" x="121.75" y="92.5" width="10" height="10" transform="rotate(-90 121.75 92.5)" fill="#B748E7"/>
<rect class="seat" id="K6" x="121.75" y="78" width="10" height="10" transform="rotate(-90 121.75 78)" fill="#B748E7"/>
<rect class="seat" id="K7" x="121.75" y="63.5" width="10" height="10" transform="rotate(-90 121.75 63.5)" fill="#B748E7"/>
<rect class="seat" id="K8" x="121.75" y="49" width="10" height="10" transform="rotate(-90 121.75 49)" fill="#B748E7"/>
<rect class="seat" id="K9" x="121.75" y="34.5" width="10" height="10" transform="rotate(-90 121.75 34.5)" fill="#B748E7"/>
<rect class="seat" id="K10" x="121.75" y="20" width="10" height="10" transform="rotate(-90 121.75 20)" fill="#B748E7"/>
<rect class="seat" id="K11" x="136.25" y="295.5" width="10" height="10" transform="rotate(-90 136.25 295.5)" fill="#B748E7"/>
<rect class="seat" id="K12" x="136.25" y="281" width="10" height="10" transform="rotate(-90 136.25 281)" fill="#B748E7"/>
<rect class="seat" id="K13" x="136.25" y="266.5" width="10" height="10" transform="rotate(-90 136.25 266.5)" fill="#B748E7"/>
<rect class="seat" id="K14" x="136.25" y="252" width="10" height="10" transform="rotate(-90 136.25 252)" fill="#B748E7"/>
<rect class="seat" id="K15" x="136.25" y="237.5" width="10" height="10" transform="rotate(-90 136.25 237.5)" fill="#B748E7"/>
<rect class="seat" id="L1" x="136.25" y="223" width="10" height="10" transform="rotate(-90 136.25 223)" fill="#B748E7"/>
<rect class="seat" id="L2" x="136.25" y="208.5" width="10" height="10" transform="rotate(-90 136.25 208.5)" fill="#B748E7"/>
<rect class="seat" id="L3" x="136.25" y="194" width="10" height="10" transform="rotate(-90 136.25 194)" fill="#B748E7"/>
<rect class="seat" id="L4" x="136.25" y="179.5" width="10" height="10" transform="rotate(-90 136.25 179.5)" fill="#B748E7"/>
<rect class="seat" id="L5" x="136.25" y="165" width="10" height="10" transform="rotate(-90 136.25 165)" fill="#B748E7"/>
<rect class="seat" id="L6" x="136.25" y="150.5" width="10" height="10" transform="rotate(-90 136.25 150.5)" fill="#B748E7"/>
<rect class="seat" id="L7" x="136.25" y="136" width="10" height="10" transform="rotate(-90 136.25 136)" fill="#B748E7"/>
<rect class="seat" id="L8" x="136.25" y="121.5" width="10" height="10" transform="rotate(-90 136.25 121.5)" fill="#B748E7"/>
<rect class="seat" id="L9" x="136.25" y="107" width="10" height="10" transform="rotate(-90 136.25 107)" fill="#B748E7"/>
<rect class="seat" id="L10" x="136.25" y="92.5" width="10" height="10" transform="rotate(-90 136.25 92.5)" fill="#B748E7"/>
<rect class="seat" id="L11" x="136.25" y="78" width="10" height="10" transform="rotate(-90 136.25 78)" fill="#B748E7"/>
<rect class="seat" id="L12" x="136.25" y="63.5" width="10" height="10" transform="rotate(-90 136.25 63.5)" fill="#B748E7"/>
<rect class="seat" id="L13" x="136.25" y="49" width="10" height="10" transform="rotate(-90 136.25 49)" fill="#B748E7"/>
<rect class="seat" id="L14" x="136.25" y="34.5" width="10" height="10" transform="rotate(-90 136.25 34.5)" fill="#B748E7"/>
<rect class="seat" id="L15" x="136.25" y="20" width="10" height="10" transform="rotate(-90 136.25 20)" fill="#B748E7"/>
<rect class="seat" id="M1" x="150.75" y="295.5" width="10" height="10" transform="rotate(-90 150.75 295.5)" fill="#B748E7"/>
<rect class="seat" id="M2" x="150.75" y="281" width="10" height="10" transform="rotate(-90 150.75 281)" fill="#B748E7"/>
<rect class="seat" id="M3" x="150.75" y="266.5" width="10" height="10" transform="rotate(-90 150.75 266.5)" fill="#B748E7"/>
<rect class="seat" id="M4" x="150.75" y="252" width="10" height="10" transform="rotate(-90 150.75 252)" fill="#B748E7"/>
<rect class="seat" id="M5" x="150.75" y="237.5" width="10" height="10" transform="rotate(-90 150.75 237.5)" fill="#B748E7"/>
<rect class="seat" id="M6" x="150.75" y="223" width="10" height="10" transform="rotate(-90 150.75 223)" fill="#B748E7"/>
<rect class="seat" id="M7" x="150.75" y="208.5" width="10" height="10" transform="rotate(-90 150.75 208.5)" fill="#B748E7"/>
<rect class="seat" id="M8" x="150.75" y="194" width="10" height="10" transform="rotate(-90 150.75 194)" fill="#B748E7"/>
<rect class="seat" id="M9" x="150.75" y="179.5" width="10" height="10" transform="rotate(-90 150.75 179.5)" fill="#B748E7"/>
<rect class="seat" id="M10" x="150.75" y="165" width="10" height="10" transform="rotate(-90 150.75 165)" fill="#B748E7"/>
<rect class="seat" id="M11" x="150.75" y="150.5" width="10" height="10" transform="rotate(-90 150.75 150.5)" fill="#B748E7"/>
<rect class="seat" id="M12" x="150.75" y="136" width="10" height="10" transform="rotate(-90 150.75 136)" fill="#B748E7"/>
<rect class="seat" id="M13" x="150.75" y="121.5" width="10" height="10" transform="rotate(-90 150.75 121.5)" fill="#B748E7"/>
<rect class="seat" id="M14" x="150.75" y="107" width="10" height="10" transform="rotate(-90 150.75 107)" fill="#B748E7"/>
<rect class="seat" id="M15" x="150.75" y="92.5" width="10" height="10" transform="rotate(-90 150.75 92.5)" fill="#B748E7"/>
<rect class="seat" id="N1" x="150.75" y="78" width="10" height="10" transform="rotate(-90 150.75 78)" fill="#B748E7"/>
<rect class="seat" id="N2" x="150.75" y="63.5" width="10" height="10" transform="rotate(-90 150.75 63.5)" fill="#B748E7"/>
<rect class="seat" id="N3" x="150.75" y="49" width="10" height="10" transform="rotate(-90 150.75 49)" fill="#B748E7"/>
<rect class="seat" id="N4" x="150.75" y="34.5" width="10" height="10" transform="rotate(-90 150.75 34.5)" fill="#B748E7"/>
<rect class="seat" id="N5" x="150.75" y="20" width="10" height="10" transform="rotate(-90 150.75 20)" fill="#B748E7"/>
<rect class="seat" id="N6" x="165.25" y="295.5" width="10" height="10" transform="rotate(-90 165.25 295.5)" fill="#B748E7"/>
<rect class="seat" id="N7" x="165.25" y="281" width="10" height="10" transform="rotate(-90 165.25 281)" fill="#B748E7"/>
<rect class="seat" id="N8" x="165.25" y="266.5" width="10" height="10" transform="rotate(-90 165.25 266.5)" fill="#B748E7"/>
<rect class="seat" id="N9" x="165.25" y="252" width="10" height="10" transform="rotate(-90 165.25 252)" fill="#B748E7"/>
<rect class="seat" id="N10" x="165.25" y="237.5" width="10" height="10" transform="rotate(-90 165.25 237.5)" fill="#B748E7"/>
<rect class="seat" id="N11" x="165.25" y="223" width="10" height="10" transform="rotate(-90 165.25 223)" fill="#B748E7"/>
<rect class="seat" id="N12" x="165.25" y="208.5" width="10" height="10" transform="rotate(-90 165.25 208.5)" fill="#B748E7"/>
<rect class="seat" id="N13" x="165.25" y="194" width="10" height="10" transform="rotate(-90 165.25 194)" fill="#B748E7"/>
<rect class="seat" id="N14" x="165.25" y="179.5" width="10" height="10" transform="rotate(-90 165.25 179.5)" fill="#B748E7"/>
<rect class="seat" id="N15" x="165.25" y="165" width="10" height="10" transform="rotate(-90 165.25 165)" fill="#B748E7"/>
<rect class="seat" id="O1" x="165.25" y="150.5" width="10" height="10" transform="rotate(-90 165.25 150.5)" fill="#B748E7"/>
<rect class="seat" id="O2" x="165.25" y="136" width="10" height="10" transform="rotate(-90 165.25 136)" fill="#B748E7"/>
<rect class="seat" id="O3" x="165.25" y="121.5" width="10" height="10" transform="rotate(-90 165.25 121.5)" fill="#B748E7"/>
<rect class="seat" id="O4" x="165.25" y="107" width="10" height="10" transform="rotate(-90 165.25 107)" fill="#B748E7"/>
<rect class="seat" id="O5" x="165.25" y="92.5" width="10" height="10" transform="rotate(-90 165.25 92.5)" fill="#B748E7"/>
<rect class="seat" id="O6" x="165.25" y="78" width="10" height="10" transform="rotate(-90 165.25 78)" fill="#B748E7"/>
<rect class="seat" id="O7" x="165.25" y="63.5" width="10" height="10" transform="rotate(-90 165.25 63.5)" fill="#B748E7"/>
<rect class="seat" id="O8" x="165.25" y="49" width="10" height="10" transform="rotate(-90 165.25 49)" fill="#B748E7"/>
<rect class="seat" id="O9" x="165.25" y="34.5" width="10" height="10" transform="rotate(-90 165.25 34.5)" fill="#B748E7"/>
<rect class="seat" id="O10" x="165.25" y="20" width="10" height="10" transform="rotate(-90 165.25 20)" fill="#B748E7"/>
<rect class="seat" id="O11" x="179.75" y="295.5" width="10" height="10" transform="rotate(-90 179.75 295.5)" fill="#B748E7"/>
<rect class="seat" id="O12" x="179.75" y="281" width="10" height="10" transform="rotate(-90 179.75 281)" fill="#B748E7"/>
<rect class="seat" id="O13" x="179.75" y="266.5" width="10" height="10" transform="rotate(-90 179.75 266.5)" fill="#B748E7"/>
<rect class="seat" id="O14" x="179.75" y="252" width="10" height="10" transform="rotate(-90 179.75 252)" fill="#B748E7"/>
<rect class="seat" id="O15" x="179.75" y="237.5" width="10" height="10" transform="rotate(-90 179.75 237.5)" fill="#B748E7"/>
<rect class="seat" id="P1" x="179.75" y="223" width="10" height="10" transform="rotate(-90 179.75 223)" fill="#B748E7"/>
<rect class="seat" id="P2" x="179.75" y="208.5" width="10" height="10" transform="rotate(-90 179.75 208.5)" fill="#B748E7"/>
<rect class="seat" id="P3" x="179.75" y="194" width="10" height="10" transform="rotate(-90 179.75 194)" fill="#B748E7"/>
<rect class="seat" id="P4" x="179.75" y="179.5" width="10" height="10" transform="rotate(-90 179.75 179.5)" fill="#B748E7"/>
<rect class="seat" id="P5" x="179.75" y="165" width="10" height="10" transform="rotate(-90 179.75 165)" fill="#B748E7"/>
<rect class="seat" id="P6" x="179.75" y="150.5" width="10" height="10" transform="rotate(-90 179.75 150.5)" fill="#B748E7"/>
<rect class="seat" id="P7" x="179.75" y="136" width="10" height="10" transform="rotate(-90 179.75 136)" fill="#B748E7"/>
<rect class="seat" id="P8" x="179.75" y="121.5" width="10" height="10" transform="rotate(-90 179.75 121.5)" fill="#B748E7"/>
<rect class="seat" id="P9" x="179.75" y="107" width="10" height="10" transform="rotate(-90 179.75 107)" fill="#B748E7"/>
<rect class="seat" id="P10" x="179.75" y="92.5" width="10" height="10" transform="rotate(-90 179.75 92.5)" fill="#B748E7"/>
<rect class="seat" id="P11" x="179.75" y="78" width="10" height="10" transform="rotate(-90 179.75 78)" fill="#B748E7"/>
<rect class="seat" id="P12" x="179.75" y="63.5" width="10" height="10" transform="rotate(-90 179.75 63.5)" fill="#B748E7"/>
<rect class="seat" id="P13" x="179.75" y="49" width="10" height="10" transform="rotate(-90 179.75 49)" fill="#B748E7"/>
<rect class="seat" id="P14" x="179.75" y="34.5" width="10" height="10" transform="rotate(-90 179.75 34.5)" fill="#B748E7"/>
<rect class="seat" id="P15" x="179.75" y="20" width="10" height="10" transform="rotate(-90 179.75 20)" fill="#B748E7"/>
<rect class="seat" id="Q1" x="194.25" y="295.5" width="10" height="10" transform="rotate(-90 194.25 295.5)" fill="#B748E7"/>
<rect class="seat" id="Q2" x="194.25" y="281" width="10" height="10" transform="rotate(-90 194.25 281)" fill="#B748E7"/>
<rect class="seat" id="Q3" x="194.25" y="266.5" width="10" height="10" transform="rotate(-90 194.25 266.5)" fill="#B748E7"/>
<rect class="seat" id="Q4" x="194.25" y="252" width="10" height="10" transform="rotate(-90 194.25 252)" fill="#B748E7"/>
<rect class="seat" id="Q5" x="194.25" y="237.5" width="10" height="10" transform="rotate(-90 194.25 237.5)" fill="#B748E7"/>
<rect class="seat" id="Q6" x="194.25" y="223" width="10" height="10" transform="rotate(-90 194.25 223)" fill="#B748E7"/>
<rect class="seat" id="Q7" x="194.25" y="208.5" width="10" height="10" transform="rotate(-90 194.25 208.5)" fill="#B748E7"/>
<rect class="seat" id="Q8" x="194.25" y="194" width="10" height="10" transform="rotate(-90 194.25 194)" fill="#B748E7"/>
<rect class="seat" id="Q9" x="194.25" y="179.5" width="10" height="10" transform="rotate(-90 194.25 179.5)" fill="#B748E7"/>
<rect class="seat" id="Q10" x="194.25" y="165" width="10" height="10" transform="rotate(-90 194.25 165)" fill="#B748E7"/>
<rect class="seat" id="Q11" x="194.25" y="150.5" width="10" height="10" transform="rotate(-90 194.25 150.5)" fill="#B748E7"/>
<rect class="seat" id="Q12" x="194.25" y="136" width="10" height="10" transform="rotate(-90 194.25 136)" fill="#B748E7"/>
<rect class="seat" id="Q13" x="194.25" y="121.5" width="10" height="10" transform="rotate(-90 194.25 121.5)" fill="#B748E7"/>
<rect class="seat" id="Q14" x="194.25" y="107" width="10" height="10" transform="rotate(-90 194.25 107)" fill="#B748E7"/>
<rect class="seat" id="Q15" x="194.25" y="92.5" width="10" height="10" transform="rotate(-90 194.25 92.5)" fill="#B748E7"/>
<rect class="seat" id="R1" x="194.25" y="78" width="10" height="10" transform="rotate(-90 194.25 78)" fill="#B748E7"/>
<rect class="seat" id="R2" x="194.25" y="63.5" width="10" height="10" transform="rotate(-90 194.25 63.5)" fill="#B748E7"/>
<rect class="seat" id="R3" x="194.25" y="49" width="10" height="10" transform="rotate(-90 194.25 49)" fill="#B748E7"/>
<rect class="seat" id="R4" x="194.25" y="34.5" width="10" height="10" transform="rotate(-90 194.25 34.5)" fill="#B748E7"/>
<rect class="seat" id="R5" x="194.25" y="20" width="10" height="10" transform="rotate(-90 194.25 20)" fill="#B748E7"/>
<rect class="seat" id="R6" x="208.75" y="295.5" width="10" height="10" transform="rotate(-90 208.75 295.5)" fill="#B748E7"/>
<rect class="seat" id="R7" x="208.75" y="281" width="10" height="10" transform="rotate(-90 208.75 281)" fill="#B748E7"/>
<rect class="seat" id="R8" x="208.75" y="266.5" width="10" height="10" transform="rotate(-90 208.75 266.5)" fill="#B748E7"/>
<rect class="seat" id="R9" x="208.75" y="252" width="10" height="10" transform="rotate(-90 208.75 252)" fill="#B748E7"/>
<rect class="seat" id="R10" x="208.75" y="237.5" width="10" height="10" transform="rotate(-90 208.75 237.5)" fill="#B748E7"/>
<rect class="seat" id="R11" x="208.75" y="223" width="10" height="10" transform="rotate(-90 208.75 223)" fill="#B748E7"/>
<rect class="seat" id="R12" x="208.75" y="208.5" width="10" height="10" transform="rotate(-90 208.75 208.5)" fill="#B748E7"/>
<rect class="seat" id="R13" x="208.75" y="194" width="10" height="10" transform="rotate(-90 208.75 194)" fill="#B748E7"/>
<rect class="seat" id="R14" x="208.75" y="179.5" width="10" height="10" transform="rotate(-90 208.75 179.5)" fill="#B748E7"/>
<rect class="seat" id="R15" x="208.75" y="165" width="10" height="10" transform="rotate(-90 208.75 165)" fill="#B748E7"/>
<rect class="seat" id="S1" x="208.75" y="150.5" width="10" height="10" transform="rotate(-90 208.75 150.5)" fill="#B748E7"/>
<rect class="seat" id="S2" x="208.75" y="136" width="10" height="10" transform="rotate(-90 208.75 136)" fill="#B748E7"/>
<rect class="seat" id="S3" x="208.75" y="121.5" width="10" height="10" transform="rotate(-90 208.75 121.5)" fill="#B748E7"/>
<rect class="seat" id="S4" x="208.75" y="107" width="10" height="10" transform="rotate(-90 208.75 107)" fill="#B748E7"/>
<rect class="seat" id="S5" x="208.75" y="92.5" width="10" height="10" transform="rotate(-90 208.75 92.5)" fill="#B748E7"/>
<rect class="seat" id="S6" x="208.75" y="78" width="10" height="10" transform="rotate(-90 208.75 78)" fill="#B748E7"/>
<rect class="seat" id="S7" x="208.75" y="63.5" width="10" height="10" transform="rotate(-90 208.75 63.5)" fill="#B748E7"/>
<rect class="seat" id="S8" x="208.75" y="49" width="10" height="10" transform="rotate(-90 208.75 49)" fill="#B748E7"/>
<rect class="seat" id="S9" x="208.75" y="34.5" width="10" height="10" transform="rotate(-90 208.75 34.5)" fill="#B748E7"/>
<rect class="seat" id="S10" x="208.75" y="20" width="10" height="10" transform="rotate(-90 208.75 20)" fill="#B748E7"/>
<rect class="seat" id="S11" x="223.25" y="295.5" width="10" height="10" transform="rotate(-90 223.25 295.5)" fill="#B748E7"/>
<rect class="seat" id="S12" x="223.25" y="281" width="10" height="10" transform="rotate(-90 223.25 281)" fill="#B748E7"/>
<rect class="seat" id="S13" x="223.25" y="266.5" width="10" height="10" transform="rotate(-90 223.25 266.5)" fill="#B748E7"/>
<rect class="seat" id="S14" x="223.25" y="252" width="10" height="10" transform="rotate(-90 223.25 252)" fill="#B748E7"/>
<rect class="seat" id="S15" x="223.25" y="237.5" width="10" height="10" transform="rotate(-90 223.25 237.5)" fill="#B748E7"/>
<rect class="seat" id="T1" x="223.25" y="223" width="10" height="10" transform="rotate(-90 223.25 223)" fill="#B748E7"/>
<rect class="seat" id="T2" x="223.25" y="208.5" width="10" height="10" transform="rotate(-90 223.25 208.5)" fill="#B748E7"/>
<rect class="seat" id="T3" x="223.25" y="194" width="10" height="10" transform="rotate(-90 223.25 194)" fill="#B748E7"/>
<rect class="seat" id="T4" x="223.25" y="179.5" width="10" height="10" transform="rotate(-90 223.25 179.5)" fill="#B748E7"/>
<rect class="seat" id="T5" x="223.25" y="165" width="10" height="10" transform="rotate(-90 223.25 165)" fill="#B748E7"/>
<rect class="seat" id="T6" x="223.25" y="150.5" width="10" height="10" transform="rotate(-90 223.25 150.5)" fill="#B748E7"/>
<rect class="seat" id="T7" x="223.25" y="136" width="10" height="10" transform="rotate(-90 223.25 136)" fill="#B748E7"/>
<rect class="seat" id="T8" x="223.25" y="121.5" width="10" height="10" transform="rotate(-90 223.25 121.5)" fill="#B748E7"/>
<rect class="seat" id="T9" x="223.25" y="107" width="10" height="10" transform="rotate(-90 223.25 107)" fill="#B748E7"/>
<rect class="seat" id="T10" x="223.25" y="92.5" width="10" height="10" transform="rotate(-90 223.25 92.5)" fill="#B748E7"/>
<rect class="seat" id="T11" x="223.25" y="78" width="10" height="10" transform="rotate(-90 223.25 78)" fill="#B748E7"/>
<rect class="seat" id="T12" x="223.25" y="63.5" width="10" height="10" transform="rotate(-90 223.25 63.5)" fill="#B748E7"/>
<rect class="seat" id="T13" x="223.25" y="49" width="10" height="10" transform="rotate(-90 223.25 49)" fill="#B748E7"/>
<rect class="seat" id="T14" x="223.25" y="34.5" width="10" height="10" transform="rotate(-90 223.25 34.5)" fill="#B748E7"/>
<rect class="seat" id="T15" x="223.25" y="20" width="10" height="10" transform="rotate(-90 223.25 20)" fill="#B748E7"/>
</svg>
