<svg width="225" height="115" viewBox="0 0 215 115" fill="none" xmlns="http://www.w3.org/2000/svg">
    <rect class="seat" id="a1" x="0" y="0" width="10" height="10" fill="#E1E1E1" />
    <rect class="seat" id="a2" x="15" y="0" width="10" height="10" fill="#E1E1E1" />
    <rect class="seat" id="a3" x="30" y="0" width="10" height="10" fill="#E1E1E1" />
    <rect class="seat" id="a4" x="45" y="0" width="10" height="10" fill="#E1E1E1" />
    <rect class="seat" id="a5" x="60" y="0" width="10" height="10" fill="#E1E1E1" />
    <rect class="seat" id="a6" x="75" y="0" width="10" height="10" fill="#E1E1E1" />
    <rect class="seat" id="a7" x="90" y="0" width="10" height="10" fill="#E1E1E1" />
    <rect class="seat" id="a8" x="105" y="0" width="10" height="10" fill="#E1E1E1" />
    <rect class="seat" id="a9" x="120" y="0" width="10" height="10" fill="#E1E1E1" />
    <rect class="seat" id="a10" x="135" y="0" width="10" height="10" fill="#E1E1E1" />
    <rect class="seat" id="a11" x="150" y="0" width="10" height="10" fill="#E1E1E1" />
    <rect class="seat" id="a12" x="165" y="0" width="10" height="10" fill="#E1E1E1" />
    <rect class="seat" id="a13" x="180" y="0" width="10" height="10" fill="#E1E1E1" />
    <rect class="seat" id="a14" x="195" y="0" width="10" height="10" fill="#E1E1E1" />
    <rect class="seat" id="a15" x="210" y="0" width="10" height="10" fill="#E1E1E1" />
    <rect class="seat" id="b1" x="0" y="15" width="10" height="10" fill="#E1E1E1" />
    <rect class="seat" id="b2" x="15" y="15" width="10" height="10" fill="#E1E1E1" />
    <rect class="seat" id="b3" x="30" y="15" width="10" height="10" fill="#E1E1E1" />
    <rect class="seat" id="b4" x="45" y="15" width="10" height="10" fill="#E1E1E1" />
    <rect class="seat" id="b5" x="60" y="15" width="10" height="10" fill="#E1E1E1" />
    <rect class="seat" id="b6" x="75" y="15" width="10" height="10" fill="#E1E1E1" />
    <rect class="seat" id="b7" x="90" y="15" width="10" height="10" fill="#E1E1E1" />
    <rect class="seat" id="b8" x="105" y="15" width="10" height="10" fill="#E1E1E1" />
    <rect class="seat" id="b9" x="120" y="15" width="10" height="10" fill="#E1E1E1" />
    <rect class="seat" id="b10" x="135" y="15" width="10" height="10" fill="#E1E1E1" />
    <rect class="seat" id="b11" x="150" y="15" width="10" height="10" fill="#E1E1E1" />
    <rect class="seat" id="b12" x="165" y="15" width="10" height="10" fill="#E1E1E1" />
    <rect class="seat" id="b13" x="180" y="15" width="10" height="10" fill="#E1E1E1" />
    <rect class="seat" id="b14" x="195" y="15" width="10" height="10" fill="#E1E1E1" />
    <rect class="seat" id="b15" x="210" y="15" width="10" height="10" fill="#E1E1E1" />
    <rect class="seat" id="c1" x="0" y="30" width="10" height="10" fill="#E1E1E1" />
    <rect class="seat" id="c2" x="15" y="30" width="10" height="10" fill="#E1E1E1" />
    <rect class="seat" id="c3" x="30" y="30" width="10" height="10" fill="#E1E1E1" />
    <rect class="seat" id="c4" x="45" y="30" width="10" height="10" fill="#E1E1E1" />
    <rect class="seat" id="c5" x="60" y="30" width="10" height="10" fill="#E1E1E1" />
    <rect class="seat" id="c6" x="75" y="30" width="10" height="10" fill="#E1E1E1" />
    <rect class="seat" id="c7" x="90" y="30" width="10" height="10" fill="#E1E1E1" />
    <rect class="seat" id="c8" x="105" y="30" width="10" height="10" fill="#E1E1E1" />
    <rect class="seat" id="c9" x="120" y="30" width="10" height="10" fill="#E1E1E1" />
    <rect class="seat" id="c10" x="135" y="30" width="10" height="10" fill="#E1E1E1" />
    <rect class="seat" id="c11" x="150" y="30" width="10" height="10" fill="#E1E1E1" />
    <rect class="seat" id="c12" x="165" y="30" width="10" height="10" fill="#E1E1E1" />
    <rect class="seat" id="c13" x="180" y="30" width="10" height="10" fill="#E1E1E1" />
    <rect class="seat" id="c14" x="195" y="30" width="10" height="10" fill="#E1E1E1" />
    <rect class="seat" id="c15" x="210" y="30" width="10" height="10" fill="#E1E1E1" />
    <rect class="seat" id="d1" x="0" y="45" width="10" height="10" fill="#E1E1E1" />
    <rect class="seat" id="d2" x="15" y="45" width="10" height="10" fill="#E1E1E1" />
    <rect class="seat" id="d3" x="30" y="45" width="10" height="10" fill="#E1E1E1" />
    <rect class="seat" id="d4" x="45" y="45" width="10" height="10" fill="#E1E1E1" />
    <rect class="seat" id="d5" x="60" y="45" width="10" height="10" fill="#E1E1E1" />
    <rect class="seat" id="d6" x="75" y="45" width="10" height="10" fill="#E1E1E1" />
    <rect class="seat" id="d7" x="90" y="45" width="10" height="10" fill="#E1E1E1" />
    <rect class="seat" id="d8" x="105" y="45" width="10" height="10" fill="#E1E1E1" />
    <rect class="seat" id="d9" x="120" y="45" width="10" height="10" fill="#E1E1E1" />
    <rect class="seat" id="d10" x="135" y="45" width="10" height="10" fill="#E1E1E1" />
    <rect class="seat" id="d11" x="150" y="45" width="10" height="10" fill="#E1E1E1" />
    <rect class="seat" id="d12" x="165" y="45" width="10" height="10" fill="#E1E1E1" />
    <rect class="seat" id="d13" x="180" y="45" width="10" height="10" fill="#E1E1E1" />
    <rect class="seat" id="d14" x="195" y="45" width="10" height="10" fill="#E1E1E1" />
    <rect class="seat" id="d15" x="210" y="45" width="10" height="10" fill="#E1E1E1" />
    <rect class="seat" id="e1" x="0" y="60" width="10" height="10" fill="#E1E1E1" />
    <rect class="seat" id="e2" x="15" y="60" width="10" height="10" fill="#E1E1E1" />
    <rect class="seat" id="e3" x="30" y="60" width="10" height="10" fill="#E1E1E1" />
    <rect class="seat" id="e4" x="45" y="60" width="10" height="10" fill="#E1E1E1" />
    <rect class="seat" id="e5" x="60" y="60" width="10" height="10" fill="#E1E1E1" />
    <rect class="seat" id="e6" x="75" y="60" width="10" height="10" fill="#E1E1E1" />
    <rect class="seat" id="e7" x="90" y="60" width="10" height="10" fill="#E1E1E1" />
    <rect class="seat" id="e8" x="105" y="60" width="10" height="10" fill="#E1E1E1" />
    <rect class="seat" id="e9" x="120" y="60" width="10" height="10" fill="#E1E1E1" />
    <rect class="seat" id="e10" x="135" y="60" width="10" height="10" fill="#E1E1E1" />
    <rect class="seat" id="e11" x="150" y="60" width="10" height="10" fill="#E1E1E1" />
    <rect class="seat" id="e12" x="165" y="60" width="10" height="10" fill="#E1E1E1" />
    <rect class="seat" id="e13" x="180" y="60" width="10" height="10" fill="#E1E1E1" />
    <rect class="seat" id="e14" x="195" y="60" width="10" height="10" fill="#E1E1E1" />
    <rect class="seat" id="e15" x="210" y="60" width="10" height="10" fill="#E1E1E1" />
    <rect class="seat" id="f1" x="0" y="75" width="10" height="10" fill="#E1E1E1" />
    <rect class="seat" id="f2" x="15" y="75" width="10" height="10" fill="#E1E1E1" />
    <rect class="seat" id="f3" x="30" y="75" width="10" height="10" fill="#E1E1E1" />
    <rect class="seat" id="f4" x="45" y="75" width="10" height="10" fill="#E1E1E1" />
    <rect class="seat" id="f5" x="60" y="75" width="10" height="10" fill="#E1E1E1" />
    <rect class="seat" id="f6" x="75" y="75" width="10" height="10" fill="#E1E1E1" />
    <rect class="seat" id="f7" x="90" y="75" width="10" height="10" fill="#E1E1E1" />
    <rect class="seat" id="f8" x="105" y="75" width="10" height="10" fill="#E1E1E1" />
    <rect class="seat" id="f9" x="120" y="75" width="10" height="10" fill="#E1E1E1" />
    <rect class="seat" id="f10" x="135" y="75" width="10" height="10" fill="#E1E1E1" />
    <rect class="seat" id="f11" x="150" y="75" width="10" height="10" fill="#E1E1E1" />
    <rect class="seat" id="f12" x="165" y="75" width="10" height="10" fill="#E1E1E1" />
    <rect class="seat" id="f13" x="180" y="75" width="10" height="10" fill="#E1E1E1" />
    <rect class="seat" id="f14" x="195" y="75" width="10" height="10" fill="#E1E1E1" />
    <rect class="seat" id="f15" x="210" y="75" width="10" height="10" fill="#E1E1E1" />
    <rect class="seat" id="g1" x="0" y="90" width="10" height="10" fill="#E1E1E1" />
    <rect class="seat" id="g2" x="15" y="90" width="10" height="10" fill="#E1E1E1" />
    <rect class="seat" id="g3" x="30" y="90" width="10" height="10" fill="#E1E1E1" />
    <rect class="seat" id="g4" x="45" y="90" width="10" height="10" fill="#E1E1E1" />
    <rect class="seat" id="g5" x="60" y="90" width="10" height="10" fill="#E1E1E1" />
    <rect class="seat" id="g6" x="75" y="90" width="10" height="10" fill="#E1E1E1" />
    <rect class="seat" id="g7" x="90" y="90" width="10" height="10" fill="#E1E1E1" />
    <rect class="seat" id="g8" x="105" y="90" width="10" height="10" fill="#E1E1E1" />
    <rect class="seat" id="g9" x="120" y="90" width="10" height="10" fill="#E1E1E1" />
    <rect class="seat" id="g10" x="135" y="90" width="10" height="10" fill="#E1E1E1" />
    <rect class="seat" id="g11" x="150" y="90" width="10" height="10" fill="#E1E1E1" />
    <rect class="seat" id="g12" x="165" y="90" width="10" height="10" fill="#E1E1E1" />
    <rect class="seat" id="g13" x="180" y="90" width="10" height="10" fill="#E1E1E1" />
    <rect class="seat" id="g14" x="195" y="90" width="10" height="10" fill="#E1E1E1" />
    <rect class="seat" id="g15" x="210" y="90" width="10" height="10" fill="#E1E1E1" />
    <rect class="seat" id="h1" x="0" y="105" width="10" height="10" fill="#E1E1E1" />
    <rect class="seat" id="h2" x="15" y="105" width="10" height="10" fill="#E1E1E1" />
    <rect class="seat" id="h3" x="30" y="105" width="10" height="10" fill="#E1E1E1" />
    <rect class="seat" id="h4" x="45" y="105" width="10" height="10" fill="#E1E1E1" />
    <rect class="seat" id="h5" x="60" y="105" width="10" height="10" fill="#E1E1E1" />
    <rect class="seat" id="h6" x="75" y="105" width="10" height="10" fill="#E1E1E1" />
    <rect class="seat" id="h7" x="90" y="105" width="10" height="10" fill="#E1E1E1" />
    <rect class="seat" id="h8" x="105" y="105" width="10" height="10" fill="#E1E1E1" />
    <rect class="seat" id="h9" x="120" y="105" width="10" height="10" fill="#E1E1E1" />
    <rect class="seat" id="h10" x="135" y="105" width="10" height="10" fill="#E1E1E1" />
    <rect class="seat" id="h11" x="150" y="105" width="10" height="10" fill="#E1E1E1" />
    <rect class="seat" id="h12" x="165" y="105" width="10" height="10" fill="#E1E1E1" />
    <rect class="seat" id="h13" x="180" y="105" width="10" height="10" fill="#E1E1E1" />
    <rect class="seat" id="h14" x="195" y="105" width="10" height="10" fill="#E1E1E1" />
    <rect class="seat" id="h15" x="210" y="105" width="10" height="10" fill="#E1E1E1" />
</svg>
