<svg width="247" height="146" viewBox="0 0 247 146" fill="none" xmlns="http://www.w3.org/2000/svg">
<rect class="seat" id="A1" x="20" y="10" width="10" height="10" fill="#B748E7"/>
<rect class="seat" id="A2" x="35" y="10" width="10" height="10" fill="#B748E7"/>
<rect class="seat" id="A3" x="50" y="10" width="10" height="10" fill="#B748E7"/>
<rect class="seat" id="A4" x="64" y="10" width="10" height="10" fill="#B748E7"/>
<rect class="seat" id="A5" x="79" y="10" width="10" height="10" fill="#B748E7"/>
<rect class="seat" id="A6" x="166" y="10" width="10" height="10" fill="#B748E7"/>
<rect class="seat" id="A7" x="181" y="10" width="10" height="10" fill="#B748E7"/>
<rect class="seat" id="A8" x="196" y="10" width="10" height="10" fill="#B748E7"/>
<rect class="seat" id="A9" x="210" y="10" width="10" height="10" fill="#B748E7"/>
<rect class="seat" id="A10" x="225" y="10" width="10" height="10" fill="#B748E7"/>
<rect class="seat" id="A11" x="93" y="10" width="10" height="10" fill="#B748E7"/>
<rect class="seat" id="A12" x="108" y="10" width="10" height="10" fill="#B748E7"/>
<rect class="seat" id="A13" x="123" y="10" width="10" height="10" fill="#B748E7"/>
<rect class="seat" id="A14" x="137" y="10" width="10" height="10" fill="#B748E7"/>
<rect class="seat" id="A15" x="152" y="10" width="10" height="10" fill="#B748E7"/>
<rect class="seat" id="B1" x="20" y="25" width="10" height="10" fill="#B748E7"/>
<rect class="seat" id="B2" x="35" y="25" width="10" height="10" fill="#B748E7"/>
<rect class="seat" id="B3" x="50" y="25" width="10" height="10" fill="#B748E7"/>
<rect class="seat" id="B4" x="64" y="25" width="10" height="10" fill="#B748E7"/>
<rect class="seat" id="B5" x="79" y="25" width="10" height="10" fill="#B748E7"/>
<rect class="seat" id="B6" x="166" y="25" width="10" height="10" fill="#B748E7"/>
<rect class="seat" id="B7" x="181" y="25" width="10" height="10" fill="#B748E7"/>
<rect class="seat" id="B8" x="196" y="25" width="10" height="10" fill="#B748E7"/>
<rect class="seat" id="B9" x="210" y="25" width="10" height="10" fill="#B748E7"/>
<rect class="seat" id="B10" x="225" y="25" width="10" height="10" fill="#B748E7"/>
<rect class="seat" id="B11" x="93" y="25" width="10" height="10" fill="#B748E7"/>
<rect class="seat" id="B12" x="108" y="25" width="10" height="10" fill="#B748E7"/>
<rect class="seat" id="B13" x="123" y="25" width="10" height="10" fill="#B748E7"/>
<rect class="seat" id="B14" x="137" y="25" width="10" height="10" fill="#B748E7"/>
<rect class="seat" id="B15" x="152" y="25" width="10" height="10" fill="#B748E7"/>
<rect class="seat" id="C1" x="20" y="40" width="10" height="10" fill="#B748E7"/>
<rect class="seat" id="C2" x="35" y="40" width="10" height="10" fill="#B748E7"/>
<rect class="seat" id="C3" x="50" y="40" width="10" height="10" fill="#B748E7"/>
<rect class="seat" id="C4" x="64" y="40" width="10" height="10" fill="#B748E7"/>
<rect class="seat" id="C5" x="79" y="40" width="10" height="10" fill="#B748E7"/>
<rect class="seat" id="C6" x="166" y="40" width="10" height="10" fill="#B748E7"/>
<rect class="seat" id="C7" x="181" y="40" width="10" height="10" fill="#B748E7"/>
<rect class="seat" id="C8" x="196" y="40" width="10" height="10" fill="#B748E7"/>
<rect class="seat" id="C9" x="210" y="40" width="10" height="10" fill="#B748E7"/>
<rect class="seat" id="C10" x="225" y="40" width="10" height="10" fill="#B748E7"/>
<rect class="seat" id="C11" x="93" y="40" width="10" height="10" fill="#B748E7"/>
<rect class="seat" id="C12" x="108" y="40" width="10" height="10" fill="#B748E7"/>
<rect class="seat" id="C13" x="123" y="40" width="10" height="10" fill="#B748E7"/>
<rect class="seat" id="C14" x="137" y="40" width="10" height="10" fill="#B748E7"/>
<rect class="seat" id="C15" x="152" y="40" width="10" height="10" fill="#B748E7"/>
<rect class="seat" id="D1" x="20" y="55" width="10" height="10" fill="#B748E7"/>
<rect class="seat" id="D2" x="35" y="55" width="10" height="10" fill="#B748E7"/>
<rect class="seat" id="D3" x="50" y="55" width="10" height="10" fill="#B748E7"/>
<rect class="seat" id="D4" x="64" y="55" width="10" height="10" fill="#B748E7"/>
<rect class="seat" id="D5" x="79" y="55" width="10" height="10" fill="#B748E7"/>
<rect class="seat" id="D6" x="166" y="55" width="10" height="10" fill="#B748E7"/>
<rect class="seat" id="D7" x="181" y="55" width="10" height="10" fill="#B748E7"/>
<rect class="seat" id="D8" x="196" y="55" width="10" height="10" fill="#B748E7"/>
<rect class="seat" id="D9" x="210" y="55" width="10" height="10" fill="#B748E7"/>
<rect class="seat" id="D10" x="225" y="55" width="10" height="10" fill="#B748E7"/>
<rect class="seat" id="D11" x="93" y="55" width="10" height="10" fill="#B748E7"/>
<rect class="seat" id="D12" x="108" y="55" width="10" height="10" fill="#B748E7"/>
<rect class="seat" id="D13" x="123" y="55" width="10" height="10" fill="#B748E7"/>
<rect class="seat" id="D14" x="137" y="55" width="10" height="10" fill="#B748E7"/>
<rect class="seat" id="D15" x="152" y="55" width="10" height="10" fill="#B748E7"/>
<rect class="seat" id="E1" x="20" y="70" width="10" height="10" fill="#B748E7"/>
<rect class="seat" id="E2" x="35" y="70" width="10" height="10" fill="#B748E7"/>
<rect class="seat" id="E3" x="50" y="70" width="10" height="10" fill="#B748E7"/>
<rect class="seat" id="E4" x="64" y="70" width="10" height="10" fill="#B748E7"/>
<rect class="seat" id="E5" x="79" y="70" width="10" height="10" fill="#B748E7"/>
<rect class="seat" id="E6" x="166" y="70" width="10" height="10" fill="#B748E7"/>
<rect class="seat" id="E7" x="181" y="70" width="10" height="10" fill="#B748E7"/>
<rect class="seat" id="E8" x="196" y="70" width="10" height="10" fill="#B748E7"/>
<rect class="seat" id="E9" x="210" y="70" width="10" height="10" fill="#B748E7"/>
<rect class="seat" id="E10" x="225" y="70" width="10" height="10" fill="#B748E7"/>
<rect class="seat" id="E11" x="93" y="70" width="10" height="10" fill="#B748E7"/>
<rect class="seat" id="E12" x="108" y="70" width="10" height="10" fill="#B748E7"/>
<rect class="seat" id="E13" x="123" y="70" width="10" height="10" fill="#B748E7"/>
<rect class="seat" id="E14" x="137" y="70" width="10" height="10" fill="#B748E7"/>
<rect class="seat" id="E15" x="152" y="70" width="10" height="10" fill="#B748E7"/>
<rect class="seat" id="F1" x="20" y="85" width="10" height="10" fill="#B748E7"/>
<rect class="seat" id="F2" x="35" y="85" width="10" height="10" fill="#B748E7"/>
<rect class="seat" id="F3" x="50" y="85" width="10" height="10" fill="#B748E7"/>
<rect class="seat" id="F4" x="64" y="85" width="10" height="10" fill="#B748E7"/>
<rect class="seat" id="F5" x="79" y="85" width="10" height="10" fill="#B748E7"/>
<rect class="seat" id="F6" x="166" y="85" width="10" height="10" fill="#B748E7"/>
<rect class="seat" id="F7" x="181" y="85" width="10" height="10" fill="#B748E7"/>
<rect class="seat" id="F8" x="196" y="85" width="10" height="10" fill="#B748E7"/>
<rect class="seat" id="F9" x="210" y="85" width="10" height="10" fill="#B748E7"/>
<rect class="seat" id="F10" x="225" y="85" width="10" height="10" fill="#B748E7"/>
<rect class="seat" id="F11" x="93" y="85" width="10" height="10" fill="#B748E7"/>
<rect class="seat" id="F12" x="108" y="85" width="10" height="10" fill="#B748E7"/>
<rect class="seat" id="F13" x="123" y="85" width="10" height="10" fill="#B748E7"/>
<rect class="seat" id="F14" x="137" y="85" width="10" height="10" fill="#B748E7"/>
<rect class="seat" id="F15" x="152" y="85" width="10" height="10" fill="#B748E7"/>
<rect class="seat" id="G1" x="20" y="100" width="10" height="10" fill="#B748E7"/>
<rect class="seat" id="G2" x="35" y="100" width="10" height="10" fill="#B748E7"/>
<rect class="seat" id="G3" x="50" y="100" width="10" height="10" fill="#B748E7"/>
<rect class="seat" id="G4" x="64" y="100" width="10" height="10" fill="#B748E7"/>
<rect class="seat" id="G5" x="79" y="100" width="10" height="10" fill="#B748E7"/>
<rect class="seat" id="G6" x="166" y="100" width="10" height="10" fill="#B748E7"/>
<rect class="seat" id="G7" x="181" y="100" width="10" height="10" fill="#B748E7"/>
<rect class="seat" id="G8" x="196" y="100" width="10" height="10" fill="#B748E7"/>
<rect class="seat" id="G9" x="210" y="100" width="10" height="10" fill="#B748E7"/>
<rect class="seat" id="G10" x="225" y="100" width="10" height="10" fill="#B748E7"/>
<rect class="seat" id="G11" x="93" y="100" width="10" height="10" fill="#B748E7"/>
<rect class="seat" id="G12" x="108" y="100" width="10" height="10" fill="#B748E7"/>
<rect class="seat" id="G13" x="123" y="100" width="10" height="10" fill="#B748E7"/>
<rect class="seat" id="G14" x="137" y="100" width="10" height="10" fill="#B748E7"/>
<rect class="seat" id="G15" x="152" y="100" width="10" height="10" fill="#B748E7"/>
<rect class="seat" id="H1" x="20" y="115" width="10" height="10" fill="#B748E7"/>
<rect class="seat" id="H2" x="35" y="115" width="10" height="10" fill="#B748E7"/>
<rect class="seat" id="H3" x="50" y="115" width="10" height="10" fill="#B748E7"/>
<rect class="seat" id="H4" x="64" y="115" width="10" height="10" fill="#B748E7"/>
<rect class="seat" id="H5" x="79" y="115" width="10" height="10" fill="#B748E7"/>
<rect class="seat" id="H6" x="166" y="115" width="10" height="10" fill="#B748E7"/>
<rect class="seat" id="H7" x="181" y="115" width="10" height="10" fill="#B748E7"/>
<rect class="seat" id="H8" x="196" y="115" width="10" height="10" fill="#B748E7"/>
<rect class="seat" id="H9" x="210" y="115" width="10" height="10" fill="#B748E7"/>
<rect class="seat" id="H10" x="225" y="115" width="10" height="10" fill="#B748E7"/>
<rect class="seat" id="H11" x="93" y="115" width="10" height="10" fill="#B748E7"/>
<rect class="seat" id="H12" x="108" y="115" width="10" height="10" fill="#B748E7"/>
<rect class="seat" id="H13" x="123" y="115" width="10" height="10" fill="#B748E7"/>
<rect class="seat" id="H14" x="137" y="115" width="10" height="10" fill="#B748E7"/>
<rect class="seat" id="H15" x="152" y="115" width="10" height="10" fill="#B748E7"/>
<path d="M10.1162 19L12.5576 11.9297H14.4424L16.8887 19H15.3115L13.5293 13.5264H13.4707L11.6836 19H10.1162ZM15.3799 16.2217V17.3691H11.6055V16.2217H15.3799Z" fill="#707070"/>
<path d="M10.917 26.9297H13.7295C14.234 26.9297 14.6621 27.0062 15.0137 27.1592C15.3652 27.3089 15.6289 27.5205 15.8047 27.7939C15.9837 28.0641 16.0732 28.3815 16.0732 28.7461C16.0732 29.013 16.0179 29.2507 15.9072 29.459C15.7998 29.6673 15.6501 29.8398 15.458 29.9766C15.2692 30.11 15.0495 30.2044 14.7988 30.2598V30.3281C15.069 30.3411 15.3229 30.4193 15.5605 30.5625C15.7982 30.7057 15.9886 30.9059 16.1318 31.1631C16.2751 31.417 16.3467 31.7132 16.3467 32.0518C16.3467 32.4294 16.2539 32.7646 16.0684 33.0576C15.8828 33.3506 15.6061 33.5817 15.2383 33.751C14.8737 33.917 14.4326 34 13.915 34H10.917V26.9297ZM13.6172 32.7939C13.8939 32.7939 14.1217 32.7581 14.3008 32.6865C14.4831 32.6117 14.6165 32.5091 14.7012 32.3789C14.7858 32.2454 14.8281 32.0876 14.8281 31.9053C14.8281 31.71 14.7809 31.5342 14.6865 31.3779C14.5921 31.2217 14.4554 31.1029 14.2764 31.0215C14.1006 30.9368 13.8939 30.8945 13.6562 30.8945H12.3818V32.7939H13.6172ZM13.5098 29.8936C13.7148 29.8936 13.8988 29.8561 14.0615 29.7812C14.2275 29.7064 14.3561 29.6006 14.4473 29.4639C14.5417 29.3271 14.5889 29.166 14.5889 28.9805C14.5889 28.8047 14.5482 28.6533 14.4668 28.5264C14.3854 28.3962 14.265 28.2969 14.1055 28.2285C13.9492 28.1569 13.7604 28.1211 13.5391 28.1211H12.3818V29.8936H13.5098Z" fill="#707070"/>
<path d="M15.2041 44.3955C15.1683 44.1351 15.0804 43.9105 14.9404 43.7217C14.8037 43.5296 14.6247 43.3831 14.4033 43.2822C14.182 43.1813 13.9362 43.1309 13.666 43.1309C13.2982 43.1309 12.9759 43.2236 12.6992 43.4092C12.4258 43.5915 12.2126 43.8584 12.0596 44.21C11.9066 44.5583 11.8301 44.9766 11.8301 45.4648C11.8301 45.9661 11.9066 46.391 12.0596 46.7393C12.2126 47.0843 12.4258 47.348 12.6992 47.5303C12.9759 47.7093 13.2933 47.7988 13.6514 47.7988C13.9215 47.7988 14.1641 47.75 14.3789 47.6523C14.597 47.5547 14.7777 47.4163 14.9209 47.2373C15.0641 47.055 15.1585 46.8385 15.2041 46.5879L16.6934 46.6025C16.638 47.0452 16.4785 47.457 16.2148 47.8379C15.9544 48.2188 15.6029 48.5247 15.1602 48.7559C14.7174 48.9837 14.208 49.0977 13.6318 49.0977C13.0003 49.0977 12.4355 48.9544 11.9375 48.668C11.4395 48.3783 11.0488 47.96 10.7656 47.4131C10.4857 46.863 10.3457 46.2135 10.3457 45.4648C10.3457 44.7096 10.4873 44.0586 10.7705 43.5117C11.057 42.9648 11.4476 42.5482 11.9424 42.2617C12.4404 41.9753 13.0036 41.832 13.6318 41.832C14.1755 41.832 14.667 41.9329 15.1064 42.1348C15.5459 42.3366 15.9023 42.6312 16.1758 43.0186C16.4525 43.4027 16.625 43.8617 16.6934 44.3955H15.2041Z" fill="#707070"/>
<path d="M11.249 64V62.7402H13.0215C13.4772 62.7402 13.8564 62.6589 14.1592 62.4961C14.4619 62.3333 14.6898 62.0843 14.8428 61.749C14.9958 61.4105 15.0723 60.9808 15.0723 60.46C15.0723 59.9391 14.9958 59.5111 14.8428 59.1758C14.693 58.8372 14.4668 58.5882 14.1641 58.4287C13.8613 58.2692 13.4837 58.1895 13.0312 58.1895H11.2148V56.9297H13.1045C13.8141 56.9297 14.4261 57.0713 14.9404 57.3545C15.458 57.6344 15.8535 58.0397 16.127 58.5703C16.4036 59.1009 16.542 59.7308 16.542 60.46C16.542 61.1924 16.4036 61.8239 16.127 62.3545C15.8503 62.8851 15.4515 63.292 14.9307 63.5752C14.4131 63.8584 13.7979 64 13.085 64H11.249ZM12.0596 64H10.5947V56.9297H12.0596V64Z" fill="#707070"/>
<path d="M11.1562 71.9297H15.9023V73.1406H12.6211V74.8594H15.6533V76.0654H12.6211V77.7891H15.9121V79H11.1562V71.9297Z" fill="#707070"/>
<path d="M11.2881 86.9297H15.9463V88.1406H12.7529V89.8594H15.6387V91.0654H12.7529V94H11.2881V86.9297Z" fill="#707070"/>
<path d="M15.126 104.21C15.0641 103.985 14.9632 103.793 14.8232 103.634C14.6833 103.471 14.5124 103.347 14.3105 103.263C14.112 103.175 13.8825 103.131 13.6221 103.131C13.2575 103.131 12.9368 103.222 12.6602 103.404C12.3867 103.587 12.1719 103.854 12.0156 104.205C11.8626 104.553 11.7861 104.972 11.7861 105.46C11.7861 105.951 11.861 106.373 12.0107 106.725C12.1637 107.073 12.3786 107.34 12.6553 107.525C12.9352 107.708 13.2624 107.799 13.6367 107.799C13.9753 107.799 14.2666 107.737 14.5107 107.613C14.7581 107.49 14.9453 107.315 15.0723 107.091C15.2025 106.863 15.2676 106.598 15.2676 106.295L15.5703 106.339H13.7344V105.221H16.6836V106.109C16.6836 106.718 16.5534 107.249 16.293 107.701C16.0326 108.15 15.6712 108.495 15.209 108.736C14.75 108.977 14.2243 109.098 13.6318 109.098C12.9743 109.098 12.3932 108.951 11.8887 108.658C11.3874 108.362 10.9967 107.94 10.7168 107.394C10.4401 106.847 10.3018 106.205 10.3018 105.47C10.3018 104.724 10.445 104.078 10.7314 103.531C11.0212 102.981 11.415 102.561 11.9131 102.271C12.4111 101.979 12.9727 101.832 13.5977 101.832C14.125 101.832 14.6068 101.933 15.043 102.135C15.4792 102.337 15.834 102.617 16.1074 102.975C16.3841 103.333 16.555 103.744 16.6201 104.21H15.126Z" fill="#707070"/>
<path d="M10.502 116.93H11.9668V119.859H15.0332V116.93H16.498V124H15.0332V121.065H11.9668V124H10.502V116.93Z" fill="#707070"/>
<path d="M25.7549 136H24.2803V130.326H24.2412L22.625 131.352V130.043L24.373 128.93H25.7549V136Z" fill="#707070"/>
<path d="M54.4805 136.098C53.9661 136.098 53.5055 136.01 53.0986 135.834C52.6917 135.658 52.3727 135.411 52.1416 135.092C51.9137 134.773 51.7949 134.411 51.7852 134.008H53.2646C53.2744 134.174 53.333 134.324 53.4404 134.457C53.5479 134.59 53.6927 134.695 53.875 134.77C54.0573 134.844 54.2591 134.882 54.4805 134.882C54.7116 134.882 54.9199 134.841 55.1055 134.76C55.2943 134.675 55.4391 134.561 55.54 134.418C55.641 134.271 55.6898 134.105 55.6865 133.92C55.6898 133.728 55.6377 133.557 55.5303 133.407C55.4229 133.257 55.2666 133.142 55.0615 133.061C54.8597 132.976 54.6221 132.934 54.3486 132.934H53.6895V131.85H54.3486C54.5798 131.85 54.7865 131.811 54.9688 131.732C55.151 131.651 55.291 131.539 55.3887 131.396C55.4863 131.252 55.5335 131.09 55.5303 130.907C55.5335 130.728 55.4928 130.57 55.4082 130.434C55.3236 130.294 55.2015 130.186 55.042 130.111C54.8825 130.036 54.7002 129.999 54.4951 129.999C54.2868 129.999 54.0964 130.036 53.9238 130.111C53.7513 130.183 53.6113 130.287 53.5039 130.424C53.3997 130.557 53.3428 130.714 53.333 130.893H51.9268C51.9398 130.492 52.0586 130.136 52.2832 129.823C52.5078 129.511 52.8122 129.268 53.1963 129.096C53.5837 128.92 54.0166 128.832 54.4951 128.832C54.9801 128.832 55.4082 128.918 55.7793 129.091C56.1504 129.263 56.4385 129.501 56.6436 129.804C56.8486 130.106 56.9479 130.445 56.9414 130.819C56.9479 131.076 56.8942 131.311 56.7803 131.522C56.6696 131.734 56.5117 131.908 56.3066 132.045C56.1048 132.178 55.8704 132.27 55.6035 132.318V132.372C55.9486 132.414 56.2415 132.51 56.4824 132.66C56.7266 132.807 56.9105 132.995 57.0342 133.227C57.1579 133.458 57.2165 133.721 57.21 134.018C57.2165 134.411 57.1025 134.768 56.8682 135.087C56.6338 135.403 56.3083 135.65 55.8916 135.829C55.4749 136.008 55.0046 136.098 54.4805 136.098Z" fill="#707070"/>
<path d="M65.6533 133.588L68.6416 128.93H69.6377V130.541H69.042L67.1377 133.51V133.568H71.3809V134.75H65.6533V133.588ZM69.0859 134.394L69.1055 133.881V128.93H70.4873V136H69.0859V134.394Z" fill="#707070"/>
<path d="M83.5195 136.098C83.0378 136.098 82.6016 136.008 82.2109 135.829C81.8203 135.65 81.5127 135.401 81.2881 135.082C81.0667 134.763 80.9512 134.405 80.9414 134.008H82.3623C82.3786 134.19 82.4388 134.351 82.543 134.491C82.6504 134.631 82.7887 134.742 82.958 134.823C83.1305 134.901 83.3177 134.94 83.5195 134.94C83.7604 134.94 83.9753 134.887 84.1641 134.779C84.3561 134.672 84.5059 134.524 84.6133 134.335C84.7207 134.143 84.7744 133.926 84.7744 133.686C84.7744 133.435 84.7191 133.215 84.6084 133.026C84.501 132.834 84.3496 132.685 84.1543 132.577C83.9622 132.466 83.7425 132.411 83.4951 132.411C83.2314 132.408 83.0085 132.455 82.8262 132.553C82.6439 132.65 82.499 132.8 82.3916 133.002H81.0586L81.4443 128.93H85.7949V130.136H82.6553L82.46 131.918H82.5137C82.6504 131.739 82.8457 131.594 83.0996 131.483C83.3535 131.373 83.6318 131.317 83.9346 131.317C84.361 131.317 84.7467 131.417 85.0918 131.615C85.4401 131.811 85.7103 132.086 85.9023 132.44C86.0977 132.795 86.1937 133.197 86.1904 133.646C86.1937 134.115 86.0814 134.537 85.8535 134.911C85.6289 135.282 85.3148 135.574 84.9111 135.785C84.5075 135.993 84.0436 136.098 83.5195 136.098Z" fill="#707070"/>
<path d="M97.5781 136.098C97.054 136.094 96.5788 135.979 96.1523 135.751C95.7259 135.523 95.3809 135.15 95.1172 134.633C94.8535 134.115 94.7217 133.446 94.7217 132.626C94.7217 131.841 94.8405 131.164 95.0781 130.595C95.319 130.022 95.6576 129.586 96.0938 129.286C96.5332 128.983 97.0459 128.832 97.6318 128.832C98.0973 128.832 98.5124 128.922 98.877 129.101C99.2448 129.28 99.541 129.525 99.7656 129.838C99.9902 130.15 100.127 130.502 100.176 130.893H98.7256C98.6865 130.727 98.6165 130.583 98.5156 130.463C98.418 130.339 98.2943 130.246 98.1445 130.185C97.9948 130.123 97.8239 130.092 97.6318 130.092C97.3161 130.092 97.0492 130.183 96.8311 130.365C96.6162 130.544 96.4518 130.801 96.3379 131.137C96.224 131.472 96.1654 131.874 96.1621 132.343H96.2207C96.3314 132.134 96.4779 131.957 96.6602 131.811C96.8457 131.661 97.0557 131.547 97.29 131.469C97.5277 131.387 97.7751 131.347 98.0322 131.347C98.4521 131.347 98.8314 131.444 99.1699 131.64C99.5085 131.835 99.7721 132.107 99.9609 132.455C100.153 132.8 100.249 133.192 100.249 133.632C100.249 134.107 100.137 134.532 99.9121 134.906C99.6908 135.281 99.3766 135.574 98.9697 135.785C98.5661 135.993 98.1022 136.098 97.5781 136.098ZM97.5684 134.94C97.806 134.94 98.0192 134.885 98.208 134.774C98.4001 134.66 98.5498 134.507 98.6572 134.315C98.7679 134.12 98.8232 133.907 98.8232 133.676C98.8232 133.438 98.7695 133.223 98.6621 133.031C98.5547 132.839 98.4066 132.689 98.2178 132.582C98.029 132.475 97.8158 132.421 97.5781 132.421C97.3438 132.421 97.1305 132.476 96.9385 132.587C96.7464 132.698 96.5951 132.849 96.4844 133.041C96.3737 133.233 96.3151 133.446 96.3086 133.681C96.3118 133.905 96.3672 134.114 96.4746 134.306C96.5853 134.498 96.735 134.652 96.9238 134.77C97.1159 134.883 97.3307 134.94 97.5684 134.94Z" fill="#707070"/>
<path d="M113.433 130.18V130.136H109.966V128.93H114.956V130.155L111.973 136H110.459L113.433 130.18Z" fill="#707070"/>
<path d="M127.5 136.098C126.973 136.098 126.497 136.011 126.074 135.839C125.654 135.666 125.326 135.427 125.088 135.121C124.85 134.815 124.731 134.473 124.731 134.096C124.731 133.806 124.8 133.536 124.937 133.285C125.073 133.031 125.259 132.823 125.493 132.66C125.731 132.497 125.994 132.395 126.284 132.353V132.299C126.037 132.25 125.815 132.152 125.62 132.006C125.425 131.856 125.272 131.671 125.161 131.449C125.05 131.228 124.995 130.99 124.995 130.736C124.995 130.375 125.104 130.049 125.322 129.76C125.54 129.467 125.84 129.239 126.221 129.076C126.602 128.913 127.028 128.832 127.5 128.832C127.975 128.832 128.403 128.913 128.784 129.076C129.168 129.239 129.468 129.467 129.683 129.76C129.901 130.049 130.01 130.375 130.01 130.736C130.01 130.99 129.953 131.228 129.839 131.449C129.728 131.671 129.575 131.856 129.38 132.006C129.188 132.152 128.966 132.25 128.716 132.299V132.353C129.006 132.395 129.268 132.497 129.502 132.66C129.74 132.823 129.928 133.031 130.068 133.285C130.208 133.536 130.278 133.806 130.278 134.096C130.278 134.473 130.158 134.815 129.917 135.121C129.679 135.427 129.349 135.666 128.926 135.839C128.506 136.011 128.031 136.098 127.5 136.098ZM127.5 134.979C127.744 134.979 127.961 134.936 128.149 134.848C128.338 134.76 128.485 134.638 128.589 134.481C128.693 134.325 128.745 134.149 128.745 133.954C128.745 133.749 128.691 133.565 128.584 133.402C128.477 133.24 128.328 133.113 128.14 133.021C127.951 132.93 127.738 132.885 127.5 132.885C127.266 132.885 127.054 132.93 126.865 133.021C126.676 133.113 126.528 133.24 126.421 133.402C126.313 133.565 126.261 133.749 126.265 133.954C126.261 134.149 126.312 134.325 126.416 134.481C126.52 134.638 126.667 134.76 126.855 134.848C127.044 134.936 127.259 134.979 127.5 134.979ZM127.5 131.845C127.705 131.845 127.889 131.804 128.052 131.723C128.218 131.638 128.346 131.524 128.438 131.381C128.529 131.234 128.574 131.07 128.574 130.888C128.574 130.702 128.529 130.538 128.438 130.395C128.35 130.251 128.223 130.141 128.057 130.062C127.894 129.981 127.708 129.94 127.5 129.94C127.295 129.94 127.109 129.981 126.943 130.062C126.781 130.141 126.654 130.251 126.562 130.395C126.475 130.538 126.431 130.702 126.431 130.888C126.431 131.07 126.476 131.234 126.567 131.381C126.662 131.524 126.79 131.638 126.953 131.723C127.116 131.804 127.298 131.845 127.5 131.845Z" fill="#707070"/>
<path d="M141.422 128.832C141.946 128.832 142.421 128.946 142.848 129.174C143.274 129.398 143.618 129.77 143.878 130.287C144.142 130.801 144.273 131.465 144.273 132.279C144.277 133.07 144.16 133.752 143.922 134.325C143.684 134.898 143.346 135.338 142.906 135.644C142.47 135.946 141.956 136.098 141.363 136.098C140.901 136.098 140.486 136.007 140.118 135.824C139.75 135.642 139.454 135.395 139.229 135.082C139.005 134.766 138.868 134.41 138.819 134.013H140.265C140.307 134.185 140.377 134.333 140.475 134.457C140.576 134.581 140.701 134.675 140.851 134.74C141.004 134.805 141.174 134.838 141.363 134.838C141.679 134.838 141.948 134.747 142.169 134.564C142.39 134.382 142.556 134.122 142.667 133.783C142.781 133.441 142.838 133.035 142.838 132.562H142.774C142.664 132.764 142.517 132.94 142.335 133.09C142.153 133.24 141.943 133.355 141.705 133.437C141.471 133.515 141.223 133.554 140.963 133.554C140.546 133.554 140.169 133.456 139.83 133.261C139.495 133.065 139.231 132.795 139.039 132.45C138.847 132.102 138.749 131.713 138.746 131.283C138.746 130.811 138.857 130.39 139.078 130.019C139.303 129.644 139.618 129.353 140.025 129.145C140.432 128.933 140.898 128.829 141.422 128.832ZM141.427 129.984C141.192 129.984 140.979 130.041 140.787 130.155C140.595 130.266 140.445 130.417 140.338 130.609C140.23 130.798 140.177 131.008 140.177 131.239C140.18 131.47 140.235 131.68 140.343 131.869C140.45 132.058 140.597 132.208 140.782 132.318C140.971 132.429 141.181 132.484 141.412 132.484C141.65 132.484 141.865 132.427 142.057 132.313C142.252 132.2 142.407 132.047 142.521 131.854C142.634 131.659 142.69 131.451 142.687 131.229C142.687 131.005 142.631 130.798 142.521 130.609C142.41 130.417 142.26 130.266 142.071 130.155C141.882 130.041 141.668 129.984 141.427 129.984Z" fill="#707070"/>
<path d="M154.454 136H152.979V130.326H152.94L151.324 131.352V130.043L153.072 128.93H154.454V136ZM158.844 136.098C158.255 136.098 157.747 135.956 157.32 135.673C156.897 135.39 156.572 134.976 156.344 134.433C156.119 133.886 156.007 133.23 156.007 132.465C156.007 131.7 156.119 131.046 156.344 130.502C156.572 129.958 156.899 129.545 157.325 129.262C157.752 128.975 158.258 128.832 158.844 128.832C159.43 128.832 159.936 128.975 160.362 129.262C160.789 129.545 161.116 129.96 161.344 130.507C161.572 131.05 161.686 131.703 161.686 132.465C161.686 133.233 161.572 133.889 161.344 134.433C161.119 134.976 160.794 135.39 160.367 135.673C159.941 135.956 159.433 136.098 158.844 136.098ZM158.844 134.887C159.117 134.887 159.355 134.797 159.557 134.618C159.762 134.439 159.918 134.169 160.025 133.808C160.133 133.443 160.185 132.995 160.182 132.465C160.182 131.938 160.128 131.493 160.021 131.132C159.913 130.767 159.758 130.494 159.557 130.312C159.355 130.129 159.117 130.038 158.844 130.038C158.57 130.038 158.333 130.129 158.131 130.312C157.932 130.494 157.778 130.767 157.667 131.132C157.556 131.493 157.501 131.938 157.501 132.465C157.501 132.995 157.555 133.443 157.662 133.808C157.773 134.169 157.929 134.439 158.131 134.618C158.333 134.797 158.57 134.887 158.844 134.887Z" fill="#707070"/>
<path d="M169.911 136H168.437V130.326H168.397L166.781 131.352V130.043L168.529 128.93H169.911V136ZM174.599 136H173.124V130.326H173.085L171.469 131.352V130.043L173.217 128.93H174.599V136Z" fill="#707070"/>
<path d="M184.203 136H182.729V130.326H182.689L181.073 131.352V130.043L182.821 128.93H184.203V136ZM185.839 134.94L188.383 132.602C188.633 132.361 188.829 132.162 188.969 132.006C189.109 131.846 189.215 131.687 189.286 131.527C189.361 131.365 189.398 131.192 189.398 131.01C189.398 130.808 189.35 130.631 189.252 130.478C189.154 130.321 189.021 130.202 188.852 130.121C188.682 130.04 188.49 129.999 188.275 129.999C188.057 129.999 187.864 130.043 187.694 130.131C187.528 130.219 187.4 130.347 187.309 130.517C187.221 130.683 187.177 130.876 187.177 131.098H185.78C185.78 130.645 185.884 130.248 186.093 129.906C186.304 129.561 186.599 129.296 186.977 129.11C187.357 128.925 187.795 128.832 188.29 128.832C188.788 128.832 189.228 128.92 189.608 129.096C189.989 129.271 190.284 129.517 190.492 129.833C190.704 130.149 190.81 130.51 190.81 130.917C190.81 131.194 190.756 131.461 190.648 131.718C190.544 131.975 190.359 132.26 190.092 132.572C189.828 132.885 189.452 133.262 188.964 133.705L187.885 134.745V134.794H190.912V136H185.844L185.839 134.94Z" fill="#707070"/>
<path d="M198.557 136H197.082V130.326H197.043L195.427 131.352V130.043L197.175 128.93H198.557V136ZM202.824 136.098C202.31 136.098 201.849 136.01 201.442 135.834C201.035 135.658 200.716 135.411 200.485 135.092C200.257 134.773 200.139 134.411 200.129 134.008H201.608C201.618 134.174 201.677 134.324 201.784 134.457C201.892 134.59 202.036 134.695 202.219 134.77C202.401 134.844 202.603 134.882 202.824 134.882C203.055 134.882 203.264 134.841 203.449 134.76C203.638 134.675 203.783 134.561 203.884 134.418C203.985 134.271 204.034 134.105 204.03 133.92C204.034 133.728 203.981 133.557 203.874 133.407C203.767 133.257 203.61 133.142 203.405 133.061C203.203 132.976 202.966 132.934 202.692 132.934H202.033V131.85H202.692C202.924 131.85 203.13 131.811 203.312 131.732C203.495 131.651 203.635 131.539 203.732 131.396C203.83 131.252 203.877 131.09 203.874 130.907C203.877 130.728 203.837 130.57 203.752 130.434C203.667 130.294 203.545 130.186 203.386 130.111C203.226 130.036 203.044 129.999 202.839 129.999C202.631 129.999 202.44 130.036 202.268 130.111C202.095 130.183 201.955 130.287 201.848 130.424C201.743 130.557 201.687 130.714 201.677 130.893H200.271C200.284 130.492 200.402 130.136 200.627 129.823C200.852 129.511 201.156 129.268 201.54 129.096C201.927 128.92 202.36 128.832 202.839 128.832C203.324 128.832 203.752 128.918 204.123 129.091C204.494 129.263 204.782 129.501 204.987 129.804C205.192 130.106 205.292 130.445 205.285 130.819C205.292 131.076 205.238 131.311 205.124 131.522C205.013 131.734 204.855 131.908 204.65 132.045C204.449 132.178 204.214 132.27 203.947 132.318V132.372C204.292 132.414 204.585 132.51 204.826 132.66C205.07 132.807 205.254 132.995 205.378 133.227C205.502 133.458 205.56 133.721 205.554 134.018C205.56 134.411 205.446 134.768 205.212 135.087C204.978 135.403 204.652 135.65 204.235 135.829C203.819 136.008 203.348 136.098 202.824 136.098Z" fill="#707070"/>
<path d="M212.469 136H210.994V130.326H210.955L209.339 131.352V130.043L211.087 128.93H212.469V136ZM213.997 133.588L216.985 128.93H217.981V130.541H217.386L215.481 133.51V133.568H219.725V134.75H213.997V133.588ZM217.43 134.394L217.449 133.881V128.93H218.831V136H217.43V134.394Z" fill="#707070"/>
<path d="M228.12 136H226.646V130.326H226.606L224.99 131.352V130.043L226.738 128.93H228.12V136ZM232.363 136.098C231.882 136.098 231.445 136.008 231.055 135.829C230.664 135.65 230.356 135.401 230.132 135.082C229.91 134.763 229.795 134.405 229.785 134.008H231.206C231.222 134.19 231.283 134.351 231.387 134.491C231.494 134.631 231.632 134.742 231.802 134.823C231.974 134.901 232.161 134.94 232.363 134.94C232.604 134.94 232.819 134.887 233.008 134.779C233.2 134.672 233.35 134.524 233.457 134.335C233.564 134.143 233.618 133.926 233.618 133.686C233.618 133.435 233.563 133.215 233.452 133.026C233.345 132.834 233.193 132.685 232.998 132.577C232.806 132.466 232.586 132.411 232.339 132.411C232.075 132.408 231.852 132.455 231.67 132.553C231.488 132.65 231.343 132.8 231.235 133.002H229.902L230.288 128.93H234.639V130.136H231.499L231.304 131.918H231.357C231.494 131.739 231.689 131.594 231.943 131.483C232.197 131.373 232.476 131.317 232.778 131.317C233.205 131.317 233.59 131.417 233.936 131.615C234.284 131.811 234.554 132.086 234.746 132.44C234.941 132.795 235.037 133.197 235.034 133.646C235.037 134.115 234.925 134.537 234.697 134.911C234.473 135.282 234.159 135.574 233.755 135.785C233.351 135.993 232.887 136.098 232.363 136.098Z" fill="#707070"/>
<path d="M36.9951 134.94L39.5391 132.602C39.7897 132.361 39.985 132.162 40.125 132.006C40.265 131.846 40.3708 131.687 40.4424 131.527C40.5173 131.365 40.5547 131.192 40.5547 131.01C40.5547 130.808 40.5059 130.631 40.4082 130.478C40.3105 130.321 40.1771 130.202 40.0078 130.121C39.8385 130.04 39.6465 129.999 39.4316 129.999C39.2135 129.999 39.0199 130.043 38.8506 130.131C38.6846 130.219 38.556 130.347 38.4648 130.517C38.377 130.683 38.333 130.876 38.333 131.098H36.9365C36.9365 130.645 37.0407 130.248 37.249 129.906C37.4606 129.561 37.7552 129.296 38.1328 129.11C38.5137 128.925 38.9515 128.832 39.4463 128.832C39.9443 128.832 40.3838 128.92 40.7646 129.096C41.1455 129.271 41.4401 129.517 41.6484 129.833C41.86 130.149 41.9658 130.51 41.9658 130.917C41.9658 131.194 41.9121 131.461 41.8047 131.718C41.7005 131.975 41.515 132.26 41.248 132.572C40.9844 132.885 40.6084 133.262 40.1201 133.705L39.041 134.745V134.794H42.0684V136H37L36.9951 134.94Z" fill="#707070"/>
</svg>
