<svg width="100" height="40" viewBox="0 0 100 40" fill="none" xmlns="http://www.w3.org/2000/svg">
<rect x="0.5" y="0.5" width="99" height="39" rx="4.5" fill="white"/>
<rect x="0.5" y="0.5" width="99" height="39" rx="4.5" stroke="#0241A0"/>
<path d="M33.4546 26.2158H32.2974V13.1641H33.4546V26.2158ZM26.5259 14.1748C27.1704 14.1748 27.7441 14.3628 28.2471 14.7388C28.75 15.1147 29.1431 15.6445 29.4263 16.3281C29.7095 17.0117 29.8511 17.8076 29.8511 18.7158C29.8511 19.624 29.7095 20.4199 29.4263 21.1035C29.1431 21.7871 28.75 22.3145 28.2471 22.6855C27.7441 23.0566 27.1704 23.2422 26.5259 23.2422C25.8813 23.2422 25.3076 23.0566 24.8047 22.6855C24.3018 22.3145 23.9087 21.7871 23.6255 21.1035C23.3423 20.4199 23.2007 19.624 23.2007 18.7158C23.2007 17.8076 23.3423 17.0117 23.6255 16.3281C23.9087 15.6445 24.3018 15.1147 24.8047 14.7388C25.3076 14.3628 25.8813 14.1748 26.5259 14.1748ZM26.5259 15.2002C26.0962 15.2002 25.7129 15.3467 25.376 15.6396C25.0391 15.9326 24.7778 16.3428 24.5923 16.8701C24.4067 17.3975 24.314 18.0127 24.314 18.7158C24.314 19.4092 24.4067 20.022 24.5923 20.5542C24.7778 21.0864 25.0391 21.4966 25.376 21.7847C25.7129 22.0728 26.0962 22.2168 26.5259 22.2168C26.9556 22.2168 27.3389 22.0728 27.6758 21.7847C28.0127 21.4966 28.2739 21.0864 28.4595 20.5542C28.645 20.022 28.7378 19.4092 28.7378 18.7158C28.7378 18.0127 28.645 17.3975 28.4595 16.8701C28.2739 16.3428 28.0151 15.9326 27.6831 15.6396C27.3511 15.3467 26.9653 15.2002 26.5259 15.2002ZM45.979 17.7344H42.6392V16.7822H45.979V17.7344ZM46.4771 22.7295H45.3198V13.1787H46.4771V22.7295ZM46.8433 25.9082H38.1128V24.9414H46.8433V25.9082ZM39.27 25.4102H38.1128V21.8652H39.27V25.4102ZM40.0024 15.8594C40.0024 16.6309 39.8486 17.3633 39.541 18.0566C39.2334 18.75 38.8037 19.3555 38.252 19.873C37.7002 20.3906 37.063 20.7861 36.3403 21.0596L35.7397 20.1221C36.3745 19.8975 36.9434 19.5679 37.4463 19.1333C37.9492 18.6987 38.3423 18.1982 38.6255 17.6318C38.9087 17.0654 39.0503 16.4746 39.0503 15.8594V14.79H40.0024V15.8594ZM40.2075 15.8594C40.2075 16.416 40.3442 16.958 40.6177 17.4854C40.8911 18.0127 41.2695 18.4814 41.7529 18.8916C42.2363 19.3018 42.7905 19.6143 43.4155 19.8291L42.8149 20.752C42.1118 20.498 41.4941 20.1245 40.9619 19.6313C40.4297 19.1382 40.0146 18.5645 39.7168 17.9102C39.4189 17.2559 39.27 16.5723 39.27 15.8594V14.79H40.2075V15.8594ZM43.1226 15.1855H36.106V14.2334H43.1226V15.1855ZM62.5903 22.5977H61.4478V13.1641H62.5903V22.5977ZM64.5679 18.0127H62.2241V17.0459H64.5679V18.0127ZM54.0356 19.3164C55.4907 19.3164 56.6406 19.2896 57.4854 19.2358C58.3301 19.1821 59.1724 19.0674 60.0122 18.8916L60.1587 19.8438C59.27 20.0098 58.3813 20.1245 57.4927 20.188C56.604 20.2515 55.4517 20.2832 54.0356 20.2832H53.0249V19.3164H54.0356ZM58.8257 15.2588H54.1675V19.8584H53.0249V14.292H58.8257V15.2588ZM63.1909 25.9082H54.4458V24.9414H63.1909V25.9082ZM55.5737 25.3809H54.4458V21.6455H55.5737V25.3809ZM73.4009 17.749H70.4712V16.7969H73.4009V17.749ZM73.3862 21.0156H70.3687V20.0635H73.3862V21.0156ZM76.521 26.1865H75.4224V13.1641H76.521V26.1865ZM73.8843 25.5273H72.7856V13.5156H73.8843V25.5273ZM70.9839 14.834C70.9839 15.9961 70.813 17.0947 70.4712 18.1299C70.1294 19.165 69.5947 20.127 68.8672 21.0156C68.1396 21.9043 67.2046 22.6904 66.062 23.374L65.3589 22.5391C66.3745 21.9336 67.2168 21.2451 67.8857 20.4736C68.5547 19.7021 69.0527 18.8599 69.3799 17.9468C69.707 17.0337 69.8706 16.0645 69.8706 15.0391V14.834H70.9839ZM70.3247 15.7861H65.9448V14.834H70.3247V15.7861Z" fill="black"/>
</svg>
