<svg width="251" height="39" viewBox="0 0 251 39" fill="none" xmlns="http://www.w3.org/2000/svg">
<rect opacity="0.5" width="251" height="39" fill="#707070"/>
<path d="M102.079 16.5332H98.5195V15.6104H102.079V16.5332ZM101.991 19.2432H98.417V18.291H101.991V19.2432ZM103.031 21.001H101.874V13.1787H103.031V21.001ZM99.0029 14.1455C99.0029 15.2393 98.7563 16.2354 98.2632 17.1338C97.77 18.0322 97.0669 18.8013 96.1538 19.4409C95.2407 20.0806 94.1543 20.5908 92.8945 20.9717L92.4111 20.0635C93.5342 19.7314 94.4961 19.2993 95.2969 18.7671C96.0977 18.2349 96.7104 17.6196 97.1353 16.9214C97.5601 16.2231 97.7725 15.4688 97.7725 14.6582V14.1455H99.0029ZM98.5488 15.1123H93.0703V14.1455H98.5488V15.1123ZM98.7686 21.1328C99.6475 21.1328 100.414 21.2329 101.068 21.4331C101.723 21.6333 102.226 21.9189 102.577 22.29C102.929 22.6611 103.104 23.1055 103.104 23.623C103.104 24.1406 102.929 24.5874 102.577 24.9634C102.226 25.3394 101.723 25.6274 101.068 25.8276C100.414 26.0278 99.6475 26.1279 98.7686 26.1279C97.8896 26.1279 97.123 26.0278 96.4688 25.8276C95.8145 25.6274 95.3091 25.3394 94.9526 24.9634C94.5962 24.5874 94.418 24.1406 94.418 23.623C94.418 23.1055 94.5962 22.6611 94.9526 22.29C95.3091 21.9189 95.8145 21.6333 96.4688 21.4331C97.123 21.2329 97.8896 21.1328 98.7686 21.1328ZM98.7686 22.0557C98.124 22.0459 97.5576 22.1045 97.0693 22.2314C96.5811 22.3584 96.2051 22.5415 95.9414 22.7808C95.6777 23.02 95.5459 23.3008 95.5459 23.623C95.5459 23.9453 95.6777 24.2236 95.9414 24.458C96.2051 24.6924 96.5786 24.873 97.062 25C97.5454 25.127 98.1143 25.1904 98.7686 25.1904C99.4131 25.1904 99.9746 25.127 100.453 25C100.932 24.873 101.303 24.6924 101.566 24.458C101.83 24.2236 101.962 23.9453 101.962 23.623C101.962 23.3008 101.83 23.02 101.566 22.7808C101.303 22.5415 100.932 22.3584 100.453 22.2314C99.9746 22.1045 99.4131 22.0459 98.7686 22.0557ZM115.966 26.1865H114.809V13.1641H115.966V26.1865ZM112.113 14.585C112.113 15.874 111.901 17.0801 111.476 18.2031C111.051 19.3262 110.385 20.3589 109.477 21.3013C108.568 22.2437 107.406 23.0566 105.99 23.7402L105.36 22.8027C106.62 22.207 107.665 21.5063 108.495 20.7007C109.325 19.895 109.945 18.9941 110.355 17.998C110.766 17.002 110.971 15.9229 110.971 14.7607V14.585H112.113ZM111.439 15.5225H105.961V14.585H111.439V15.5225ZM122.367 15.6396C122.367 16.4209 122.216 17.1533 121.913 17.8369C121.61 18.5205 121.183 19.1162 120.631 19.624C120.08 20.1318 119.438 20.5176 118.705 20.7812L118.119 19.8584C118.764 19.6338 119.337 19.3091 119.84 18.8843C120.343 18.4595 120.736 17.9663 121.02 17.4048C121.303 16.8433 121.444 16.2549 121.444 15.6396V14.5703H122.367V15.6396ZM122.572 15.6396C122.572 16.1963 122.707 16.731 122.975 17.2437C123.244 17.7563 123.617 18.2056 124.096 18.5913C124.574 18.9771 125.131 19.2773 125.766 19.4922L125.224 20.4004C124.501 20.1562 123.871 19.7998 123.334 19.3311C122.797 18.8623 122.379 18.3105 122.082 17.6758C121.784 17.041 121.635 16.3623 121.635 15.6396V14.5703H122.572V15.6396ZM125.502 15.083H118.471V14.1309H125.502V15.083ZM128.344 21.0303H127.201V13.1641H128.344V21.0303ZM130.307 17.4561H128.021V16.4893H130.307V17.4561ZM124.169 21.3818C125.058 21.3818 125.824 21.4746 126.469 21.6602C127.113 21.8457 127.606 22.1167 127.948 22.4731C128.29 22.8296 128.461 23.2568 128.461 23.7549C128.461 24.2529 128.29 24.6826 127.948 25.0439C127.606 25.4053 127.113 25.6812 126.469 25.8716C125.824 26.062 125.058 26.1572 124.169 26.1572C123.28 26.1572 122.511 26.062 121.862 25.8716C121.212 25.6812 120.714 25.4053 120.368 25.0439C120.021 24.6826 119.848 24.2529 119.848 23.7549C119.848 23.2568 120.021 22.8296 120.368 22.4731C120.714 22.1167 121.212 21.8457 121.862 21.6602C122.511 21.4746 123.28 21.3818 124.169 21.3818ZM124.169 22.3047C123.524 22.3047 122.963 22.3608 122.484 22.4731C122.006 22.5854 121.64 22.7515 121.386 22.9712C121.132 23.1909 121.005 23.4521 121.005 23.7549C121.005 24.0576 121.132 24.3213 121.386 24.5459C121.64 24.7705 122.003 24.9414 122.477 25.0586C122.951 25.1758 123.515 25.2344 124.169 25.2344C124.833 25.2344 125.402 25.1758 125.875 25.0586C126.349 24.9414 126.713 24.7705 126.967 24.5459C127.221 24.3213 127.348 24.0576 127.348 23.7549C127.348 23.4521 127.221 23.1909 126.967 22.9712C126.713 22.7515 126.347 22.5854 125.868 22.4731C125.39 22.3608 124.823 22.3047 124.169 22.3047ZM140.897 21.3525C141.786 21.3525 142.553 21.4453 143.197 21.6309C143.842 21.8164 144.335 22.0898 144.677 22.4512C145.019 22.8125 145.189 23.2471 145.189 23.7549C145.189 24.2627 145.019 24.6973 144.677 25.0586C144.335 25.4199 143.844 25.6958 143.205 25.8862C142.565 26.0767 141.796 26.1768 140.897 26.1865C140.009 26.1768 139.24 26.0767 138.59 25.8862C137.941 25.6958 137.443 25.4199 137.096 25.0586C136.75 24.6973 136.576 24.2627 136.576 23.7549C136.576 23.2471 136.75 22.8125 137.096 22.4512C137.443 22.0898 137.941 21.8164 138.59 21.6309C139.24 21.4453 140.009 21.3525 140.897 21.3525ZM140.897 22.2607C140.243 22.2607 139.679 22.3218 139.206 22.4438C138.732 22.5659 138.368 22.7368 138.114 22.9565C137.86 23.1763 137.733 23.4424 137.733 23.7549C137.733 24.0576 137.86 24.3213 138.114 24.5459C138.368 24.7705 138.734 24.9438 139.213 25.0659C139.691 25.188 140.253 25.249 140.897 25.249C141.552 25.249 142.118 25.188 142.597 25.0659C143.075 24.9438 143.441 24.7705 143.695 24.5459C143.949 24.3213 144.076 24.0576 144.076 23.7549C144.076 23.4424 143.949 23.1763 143.695 22.9565C143.441 22.7368 143.078 22.5659 142.604 22.4438C142.13 22.3218 141.562 22.2607 140.897 22.2607ZM145.072 21.001H143.93V13.1641H145.072V21.001ZM147.035 17.4268H144.75V16.4453H147.035V17.4268ZM136.576 15.9766H140.37V13.9844H141.513V19.9902H135.448V13.9844H136.576V15.9766ZM140.37 19.0527V16.8848H136.576V19.0527H140.37ZM159.97 16.4014H157.699V15.4492H159.97V16.4014ZM159.97 19.1699H157.699V18.2031H159.97V19.1699ZM158.036 21.5723H156.894V13.1641H158.036V21.5723ZM153.92 21.6602C154.799 21.6602 155.558 21.748 156.198 21.9238C156.837 22.0996 157.328 22.3584 157.67 22.7002C158.012 23.042 158.183 23.4473 158.183 23.916C158.183 24.3848 158.012 24.7876 157.67 25.1245C157.328 25.4614 156.837 25.7178 156.198 25.8936C155.558 26.0693 154.799 26.1572 153.92 26.1572C153.041 26.1572 152.282 26.0693 151.642 25.8936C151.002 25.7178 150.512 25.4614 150.17 25.1245C149.828 24.7876 149.657 24.3848 149.657 23.916C149.657 23.4473 149.828 23.042 150.17 22.7002C150.512 22.3584 151.002 22.0996 151.642 21.9238C152.282 21.748 153.041 21.6602 153.92 21.6602ZM153.92 22.5684C153.275 22.5684 152.719 22.6196 152.25 22.7222C151.781 22.8247 151.422 22.9785 151.173 23.1836C150.924 23.3887 150.8 23.6328 150.8 23.916C150.8 24.1895 150.924 24.4287 151.173 24.6338C151.422 24.8389 151.781 24.9951 152.25 25.1025C152.719 25.21 153.275 25.2637 153.92 25.2637C154.564 25.2637 155.121 25.21 155.59 25.1025C156.059 24.9951 156.417 24.8413 156.667 24.6411C156.916 24.4409 157.04 24.1992 157.04 23.916C157.04 23.6328 156.916 23.3887 156.667 23.1836C156.417 22.9785 156.061 22.8247 155.597 22.7222C155.133 22.6196 154.574 22.5684 153.92 22.5684ZM155.648 15.5664H147.885V14.6582H155.648V15.5664ZM151.767 16.2402C152.392 16.2402 152.938 16.3354 153.407 16.5259C153.876 16.7163 154.242 16.9849 154.506 17.3315C154.77 17.6782 154.901 18.0811 154.901 18.54C154.901 18.999 154.77 19.4019 154.506 19.7485C154.242 20.0952 153.876 20.3638 153.407 20.5542C152.938 20.7446 152.392 20.8398 151.767 20.8398C151.142 20.8398 150.592 20.7446 150.119 20.5542C149.645 20.3638 149.279 20.0952 149.02 19.7485C148.761 19.4019 148.632 18.999 148.632 18.54C148.632 18.0811 148.761 17.6782 149.02 17.3315C149.279 16.9849 149.645 16.7163 150.119 16.5259C150.592 16.3354 151.142 16.2402 151.767 16.2402ZM151.767 17.1045C151.366 17.1045 151.01 17.1655 150.697 17.2876C150.385 17.4097 150.146 17.5781 149.979 17.793C149.813 18.0078 149.73 18.2568 149.73 18.54C149.73 18.8135 149.813 19.0576 149.979 19.2725C150.146 19.4873 150.385 19.6533 150.697 19.7705C151.01 19.8877 151.366 19.9463 151.767 19.9463C152.167 19.9463 152.523 19.8877 152.836 19.7705C153.148 19.6533 153.39 19.4873 153.561 19.2725C153.732 19.0576 153.817 18.8135 153.817 18.54C153.817 18.2568 153.732 18.0078 153.561 17.793C153.39 17.5781 153.148 17.4097 152.836 17.2876C152.523 17.1655 152.167 17.1045 151.767 17.1045ZM152.338 15.1855H151.195V13.0615H152.338V15.1855Z" fill="white"/>
</svg>
