<svg width="50" height="50" viewBox="0 0 50 50" fill="none" xmlns="http://www.w3.org/2000/svg">
<rect width="50" height="50" fill="#BDBDBD"/>
<path fill-rule="evenodd" clip-rule="evenodd" d="M22.5 11.2501C21.0226 11.2501 19.5597 11.5411 18.1948 12.1065C16.8299 12.6719 15.5897 13.5005 14.545 14.5452C13.5004 15.5898 12.6717 16.83 12.1064 18.195C11.541 19.5599 11.25 21.0228 11.25 22.5001C11.25 23.9775 11.541 25.4404 12.1064 26.8053C12.6717 28.1702 13.5004 29.4104 14.545 30.4551C15.5897 31.4998 16.8299 32.3284 18.1948 32.8938C19.5597 33.4592 21.0226 33.7501 22.5 33.7501C25.4837 33.7501 28.3452 32.5649 30.455 30.4551C32.5647 28.3453 33.75 25.4838 33.75 22.5001C33.75 19.5165 32.5647 16.655 30.455 14.5452C28.3452 12.4354 25.4837 11.2501 22.5 11.2501ZM8.75 22.5001C8.75029 20.292 9.2824 18.1163 10.3013 16.1573C11.3202 14.1983 12.796 12.5134 14.6037 11.2453C16.4115 9.97724 18.498 9.16318 20.6869 8.87201C22.8758 8.58085 25.1026 8.82114 27.179 9.57257C29.2554 10.324 31.1203 11.5645 32.6159 13.189C34.1115 14.8136 35.1939 16.7744 35.7714 18.9057C36.3489 21.0371 36.4046 23.2761 35.9339 25.4335C35.4631 27.5909 34.4796 29.6032 33.0667 31.3001L40.8833 39.1168C41.0061 39.2312 41.1046 39.3692 41.173 39.5226C41.2413 39.6759 41.278 39.8414 41.281 40.0093C41.2839 40.1771 41.2531 40.3438 41.1902 40.4995C41.1273 40.6551 41.0338 40.7965 40.9151 40.9152C40.7964 41.0339 40.655 41.1275 40.4993 41.1903C40.3437 41.2532 40.177 41.2841 40.0091 41.2811C39.8413 41.2782 39.6758 41.2414 39.5224 41.1731C39.3691 41.1048 39.2311 41.0063 39.1167 40.8835L31.3 33.0668C29.292 34.7393 26.849 35.8049 24.2572 36.1389C21.6654 36.4729 19.032 36.0613 16.6657 34.9525C14.2993 33.8436 12.298 32.0834 10.8961 29.878C9.49413 27.6726 8.74971 25.1134 8.75 22.5001ZM22.5 16.2501C22.8315 16.2501 23.1495 16.3818 23.3839 16.6163C23.6183 16.8507 23.75 17.1686 23.75 17.5001V21.2501H27.5C27.8315 21.2501 28.1495 21.3818 28.3839 21.6163C28.6183 21.8507 28.75 22.1686 28.75 22.5001C28.75 22.8317 28.6183 23.1496 28.3839 23.384C28.1495 23.6184 27.8315 23.7501 27.5 23.7501H23.75V27.5001C23.75 27.8317 23.6183 28.1496 23.3839 28.384C23.1495 28.6184 22.8315 28.7501 22.5 28.7501C22.1685 28.7501 21.8505 28.6184 21.6161 28.384C21.3817 28.1496 21.25 27.8317 21.25 27.5001V23.7501H17.5C17.1685 23.7501 16.8505 23.6184 16.6161 23.384C16.3817 23.1496 16.25 22.8317 16.25 22.5001C16.25 22.1686 16.3817 21.8507 16.6161 21.6163C16.8505 21.3818 17.1685 21.2501 17.5 21.2501H21.25V17.5001C21.25 17.1686 21.3817 16.8507 21.6161 16.6163C21.8505 16.3818 22.1685 16.2501 22.5 16.2501Z" fill="white"/>
</svg>
