<svg width="50" height="50" viewBox="0 0 50 50" fill="none" xmlns="http://www.w3.org/2000/svg">
<rect width="50" height="50" fill="#BDBDBD"/>
<path d="M30.3613 11.8887H14.8058C14.2901 11.8887 13.7955 12.0935 13.4308 12.4582C13.0662 12.8228 12.8613 13.3174 12.8613 13.8331V37.1664C12.8613 37.6821 13.0662 38.1767 13.4308 38.5414C13.7955 38.906 14.2901 39.1109 14.8058 39.1109H30.3613C30.877 39.1109 31.3716 38.906 31.7363 38.5414C32.1009 38.1767 32.3058 37.6821 32.3058 37.1664V31.3331H23.196C22.9382 31.3331 22.6909 31.2307 22.5086 31.0484C22.3263 30.866 22.2238 30.6187 22.2238 30.3609C22.2238 30.103 22.3263 29.8558 22.5086 29.6734C22.6909 29.4911 22.9382 29.3887 23.196 29.3887H32.3058V13.8331C32.3058 13.3174 32.1009 12.8228 31.7363 12.4582C31.3716 12.0935 30.877 11.8887 30.3613 11.8887Z" fill="white"/>
<path d="M35.3769 24.8002C35.1909 24.6409 34.9517 24.5577 34.707 24.5671C34.4623 24.5766 34.2302 24.678 34.0571 24.8512C33.8839 25.0243 33.7825 25.2564 33.773 25.5011C33.7636 25.7458 33.8468 25.985 34.0061 26.171L37.2922 29.3891H32.3047V31.3335H37.2922L34.0061 34.6974C33.9043 34.7846 33.8216 34.8918 33.7633 35.0124C33.7049 35.1331 33.6721 35.2644 33.667 35.3983C33.6618 35.5322 33.6844 35.6657 33.7332 35.7905C33.7821 35.9153 33.8563 36.0286 33.951 36.1233C34.0457 36.2181 34.1591 36.2922 34.2838 36.3411C34.4086 36.39 34.5421 36.4125 34.676 36.4073C34.8099 36.4022 34.9413 36.3694 35.0619 36.311C35.1825 36.2527 35.2898 36.17 35.3769 36.0682L41.0547 30.4293L35.3769 24.8002Z" fill="white"/>
</svg>
