<svg width="204" height="109" viewBox="0 0 204 109" fill="none" xmlns="http://www.w3.org/2000/svg">
<rect width="204" height="109" rx="1.9646" fill="url(#paint0_linear_223_14148)"/>
<path d="M15.2383 27.145V17.2466H16.4688V21.6489H21.7051V17.2466H22.9492V27.145H21.7051V22.729H16.4688V27.145H15.2383ZM28.0078 27.2954C25.9844 27.2954 24.6172 25.7778 24.6172 23.4673C24.6172 21.1567 25.9844 19.6255 28.0078 19.6255C30.0176 19.6255 31.3711 21.1567 31.3711 23.4673C31.3711 25.7778 30.0176 27.2954 28.0078 27.2954ZM28.0078 26.2563C29.498 26.2563 30.1953 24.9438 30.1953 23.4673C30.1953 21.9907 29.498 20.6646 28.0078 20.6646C26.4902 20.6646 25.793 21.9907 25.793 23.4673C25.793 24.9438 26.4902 26.2563 28.0078 26.2563ZM32.916 27.145V19.7212H34.0508V20.8833H34.1465C34.4609 20.0903 35.1719 19.6255 36.1426 19.6255C37.1133 19.6255 37.7695 20.0903 38.125 20.8833H38.207C38.5898 20.1177 39.3691 19.6255 40.4355 19.6255C41.7617 19.6255 42.7051 20.4321 42.7051 22.1821V27.145H41.5293V22.1958C41.5293 21.1021 40.832 20.6782 40.0254 20.6782C38.9863 20.6782 38.3984 21.3755 38.3984 22.3188V27.145H37.209V22.0728C37.209 21.2388 36.6074 20.6782 35.7598 20.6782C34.8711 20.6782 34.0918 21.4302 34.0918 22.5103V27.145H32.916ZM47.709 27.2954C45.5625 27.2954 44.2363 25.7778 44.2363 23.4946C44.2363 21.2114 45.5762 19.6255 47.5996 19.6255C49.1582 19.6255 50.7988 20.5825 50.7988 23.3306V23.8228H45.4121C45.4668 25.395 46.3828 26.2563 47.709 26.2563C48.5977 26.2563 49.1582 25.8735 49.4316 25.4087H50.6895C50.334 26.5298 49.2402 27.2954 47.709 27.2954ZM45.4258 22.8247H49.6094C49.6094 21.5806 48.8164 20.6646 47.5996 20.6646C46.3145 20.6646 45.4941 21.6763 45.4258 22.8247ZM52.4805 27.145V17.2466H55.8438C58.168 17.2466 59.2207 18.5317 59.2207 20.2954C59.2207 21.6011 58.6328 22.6333 57.375 23.0708L59.6035 27.145H58.168L56.1035 23.2896L55.8574 23.3032H53.7109V27.145H52.4805ZM53.7109 22.1821H55.8027C57.375 22.1821 58.0039 21.4712 58.0039 20.2954C58.0039 19.106 57.375 18.3403 55.7891 18.3403H53.7109V22.1821ZM65.5371 24.0962V19.7212H66.6992V27.145H65.5371V25.8872H65.4551C65.0996 26.6392 64.375 27.2407 63.2539 27.2407C61.8457 27.2407 60.8477 26.3247 60.8477 24.438V19.7212H62.0234V24.356C62.0234 25.4224 62.6934 26.106 63.6367 26.106C64.4707 26.106 65.5371 25.4771 65.5371 24.0962ZM69.7617 22.688V27.145H68.5859V19.7212H69.7207V20.8833H69.8164C70.1719 20.1313 70.8555 19.6255 71.9902 19.6255C73.4941 19.6255 74.4922 20.5415 74.4922 22.4282V27.145H73.3164V22.5103C73.3164 21.3618 72.6875 20.6782 71.6348 20.6782C70.5547 20.6782 69.7617 21.4028 69.7617 22.688ZM79.8926 29.9341V19.7212H81.0273V20.897H81.1641C81.4102 20.5005 81.875 19.6255 83.3105 19.6255C85.1699 19.6255 86.4688 21.1021 86.4688 23.4536C86.4688 25.8052 85.1699 27.2954 83.3242 27.2954C81.9023 27.2954 81.4102 26.4204 81.1641 26.0103H81.0684V29.9341H79.8926ZM81.041 23.4263C81.041 25.0942 81.793 26.2427 83.1602 26.2427C84.5684 26.2427 85.293 25.0122 85.293 23.4263C85.293 21.8813 84.582 20.6782 83.1602 20.6782C81.7656 20.6782 81.041 21.7856 81.041 23.4263ZM87.6445 25.0396C87.6445 23.3306 89.1484 22.9478 90.4336 22.8521C90.9053 22.8179 92.1084 22.7563 92.4434 22.7427V22.1411C92.4434 21.1978 91.8828 20.6509 90.7617 20.6509C89.8184 20.6509 89.2578 21.0884 89.0938 21.6489H87.8633C88.0137 20.4595 89.1758 19.6255 90.8164 19.6255C91.7871 19.6255 93.6055 19.9126 93.6055 22.2505V27.145H92.4434V26.1333H92.3887C92.1426 26.6392 91.459 27.3228 90.1738 27.3228C88.7656 27.3228 87.6445 26.4888 87.6445 25.0396ZM88.8203 25.0942C88.8203 25.8735 89.4766 26.27 90.3789 26.27C91.7051 26.27 92.4434 25.3813 92.4434 24.4517V23.6997L90.5703 23.8364C89.5039 23.9048 88.8203 24.2876 88.8203 25.0942ZM95.9707 29.9341C95.7109 29.9341 95.4648 29.9204 95.3145 29.9067V28.854C95.4375 28.8677 95.7109 28.8813 95.8887 28.8813C96.3672 28.8813 96.7637 28.8403 97.1602 27.7603L97.3789 27.1997L94.6309 19.7212H95.916L97.9395 25.6138H98.0215L100.045 19.7212H101.33L98.1855 28.2114C97.748 29.3735 97.0234 29.9341 95.9707 29.9341Z" fill="white"/>
<defs>
<linearGradient id="paint0_linear_223_14148" x1="-2.35385" y1="52.1304" x2="207.012" y2="52.5923" gradientUnits="userSpaceOnUse">
<stop stop-color="#024083"/>
<stop offset="1" stop-color="#0471E9"/>
</linearGradient>
</defs>
</svg>
