<svg width="100" height="40" viewBox="0 0 100 40" fill="none" xmlns="http://www.w3.org/2000/svg">
<rect width="100" height="40" rx="5" fill="#0241A0"/>
<path d="M32.7954 26.2158H31.6528V13.1641H32.7954V26.2158ZM34.978 19.2871H32.5317V18.3203H34.978V19.2871ZM24.314 21.9824C25.5737 21.9824 26.665 21.9482 27.5879 21.8799C28.5107 21.8115 29.4458 21.6895 30.3931 21.5137L30.5396 22.5098C29.5825 22.6855 28.6401 22.8027 27.7124 22.8613C26.7847 22.9199 25.6519 22.9492 24.314 22.9492H23.2886V21.9824H24.314ZM29.3677 15.3906H24.4312V22.4219H23.2886V14.4385H29.3677V15.3906ZM41.6138 13.457C42.561 13.457 43.3789 13.5547 44.0674 13.75C44.7559 13.9453 45.2856 14.2285 45.6567 14.5996C46.0278 14.9707 46.2134 15.415 46.2134 15.9326C46.2134 16.4404 46.0278 16.875 45.6567 17.2363C45.2856 17.5977 44.7559 17.876 44.0674 18.0713C43.3789 18.2666 42.561 18.3643 41.6138 18.3643C40.6763 18.3643 39.8608 18.2666 39.1675 18.0713C38.4741 17.876 37.9395 17.5977 37.5635 17.2363C37.1875 16.875 36.9995 16.4404 36.9995 15.9326C36.9995 15.415 37.1875 14.9707 37.5635 14.5996C37.9395 14.2285 38.4741 13.9453 39.1675 13.75C39.8608 13.5547 40.6763 13.457 41.6138 13.457ZM41.6138 14.3799C40.9204 14.3799 40.3149 14.4409 39.7974 14.563C39.2798 14.6851 38.8818 14.8633 38.6035 15.0977C38.3252 15.332 38.186 15.6104 38.186 15.9326C38.186 16.2451 38.3228 16.5137 38.5962 16.7383C38.8696 16.9629 39.2651 17.1362 39.7827 17.2583C40.3003 17.3804 40.9106 17.4463 41.6138 17.4561C42.3071 17.4463 42.9126 17.3804 43.4302 17.2583C43.9478 17.1362 44.3457 16.9629 44.624 16.7383C44.9023 16.5137 45.0415 16.2451 45.0415 15.9326C45.0415 15.6104 44.9023 15.332 44.624 15.0977C44.3457 14.8633 43.9478 14.6851 43.4302 14.563C42.9126 14.4409 42.3071 14.3799 41.6138 14.3799ZM46.0962 26.0107H37.1313V21.7334H46.0962V26.0107ZM38.2739 25.0732H44.9683V22.6562H38.2739V25.0732ZM47.5464 20.4443H35.6812V19.4922H47.5464V20.4443ZM62.5903 22.5977H61.4478V13.1641H62.5903V22.5977ZM64.5679 18.0127H62.2241V17.0459H64.5679V18.0127ZM54.0356 19.3164C55.4907 19.3164 56.6406 19.2896 57.4854 19.2358C58.3301 19.1821 59.1724 19.0674 60.0122 18.8916L60.1587 19.8438C59.27 20.0098 58.3813 20.1245 57.4927 20.188C56.604 20.2515 55.4517 20.2832 54.0356 20.2832H53.0249V19.3164H54.0356ZM58.8257 15.2588H54.1675V19.8584H53.0249V14.292H58.8257V15.2588ZM63.1909 25.9082H54.4458V24.9414H63.1909V25.9082ZM55.5737 25.3809H54.4458V21.6455H55.5737V25.3809ZM73.4009 17.749H70.4712V16.7969H73.4009V17.749ZM73.3862 21.0156H70.3687V20.0635H73.3862V21.0156ZM76.521 26.1865H75.4224V13.1641H76.521V26.1865ZM73.8843 25.5273H72.7856V13.5156H73.8843V25.5273ZM70.9839 14.834C70.9839 15.9961 70.813 17.0947 70.4712 18.1299C70.1294 19.165 69.5947 20.127 68.8672 21.0156C68.1396 21.9043 67.2046 22.6904 66.062 23.374L65.3589 22.5391C66.3745 21.9336 67.2168 21.2451 67.8857 20.4736C68.5547 19.7021 69.0527 18.8599 69.3799 17.9468C69.707 17.0337 69.8706 16.0645 69.8706 15.0391V14.834H70.9839ZM70.3247 15.7861H65.9448V14.834H70.3247V15.7861Z" fill="white"/>
</svg>
