<svg width="205" height="40" viewBox="0 0 205 40" fill="none" xmlns="http://www.w3.org/2000/svg">
<rect width="205" height="40" rx="5" fill="#0241A0"/>
<path d="M85.2954 26.2158H84.1528V13.1641H85.2954V26.2158ZM87.478 19.2871H85.0317V18.3203H87.478V19.2871ZM76.814 21.9824C78.0737 21.9824 79.165 21.9482 80.0879 21.8799C81.0107 21.8115 81.9458 21.6895 82.8931 21.5137L83.0396 22.5098C82.0825 22.6855 81.1401 22.8027 80.2124 22.8613C79.2847 22.9199 78.1519 22.9492 76.814 22.9492H75.7886V21.9824H76.814ZM81.8677 15.3906H76.9312V22.4219H75.7886V14.4385H81.8677V15.3906ZM94.1138 13.457C95.061 13.457 95.8789 13.5547 96.5674 13.75C97.2559 13.9453 97.7856 14.2285 98.1567 14.5996C98.5278 14.9707 98.7134 15.415 98.7134 15.9326C98.7134 16.4404 98.5278 16.875 98.1567 17.2363C97.7856 17.5977 97.2559 17.876 96.5674 18.0713C95.8789 18.2666 95.061 18.3643 94.1138 18.3643C93.1763 18.3643 92.3608 18.2666 91.6675 18.0713C90.9741 17.876 90.4395 17.5977 90.0635 17.2363C89.6875 16.875 89.4995 16.4404 89.4995 15.9326C89.4995 15.415 89.6875 14.9707 90.0635 14.5996C90.4395 14.2285 90.9741 13.9453 91.6675 13.75C92.3608 13.5547 93.1763 13.457 94.1138 13.457ZM94.1138 14.3799C93.4204 14.3799 92.8149 14.4409 92.2974 14.563C91.7798 14.6851 91.3818 14.8633 91.1035 15.0977C90.8252 15.332 90.686 15.6104 90.686 15.9326C90.686 16.2451 90.8228 16.5137 91.0962 16.7383C91.3696 16.9629 91.7651 17.1362 92.2827 17.2583C92.8003 17.3804 93.4106 17.4463 94.1138 17.4561C94.8071 17.4463 95.4126 17.3804 95.9302 17.2583C96.4478 17.1362 96.8457 16.9629 97.124 16.7383C97.4023 16.5137 97.5415 16.2451 97.5415 15.9326C97.5415 15.6104 97.4023 15.332 97.124 15.0977C96.8457 14.8633 96.4478 14.6851 95.9302 14.563C95.4126 14.4409 94.8071 14.3799 94.1138 14.3799ZM98.5962 26.0107H89.6313V21.7334H98.5962V26.0107ZM90.7739 25.0732H97.4683V22.6562H90.7739V25.0732ZM100.046 20.4443H88.1812V19.4922H100.046V20.4443ZM115.09 22.5977H113.948V13.1641H115.09V22.5977ZM117.068 18.0127H114.724V17.0459H117.068V18.0127ZM106.536 19.3164C107.991 19.3164 109.141 19.2896 109.985 19.2358C110.83 19.1821 111.672 19.0674 112.512 18.8916L112.659 19.8438C111.77 20.0098 110.881 20.1245 109.993 20.188C109.104 20.2515 107.952 20.2832 106.536 20.2832H105.525V19.3164H106.536ZM111.326 15.2588H106.667V19.8584H105.525V14.292H111.326V15.2588ZM115.691 25.9082H106.946V24.9414H115.691V25.9082ZM108.074 25.3809H106.946V21.6455H108.074V25.3809ZM125.901 17.749H122.971V16.7969H125.901V17.749ZM125.886 21.0156H122.869V20.0635H125.886V21.0156ZM129.021 26.1865H127.922V13.1641H129.021V26.1865ZM126.384 25.5273H125.286V13.5156H126.384V25.5273ZM123.484 14.834C123.484 15.9961 123.313 17.0947 122.971 18.1299C122.629 19.165 122.095 20.127 121.367 21.0156C120.64 21.9043 119.705 22.6904 118.562 23.374L117.859 22.5391C118.875 21.9336 119.717 21.2451 120.386 20.4736C121.055 19.7021 121.553 18.8599 121.88 17.9468C122.207 17.0337 122.371 16.0645 122.371 15.0391V14.834H123.484ZM122.825 15.7861H118.445V14.834H122.825V15.7861Z" fill="white"/>
</svg>
