<svg width="100" height="40" viewBox="0 0 100 40" fill="none" xmlns="http://www.w3.org/2000/svg">
<rect width="100" height="40" rx="5" fill="#0241A0"/>
<path d="M35.3955 19.8291H34.2383V13.1641H35.3955V19.8291ZM31.3525 13.8232C31.3525 14.8975 31.1084 15.8521 30.6201 16.687C30.1318 17.522 29.4336 18.2251 28.5254 18.7964C27.6172 19.3677 26.5186 19.8096 25.2295 20.1221L24.8193 19.1699C25.9521 18.9062 26.9141 18.5449 27.7051 18.0859C28.4961 17.627 29.0942 17.0825 29.4995 16.4526C29.9048 15.8228 30.1074 15.127 30.1074 14.3652V13.8232H31.3525ZM30.6201 14.7754H25.4785V13.8232H30.6201V14.7754ZM34.4287 15.9912H30.8838V15.0684H34.4287V15.9912ZM34.3555 18.4668H30.7666V17.5586H34.3555V18.4668ZM35.3955 23.5938H28.1299V25.7031H26.9873V22.7148H34.2383V21.3525H26.958V20.415H35.3955V23.5938ZM35.835 26.0693H26.9873V25.1172H35.835V26.0693ZM48.6963 26.1865H47.5977V13.1641H48.6963V26.1865ZM45.3271 18.8037H42.7783V17.8662H45.3271V18.8037ZM46.0596 25.5127H44.9756V13.4863H46.0596V25.5127ZM41.1816 16.8848C41.1816 17.8223 41.0571 18.728 40.8081 19.6021C40.5591 20.4761 40.2075 21.2598 39.7534 21.9531C39.2993 22.6465 38.7598 23.1885 38.1348 23.5791L37.4023 22.7148C37.998 22.3633 38.5132 21.8823 38.9478 21.272C39.3823 20.6616 39.7119 19.9756 39.9365 19.2139C40.1611 18.4521 40.2734 17.6758 40.2734 16.8848V15.1855H41.1816V16.8848ZM41.3867 16.8848C41.3867 17.6367 41.4966 18.374 41.7163 19.0967C41.936 19.8193 42.2583 20.4688 42.6831 21.0449C43.1079 21.6211 43.6133 22.0801 44.1992 22.4219L43.4961 23.2715C42.8711 22.8906 42.3364 22.373 41.8921 21.7188C41.4478 21.0645 41.1084 20.3198 40.874 19.4849C40.6396 18.6499 40.5225 17.7832 40.5225 16.8848V15.1855H41.3867V16.8848ZM43.7744 15.6543H37.7686V14.7021H43.7744V15.6543ZM60.6055 26.1865H59.4629V13.1641H60.6055V26.1865ZM62.7881 19.4922H60.3418V18.54H62.7881V19.4922ZM58.2031 16.2109H50.4541V15.2588H58.2031V16.2109ZM54.3945 17.2949C55.0098 17.2949 55.5591 17.4219 56.0425 17.6758C56.5259 17.9297 56.9043 18.2837 57.1777 18.7378C57.4512 19.1919 57.5879 19.707 57.5879 20.2832C57.5879 20.8594 57.4512 21.3745 57.1777 21.8286C56.9043 22.2827 56.5259 22.6367 56.0425 22.8906C55.5591 23.1445 55.0098 23.2715 54.3945 23.2715C53.7793 23.2715 53.23 23.1445 52.7466 22.8906C52.2632 22.6367 51.8848 22.2827 51.6113 21.8286C51.3379 21.3745 51.2012 20.8594 51.2012 20.2832C51.2012 19.707 51.3379 19.1919 51.6113 18.7378C51.8848 18.2837 52.2632 17.9297 52.7466 17.6758C53.23 17.4219 53.7793 17.2949 54.3945 17.2949ZM54.3945 18.2617C53.9941 18.2617 53.6353 18.3472 53.3179 18.5181C53.0005 18.689 52.7515 18.9282 52.5708 19.2358C52.3901 19.5435 52.2998 19.8926 52.2998 20.2832C52.2998 20.6738 52.3901 21.0205 52.5708 21.3232C52.7515 21.626 53.0005 21.8628 53.3179 22.0337C53.6353 22.2046 53.9941 22.29 54.3945 22.29C54.7949 22.29 55.1538 22.2046 55.4712 22.0337C55.7886 21.8628 56.0376 21.626 56.2183 21.3232C56.3989 21.0205 56.4893 20.6738 56.4893 20.2832C56.4893 19.8926 56.3989 19.5435 56.2183 19.2358C56.0376 18.9282 55.7886 18.689 55.4712 18.5181C55.1538 18.3472 54.7949 18.2617 54.3945 18.2617ZM54.9512 15.6982H53.8086V13.3252H54.9512V15.6982ZM74.2578 26.1865H73.1006V13.1641H74.2578V26.1865ZM70.4053 14.585C70.4053 15.874 70.1929 17.0801 69.7681 18.2031C69.3433 19.3262 68.6768 20.3589 67.7686 21.3013C66.8604 22.2437 65.6982 23.0566 64.2822 23.7402L63.6523 22.8027C64.9121 22.207 65.957 21.5063 66.7871 20.7007C67.6172 19.895 68.2373 18.9941 68.6475 17.998C69.0576 17.002 69.2627 15.9229 69.2627 14.7607V14.585H70.4053ZM69.7314 15.5225H64.2529V14.585H69.7314V15.5225Z" fill="white"/>
</svg>
