<svg width="50" height="50" viewBox="0 0 50 50" fill="none" xmlns="http://www.w3.org/2000/svg">
<rect width="50" height="50" fill="#BDBDBD"/>
<path d="M28.7494 22.4999C28.7494 22.8314 28.6177 23.1493 28.3833 23.3838C28.1488 23.6182 27.8309 23.7499 27.4994 23.7499H17.4994C17.1679 23.7499 16.8499 23.6182 16.6155 23.3838C16.3811 23.1493 16.2494 22.8314 16.2494 22.4999C16.2494 22.1683 16.3811 21.8504 16.6155 21.616C16.8499 21.3816 17.1679 21.2499 17.4994 21.2499H27.4994C27.8309 21.2499 28.1488 21.3816 28.3833 21.616C28.6177 21.8504 28.7494 22.1683 28.7494 22.4999ZM40.8838 40.8842C40.7677 41.0005 40.6298 41.0927 40.4781 41.1556C40.3263 41.2185 40.1637 41.2509 39.9994 41.2509C39.8351 41.2509 39.6725 41.2185 39.5207 41.1556C39.369 41.0927 39.2311 41.0005 39.115 40.8842L31.2931 33.0608C28.5708 35.3284 25.0791 36.4591 21.5443 36.2177C18.0095 35.9764 14.7038 34.3816 12.315 31.7651C9.92608 29.1486 8.6379 25.7118 8.7184 22.1697C8.7989 18.6276 10.2419 15.2529 12.7472 12.7477C15.2524 10.2424 18.6271 8.79939 22.1692 8.71889C25.7113 8.63839 29.1481 9.92657 31.7646 12.3154C34.3811 14.7043 35.9759 18.01 36.2172 21.5448C36.4586 25.0795 35.3279 28.5713 33.0603 31.2936L40.8838 39.1155C41 39.2316 41.0922 39.3694 41.1551 39.5212C41.218 39.6729 41.2504 39.8356 41.2504 39.9999C41.2504 40.1641 41.218 40.3268 41.1551 40.4785C41.0922 40.6303 41 40.7682 40.8838 40.8842ZM22.4994 33.7499C24.7244 33.7499 26.8995 33.0901 28.7495 31.8539C30.5996 30.6177 32.0415 28.8607 32.893 26.8051C33.7445 24.7494 33.9673 22.4874 33.5332 20.3051C33.0991 18.1228 32.0277 16.1183 30.4543 14.5449C28.881 12.9716 26.8764 11.9001 24.6941 11.466C22.5119 11.032 20.2499 11.2547 18.1942 12.1062C16.1385 12.9577 14.3815 14.3996 13.1453 16.2497C11.9092 18.0998 11.2494 20.2748 11.2494 22.4999C11.2527 25.4825 12.439 28.3421 14.5481 30.4512C16.6572 32.5602 19.5167 33.7466 22.4994 33.7499Z" fill="white"/>
</svg>
