<svg width="77" height="25" viewBox="0 0 77 25" fill="none" xmlns="http://www.w3.org/2000/svg">
<rect width="77" height="25" rx="5" fill="#0241A0"/>
<path d="M18.4297 9.38477C18.4297 11.3809 19.4004 13.4453 21.0137 14.3203L20.3711 15.168C19.1953 14.4912 18.3545 13.2539 17.9238 11.791C17.4658 13.3838 16.5635 14.7441 15.3535 15.4688L14.6562 14.6758C16.3516 13.7051 17.3906 11.5312 17.3906 9.45312V7.10156H18.4297V9.38477ZM25.2109 5.95312V18.1074H24.1719V11.7363H22.5039V17.4922H21.4648V6.21289H22.5039V10.8477H24.1719V5.95312H25.2109ZM38.0215 15.7012V16.6035H26.8926V15.7012H31.8965V13.4043H28.2871V9.6582H35.5605V7.74414H28.2598V6.85547H36.6133V10.5332H29.3535V12.5156H36.9004V13.4043H32.9492V15.7012H38.0215ZM48.7402 7.18359V8.40039C48.7266 9.89062 48.7266 11.5586 48.2891 14.0059L47.1953 13.8828C47.6602 11.5586 47.6602 9.84961 47.6602 8.40039V8.07227H40.168V7.18359H48.7402ZM50.0664 15.4961V16.3848H38.9922V15.4961H43.3398V11.1484H44.3926V15.4961H50.0664ZM55.5078 8.42773C55.5078 9.97266 56.834 11.3398 58.6523 11.8594L58.1465 12.707C56.7109 12.2764 55.5557 11.3398 55.002 10.123C54.4551 11.4561 53.3066 12.4883 51.8574 12.9668L51.3379 12.1328C53.1426 11.5449 54.4414 10.082 54.4414 8.42773V8.26367H51.6387V7.40234H54.4414V5.89844H55.5215V7.40234H58.2969V8.26367H55.5078V8.42773ZM61.127 5.9668V13.1719H60.0605V5.9668H61.127ZM61.127 13.7871V17.9434H53.2246V13.7871H61.127ZM54.2773 14.6621V17.0684H60.0742V14.6621H54.2773Z" fill="white"/>
</svg>
