<svg width="59" height="19" viewBox="0 0 59 19" fill="none" xmlns="http://www.w3.org/2000/svg">
<rect width="59" height="19" rx="5" fill="#0241A0"/>
<path d="M24.478 11.7539V12.8711H15.5298V11.7539H19.311V9.8418H20.6753V11.7539H24.478ZM23.6938 5.55566V6.65137H20.7075C20.8203 7.73633 21.9268 8.8374 24.1558 9.11133L23.6616 10.1748C21.9106 9.95459 20.6484 9.22949 19.9985 8.21973C19.3379 9.22949 18.0864 9.95459 16.3354 10.1748L15.8306 9.11133C18.0596 8.8374 19.166 7.73633 19.2896 6.65137H16.3032V5.55566H19.311V4.33105H20.6753V5.55566H23.6938ZM33.2544 4.21289V13.9883H31.8687V4.21289H33.2544ZM30.3218 5.2334C30.3218 8.19824 29.2798 10.6582 25.7886 12.3125L25.0688 11.2168C27.5933 10.0244 28.7051 8.47754 28.9253 6.30762H25.5952V5.2334H30.3218ZM42.3638 4.21289V8.1875H43.6421V9.32617H42.3638V13.9883H40.978V4.21289H42.3638ZM34.4253 11.2275C35.1396 11.2275 35.9722 11.2275 36.8423 11.2061V10.3682C35.8003 10.1641 35.1235 9.50342 35.1343 8.5957C35.1235 7.5 36.1118 6.75879 37.5405 6.75879C38.937 6.75879 39.936 7.5 39.9468 8.5957C39.936 9.50342 39.2485 10.1694 38.2173 10.3682V11.1523C38.9907 11.1147 39.7695 11.0503 40.4946 10.9482L40.5806 11.9473C38.4966 12.334 36.2622 12.3447 34.6079 12.3447L34.4253 11.2275ZM40.4194 5.29785V6.37207H34.6187V5.29785H36.8423V4.2666H38.2173V5.29785H40.4194ZM37.5405 7.80078C36.8745 7.80078 36.4233 8.09082 36.4341 8.5957C36.4233 9.11133 36.8745 9.39062 37.5405 9.39062C38.1851 9.39062 38.6255 9.11133 38.6255 8.5957C38.6255 8.09082 38.1851 7.80078 37.5405 7.80078Z" fill="white"/>
</svg>
