<svg width="26" height="26" viewBox="0 0 26 26" fill="none" xmlns="http://www.w3.org/2000/svg">
<mask id="path-1-inside-1_1095_616" fill="white">
<path d="M0 12.6501C0 10.4504 0 9.35058 0.509714 8.38382C1.01943 7.41707 1.97668 6.70131 3.89118 5.2698L5.74832 3.88117C9.20877 1.29372 10.939 0 13 0C15.061 0 16.7912 1.29372 20.2517 3.88117L22.1088 5.2698C24.0233 6.70131 24.9806 7.41707 25.4903 8.38382C26 9.35058 26 10.4504 26 12.6501V19.5198C26 22.5746 26 24.102 24.9121 25.051C23.8242 26 22.0733 26 18.5714 26H7.42857C3.92671 26 2.17578 26 1.08789 25.051C0 24.102 0 22.5746 0 19.5198V12.6501Z"/>
</mask>
<path d="M16.6429 26C16.6429 26.5523 17.0906 27 17.6429 27C18.1951 27 18.6429 26.5523 18.6429 26H16.6429ZM7.35714 26C7.35714 26.5523 7.80486 27 8.35714 27C8.90943 27 9.35714 26.5523 9.35714 26H7.35714ZM10.2143 16.2796V17.2796H15.7857V16.2796V15.2796H10.2143V16.2796ZM17.6429 17.8997H16.6429V26H17.6429H18.6429V17.8997H17.6429ZM8.35714 17.8997H7.35714V26H8.35714H9.35714V17.8997H8.35714ZM15.7857 16.2796V17.2796C16.3917 17.2796 16.6429 17.6811 16.6429 17.8997H17.6429H18.6429C18.6429 16.3288 17.231 15.2796 15.7857 15.2796V16.2796ZM10.2143 16.2796V15.2796C8.76896 15.2796 7.35714 16.3288 7.35714 17.8997H8.35714H9.35714C9.35714 17.6811 9.60826 17.2796 10.2143 17.2796V16.2796ZM5.74832 3.88117L6.94599 5.48292H6.94599L5.74832 3.88117ZM20.2517 3.88117L19.054 5.48292V5.48292L20.2517 3.88117ZM22.1088 5.2698L23.3065 3.66805L23.3065 3.66805L22.1088 5.2698ZM3.89118 5.2698L2.69352 3.66805L2.69352 3.66805L3.89118 5.2698ZM26 12.6501H24V19.5198H26H28V12.6501H26ZM18.5714 26V24H7.42857V26V28H18.5714V26ZM0 19.5198H2V12.6501H0H-2V19.5198H0ZM3.89118 5.2698L5.08884 6.87155L6.94599 5.48292L5.74832 3.88117L4.55066 2.27942L2.69352 3.66805L3.89118 5.2698ZM20.2517 3.88117L19.054 5.48292L20.9112 6.87155L22.1088 5.2698L23.3065 3.66805L21.4493 2.27942L20.2517 3.88117ZM5.74832 3.88117L6.94599 5.48292C8.71477 4.16037 9.90237 3.27652 10.8974 2.70325C11.8413 2.1594 12.4404 2 13 2V0V-2C11.4986 -2 10.2021 -1.51254 8.90052 -0.762659C7.65006 -0.042212 6.24233 1.01453 4.55066 2.27942L5.74832 3.88117ZM20.2517 3.88117L21.4493 2.27942C19.7577 1.01453 18.3499 -0.0422124 17.0995 -0.76266C15.7979 -1.51254 14.5014 -2 13 -2V0V2C13.5596 2 14.1587 2.1594 15.1026 2.70325C16.0976 3.27652 17.2852 4.16037 19.054 5.48292L20.2517 3.88117ZM7.42857 26V24C5.62816 24 4.45364 23.9968 3.58596 23.895C2.75096 23.7971 2.5081 23.6359 2.40263 23.5439L1.08789 25.051L-0.226849 26.5581C0.755569 27.4151 1.93212 27.7284 3.12002 27.8678C4.27524 28.0032 5.72712 28 7.42857 28V26ZM0 19.5198H-2C-2 20.9826 -2.00555 22.3099 -1.84068 23.3797C-1.66214 24.5381 -1.24859 25.6668 -0.226849 26.5581L1.08789 25.051L2.40263 23.5439C2.33648 23.4861 2.20608 23.3766 2.11265 22.7704C2.00555 22.0755 2 21.1117 2 19.5198H0ZM26 19.5198H24C24 21.1117 23.9944 22.0755 23.8874 22.7704C23.7939 23.3766 23.6635 23.4861 23.5974 23.5439L24.9121 25.051L26.2268 26.5581C27.2486 25.6668 27.6621 24.5381 27.8407 23.3797C28.0055 22.3099 28 20.9826 28 19.5198H26ZM18.5714 26V28C20.2729 28 21.7248 28.0032 22.88 27.8678C24.0679 27.7284 25.2444 27.4151 26.2268 26.5581L24.9121 25.051L23.5974 23.5439C23.4919 23.6359 23.249 23.7971 22.414 23.895C21.5464 23.9968 20.3718 24 18.5714 24V26ZM26 12.6501H28C28 10.6513 28.053 8.95624 27.2594 7.45105L25.4903 8.38382L23.7211 9.3166C23.947 9.74492 24 10.2495 24 12.6501H26ZM22.1088 5.2698L20.9112 6.87155C21.8941 7.60655 22.5355 8.08798 23.0028 8.50051C23.4472 8.89279 23.6217 9.12801 23.7211 9.3166L25.4903 8.38382L27.2594 7.45105C26.8492 6.67288 26.2901 6.06684 25.6499 5.50168C25.0326 4.95677 24.238 4.36456 23.3065 3.66805L22.1088 5.2698ZM0 12.6501H2C2 10.2495 2.05305 9.74492 2.27887 9.3166L0.509714 8.38382L-1.25945 7.45105C-2.05305 8.95624 -2 10.6513 -2 12.6501H0ZM3.89118 5.2698L2.69352 3.66805C1.76201 4.36456 0.967441 4.95677 0.350117 5.50168C-0.29015 6.06684 -0.849162 6.67288 -1.25945 7.45105L0.509714 8.38382L2.27887 9.3166C2.3783 9.12802 2.55277 8.8928 2.99719 8.50051C3.46454 8.08798 4.10585 7.60655 5.08884 6.87155L3.89118 5.2698Z" fill="black" mask="url(#path-1-inside-1_1095_616)"/>
</svg>
