<svg width="12" height="13" viewBox="0 0 12 13" fill="none" xmlns="http://www.w3.org/2000/svg">
<path d="M10.4997 2.99995L1.49971 2.99995C1.40859 3.00023 1.31927 3.02536 1.24137 3.07264C1.16348 3.11991 1.09994 3.18753 1.05762 3.26822C1.01529 3.34892 0.99577 3.43963 1.00116 3.53059C1.00655 3.62155 1.03665 3.70932 1.08821 3.78445L5.58821 10.2844C5.77471 10.5539 6.22371 10.5539 6.41071 10.2844L10.9107 3.78445C10.9628 3.70948 10.9933 3.62166 10.999 3.53055C11.0047 3.43944 10.9853 3.34851 10.943 3.26764C10.9006 3.18678 10.8369 3.11907 10.7587 3.07188C10.6806 3.02468 10.591 2.9998 10.4997 2.99995Z" fill="black"/>
</svg>
