<svg width="10" height="8" viewBox="0 0 10 8" fill="none" xmlns="http://www.w3.org/2000/svg">
<path d="M9.49971 0.500192L0.499713 0.500192C0.408592 0.500477 0.319275 0.525609 0.241375 0.572881C0.163475 0.620152 0.0999422 0.687774 0.0576153 0.768468C0.0152884 0.849162 -0.00422955 0.939872 0.00116158 1.03083C0.0065527 1.12179 0.0366497 1.20956 0.088213 1.28469L4.58821 7.78469C4.77471 8.05419 5.22371 8.05419 5.41071 7.78469L9.91071 1.28469C9.9628 1.20972 9.99335 1.12191 9.99903 1.03079C10.0047 0.939681 9.98532 0.848752 9.94296 0.767888C9.90059 0.687024 9.83688 0.619315 9.75873 0.57212C9.68059 0.524925 9.591 0.500048 9.49971 0.500192Z" fill="#0241A0"/>
</svg>
