<svg width="24" height="24" viewBox="0 0 24 24" fill="none" xmlns="http://www.w3.org/2000/svg">
<path d="M12 3C10.22 3 8.47991 3.52784 6.99987 4.51677C5.51983 5.50571 4.36628 6.91131 3.68509 8.55585C3.0039 10.2004 2.82567 12.01 3.17294 13.7558C3.5202 15.5016 4.37737 17.1053 5.63604 18.364C6.89471 19.6226 8.49836 20.4798 10.2442 20.8271C11.99 21.1743 13.7996 20.9961 15.4442 20.3149C17.0887 19.6337 18.4943 18.4802 19.4832 17.0001C20.4722 15.5201 21 13.78 21 12C20.9974 9.61384 20.0484 7.32616 18.3611 5.63889C16.6738 3.95162 14.3862 3.00258 12 3ZM12 19.5C10.5166 19.5 9.06659 19.0601 7.83323 18.236C6.59986 17.4119 5.63856 16.2406 5.07091 14.8701C4.50325 13.4997 4.35473 11.9917 4.64411 10.5368C4.9335 9.08196 5.64781 7.74559 6.6967 6.6967C7.7456 5.6478 9.08197 4.9335 10.5368 4.64411C11.9917 4.35472 13.4997 4.50325 14.8701 5.0709C16.2406 5.63856 17.4119 6.59985 18.236 7.83322C19.0601 9.06659 19.5 10.5166 19.5 12C19.4978 13.9885 18.7069 15.8948 17.3009 17.3009C15.8948 18.7069 13.9885 19.4978 12 19.5Z" fill="#707070"/>
<path d="M12.5377 6.79712C12.1052 6.71832 11.6607 6.73554 11.2356 6.84755C10.8105 6.95957 10.4152 7.16365 10.0777 7.44535C9.74016 7.72705 9.46868 8.07949 9.28246 8.47772C9.09623 8.87595 8.9998 9.31025 9 9.74987C9 9.94878 9.07902 10.1395 9.21967 10.2802C9.36032 10.4209 9.55109 10.4999 9.75 10.4999C9.94891 10.4999 10.1397 10.4209 10.2803 10.2802C10.421 10.1395 10.5 9.94878 10.5 9.74987C10.4998 9.5292 10.5483 9.31121 10.642 9.11144C10.7358 8.91167 10.8724 8.73504 11.0423 8.59414C11.2121 8.45325 11.4109 8.35156 11.6246 8.29633C11.8382 8.2411 12.0614 8.23369 12.2782 8.27462C12.5745 8.33214 12.8469 8.47666 13.0607 8.68974C13.2744 8.90282 13.4198 9.17477 13.4782 9.47087C13.5373 9.78167 13.4965 10.1032 13.3618 10.3894C13.2271 10.6757 13.0053 10.912 12.7282 11.0646C12.2694 11.3305 11.8902 11.7145 11.6302 12.1767C11.3702 12.6389 11.2389 13.1624 11.25 13.6926V14.2499C11.25 14.4488 11.329 14.6395 11.4697 14.7802C11.6103 14.9209 11.8011 14.9999 12 14.9999C12.1989 14.9999 12.3897 14.9209 12.5303 14.7802C12.671 14.6395 12.75 14.4488 12.75 14.2499V13.6926C12.7406 13.4316 12.8001 13.1728 12.9225 12.9421C13.045 12.7114 13.226 12.5171 13.4475 12.3786C13.9909 12.0802 14.4285 11.6207 14.7 11.0634C14.9716 10.5061 15.0639 9.87839 14.9642 9.26652C14.8645 8.65464 14.5776 8.08869 14.1431 7.64649C13.7086 7.2043 13.1478 6.90757 12.5377 6.79712Z" fill="#707070"/>
<path d="M12.75 16.5C12.75 16.0858 12.4142 15.75 12 15.75C11.5858 15.75 11.25 16.0858 11.25 16.5C11.25 16.9142 11.5858 17.25 12 17.25C12.4142 17.25 12.75 16.9142 12.75 16.5Z" fill="#707070"/>
</svg>
