<svg width="17" height="19" viewBox="0 0 17 19" fill="none" xmlns="http://www.w3.org/2000/svg">
<path fill-rule="evenodd" clip-rule="evenodd" d="M2.02643 1.843C2.12565 1.74941 2.25647 1.6966 2.39286 1.69507H11.8929C12.0326 1.69507 12.1643 1.74936 12.2593 1.843C12.3039 1.88675 12.3395 1.93888 12.3639 1.99641C12.3884 2.05393 12.4013 2.11571 12.4018 2.17821V3.48379C12.4018 3.70875 12.4912 3.92449 12.6502 4.08356C12.8093 4.24264 13.025 4.332 13.25 4.332C13.475 4.332 13.6907 4.24264 13.8498 4.08356C14.0089 3.92449 14.0982 3.70875 14.0982 3.48379V2.17821C14.0982 1.59464 13.8621 1.03821 13.4468 0.631072C13.0309 0.226136 12.4733 -0.000316542 11.8929 3.32103e-07H2.39286C1.81336 3.32103e-07 1.25286 0.226643 0.838929 0.632429C0.425 1.03821 0.1875 1.596 0.1875 2.17957V16.8231C0.1875 17.4067 0.423643 17.9618 0.838929 18.3703C1.25421 18.7761 1.81336 19.0014 2.39286 19.0014H11.8929C12.4724 19.0014 13.0329 18.7761 13.4468 18.3689C13.8607 17.9618 14.0982 17.4054 14.0982 16.8218V15.5176C14.0982 15.2926 14.0089 15.0769 13.8498 14.9178C13.6907 14.7587 13.475 14.6694 13.25 14.6694C13.025 14.6694 12.8093 14.7587 12.6502 14.9178C12.4912 15.0769 12.4018 15.2926 12.4018 15.5176V16.8231C12.4018 16.9453 12.3516 17.0674 12.2579 17.1584C12.1588 17.2511 12.0286 17.3034 11.8929 17.3049H2.39286C2.25307 17.3049 2.12143 17.2506 2.02643 17.1584C1.98179 17.1146 1.94622 17.0625 1.92177 17.005C1.89732 16.9474 1.88446 16.8856 1.88393 16.8231V2.17821C1.88393 2.05607 1.93279 1.93393 2.02643 1.843ZM12.9256 6.00264C12.7715 6.06772 12.6398 6.1766 12.5469 6.31579C12.454 6.45499 12.4041 6.61838 12.4031 6.78572V8.65179H6.46429C6.23933 8.65179 6.02358 8.74115 5.86451 8.90022C5.70544 9.05929 5.61607 9.27504 5.61607 9.5C5.61607 9.72496 5.70544 9.94071 5.86451 10.0998C6.02358 10.2589 6.23933 10.3482 6.46429 10.3482H12.4018V12.2143C12.4018 12.3821 12.4515 12.5461 12.5447 12.6856C12.6379 12.8251 12.7704 12.9339 12.9254 12.9981C13.0804 13.0623 13.251 13.0791 13.4155 13.0464C13.5801 13.0136 13.7312 12.9328 13.8499 12.8141L16.5641 10.0999C16.6429 10.0211 16.7054 9.92758 16.7481 9.82465C16.7907 9.72173 16.8127 9.61141 16.8127 9.5C16.8127 9.38859 16.7907 9.27828 16.7481 9.17535C16.7054 9.07243 16.6429 8.97891 16.5641 8.90014L13.8499 6.18586C13.7312 6.06738 13.58 5.98673 13.4155 5.95412C13.251 5.92151 13.0806 5.9384 12.9256 6.00264Z" fill="black"/>
</svg>
