<svg width="18" height="5" viewBox="0 0 18 5" fill="none" xmlns="http://www.w3.org/2000/svg">
<path fill-rule="evenodd" clip-rule="evenodd" d="M3.75 2.5C3.75 2.72981 3.70474 2.95738 3.61679 3.1697C3.52884 3.38202 3.39994 3.57493 3.23744 3.73744C3.07493 3.89994 2.88202 4.02884 2.6697 4.11679C2.45738 4.20473 2.22981 4.25 2 4.25C1.77019 4.25 1.54262 4.20473 1.3303 4.11679C1.11798 4.02884 0.925066 3.89994 0.762563 3.73744C0.600061 3.57493 0.471157 3.38202 0.383211 3.1697C0.295265 2.95738 0.25 2.72981 0.25 2.5C0.25 2.03587 0.434375 1.59075 0.762563 1.26256C1.09075 0.934374 1.53587 0.75 2 0.75C2.46413 0.75 2.90925 0.934374 3.23744 1.26256C3.56563 1.59075 3.75 2.03587 3.75 2.5ZM9 0.75C9.46413 0.75 9.90925 0.934374 10.2374 1.26256C10.5656 1.59075 10.75 2.03587 10.75 2.5C10.75 2.96413 10.5656 3.40925 10.2374 3.73744C9.90925 4.06563 9.46413 4.25 9 4.25C8.53587 4.25 8.09075 4.06563 7.76256 3.73744C7.43437 3.40925 7.25 2.96413 7.25 2.5C7.25 2.03587 7.43437 1.59075 7.76256 1.26256C8.09075 0.934374 8.53587 0.75 9 0.75ZM16 0.75C16.4641 0.75 16.9092 0.934374 17.2374 1.26256C17.5656 1.59075 17.75 2.03587 17.75 2.5C17.75 2.96413 17.5656 3.40925 17.2374 3.73744C16.9092 4.06563 16.4641 4.25 16 4.25C15.5359 4.25 15.0908 4.06563 14.7626 3.73744C14.4344 3.40925 14.25 2.96413 14.25 2.5C14.25 2.03587 14.4344 1.59075 14.7626 1.26256C15.0908 0.934374 15.5359 0.75 16 0.75Z" fill="#707070"/>
</svg>
