<svg width="24" height="24" viewBox="0 0 24 24" fill="none" xmlns="http://www.w3.org/2000/svg">
<path d="M12 3C10.22 3 8.47991 3.52784 6.99987 4.51677C5.51983 5.50571 4.36628 6.91131 3.68509 8.55585C3.0039 10.2004 2.82567 12.01 3.17294 13.7558C3.5202 15.5016 4.37737 17.1053 5.63604 18.364C6.89471 19.6226 8.49836 20.4798 10.2442 20.8271C11.99 21.1743 13.7996 20.9961 15.4442 20.3149C17.0887 19.6337 18.4943 18.4802 19.4832 17.0001C20.4722 15.5201 21 13.78 21 12C20.9974 9.61384 20.0484 7.32616 18.3611 5.63889C16.6738 3.95162 14.3862 3.00258 12 3ZM12 19.5C10.5166 19.5 9.06659 19.0601 7.83323 18.236C6.59986 17.4119 5.63856 16.2406 5.07091 14.8701C4.50325 13.4997 4.35473 11.9917 4.64411 10.5368C4.9335 9.08196 5.64781 7.74559 6.6967 6.6967C7.7456 5.6478 9.08197 4.9335 10.5368 4.64411C11.9917 4.35472 13.4997 4.50325 14.8701 5.0709C16.2406 5.63856 17.4119 6.59985 18.236 7.83322C19.0601 9.06659 19.5 10.5166 19.5 12C19.4978 13.9885 18.7069 15.8948 17.3009 17.3009C15.8948 18.7069 13.9885 19.4978 12 19.5Z" fill="#707070"/>
<path d="M9.23926 7.10156H12.7666C13.514 7.10156 14.1452 7.24056 14.6602 7.51855C15.1751 7.79199 15.5602 8.17025 15.8154 8.65332C16.0752 9.13184 16.2051 9.68555 16.2051 10.3145C16.2051 10.9342 16.0752 11.4857 15.8154 11.9688C15.5557 12.4518 15.1683 12.8324 14.6533 13.1104C14.1383 13.3883 13.5072 13.5273 12.7598 13.5273H10.3262V12.249H12.6162C13.0902 12.249 13.4821 12.167 13.792 12.0029C14.1019 11.8343 14.3275 11.6064 14.4688 11.3193C14.6146 11.0277 14.6875 10.6927 14.6875 10.3145C14.6875 9.92708 14.6146 9.58984 14.4688 9.30273C14.3275 9.01562 14.0996 8.79232 13.7852 8.63281C13.4753 8.47331 13.0833 8.39355 12.6094 8.39355H10.7432V17H9.23926V7.10156Z" fill="#707070"/>
</svg>
