<svg width="40" height="40" viewBox="0 0 40 40" fill="none" xmlns="http://www.w3.org/2000/svg">
<rect width="40" height="40" fill="#0241A0"/>
<path d="M22.5003 13.3837C20.0152 10.8986 15.9851 10.8986 13.5001 13.3837C11.0151 15.8687 11.0151 19.8988 13.5001 22.3839C15.7015 24.5853 19.1158 24.8338 21.5927 23.1348L24.6909 26.6004C25.2176 27.1919 26.1333 27.2162 26.6925 26.6571L26.7735 26.5761C27.3326 26.0169 27.3083 25.1012 26.7168 24.5745L23.2512 21.4763C24.9529 18.9967 24.7017 15.5851 22.5003 13.3837ZM20.9552 20.8388C19.3238 22.4703 16.6766 22.4703 15.0452 20.8388C13.4137 19.2073 13.4137 16.5602 15.0452 14.9287C16.6766 13.2973 19.3238 13.2973 20.9552 14.9287C22.5894 16.5629 22.5867 19.2073 20.9552 20.8388Z" fill="#FEFDFE"/>
</svg>
