<?xml version="1.0" ?><svg xmlns="http://www.w3.org/2000/svg" width="2745" height="2777" viewBox="0 0 2745 2777" fill="none">
<path d="M1482.32 2279.13C1421.52 2339.41 1323.49 2339.41 1262.68 2279.13L453.019 1476.54C354.081 1378.47 423.532 1209.75 562.843 1209.75L2182.16 1209.75C2321.47 1209.75 2390.92 1378.47 2291.98 1476.54L1482.32 2279.13Z" fill="#9CD834"/>
<path d="M2337 1345.5C2337 1080.68 2235.33 826.709 2054.36 639.454C1873.39 452.199 1627.93 347 1372 347C1116.07 347 870.615 452.199 689.642 639.454C508.669 826.709 407 1080.68 407 1345.5L1372 1345.5H2337Z" fill="#9CD834"/>
<rect class="region" x="1524" y="2345.5" width="300" height="350.621" transform="rotate(-44.3314 1524 2345.5)" fill="#FEA82F"/>
<rect class="region" x="1752.9" y="2121.88" width="300" height="350.621" transform="rotate(-44.3314 1752.9 2121.88)" fill="#00C8FF"/>
<rect class="region" x="1981.8" y="1898.26" width="300" height="350.621" transform="rotate(-44.3314 1981.8 1898.26)" fill="#FF8484"/>
<rect class="region" x="2210.7" y="1674.64" width="300" height="350.621" transform="rotate(-44.3314 2210.7 1674.64)" fill="#B748E7"/>
<rect class="region" width="300" height="350.621" transform="matrix(-0.71531 -0.698807 -0.698807 0.71531 1209.31 2345.5)" fill="#FEA82F"/>
<rect class="region" width="300" height="350.621" transform="matrix(-0.71531 -0.698807 -0.698807 0.71531 980.408 2121.88)" fill="#00C8FF"/>
<rect class="region" width="300" height="350.621" transform="matrix(-0.71531 -0.698807 -0.698807 0.71531 751.509 1898.26)" fill="#FF8484"/>
<rect class="region" width="300" height="350.621" transform="matrix(-0.71531 -0.698807 -0.698807 0.71531 522.61 1674.64)" fill="#B748E7"/>
<rect class="region" x="1250" y="2362" width="244" height="144" fill="#FFCE08"/>
<rect x="1209" y="307" width="225" height="304" transform="rotate(-90 1209 307)" fill="#4A4A4A"/>
<rect class="region" x="1139" y="2524" width="464" height="144" fill="#5568FC"/>
<path class="region" d="M2670 1386C2670 1059.17 2563.29 742.853 2368.73 492.918C2174.16 242.983 1904.25 75.5105 1606.68 20.0794L1561 307.327C1796 351.101 2009.15 483.355 2162.8 680.73C2316.45 878.104 2400.72 1127.9 2400.72 1386H2670Z" fill="#0DB310"/>
<path class="region" d="M52 1391C52 1064.17 158.706 747.853 353.273 497.918C547.839 247.983 817.747 80.5105 1115.32 25.0794L1161 312.327C925.997 356.101 712.85 488.355 559.2 685.73C405.551 883.104 321.284 1132.9 321.284 1391H52Z" fill="#0DB310"/>
<mask id="path-16-inside-1_106_1203" fill="white">
<path d="M198.581 1061.69L1178.19 82.0784L2347.72 1251.6L1368.11 2231.21L198.581 1061.69Z"/>
</mask>
<path d="M2347.72 1251.6L2342.06 1245.95L1362.45 2225.56L1368.11 2231.21L1373.76 2236.87L2353.37 1257.26L2347.72 1251.6Z" fill="white" mask="url(#path-16-inside-1_106_1203)"/>
<mask id="path-18-inside-2_106_1203" fill="white">
<path d="M393.789 1256.9L1100.9 549.79L2075.21 1524.11L1368.11 2231.21L393.789 1256.9Z"/>
</mask>
<path d="M1368.11 2231.21L1373.76 2225.56L399.446 1251.24L393.789 1256.9L388.132 1262.55L1362.45 2236.87L1368.11 2231.21Z" fill="white" mask="url(#path-18-inside-2_106_1203)"/>
<path d="M1368.11 2231.21L1373.76 2225.56L399.446 1251.24L393.789 1256.9L388.132 1262.55L1362.45 2236.87L1368.11 2231.21Z" fill="white" mask="url(#path-18-inside-2_106_1203)"/>
<rect x="740.95" y="1594.4" width="893" height="893" transform="rotate(-45 740.95 1594.4)" stroke="white" stroke-width="7"/>
</svg>